{"asset":{"version":"2.0","generator":"THREE.GLTFExporter"},"scenes":[{"nodes":[0],"name":"AuxScene"}],"scene":0,"nodes":[{"mesh":0}],"bufferViews":[{"buffer":0,"byteOffset":0,"byteLength":1120032,"target":34962,"byteStride":12},{"buffer":0,"byteOffset":1120032,"byteLength":1120032,"target":34962,"byteStride":12},{"buffer":0,"byteOffset":2240064,"byteLength":7728,"target":34963},{"buffer":0,"byteOffset":2247792,"byteLength":7800,"target":34963},{"buffer":0,"byteOffset":2255592,"byteLength":4128,"target":34963},{"buffer":0,"byteOffset":2259720,"byteLength":3864,"target":34963},{"buffer":0,"byteOffset":2263584,"byteLength":78096,"target":34963},{"buffer":0,"byteOffset":2341680,"byteLength":4128,"target":34963},{"buffer":0,"byteOffset":2345808,"byteLength":204576,"target":34963},{"buffer":0,"byteOffset":2550384,"byteLength":4176,"target":34963},{"buffer":0,"byteOffset":2554560,"byteLength":23328,"target":34963},{"buffer":0,"byteOffset":2577888,"byteLength":7800,"target":34963},{"buffer":0,"byteOffset":2585688,"byteLength":4128,"target":34963},{"buffer":0,"byteOffset":2589816,"byteLength":7800,"target":34963},{"buffer":0,"byteOffset":2597616,"byteLength":4128,"target":34963},{"buffer":0,"byteOffset":2601744,"byteLength":7800,"target":34963},{"buffer":0,"byteOffset":2609544,"byteLength":3864,"target":34963}],"buffers":[{"byteLength":2613408,"uri":"data:application/octet-stream;base64,"}],"accessors":[{"bufferView":0,"componentType":5126,"count":93336,"max":[3.889556407928467,2.2168970108032227,4.280638694763184],"min":[-3.944368600845337,-0.44001713395118713,-4.154228210449219],"type":"VEC3"},{"bufferView":1,"componentType":5126,"count":93336,"max":[0.999969482421875,1,0.999969482421875],"min":[-0.999908447265625,-1,-0.999969482421875],"type":"VEC3"},{"bufferView":2,"componentType":5125,"count":1932,"max":[1931],"min":[0],"type":"SCALAR"},{"bufferView":3,"componentType":5125,"count":1950,"max":[3881],"min":[1932],"type":"SCALAR"},{"bufferView":4,"componentType":5125,"count":1032,"max":[4913],"min":[3882],"type":"SCALAR"},{"bufferView":5,"componentType":5125,"count":966,"max":[5879],"min":[4914],"type":"SCALAR"},{"bufferView":6,"componentType":5125,"count":19524,"max":[25403],"min":[5880],"type":"SCALAR"},{"bufferView":7,"componentType":5125,"count":1032,"max":[26435],"min":[25404],"type":"SCALAR"},{"bufferView":8,"componentType":5125,"count":51144,"max":[77579],"min":[26436],"type":"SCALAR"},{"bufferView":9,"componentType":5125,"count":1044,"max":[78623],"min":[77580],"type":"SCALAR"},{"bufferView":10,"componentType":5125,"count":5832,"max":[84455],"min":[78624],"type":"SCALAR"},{"bufferView":11,"componentType":5125,"count":1950,"max":[86405],"min":[84456],"type":"SCALAR"},{"bufferView":12,"componentType":5125,"count":1032,"max":[87437],"min":[86406],"type":"SCALAR"},{"bufferView":13,"componentType":5125,"count":1950,"max":[89387],"min":[87438],"type":"SCALAR"},{"bufferView":14,"componentType":5125,"count":1032,"max":[90419],"min":[89388],"type":"SCALAR"},{"bufferView":15,"componentType":5125,"count":1950,"max":[92369],"min":[90420],"type":"SCALAR"},{"bufferView":16,"componentType":5125,"count":966,"max":[93335],"min":[92370],"type":"SCALAR"}],"materials":[{"pbrMetallicRoughness":{"baseColorFactor":[0,0.4470588235294118,0.6392156862745098,1],"metallicFactor":0.5,"roughnessFactor":0.5},"name":"Material.004"},{"pbrMetallicRoughness":{"baseColorFactor":[0,1,0,1],"metallicFactor":0.5,"roughnessFactor":0.5},"name":"Material.002"},{"pbrMetallicRoughness":{"baseColorFactor":[0.4,0.4,0.4,1],"metallicFactor":0.5,"roughnessFactor":0.5},"name":"Material.003"},{"pbrMetallicRoughness":{"baseColorFactor":[0.17647058823529413,0.17647058823529413,0.17647058823529413,1],"metallicFactor":0.5,"roughnessFactor":0.5},"name":"Material.001"},{"pbrMetallicRoughness":{"baseColorFactor":[1,0,0,1],"metallicFactor":0.5,"roughnessFactor":0.5},"name":"Material.005"}],"meshes":[{"primitives":[{"mode":4,"attributes":{"POSITION":0,"NORMAL":1},"indices":2,"material":0},{"mode":4,"attributes":{"POSITION":0,"NORMAL":1},"indices":3,"material":1},{"mode":4,"attributes":{"POSITION":0,"NORMAL":1},"indices":4,"material":2},{"mode":4,"attributes":{"POSITION":0,"NORMAL":1},"indices":5,"material":0},{"mode":4,"attributes":{"POSITION":0,"NORMAL":1},"indices":6,"material":1},{"mode":4,"attributes":{"POSITION":0,"NORMAL":1},"indices":7,"material":2},{"mode":4,"attributes":{"POSITION":0,"NORMAL":1},"indices":8,"material":3},{"mode":4,"attributes":{"POSITION":0,"NORMAL":1},"indices":9,"material":2},{"mode":4,"attributes":{"POSITION":0,"NORMAL":1},"indices":10,"material":3},{"mode":4,"attributes":{"POSITION":0,"NORMAL":1},"indices":11,"material":4},{"mode":4,"attributes":{"POSITION":0,"NORMAL":1},"indices":12,"material":2},{"mode":4,"attributes":{"POSITION":0,"NORMAL":1},"indices":13,"material":4},{"mode":4,"attributes":{"POSITION":0,"NORMAL":1},"indices":14,"material":2},{"mode":4,"attributes":{"POSITION":0,"NORMAL":1},"indices":15,"material":1},{"mode":4,"attributes":{"POSITION":0,"NORMAL":1},"indices":16,"material":0}]}]}