<?xml version="1.0" encoding="utf-8"?>
<!-- Generator: Adobe Illustrator 25.2.3, SVG Export Plug-In . SVG Version: 6.00 Build 0)  -->
<svg version="1.1" id="Ebene_1" xmlns="http://www.w3.org/2000/svg" xmlns:xlink="http://www.w3.org/1999/xlink" x="0px" y="0px"
	 viewBox="0 0 264.9 95.1" style="enable-background:new 0 0 264.9 95.1;" xml:space="preserve">
<style type="text/css">
	.st0{fill:#4CB944;}
	.st1{fill:none;}
	.st2{enable-background:new    ;}
	.st3{fill:none;stroke:#1B171B;stroke-miterlimit:10;}
</style>
<g>
	<path class="st0" d="M15.6,64.5c-4.7,0-8.5,3.8-8.5,8.5c0,4.7,5.2,8.6,8.5,11.6c2.7-2.7,8.5-7,8.5-11.6
		C24.1,68.3,20.2,64.5,15.6,64.5z M18.8,76.1h-1.9v-2.2H14v2.2h-1.9v-6.2H14v2.2h2.9v-2.2h1.9V76.1z"/>
	<g>
		<rect x="189.5" y="28.2" class="st1" width="67.5" height="13.5"/>
		<g class="st2">
			<path d="M198.8,33.7c0,1.6-0.4,2.9-1.3,3.8c-0.9,0.9-2.2,1.3-3.9,1.3h-2.8v-10h3.1c1.6,0,2.8,0.4,3.6,1.3S198.8,32.2,198.8,33.7z
				 M197.7,33.8c0-1.3-0.3-2.3-1-2.9c-0.7-0.7-1.6-1-2.9-1h-1.7v8h1.4c1.4,0,2.4-0.3,3.1-1C197.2,36.1,197.7,35.1,197.7,33.8z"/>
			<path d="M204.3,31.2c0.3,0,0.6,0,0.9,0.1l-0.2,1.1c-0.3-0.1-0.6-0.1-0.8-0.1c-0.6,0-1.1,0.2-1.6,0.7s-0.6,1.1-0.6,1.8v4h-1.1
				v-7.5h0.9l0.1,1.4h0.1c0.3-0.5,0.6-0.9,1-1.1C203.5,31.3,203.8,31.2,204.3,31.2z"/>
			<path d="M213,35.1c0,1.2-0.3,2.2-0.9,2.9c-0.6,0.7-1.5,1-2.5,1c-0.7,0-1.3-0.2-1.8-0.5s-0.9-0.8-1.2-1.4s-0.4-1.3-0.4-2.1
				c0-1.2,0.3-2.2,0.9-2.9c0.6-0.7,1.5-1,2.5-1s1.9,0.3,2.5,1C212.8,32.9,213,33.9,213,35.1z M207.3,35.1c0,1,0.2,1.7,0.6,2.2
				c0.4,0.5,0.9,0.8,1.7,0.8c0.7,0,1.3-0.2,1.7-0.7s0.6-1.2,0.6-2.2s-0.2-1.7-0.6-2.2c-0.4-0.5-1-0.7-1.7-0.7s-1.3,0.2-1.7,0.7
				C207.5,33.4,207.3,34.1,207.3,35.1z"/>
			<path d="M218.5,39c-0.5,0-0.9-0.1-1.3-0.3c-0.4-0.2-0.7-0.5-1-0.8h-0.1c0.1,0.4,0.1,0.9,0.1,1.2v3.1h-1.1V31.3h0.9l0.2,1h0.1
				c0.3-0.4,0.6-0.7,1-0.9c0.4-0.2,0.8-0.3,1.3-0.3c1,0,1.8,0.3,2.3,1s0.8,1.6,0.8,2.9c0,1.2-0.3,2.2-0.8,2.9
				C220.2,38.6,219.5,39,218.5,39z M218.3,32.2c-0.8,0-1.3,0.2-1.7,0.6s-0.5,1.1-0.5,2v0.3c0,1.1,0.2,1.8,0.5,2.3
				c0.4,0.5,0.9,0.7,1.7,0.7c0.6,0,1.2-0.3,1.5-0.8c0.4-0.5,0.5-1.2,0.5-2.2c0-0.9-0.2-1.7-0.5-2.1C219.5,32.4,219,32.2,218.3,32.2z
				"/>
		</g>
		<line class="st3" x1="4.9" y1="87.5" x2="260" y2="87.5"/>
		<polygon points="251.5,78.8 238.2,82.4 247.5,57.4 226.2,86.1 196.2,81.4 215.5,87.4 242.8,87.4 		"/>
		<path class="st0" d="M183.8,77.1l9.1,3.3c0.5,0.2,0.9,0.1,1.4,0c0.5-0.2,0.8-0.6,1-1.1l1.3-3.6l6.8,2.5l10.5,3.8
			c0,0.1,0,0.1,0.1,0.2c0,0.1,0.1,0.1,0.1,0.2l0,0c0,0.1,0.1,0.1,0.1,0.1s0,0.1,0.1,0.1c0,0.1,0.1,0.1,0.1,0.2l0.1,0.1l0.1,0.1
			l0.1,0.1l0,0l0.1,0.1c0.1,0,0.1,0.1,0.2,0.1l9,3.3c1,0.3,2-0.2,2.4-1.1l0.2-0.5l0.1-0.3l0.3-0.9c0.3-1-0.2-2-1.1-2.4l-1.2-0.4
			l-0.3-0.6l0.1-0.2l0.3,0.1l0.2-0.5l-0.3-0.1l0.2-0.7l-1.3-0.5l0,0l1-2.8l24.2,8.7l0,0l0,0l-1.9-3.1L229.5,75l-1.7,0.2l-0.9-0.3
			c0.3-0.8-0.1-1.6-0.9-1.9l0,0l0.3-0.8l-0.5-0.2c0.5-1.4,0.3-2.8-0.5-3.1h-0.1c-0.7-0.1-1.7,0.7-2.2,2.1l-0.5-0.2l-0.3,0.8l0,0
			c-0.8-0.3-1.6,0.1-1.9,0.9l-0.9-0.3l-1.1-1.2l-17.4-6.3l-3.4,1.2l24.2,8.7l-1,2.8l-1.8-0.7l-0.2,0.7l-0.2-0.1l-0.2,0.5l0.2,0.1
			l-0.2,0.6l-1.4-0.5c-0.6-0.2-1.3-0.1-1.8,0.3L200,71.1l-12.7-6l-2.5-1.2l0,0l0,0l0,0l0,0l-4-1l-5.1-1.3l-22.8-5.8l-0.7-0.2l0,0
			c-0.1-0.6-0.6-1.1-1.2-1.3l-1.4-0.5l0.2-0.6l0.2,0.1l0.2-0.5l-0.2-0.1l0.2-0.7l-1.8-0.7l1-2.8l-1.3-0.5l-0.2-0.1l0,0l0.2,0.1l0,0
			l0,0l25.5,9.2l-1.9-3.1l-17.4-6.3l-1.7,0.2l-0.9-0.3c0.3-0.8-0.1-1.6-0.9-1.9l0,0l0.3-0.8l-0.5-0.2c0.5-1.4,0.3-2.7-0.4-3
			c0,0-0.1,0-0.1-0.1c-0.8-0.3-1.8,0.6-2.3,2.1l-0.5-0.2l-0.3,0.8l0,0c-0.8-0.3-1.6,0.1-1.9,0.9l-0.9-0.3l-1.1-1.2l-17.4-6.3
			l-3.4,1.2l0,0l0,0l24.2,8.7l-1,2.8l-1.4-0.5l-0.2,0.7l-0.3-0.1l-0.2,0.5l0.3,0.1l-0.2,0.6l-1.6-0.6c-1-0.3-2,0.2-2.4,1.1l-0.3,0.9
			l-0.3,0.9c-0.3,1,0.2,2,1.1,2.4l9,3.3c0.6,0.2,1.3,0.1,1.7-0.3l4.3,1.6l13,4.7l-1.3,3.6c0,0.1,0,0.1-0.1,0.2v0.1v0.1v0.1l0,0
			c0,0.1,0,0.1,0,0.2l0,0c0,0.1,0,0.1,0,0.2l0,0c0,0.2,0.1,0.4,0.2,0.5c0.2,0.4,0.6,0.7,1,0.9l10.4,3.8"/>
	</g>
</g>
</svg>
