<?xml version="1.0" encoding="utf-8"?>
<!-- Generator: Adobe Illustrator 25.2.3, SVG Export Plug-In . SVG Version: 6.00 Build 0)  -->
<svg version="1.1" id="Ebene_1" xmlns="http://www.w3.org/2000/svg" xmlns:xlink="http://www.w3.org/1999/xlink" x="0px" y="0px"
	 viewBox="0 0 264.9 95.1" style="enable-background:new 0 0 264.9 95.1;" xml:space="preserve">
<style type="text/css">
	.st0{fill:none;}
	.st1{enable-background:new    ;}
	.st2{fill:#4CB944;}
	.st3{fill:none;stroke:#1B171B;stroke-miterlimit:10;}
</style>
<g>
	<rect x="199.4" y="48.5" class="st0" width="67.5" height="13.5"/>
	<g class="st1">
		<path d="M200.8,59.1v-10h1.2V58h4.4v1.1H200.8z"/>
		<path d="M212.5,59.1l-0.2-1.1h-0.1c-0.4,0.5-0.7,0.8-1.1,1c-0.4,0.2-0.8,0.2-1.4,0.2c-0.7,0-1.3-0.2-1.7-0.6s-0.6-0.9-0.6-1.6
			c0-1.5,1.2-2.3,3.6-2.4h1.3v-0.5c0-0.6-0.1-1-0.4-1.3c-0.3-0.3-0.7-0.4-1.2-0.4c-0.6,0-1.3,0.2-2.1,0.6l-0.3-0.9
			c0.4-0.2,0.8-0.4,1.2-0.5s0.9-0.2,1.3-0.2c0.9,0,1.6,0.2,2,0.6s0.6,1,0.6,1.9V59L212.5,59.1L212.5,59.1z M209.9,58.3
			c0.7,0,1.3-0.2,1.7-0.6s0.6-0.9,0.6-1.6v-0.7h-1.1c-0.9,0-1.6,0.2-2,0.4c-0.4,0.2-0.6,0.6-0.6,1.2c0,0.4,0.1,0.7,0.4,0.9
			C209.2,58.2,209.5,58.3,209.9,58.3z"/>
		<path d="M220.8,59.1v-4.8c0-0.6-0.1-1.1-0.4-1.4c-0.3-0.3-0.7-0.5-1.3-0.5c-0.8,0-1.4,0.2-1.7,0.6c-0.4,0.4-0.5,1.1-0.5,2.1V59
			h-1.2v-7.5h0.9l0.2,1h0.1c0.2-0.4,0.6-0.7,1-0.9c0.4-0.2,0.9-0.3,1.4-0.3c0.9,0,1.6,0.2,2,0.7c0.5,0.4,0.7,1.1,0.7,2.1V59
			L220.8,59.1L220.8,59.1z"/>
		<path d="M229.4,58.1L229.4,58.1c-0.6,0.8-1.4,1.1-2.4,1.1s-1.7-0.3-2.3-1c-0.5-0.7-0.8-1.6-0.8-2.9s0.3-2.2,0.8-2.9s1.3-1,2.3-1
			s1.8,0.4,2.3,1.1h0.1V52v-0.5v-3h1.1v10.6h-0.9L229.4,58.1z M227.1,58.3c0.8,0,1.3-0.2,1.7-0.6c0.3-0.4,0.5-1.1,0.5-2v-0.2
			c0-1.1-0.2-1.8-0.5-2.3c-0.4-0.5-0.9-0.7-1.7-0.7c-0.7,0-1.2,0.3-1.5,0.8c-0.4,0.5-0.5,1.2-0.5,2.2s0.2,1.7,0.5,2.2
			C225.9,58.1,226.4,58.3,227.1,58.3z"/>
	</g>
	<g>
		<path class="st2" d="M195.8,79.6L195.8,79.6c0.2-0.2,0.3-0.4,0.3-0.7c0-0.6-0.5-1-1-1c-0.3,0-0.6,0.1-0.7,0.3l0,0l-3,3.3l-3-3.3
			l0,0c-0.2-0.2-0.5-0.3-0.7-0.3c-0.6,0-1,0.5-1,1c0,0.3,0.1,0.5,0.3,0.7l0,0l3.7,4.1c0.2,0.2,0.5,0.3,0.8,0.3s0.6-0.1,0.8-0.3
			L195.8,79.6z"/>
		<g>
			<g>
				<path class="st2" d="M191.3,78c-0.6,0-1-0.4-1-1v-6c0-0.6,0.4-1,1-1s1,0.4,1,1v6C192.3,77.6,191.9,78,191.3,78z M191.3,64
					c-0.6,0-1-0.4-1-1v-8c0-0.6,0.4-1,1-1s1,0.4,1,1v8C192.3,63.6,191.9,64,191.3,64z M191.3,48c-0.6,0-1-0.4-1-1v-8
					c0-0.6,0.4-1,1-1s1,0.4,1,1v8C192.3,47.6,191.9,48,191.3,48z"/>
			</g>
		</g>
	</g>
	<line class="st3" x1="4.9" y1="88.3" x2="259.9" y2="88.3"/>
	<path class="st2" d="M194.9,32.6h9.7c0.5,0,0.9-0.2,1.3-0.5c0.4-0.3,0.6-0.8,0.6-1.4v-3.8h7.2h11.2c0,0.1,0.1,0.1,0.1,0.2
		s0.1,0.1,0.1,0.2l0,0l0.1,0.1c0,0,0.1,0,0.1,0.1c0.1,0,0.1,0.1,0.2,0.1c0.1,0,0.1,0.1,0.2,0.1c0.1,0,0.1,0,0.2,0.1
		c0.1,0,0.1,0,0.2,0l0,0c0.1,0,0.1,0,0.2,0c0.1,0,0.1,0,0.2,0h9.6c1,0,1.9-0.8,1.9-1.9v-0.6v-0.4V24c0-1-0.8-1.9-1.9-1.9h-1.3
		l-0.4-0.4v-0.2h0.3V21h-0.3v-0.7H233l0,0v-3h25.7l0,0l0,0l-2.8-2.3h-18.5l-1.5,0.8H235c0-0.8-0.7-1.5-1.5-1.5l0,0v-0.9H233
		c0-1.5-0.7-2.7-1.5-2.7h-0.1c-0.7,0.1-1.3,1.3-1.4,2.7h-0.5v0.9l0,0c-0.8,0-1.5,0.7-1.5,1.5h-0.9l-1.5-0.8h-18.5l-2.8,2.3H230v3
		h-1.9V21h-0.2v0.5h0.2v0.6h-1.5c-0.7,0-1.2,0.3-1.6,0.8l-16.7-1.6l-14-1.4l-2.8-0.3l0,0l0,0l0,0l0,0l-4.1,0.4l-5.2,0.5l-23.4,2.3
		l-0.7,0.1l0,0c-0.3-0.5-0.9-0.8-1.6-0.8H155v-0.6h0.2V21H155v-0.7h-1.9v-3h-1.4h-0.2l0,0h0.3l0,0l0,0h27.1l-2.8-2.3h-18.5l-1.5,0.8
		h-0.9c0-0.8-0.7-1.5-1.5-1.5l0,0v-0.9h-0.5c0-1.4-0.6-2.6-1.4-2.7h-0.1c-0.8,0-1.5,1.2-1.5,2.7h-0.5v0.9l0,0
		c-0.8,0-1.5,0.7-1.5,1.5h-0.9l-1.5-0.8h-18.5l-2.8,2.3l0,0l0,0h25.7v3h-1.5V21h-0.3v0.5h0.3v0.6H147c-1,0-1.9,0.8-1.9,1.9v0.9v0.9
		c0,1,0.8,1.9,1.9,1.9h9.6c0.6,0,1.2-0.3,1.5-0.8h4.6h13.8v3.8c0,0.1,0,0.1,0,0.2V31v0.1v0.1l0,0c0,0.1,0,0.1,0.1,0.2l0,0
		c0,0.1,0.1,0.1,0.1,0.2l0,0c0.1,0.2,0.2,0.3,0.3,0.4c0.3,0.3,0.8,0.5,1.3,0.5h11.1"/>
</g>
<path class="st2" d="M15.5,67.1c-4.7,0-8.5,3.8-8.5,8.5s5.2,8.6,8.5,11.6c2.7-2.7,8.5-7,8.5-11.6C24,70.9,20.2,67.1,15.5,67.1z
	 M18.8,78.7h-1.9v-2.2H14v2.2h-1.9v-6.2H14v2.2h2.9v-2.2h1.9V78.7z"/>
</svg>
