<?xml version="1.0" encoding="utf-8"?>
<!-- Generator: Adobe Illustrator 25.2.3, SVG Export Plug-In . SVG Version: 6.00 Build 0)  -->
<svg version="1.1" id="Ebene_1" xmlns="http://www.w3.org/2000/svg" xmlns:xlink="http://www.w3.org/1999/xlink" x="0px" y="0px"
	 viewBox="0 0 264.9 95.1" style="enable-background:new 0 0 264.9 95.1;" xml:space="preserve">
<style type="text/css">
	.st0{fill:none;}
	.st1{enable-background:new    ;}
	.st2{fill:#4CB944;}
	.st3{fill:none;stroke:#1B171B;stroke-miterlimit:10;}
</style>
<g>
	<g>
		<rect x="197.4" y="48.5" class="st0" width="67.5" height="13.5"/>
		<g class="st1">
			<path d="M206.4,59.1h-1.2v-4.7h-5.3v4.7h-1.2v-10h1.2v4.3h5.3v-4.3h1.2V59.1z"/>
			<path d="M215.4,55.3c0,1.2-0.3,2.2-0.9,2.9c-0.6,0.7-1.5,1-2.5,1c-0.7,0-1.3-0.2-1.8-0.5s-0.9-0.8-1.2-1.4s-0.4-1.3-0.4-2.1
				c0-1.2,0.3-2.2,0.9-2.9c0.6-0.7,1.5-1,2.5-1s1.9,0.3,2.5,1C215.1,53.2,215.4,54.2,215.4,55.3z M209.7,55.3c0,1,0.2,1.7,0.6,2.2
				c0.4,0.5,0.9,0.8,1.7,0.8c0.7,0,1.3-0.2,1.7-0.8c0.4-0.5,0.6-1.2,0.6-2.2s-0.2-1.7-0.6-2.2c-0.4-0.5-1-0.7-1.7-0.7
				s-1.3,0.2-1.7,0.7C209.9,53.7,209.7,54.4,209.7,55.3z"/>
			<path d="M219.1,59.1l-2.8-7.5h1.2l1.6,4.4c0.4,1,0.6,1.7,0.6,2l0,0c0.1-0.2,0.2-0.7,0.5-1.5s0.9-2.4,1.8-5h1.2l-2.8,7.5
				L219.1,59.1L219.1,59.1z"/>
			<path d="M227.6,59.2c-1.1,0-2-0.3-2.6-1s-1-1.6-1-2.8c0-1.2,0.3-2.2,0.9-2.9c0.6-0.7,1.4-1.1,2.4-1.1c0.9,0,1.7,0.3,2.2,0.9
				s0.8,1.4,0.8,2.4v0.7h-5.2c0,0.9,0.2,1.5,0.7,2c0.4,0.5,1,0.7,1.8,0.7s1.6-0.2,2.4-0.5v1c-0.4,0.2-0.8,0.3-1.1,0.4
				C228.5,59.2,228.1,59.2,227.6,59.2z M227.3,52.4c-0.6,0-1.1,0.2-1.4,0.6c-0.4,0.4-0.6,0.9-0.6,1.6h3.9c0-0.7-0.2-1.3-0.5-1.6
				C228.3,52.6,227.9,52.4,227.3,52.4z"/>
			<path d="M235.7,51.5c0.3,0,0.6,0,0.9,0.1l-0.2,1.1c-0.3-0.1-0.6-0.1-0.8-0.1c-0.6,0-1.1,0.2-1.6,0.7s-0.6,1.1-0.6,1.8v4h-1.1
				v-7.5h0.9l0.1,1.4h0.1c0.3-0.5,0.6-0.9,1-1.1C234.8,51.6,235.2,51.5,235.7,51.5z"/>
		</g>
		<g>
			<path class="st2" d="M193.8,79.5L193.8,79.5c0.2-0.2,0.3-0.4,0.3-0.7c0-0.6-0.5-1-1-1c-0.3,0-0.6,0.1-0.7,0.3l0,0l-3,3.3l-3-3.3
				l0,0c-0.2-0.2-0.5-0.3-0.7-0.3c-0.6,0-1,0.5-1,1c0,0.3,0.1,0.5,0.3,0.7l0,0l3.7,4.1c0.2,0.2,0.5,0.3,0.8,0.3s0.6-0.1,0.8-0.3
				L193.8,79.5z"/>
			<path class="st2" d="M184.9,36.2L184.9,36.2c-0.2,0.2-0.3,0.4-0.3,0.7c0,0.6,0.5,1,1,1c0.3,0,0.6-0.1,0.7-0.3l0,0l3-3.3l3,3.3
				l0,0c0.2,0.2,0.5,0.3,0.7,0.3c0.6,0,1-0.5,1-1c0-0.3-0.1-0.5-0.3-0.7l0,0l-3.7-4.1c-0.2-0.2-0.5-0.3-0.8-0.3s-0.6,0.1-0.8,0.3
				L184.9,36.2z"/>
			<g>
				<path class="st2" d="M189.3,78c-0.6,0-1-0.4-1-1V39c0-0.6,0.4-1,1-1s1,0.4,1,1v38C190.3,77.6,189.9,78,189.3,78z"/>
			</g>
		</g>
		<line class="st3" x1="2.9" y1="88.2" x2="257.9" y2="88.2"/>
		<path class="st2" d="M191.9,28.6h9.7c0.5,0,0.9-0.2,1.3-0.5c0.4-0.3,0.6-0.8,0.6-1.4v-3.8h7.2h11.2c0,0.1,0.1,0.1,0.1,0.2
			s0.1,0.1,0.1,0.2l0,0l0.1,0.1c0,0,0.1,0,0.1,0.1c0.1,0,0.1,0.1,0.2,0.1c0.1,0,0.1,0.1,0.2,0.1c0.1,0,0.1,0,0.2,0.1
			c0.1,0,0.1,0,0.2,0l0,0c0.1,0,0.1,0,0.2,0c0.1,0,0.1,0,0.2,0h9.6c1,0,1.9-0.8,1.9-1.9v-0.6v-0.4V20c0-1-0.8-1.9-1.9-1.9h-1.3
			l-0.4-0.4v-0.2h0.3V17h-0.3v-0.7H230l0,0v-3h25.7l0,0l0,0l-2.8-2.3h-18.5l-1.5,0.8H232c0-0.8-0.7-1.5-1.5-1.5l0,0V9.4H230
			c0-1.5-0.7-2.7-1.5-2.7h-0.1c-0.7,0.1-1.3,1.3-1.4,2.7h-0.5v0.9l0,0c-0.8,0-1.5,0.7-1.5,1.5h-0.9l-1.5-0.8h-18.5l-2.8,2.3H227v3
			h-1.9V17h-0.2v0.5h0.2v0.6h-1.5c-0.7,0-1.2,0.3-1.6,0.8l-16.7-1.6l-14-1.4l-2.8-0.3l0,0l0,0l0,0l0,0l-4.1,0.4l-5.2,0.5l-23.4,2.3
			l-0.7,0.1l0,0c-0.3-0.5-0.9-0.8-1.6-0.8H152v-0.6h0.2V17H152v-0.7h-1.9v-3h-1.4h-0.2l0,0h0.3l0,0l0,0h27.1l-2.8-2.3h-18.5
			l-1.5,0.8h-0.9c0-0.8-0.7-1.5-1.5-1.5l0,0V9.4h-0.5c0-1.4-0.6-2.6-1.4-2.7h-0.1c-0.8,0-1.5,1.2-1.5,2.7h-0.5v0.9l0,0
			c-0.8,0-1.5,0.7-1.5,1.5h-0.9l-1.5-0.8h-18.5l-2.8,2.3l0,0l0,0h25.7v3h-1.5V17h-0.3v0.5h0.3v0.6H144c-1,0-1.9,0.8-1.9,1.9v0.9v0.9
			c0,1,0.8,1.9,1.9,1.9h9.6c0.6,0,1.2-0.3,1.5-0.8h4.6h13.8v3.8c0,0.1,0,0.1,0,0.2V27v0.1v0.1l0,0c0,0.1,0,0.1,0.1,0.2l0,0
			c0,0.1,0.1,0.1,0.1,0.2l0,0c0.1,0.2,0.2,0.3,0.3,0.4c0.3,0.3,0.8,0.5,1.3,0.5h11.1"/>
	</g>
	<path class="st2" d="M13.5,66.8c-4.7,0-8.5,3.8-8.5,8.5s5.2,8.6,8.5,11.6c2.7-2.7,8.5-7,8.5-11.6C22,70.6,18.2,66.8,13.5,66.8z
		 M16.8,78.5h-1.9v-2.2H12v2.2h-1.9v-6.2H12v2.2h2.9v-2.2h1.9V78.5z"/>
</g>
</svg>
