<?xml version="1.0" encoding="utf-8"?>
<!-- Generator: Adobe Illustrator 25.2.3, SVG Export Plug-In . SVG Version: 6.00 Build 0)  -->
<svg version="1.1" id="Ebene_1" xmlns="http://www.w3.org/2000/svg" xmlns:xlink="http://www.w3.org/1999/xlink" x="0px" y="0px"
	 viewBox="0 0 264.9 95.1" style="enable-background:new 0 0 264.9 95.1;" xml:space="preserve">
<style type="text/css">
	.st0{fill:#4CB944;}
	.st1{fill:none;}
	.st2{enable-background:new    ;}
	.st3{fill:none;stroke:#1B171B;stroke-miterlimit:10;}
</style>
<g>
	<path class="st0" d="M18.9,60.6L18.9,60.6c0.2-0.2,0.3-0.4,0.3-0.7c0-0.6-0.5-1-1-1c-0.3,0-0.6,0.1-0.7,0.3l0,0l-3,3.3l-3-3.3l0,0
		c-0.2-0.2-0.5-0.3-0.7-0.3c-0.6,0-1,0.5-1,1c0,0.3,0.1,0.5,0.3,0.7l0,0l3.7,4.1c0.2,0.2,0.5,0.3,0.8,0.3s0.6-0.1,0.8-0.3L18.9,60.6
		z"/>
	<rect x="40.8" y="42.5" class="st1" width="86.5" height="32.1"/>
	<g class="st2">
		<path d="M43.2,49v4.2H42v-10h2.7c1.2,0,2.1,0.2,2.7,0.7s0.9,1.2,0.9,2.1c0,1.3-0.7,2.2-2,2.7l2.7,4.5h-1.4L45.2,49L43.2,49
			L43.2,49z M43.2,48h1.6c0.8,0,1.4-0.2,1.8-0.5s0.6-0.8,0.6-1.5s-0.2-1.1-0.6-1.4s-1-0.4-1.9-0.4h-1.5V48z"/>
		<path d="M53.8,53.3c-1.1,0-2-0.3-2.6-1s-1-1.6-1-2.8c0-1.2,0.3-2.2,0.9-2.9c0.6-0.7,1.4-1.1,2.4-1.1c0.9,0,1.7,0.3,2.2,0.9
			s0.8,1.4,0.8,2.4v0.7h-5.2c0,0.9,0.2,1.5,0.7,2s1,0.7,1.8,0.7s1.6-0.2,2.4-0.5v1c-0.4,0.2-0.8,0.3-1.1,0.4
			C54.7,53.3,54.2,53.3,53.8,53.3z M53.4,46.5c-0.6,0-1.1,0.2-1.4,0.6s-0.6,0.9-0.6,1.6h3.9c0-0.7-0.2-1.3-0.5-1.6
			C54.4,46.7,54.1,46.5,53.4,46.5z"/>
		<path d="M60.8,52.4c0.2,0,0.4,0,0.6,0s0.3-0.1,0.4-0.1v0.9c-0.1,0.1-0.3,0.1-0.5,0.1s-0.5,0.1-0.6,0.1c-1.4,0-2.2-0.8-2.2-2.3
			v-4.5h-1.1v-0.5l1.1-0.5L59,44h0.7v1.7h2.2v0.9h-2.2V51c0,0.5,0.1,0.8,0.3,1C60.2,52.2,60.4,52.4,60.8,52.4z"/>
		<path d="M64.4,45.7v4.9c0,0.6,0.1,1.1,0.4,1.4s0.7,0.5,1.3,0.5c0.8,0,1.4-0.2,1.7-0.6c0.3-0.4,0.5-1.1,0.5-2.1v-3.9h1.1v7.5h-0.9
			l-0.2-1h-0.1c-0.2,0.4-0.6,0.7-1,0.8s-0.9,0.3-1.4,0.3c-0.9,0-1.6-0.2-2-0.6s-0.7-1.1-0.7-2.1v-4.9h1.3
			C64.4,45.9,64.4,45.7,64.4,45.7z"/>
		<path d="M75.3,45.5c0.3,0,0.6,0,0.9,0.1L76,46.7c-0.3-0.1-0.6-0.1-0.8-0.1c-0.6,0-1.1,0.2-1.6,0.7S73,48.4,73,49.1v4h-1.1v-7.5
			h0.9l0.1,1.4H73c0.3-0.5,0.6-0.9,1-1.1C74.4,45.7,74.9,45.5,75.3,45.5z"/>
		<path d="M82.8,53.2v-4.8c0-0.6-0.1-1.1-0.4-1.4s-0.7-0.5-1.3-0.5c-0.8,0-1.4,0.2-1.7,0.6c-0.3,0.4-0.5,1.1-0.5,2.1v3.9h-1.1v-7.5
			h0.9l0.2,1H79c0.2-0.4,0.6-0.7,1-0.9c0.4-0.2,0.9-0.3,1.4-0.3c0.9,0,1.6,0.2,2,0.7c0.5,0.4,0.7,1.1,0.7,2.1v4.9L82.8,53.2
			L82.8,53.2z"/>
		<path d="M92.3,52.4c0.2,0,0.4,0,0.6,0s0.3-0.1,0.4-0.1v0.9c-0.1,0.1-0.3,0.1-0.5,0.1c-0.2,0-0.5,0.1-0.6,0.1
			c-1.4,0-2.2-0.8-2.2-2.3v-4.5h-1.1v-0.5l1.1-0.5l0.5-1.6h0.7v1.7h2.2v0.9h-2.2V51c0,0.5,0.1,0.8,0.3,1
			C91.8,52.2,91.9,52.4,92.3,52.4z"/>
		<path d="M101.3,49.4c0,1.2-0.3,2.2-0.9,2.9c-0.6,0.7-1.5,1-2.5,1c-0.7,0-1.3-0.2-1.8-0.5s-0.9-0.8-1.2-1.4s-0.4-1.3-0.4-2.1
			c0-1.2,0.3-2.2,0.9-2.9c0.6-0.7,1.5-1,2.5-1s1.9,0.3,2.5,1C101,47.1,101.3,48.2,101.3,49.4z M95.7,49.4c0,1,0.2,1.7,0.6,2.2
			s0.9,0.8,1.7,0.8s1.3-0.2,1.7-0.7s0.6-1.2,0.6-2.2s-0.2-1.7-0.6-2.2c-0.4-0.5-1-0.7-1.7-0.7s-1.3,0.2-1.7,0.7S95.7,48.4,95.7,49.4
			z"/>
	</g>
	<g class="st2">
		<path d="M49.7,70h-1.2v-4.7h-5.3V70H42V60h1.2v4.3h5.3V60h1.2V70z"/>
		<path d="M58.8,66.2c0,1.2-0.3,2.2-0.9,2.9c-0.6,0.7-1.5,1-2.5,1c-0.7,0-1.3-0.2-1.8-0.5s-0.9-0.8-1.2-1.4
			c-0.3-0.6-0.4-1.3-0.4-2.1c0-1.2,0.3-2.2,0.9-2.9c0.6-0.7,1.5-1,2.5-1s1.9,0.3,2.5,1S58.8,65,58.8,66.2z M53.1,66.2
			c0,1,0.2,1.7,0.6,2.2s0.9,0.8,1.7,0.8c0.8,0,1.3-0.2,1.7-0.7c0.4-0.5,0.6-1.2,0.6-2.2s-0.2-1.7-0.6-2.2s-1-0.7-1.7-0.7
			s-1.3,0.2-1.7,0.7S53.1,65.2,53.1,66.2z"/>
		<path d="M70.2,70v-4.9c0-0.6-0.1-1-0.4-1.3s-0.7-0.4-1.2-0.4c-0.7,0-1.2,0.2-1.6,0.6s-0.5,1-0.5,1.9v4.2h-1.1v-4.9
			c0-0.6-0.1-1-0.4-1.3s-0.7-0.4-1.2-0.4c-0.7,0-1.2,0.2-1.6,0.6c-0.3,0.4-0.5,1.1-0.5,2.1v3.9h-1.1v-7.5h0.9l0.2,1h0.1
			c0.2-0.4,0.5-0.6,0.9-0.9s0.8-0.3,1.3-0.3c1.2,0,1.9,0.4,2.3,1.3h0.1c0.2-0.4,0.5-0.7,1-0.9s0.9-0.3,1.4-0.3
			c0.8,0,1.5,0.2,1.9,0.7c0.4,0.4,0.6,1.1,0.6,2.1v4.9h-1.1L70.2,70L70.2,70z"/>
		<path d="M76.9,70.1c-1.1,0-2-0.3-2.6-1s-1-1.6-1-2.8c0-1.2,0.3-2.2,0.9-2.9s1.4-1.1,2.4-1.1c0.9,0,1.7,0.3,2.2,0.9
			s0.8,1.4,0.8,2.4v0.7h-5.2c0,0.9,0.2,1.5,0.7,2s1,0.7,1.8,0.7s1.6-0.2,2.4-0.5v1c-0.4,0.2-0.8,0.3-1.1,0.4
			C77.8,70.1,77.4,70.1,76.9,70.1z M76.7,63.3c-0.6,0-1.1,0.2-1.4,0.6s-0.6,0.9-0.6,1.6h3.9c0-0.7-0.2-1.3-0.5-1.6
			C77.7,63.5,77.2,63.3,76.7,63.3z"/>
	</g>
	<g>
		<g>
			<g>
				<g>
					<path class="st0" d="M118.8,26.5h-4c-0.6,0-1-0.4-1-1s0.4-1,1-1h4c0.6,0,1,0.4,1,1S119.4,26.5,118.8,26.5z"/>
				</g>
				<g>
					<path class="st0" d="M107.5,26.5h-7.4c-0.6,0-1-0.4-1-1s0.4-1,1-1h7.4c0.6,0,1,0.4,1,1S108.1,26.5,107.5,26.5z M92.7,26.5h-7.4
						c-0.6,0-1-0.4-1-1s0.4-1,1-1h7.4c0.6,0,1,0.4,1,1S93.2,26.5,92.7,26.5z M77.9,26.5h-7.4c-0.6,0-1-0.4-1-1s0.4-1,1-1h7.4
						c0.6,0,1,0.4,1,1S78.4,26.5,77.9,26.5z M63,26.5h-7.4c-0.6,0-1-0.4-1-1s0.4-1,1-1H63c0.6,0,1,0.4,1,1S63.6,26.5,63,26.5z
						 M48.2,26.5h-7.4c-0.6,0-1-0.4-1-1s0.4-1,1-1h7.4c0.6,0,1,0.4,1,1S48.8,26.5,48.2,26.5z M33.4,26.5H26c-0.6,0-1-0.4-1-1
						s0.4-1,1-1h7.4c0.6,0,1,0.4,1,1S33.9,26.5,33.4,26.5z"/>
				</g>
				<g>
					<path class="st0" d="M14.4,30.5c-0.6,0-1-0.4-1-1v-4c0-0.6,0.4-1,1-1h4c0.6,0,1,0.4,1,1s-0.4,1-1,1h-3v3
						C15.4,30.1,15,30.5,14.4,30.5z"/>
				</g>
				<g>
					<path class="st0" d="M14.4,46.1c-0.6,0-1-0.4-1-1v-7.8c0-0.6,0.4-1,1-1s1,0.4,1,1v7.8C15.4,45.6,15,46.1,14.4,46.1z"/>
				</g>
				<g>
					<path class="st0" d="M14.4,57.8c-0.6,0-1-0.4-1-1v-4c0-0.6,0.4-1,1-1s1,0.4,1,1v4C15.4,57.4,15,57.8,14.4,57.8z"/>
				</g>
			</g>
		</g>
	</g>
	<line class="st3" x1="3.9" y1="88.3" x2="259" y2="88.3"/>
	<path class="st0" d="M14.6,66.9c-4.7,0-8.5,3.8-8.5,8.5S11.3,84,14.6,87c2.7-2.7,8.5-7,8.5-11.6C23.1,70.7,19.2,66.9,14.6,66.9z
		 M17.8,78.5h-1.9v-2.2H13v2.2h-1.9v-6.2H13v2.2h2.9v-2.2h1.9V78.5z"/>
	<path class="st0" d="M193.8,35.7h9.7c0.5,0,0.9-0.2,1.3-0.5c0.4-0.3,0.6-0.8,0.6-1.4V30h7.2h11.2c0,0.1,0.1,0.1,0.1,0.2
		s0.1,0.1,0.1,0.2l0,0l0.1,0.1c0,0,0.1,0,0.1,0.1c0.1,0,0.1,0.1,0.2,0.1c0.1,0,0.1,0.1,0.2,0.1c0.1,0,0.1,0,0.2,0.1
		c0.1,0,0.1,0,0.2,0l0,0c0.1,0,0.1,0,0.2,0c0.1,0,0.1,0,0.2,0h9.6c1,0,1.9-0.8,1.9-1.9v-0.6v-0.3v-0.9c0-1-0.8-1.9-1.9-1.9h-1.3
		l-0.4-0.4v-0.2h0.3v-0.6h-0.3v-0.7h-1.4l0,0v-3h25.7l0,0l0,0l-2.8-2.3H236l-1.5,0.8h-0.9c0-0.8-0.7-1.5-1.5-1.5l0,0v-0.9h-0.5
		c0-1.5-0.7-2.7-1.5-2.7H230c-0.7,0.1-1.3,1.3-1.4,2.7h-0.5v0.9l0,0c-0.8,0-1.5,0.7-1.5,1.5h-0.9l-1.5-0.8h-18.5l-2.8,2.3h25.7v3
		h-1.9v0.7h-0.2v0.5h0.2v0.6h-1.5c-0.7,0-1.2,0.3-1.6,0.8l-16.7-1.6l-14-1.4l-2.8-0.3l0,0l0,0l0,0l0,0l-4.1,0.4l-5.2,0.5l-23.4,2.3
		l-0.7,0.1l0,0c-0.3-0.5-0.9-0.8-1.6-0.8h-1.5v-0.6h0.2v-0.5h-0.2v-0.7h-1.9v-3h-1.4h-0.2l0,0h0.3l0,0l0,0h27.1l-2.8-2.3h-18.5
		l-1.5,0.8h-0.9c0-0.8-0.7-1.5-1.5-1.5l0,0v-0.9h-0.5c0-1.4-0.6-2.6-1.4-2.7h-0.1c-0.8,0-1.5,1.2-1.5,2.7h-0.5v0.9l0,0
		c-0.8,0-1.5,0.7-1.5,1.5h-0.9l-1.5-0.8h-18.5l-2.8,2.3l0,0l0,0h25.7v3h-1.5v0.7H147v0.5h0.3v0.6h-1.7c-1,0-1.9,0.8-1.9,1.9v1V29
		c0,1,0.8,1.9,1.9,1.9h9.6c0.6,0,1.2-0.3,1.5-0.8h4.6h13.8v3.8c0,0.1,0,0.1,0,0.2v0.1v0.1v0.1l0,0c0,0.1,0,0.1,0.1,0.2l0,0
		c0,0.1,0.1,0.1,0.1,0.2l0,0c0.1,0.2,0.2,0.3,0.3,0.4c0.3,0.3,0.8,0.5,1.3,0.5H188"/>
</g>
</svg>
