<?xml version="1.0" encoding="utf-8"?>
<!-- Generator: Adobe Illustrator 19.1.0, SVG Export Plug-In . SVG Version: 6.00 Build 0)  -->
<svg version="1.1" id="Capa_1" xmlns="http://www.w3.org/2000/svg" xmlns:xlink="http://www.w3.org/1999/xlink" x="0px" y="0px"
	 viewBox="-1178 30.3 141.7 141.7" style="enable-background:new -1178 30.3 141.7 141.7;" xml:space="preserve">
<style type="text/css">
	.st0{fill:#FFFFFF;}
</style>
<g>
	<path class="st0" d="M-1107.5,129.2c0.2,0.2,0.5,0.3,0.8,0.3c0.3,0,0.6-0.1,0.8-0.3c1.7-1.9,5.2-5.7,8.6-10.6
		c4.3-6.1,9.5-15.1,9.5-23.1c0-10.5-8.5-19-19-19c-10.5,0-19,8.5-19,19c0,8,5.2,17,9.5,23.1
		C-1112.7,123.5-1109.3,127.3-1107.5,129.2L-1107.5,129.2z M-1106.7,83.7c6.4,0,11.6,5.2,11.6,11.6c0,6.4-5.2,11.6-11.6,11.6
		c-6.4,0-11.6-5.2-11.6-11.6C-1118.3,88.9-1113.1,83.7-1106.7,83.7L-1106.7,83.7z M-1106.7,83.7"/>
	<g>
		<g>
			<g>
				<path class="st0" d="M-1135.3,64.8c0-3.7-3-6.6-6.6-6.6s-6.6,3-6.6,6.6c0,3.7,3,6.6,6.6,6.6c0.9,0,1.7-0.2,2.5-0.5l13.7,13.7
					l3.7-3.7l-13.7-13.7C-1135.5,66.5-1135.3,65.7-1135.3,64.8z"/>
				<path class="st0" d="M-1141.9,39c-14.2,0-25.7,11.5-25.7,25.7s11.5,25.7,25.7,25.7c3.7,0,7.1-0.8,10.3-2.2l-4.1-4.1
					c-2,0.6-4.1,1-6.2,1c-11.3,0-20.5-9.2-20.5-20.5s9.2-20.5,20.5-20.5s20.5,9.2,20.5,20.5c0,2.8-0.6,5.4-1.6,7.9l3.9,3.9
					c1.8-3.5,2.9-7.6,2.9-11.8C-1116.2,50.6-1127.7,39-1141.9,39z"/>
			</g>
			<g>
				<path class="st0" d="M-1078.2,64.8c0-3.7,3-6.6,6.6-6.6s6.6,3,6.6,6.6c0,3.7-3,6.6-6.6,6.6c-0.9,0-1.7-0.2-2.5-0.5l-13.7,13.7
					l-3.7-3.7l13.7-13.7C-1078,66.5-1078.2,65.7-1078.2,64.8z"/>
				<path class="st0" d="M-1071.5,39c14.2,0,25.7,11.5,25.7,25.7s-11.5,25.7-25.7,25.7c-3.7,0-7.1-0.8-10.3-2.2l4.1-4.1
					c2,0.6,4.1,1,6.2,1c11.3,0,20.5-9.2,20.5-20.5s-9.2-20.5-20.5-20.5s-20.5,9.2-20.5,20.5c0,2.8,0.6,5.4,1.6,7.9l-3.9,3.9
					c-1.8-3.5-2.9-7.6-2.9-11.8C-1097.3,50.6-1085.7,39-1071.5,39z"/>
			</g>
		</g>
		<g>
			<path class="st0" d="M-1135.3,137.2c0,3.7-3,6.6-6.6,6.6s-6.6-3-6.6-6.6c0-3.7,3-6.6,6.6-6.6c0.9,0,1.7,0.2,2.5,0.5l13.7-13.7
				l3.7,3.7l-13.7,13.7C-1135.5,135.5-1135.3,136.4-1135.3,137.2z"/>
			<path class="st0" d="M-1141.9,163c-14.2,0-25.7-11.5-25.7-25.7s11.5-25.7,25.7-25.7c3.7,0,7.1,0.8,10.3,2.2l-4.1,4.1
				c-2-0.6-4.1-1-6.2-1c-11.3,0-20.5,9.2-20.5,20.5s9.2,20.5,20.5,20.5s20.5-9.2,20.5-20.5c0-2.8-0.6-5.4-1.6-7.9l3.9-3.9
				c1.8,3.5,2.9,7.6,2.9,11.8C-1116.2,151.4-1127.7,163-1141.9,163z"/>
		</g>
		<g>
			<path class="st0" d="M-1078.2,137.2c0,3.7,3,6.6,6.6,6.6s6.6-3,6.6-6.6c0-3.7-3-6.6-6.6-6.6c-0.9,0-1.7,0.2-2.5,0.5l-13.7-13.7
				l-3.7,3.7l13.7,13.7C-1078,135.5-1078.2,136.4-1078.2,137.2z"/>
			<path class="st0" d="M-1071.5,163c14.2,0,25.7-11.5,25.7-25.7s-11.5-25.7-25.7-25.7c-3.7,0-7.1,0.8-10.3,2.2l4.1,4.1
				c2-0.6,4.1-1,6.2-1c11.3,0,20.5,9.2,20.5,20.5s-9.2,20.5-20.5,20.5s-20.5-9.2-20.5-20.5c0-2.8,0.6-5.4,1.6-7.9l-3.9-3.9
				c-1.8,3.5-2.9,7.6-2.9,11.8C-1097.3,151.4-1085.7,163-1071.5,163z"/>
		</g>
	</g>
</g>
</svg>
