<?xml version="1.0" encoding="UTF-8" standalone="no"?>
<svg
   xmlns:dc="http://purl.org/dc/elements/1.1/"
   xmlns:cc="http://creativecommons.org/ns#"
   xmlns:rdf="http://www.w3.org/1999/02/22-rdf-syntax-ns#"
   xmlns:svg="http://www.w3.org/2000/svg"
   xmlns="http://www.w3.org/2000/svg"
   xmlns:sodipodi="http://sodipodi.sourceforge.net/DTD/sodipodi-0.dtd"
   xmlns:inkscape="http://www.inkscape.org/namespaces/inkscape"
   version="1.1"
   id="Capa_1"
   x="0px"
   y="0px"
   viewBox="0 0 141.7 141.7"
   enable-background="new 0 0 141.7 141.7"
   xml:space="preserve"
   sodipodi:docname="cf_icon_MP_save2FC_grey.svg"
   inkscape:version="1.0.1 (3bc2e813f5, 2020-09-07)"
   inkscape:export-filename="C:\Users\arnau\Documents\GitHub\inav-configurator\images\icons\cf_icon_MP_save2file.png"
   inkscape:export-xdpi="74"
   inkscape:export-ydpi="74"><metadata
   id="metadata19"><rdf:RDF><cc:Work
       rdf:about=""><dc:format>image/svg+xml</dc:format><dc:type
         rdf:resource="http://purl.org/dc/dcmitype/StillImage" /><dc:title></dc:title></cc:Work></rdf:RDF></metadata><defs
   id="defs17"><marker
     style="overflow:visible"
     id="marker1338"
     refX="0.0"
     refY="0.0"
     orient="auto"
     inkscape:stockid="Arrow1Lstart"
     inkscape:isstock="true"><path
       transform="scale(0.8) translate(12.5,0)"
       style="fill-rule:evenodd;stroke:#000000;stroke-width:1.0pt"
       d="M 0.0,0.0 L 5.0,-5.0 L -12.5,0.0 L 5.0,5.0 L 0.0,0.0 z "
       id="path1336" /></marker><marker
     style="overflow:visible"
     id="marker1292"
     refX="0.0"
     refY="0.0"
     orient="auto"
     inkscape:stockid="Arrow1Lstart"
     inkscape:isstock="true"><path
       transform="scale(0.8) translate(12.5,0)"
       style="fill-rule:evenodd;stroke:#000000;stroke-width:1.0pt"
       d="M 0.0,0.0 L 5.0,-5.0 L -12.5,0.0 L 5.0,5.0 L 0.0,0.0 z "
       id="path1290" /></marker><marker
     style="overflow:visible"
     id="marker1252"
     refX="0.0"
     refY="0.0"
     orient="auto"
     inkscape:stockid="Arrow1Lstart"
     inkscape:isstock="true"><path
       transform="scale(0.8) translate(12.5,0)"
       style="fill-rule:evenodd;stroke:#000000;stroke-width:1.0pt"
       d="M 0.0,0.0 L 5.0,-5.0 L -12.5,0.0 L 5.0,5.0 L 0.0,0.0 z "
       id="path1250" /></marker><marker
     style="overflow:visible"
     id="marker1218"
     refX="0.0"
     refY="0.0"
     orient="auto"
     inkscape:stockid="Arrow1Lstart"
     inkscape:isstock="true"><path
       transform="scale(0.8) translate(12.5,0)"
       style="fill-rule:evenodd;stroke:#000000;stroke-width:1.0pt"
       d="M 0.0,0.0 L 5.0,-5.0 L -12.5,0.0 L 5.0,5.0 L 0.0,0.0 z "
       id="path1216" /></marker><marker
     style="overflow:visible"
     id="marker1172"
     refX="0.0"
     refY="0.0"
     orient="auto"
     inkscape:stockid="Arrow1Lstart"
     inkscape:isstock="true"><path
       transform="scale(0.8) translate(12.5,0)"
       style="fill-rule:evenodd;stroke:#000000;stroke-width:1pt;stroke-opacity:1;fill:#000000;fill-opacity:1"
       d="M 0.0,0.0 L 5.0,-5.0 L -12.5,0.0 L 5.0,5.0 L 0.0,0.0 z "
       id="path1170" /></marker><marker
     style="overflow:visible"
     id="marker1150"
     refX="0.0"
     refY="0.0"
     orient="auto"
     inkscape:stockid="Arrow1Lstart"
     inkscape:isstock="true"><path
       transform="scale(0.8) translate(12.5,0)"
       style="fill-rule:evenodd;stroke:#000000;stroke-width:1pt;stroke-opacity:1;fill:#000000;fill-opacity:1"
       d="M 0.0,0.0 L 5.0,-5.0 L -12.5,0.0 L 5.0,5.0 L 0.0,0.0 z "
       id="path1148" /></marker><marker
     style="overflow:visible"
     id="marker1128"
     refX="0.0"
     refY="0.0"
     orient="auto"
     inkscape:stockid="Arrow1Lstart"
     inkscape:isstock="true"><path
       transform="scale(0.8) translate(12.5,0)"
       style="fill-rule:evenodd;stroke:#000000;stroke-width:1pt;stroke-opacity:1;fill:#000000;fill-opacity:1"
       d="M 0.0,0.0 L 5.0,-5.0 L -12.5,0.0 L 5.0,5.0 L 0.0,0.0 z "
       id="path1126" /></marker><marker
     style="overflow:visible"
     id="Arrow1Lstart"
     refX="0.0"
     refY="0.0"
     orient="auto"
     inkscape:stockid="Arrow1Lstart"
     inkscape:isstock="true"><path
       transform="scale(0.8) translate(12.5,0)"
       style="fill-rule:evenodd;stroke:#000000;stroke-width:1.0pt"
       d="M 0.0,0.0 L 5.0,-5.0 L -12.5,0.0 L 5.0,5.0 L 0.0,0.0 z "
       id="path856" /></marker></defs><sodipodi:namedview
   pagecolor="#ffffff"
   bordercolor="#666666"
   borderopacity="1"
   objecttolerance="10"
   gridtolerance="10"
   guidetolerance="10"
   inkscape:pageopacity="0"
   inkscape:pageshadow="2"
   inkscape:window-width="1368"
   inkscape:window-height="850"
   id="namedview15"
   showgrid="true"
   inkscape:zoom="2.9841204"
   inkscape:cx="77.002864"
   inkscape:cy="97.213314"
   inkscape:window-x="-6"
   inkscape:window-y="-6"
   inkscape:window-maximized="1"
   inkscape:current-layer="layer1"
   inkscape:snap-grids="true"
   inkscape:document-rotation="0"><inkscape:grid
     type="xygrid"
     id="grid1409" /></sodipodi:namedview>

<g
   inkscape:groupmode="layer"
   id="layer1"
   inkscape:label="Layer 1"
   style="display:inline;opacity:1"><g
     id="g12"
     transform="translate(70.9,-0.30000153)">
	<path
   d="m 29.1,56.4 c 3.1,0 6,-0.6 8.7,-1.5 l -2.6,-5.8 c -1.9,0.6 -4,1 -6.1,1 -10.8,0 -19.6,-8.8 -19.6,-19.6 0,-10.8 8.8,-19.6 19.6,-19.6 10.8,0 19.6,8.8 19.6,19.6 0,1.6 -0.2,3.2 -0.6,4.8 l 5.7,3 C 54.6,35.8 55,33.2 55,30.5 55,16.2 43.4,4.6 29.1,4.6 14.8,4.6 3.2,16.2 3.2,30.5 c 0,14.3 11.6,25.9 25.9,25.9 z"
   id="path2"
   style="fill:#f3f3f3;fill-opacity:1" />
	<path
   d="m 48.1,107.1 c 0.4,1.5 0.6,3.1 0.6,4.8 0,10.8 -8.8,19.6 -19.6,19.6 -10.8,0 -19.6,-8.8 -19.6,-19.6 0,-10.8 8.8,-19.6 19.6,-19.6 2.1,0 4.2,0.4 6.1,1 l 2.6,-5.8 C 35.1,86.5 32.1,86 29.1,86 14.8,86 3.2,97.6 3.2,111.9 c 0,14.3 11.6,25.9 25.9,25.9 14.3,0 25.9,-11.6 25.9,-25.9 0,-2.7 -0.4,-5.3 -1.2,-7.8 z"
   id="path4"
   style="fill:#f3f3f3;fill-opacity:1" />
	
	
	<path
   id="path10"
   d="m 100.09961,21.300781 c -4.900001,0 -8.798829,3.898828 -8.798829,8.798828 0,4.9 3.898828,8.800782 8.798829,8.800782 1.6,0 3.2,-0.501172 4.5,-1.201172 9.5,10.8 17.5,24.400781 17.5,32.800781 v 0.400391 0.40039 c 0,8.4 -8,21.998828 -17.5,32.798829 -1.3,-0.8 -2.8,-1.19922 -4.5,-1.19922 -4.800001,0 -8.798829,3.89883 -8.798829,8.79883 0,4.9 3.898828,8.80078 8.798829,8.80078 4.9,0 8.80078,-3.90078 8.80078,-8.80078 0,-1.4 -0.30039,-2.69844 -0.90039,-3.89844 11.70427,-9.769677 23.11977,-14.473385 32,-14.771483 V 81.082031 c 0,-22.504785 0,-13.66756 0,-24.68164 V 48.771484 C 131.0341,48.48195 119.70783,43.869407 108,34 c 0.6,-1.2 0.90039,-2.500391 0.90039,-3.900391 0,-4.8 -3.90078,-8.798828 -8.80078,-8.798828 z"
   transform="translate(-70.9,0.30000153)"
   style="fill:#f3f3f3;fill-opacity:1"
   sodipodi:nodetypes="ssscscscssssccssccss" />
</g><path
     style="fill:#f3f3f3;fill-opacity:1;stroke:none;stroke-width:1px;stroke-linecap:butt;stroke-linejoin:miter;stroke-opacity:1"
     d="m 5,70 v 25 h 30 v 20 L 75,70 Z"
     id="path914"
     sodipodi:nodetypes="cccccc" /><path
     style="fill:#f3f3f3;fill-opacity:1;stroke:none;stroke-width:1px;stroke-linecap:butt;stroke-linejoin:miter;stroke-opacity:1"
     d="M 5,70 V 45 H 35 V 25 l 40,45 z"
     id="path916"
     sodipodi:nodetypes="cccccc" /></g></svg>
