<?xml version="1.0" encoding="UTF-8" standalone="no"?>
<svg
   xmlns:dc="http://purl.org/dc/elements/1.1/"
   xmlns:cc="http://creativecommons.org/ns#"
   xmlns:rdf="http://www.w3.org/1999/02/22-rdf-syntax-ns#"
   xmlns:svg="http://www.w3.org/2000/svg"
   xmlns="http://www.w3.org/2000/svg"
   xmlns:sodipodi="http://sodipodi.sourceforge.net/DTD/sodipodi-0.dtd"
   xmlns:inkscape="http://www.inkscape.org/namespaces/inkscape"
   version="1.1"
   id="Capa_1"
   x="0px"
   y="0px"
   viewBox="0 0 141.7 141.7"
   enable-background="new 0 0 141.7 141.7"
   xml:space="preserve"
   sodipodi:docname="cf_icon_MP_add_grey.svg"
   inkscape:version="1.0.1 (3bc2e813f5, 2020-09-07)"
   inkscape:export-filename="C:\Users\arnau\Documents\GitHub\inav-configurator\images\icons\cf_icon_MP_save2file.png"
   inkscape:export-xdpi="74"
   inkscape:export-ydpi="74"><metadata
   id="metadata19"><rdf:RDF><cc:Work
       rdf:about=""><dc:format>image/svg+xml</dc:format><dc:type
         rdf:resource="http://purl.org/dc/dcmitype/StillImage" /><dc:title /></cc:Work></rdf:RDF></metadata><defs
   id="defs17"><marker
     style="overflow:visible"
     id="marker1338"
     refX="0.0"
     refY="0.0"
     orient="auto"
     inkscape:stockid="Arrow1Lstart"
     inkscape:isstock="true"><path
       transform="scale(0.8) translate(12.5,0)"
       style="fill-rule:evenodd;stroke:#000000;stroke-width:1.0pt"
       d="M 0.0,0.0 L 5.0,-5.0 L -12.5,0.0 L 5.0,5.0 L 0.0,0.0 z "
       id="path1336" /></marker><marker
     style="overflow:visible"
     id="marker1292"
     refX="0.0"
     refY="0.0"
     orient="auto"
     inkscape:stockid="Arrow1Lstart"
     inkscape:isstock="true"><path
       transform="scale(0.8) translate(12.5,0)"
       style="fill-rule:evenodd;stroke:#000000;stroke-width:1.0pt"
       d="M 0.0,0.0 L 5.0,-5.0 L -12.5,0.0 L 5.0,5.0 L 0.0,0.0 z "
       id="path1290" /></marker><marker
     style="overflow:visible"
     id="marker1252"
     refX="0.0"
     refY="0.0"
     orient="auto"
     inkscape:stockid="Arrow1Lstart"
     inkscape:isstock="true"><path
       transform="scale(0.8) translate(12.5,0)"
       style="fill-rule:evenodd;stroke:#000000;stroke-width:1.0pt"
       d="M 0.0,0.0 L 5.0,-5.0 L -12.5,0.0 L 5.0,5.0 L 0.0,0.0 z "
       id="path1250" /></marker><marker
     style="overflow:visible"
     id="marker1218"
     refX="0.0"
     refY="0.0"
     orient="auto"
     inkscape:stockid="Arrow1Lstart"
     inkscape:isstock="true"><path
       transform="scale(0.8) translate(12.5,0)"
       style="fill-rule:evenodd;stroke:#000000;stroke-width:1.0pt"
       d="M 0.0,0.0 L 5.0,-5.0 L -12.5,0.0 L 5.0,5.0 L 0.0,0.0 z "
       id="path1216" /></marker><marker
     style="overflow:visible"
     id="marker1172"
     refX="0.0"
     refY="0.0"
     orient="auto"
     inkscape:stockid="Arrow1Lstart"
     inkscape:isstock="true"><path
       transform="scale(0.8) translate(12.5,0)"
       style="fill-rule:evenodd;stroke:#000000;stroke-width:1pt;stroke-opacity:1;fill:#000000;fill-opacity:1"
       d="M 0.0,0.0 L 5.0,-5.0 L -12.5,0.0 L 5.0,5.0 L 0.0,0.0 z "
       id="path1170" /></marker><marker
     style="overflow:visible"
     id="marker1150"
     refX="0.0"
     refY="0.0"
     orient="auto"
     inkscape:stockid="Arrow1Lstart"
     inkscape:isstock="true"><path
       transform="scale(0.8) translate(12.5,0)"
       style="fill-rule:evenodd;stroke:#000000;stroke-width:1pt;stroke-opacity:1;fill:#000000;fill-opacity:1"
       d="M 0.0,0.0 L 5.0,-5.0 L -12.5,0.0 L 5.0,5.0 L 0.0,0.0 z "
       id="path1148" /></marker><marker
     style="overflow:visible"
     id="marker1128"
     refX="0.0"
     refY="0.0"
     orient="auto"
     inkscape:stockid="Arrow1Lstart"
     inkscape:isstock="true"><path
       transform="scale(0.8) translate(12.5,0)"
       style="fill-rule:evenodd;stroke:#000000;stroke-width:1pt;stroke-opacity:1;fill:#000000;fill-opacity:1"
       d="M 0.0,0.0 L 5.0,-5.0 L -12.5,0.0 L 5.0,5.0 L 0.0,0.0 z "
       id="path1126" /></marker><marker
     style="overflow:visible"
     id="Arrow1Lstart"
     refX="0.0"
     refY="0.0"
     orient="auto"
     inkscape:stockid="Arrow1Lstart"
     inkscape:isstock="true"><path
       transform="scale(0.8) translate(12.5,0)"
       style="fill-rule:evenodd;stroke:#000000;stroke-width:1.0pt"
       d="M 0.0,0.0 L 5.0,-5.0 L -12.5,0.0 L 5.0,5.0 L 0.0,0.0 z "
       id="path856" /></marker><filter
     inkscape:collect="always"
     style="color-interpolation-filters:sRGB"
     id="filter3685"
     x="-2.1675e-05"
     width="1.0000434"
     y="-2.1675e-05"
     height="1.0000434"><feGaussianBlur
       inkscape:collect="always"
       stdDeviation="0.0011740625"
       id="feGaussianBlur3687" /></filter></defs><sodipodi:namedview
   pagecolor="#ffffff"
   bordercolor="#666666"
   borderopacity="1"
   objecttolerance="10"
   gridtolerance="10"
   guidetolerance="10"
   inkscape:pageopacity="0"
   inkscape:pageshadow="2"
   inkscape:window-width="1368"
   inkscape:window-height="850"
   id="namedview15"
   showgrid="true"
   inkscape:zoom="2.8743367"
   inkscape:cx="77.947778"
   inkscape:cy="74.480095"
   inkscape:window-x="-6"
   inkscape:window-y="-6"
   inkscape:window-maximized="1"
   inkscape:current-layer="layer1"
   inkscape:snap-grids="true"
   inkscape:document-rotation="0"><inkscape:grid
     type="xygrid"
     id="grid1409" /></sodipodi:namedview>

<g
   inkscape:groupmode="layer"
   id="layer1"
   inkscape:label="Layer 1"
   style="display:inline;opacity:1;filter:url(#filter3685)" /><g
   inkscape:groupmode="layer"
   id="layer2"
   inkscape:label="Layer 2"
   style="opacity:0.992325"><path
     id="rect3692"
     style="opacity:0.994175;fill:#f3f3f3;fill-opacity:1;stroke-width:8.27818;stroke-linecap:round;stroke-linejoin:round;stroke-miterlimit:4;stroke-dasharray:none"
     d="M 57.5 17.5 C 53.345 17.5 50 20.845 50 25 L 50 50 L 25 50 C 20.845 50 17.5 53.345 17.5 57.5 L 17.5 82.5 C 17.5 86.655 20.845 90 25 90 L 50 90 L 50 115 C 50 119.155 53.345 122.5 57.5 122.5 L 82.5 122.5 C 86.655 122.5 90 119.155 90 115 L 90 90 L 115 90 C 119.155 90 122.5 86.655 122.5 82.5 L 122.5 57.5 C 122.5 53.345 119.155 50 115 50 L 90 50 L 90 25 C 90 20.845 86.655 17.5 82.5 17.5 L 57.5 17.5 z " /></g></svg>
