<?xml version="1.0" encoding="UTF-8" standalone="no"?>
<svg
   xmlns:dc="http://purl.org/dc/elements/1.1/"
   xmlns:cc="http://creativecommons.org/ns#"
   xmlns:rdf="http://www.w3.org/1999/02/22-rdf-syntax-ns#"
   xmlns:svg="http://www.w3.org/2000/svg"
   xmlns="http://www.w3.org/2000/svg"
   xmlns:sodipodi="http://sodipodi.sourceforge.net/DTD/sodipodi-0.dtd"
   xmlns:inkscape="http://www.inkscape.org/namespaces/inkscape"
   version="1.1"
   id="Capa_1"
   x="0px"
   y="0px"
   viewBox="0 0 141.7 141.7"
   enable-background="new 0 0 141.7 141.7"
   xml:space="preserve"
   sodipodi:docname="cf_icon_MP_reduce_grey.svg"
   inkscape:version="1.0.1 (3bc2e813f5, 2020-09-07)"
   inkscape:export-filename="C:\Users\arnau\Documents\GitHub\inav-configurator\images\icons\cf_icon_MP_save2file.png"
   inkscape:export-xdpi="74"
   inkscape:export-ydpi="74"><metadata
   id="metadata19"><rdf:RDF><cc:Work
       rdf:about=""><dc:format>image/svg+xml</dc:format><dc:type
         rdf:resource="http://purl.org/dc/dcmitype/StillImage" /><dc:title></dc:title></cc:Work></rdf:RDF></metadata><defs
   id="defs17"><marker
     style="overflow:visible"
     id="marker1338"
     refX="0.0"
     refY="0.0"
     orient="auto"
     inkscape:stockid="Arrow1Lstart"
     inkscape:isstock="true"><path
       transform="scale(0.8) translate(12.5,0)"
       style="fill-rule:evenodd;stroke:#000000;stroke-width:1.0pt"
       d="M 0.0,0.0 L 5.0,-5.0 L -12.5,0.0 L 5.0,5.0 L 0.0,0.0 z "
       id="path1336" /></marker><marker
     style="overflow:visible"
     id="marker1292"
     refX="0.0"
     refY="0.0"
     orient="auto"
     inkscape:stockid="Arrow1Lstart"
     inkscape:isstock="true"><path
       transform="scale(0.8) translate(12.5,0)"
       style="fill-rule:evenodd;stroke:#000000;stroke-width:1.0pt"
       d="M 0.0,0.0 L 5.0,-5.0 L -12.5,0.0 L 5.0,5.0 L 0.0,0.0 z "
       id="path1290" /></marker><marker
     style="overflow:visible"
     id="marker1252"
     refX="0.0"
     refY="0.0"
     orient="auto"
     inkscape:stockid="Arrow1Lstart"
     inkscape:isstock="true"><path
       transform="scale(0.8) translate(12.5,0)"
       style="fill-rule:evenodd;stroke:#000000;stroke-width:1.0pt"
       d="M 0.0,0.0 L 5.0,-5.0 L -12.5,0.0 L 5.0,5.0 L 0.0,0.0 z "
       id="path1250" /></marker><marker
     style="overflow:visible"
     id="marker1218"
     refX="0.0"
     refY="0.0"
     orient="auto"
     inkscape:stockid="Arrow1Lstart"
     inkscape:isstock="true"><path
       transform="scale(0.8) translate(12.5,0)"
       style="fill-rule:evenodd;stroke:#000000;stroke-width:1.0pt"
       d="M 0.0,0.0 L 5.0,-5.0 L -12.5,0.0 L 5.0,5.0 L 0.0,0.0 z "
       id="path1216" /></marker><marker
     style="overflow:visible"
     id="marker1172"
     refX="0.0"
     refY="0.0"
     orient="auto"
     inkscape:stockid="Arrow1Lstart"
     inkscape:isstock="true"><path
       transform="scale(0.8) translate(12.5,0)"
       style="fill-rule:evenodd;stroke:#000000;stroke-width:1pt;stroke-opacity:1;fill:#000000;fill-opacity:1"
       d="M 0.0,0.0 L 5.0,-5.0 L -12.5,0.0 L 5.0,5.0 L 0.0,0.0 z "
       id="path1170" /></marker><marker
     style="overflow:visible"
     id="marker1150"
     refX="0.0"
     refY="0.0"
     orient="auto"
     inkscape:stockid="Arrow1Lstart"
     inkscape:isstock="true"><path
       transform="scale(0.8) translate(12.5,0)"
       style="fill-rule:evenodd;stroke:#000000;stroke-width:1pt;stroke-opacity:1;fill:#000000;fill-opacity:1"
       d="M 0.0,0.0 L 5.0,-5.0 L -12.5,0.0 L 5.0,5.0 L 0.0,0.0 z "
       id="path1148" /></marker><marker
     style="overflow:visible"
     id="marker1128"
     refX="0.0"
     refY="0.0"
     orient="auto"
     inkscape:stockid="Arrow1Lstart"
     inkscape:isstock="true"><path
       transform="scale(0.8) translate(12.5,0)"
       style="fill-rule:evenodd;stroke:#000000;stroke-width:1pt;stroke-opacity:1;fill:#000000;fill-opacity:1"
       d="M 0.0,0.0 L 5.0,-5.0 L -12.5,0.0 L 5.0,5.0 L 0.0,0.0 z "
       id="path1126" /></marker><marker
     style="overflow:visible"
     id="Arrow1Lstart"
     refX="0.0"
     refY="0.0"
     orient="auto"
     inkscape:stockid="Arrow1Lstart"
     inkscape:isstock="true"><path
       transform="scale(0.8) translate(12.5,0)"
       style="fill-rule:evenodd;stroke:#000000;stroke-width:1.0pt"
       d="M 0.0,0.0 L 5.0,-5.0 L -12.5,0.0 L 5.0,5.0 L 0.0,0.0 z "
       id="path856" /></marker><filter
     inkscape:collect="always"
     style="color-interpolation-filters:sRGB"
     id="filter3685"
     x="-2.1675e-05"
     width="1.0000434"
     y="-2.1675e-05"
     height="1.0000434"><feGaussianBlur
       inkscape:collect="always"
       stdDeviation="0.0011740625"
       id="feGaussianBlur3687" /></filter></defs><sodipodi:namedview
   pagecolor="#ffffff"
   bordercolor="#666666"
   borderopacity="1"
   objecttolerance="10"
   gridtolerance="10"
   guidetolerance="10"
   inkscape:pageopacity="0"
   inkscape:pageshadow="2"
   inkscape:window-width="1368"
   inkscape:window-height="850"
   id="namedview15"
   showgrid="true"
   inkscape:zoom="2.8743367"
   inkscape:cx="77.947778"
   inkscape:cy="74.480095"
   inkscape:window-x="-6"
   inkscape:window-y="-6"
   inkscape:window-maximized="1"
   inkscape:current-layer="layer1"
   inkscape:snap-grids="true"
   inkscape:document-rotation="0"><inkscape:grid
     type="xygrid"
     id="grid1409" /></sodipodi:namedview>

<g
   inkscape:groupmode="layer"
   id="layer1"
   inkscape:label="Layer 1"
   style="display:inline;opacity:1;filter:url(#filter3685)"><path
     id="path1846"
     style="opacity:0.994175;fill:#f3f3f3;fill-opacity:1;stroke:none;stroke-width:6;stroke-linecap:round;stroke-linejoin:round;stroke-miterlimit:4;stroke-dasharray:none;stroke-dashoffset:0;stroke-opacity:1"
     d="M 70 5 A 65 65 0 0 0 5 70 A 65 65 0 0 0 70 135 A 65 65 0 0 0 135 70 A 65 65 0 0 0 70 5 z M 39.935547 26.621094 C 40.445195 26.661384 40.939184 26.896967 41.298828 27.318359 L 44.828125 31.453125 C 41.534162 27.734442 40.368277 26.642578 39.847656 26.642578 C 39.385717 26.642578 38.620743 27.085196 37.316406 28.085938 L 38.478516 27.09375 C 38.899908 26.734106 39.425899 26.580801 39.935547 26.621094 z M 100.06445 26.621094 C 100.5741 26.580804 101.10009 26.734106 101.52148 27.09375 L 102.52148 27.947266 C 101.3243 27.052781 100.54498 26.643919 99.949219 26.640625 C 99.987888 26.635277 100.02555 26.62417 100.06445 26.621094 z M 31.119141 33.376953 C 29.863336 34.564454 29.419495 35.173447 29.416016 35.666016 C 29.440295 35.133428 29.671657 34.611573 30.111328 34.236328 L 31.119141 33.376953 z M 108.99023 33.46875 L 109.88867 34.236328 C 110.21621 34.515868 110.42883 34.877712 110.52734 35.263672 C 110.32476 34.838621 109.85284 34.287032 108.99023 33.46875 z M 29.416016 35.677734 C 29.420464 36.145828 30.823937 38.02784 34.210938 42.119141 L 29.888672 37.054688 C 29.547379 36.654797 29.396775 36.162276 29.416016 35.677734 z M 110.47461 36.414062 C 110.39488 36.641236 110.27753 36.859943 110.11133 37.054688 L 106.75195 40.990234 C 108.88234 38.434823 110.29762 36.703272 110.47461 36.414062 z M 25 45 L 115 45 C 119.155 45 122.5 48.345 122.5 52.5 L 122.5 87.5 C 122.5 91.655 119.155 95 115 95 L 25 95 C 20.845 95 17.5 91.655 17.5 87.5 L 17.5 52.5 C 17.5 48.345 20.845 45 25 45 z M 31.175781 106.4375 C 30.293996 107.51103 29.733637 108.21312 29.677734 108.32812 C 29.423857 108.85037 29.401471 109.40758 29.613281 109.94531 C 29.717348 110.20952 30.599168 111.08712 31.707031 112.125 L 30.111328 110.76367 C 29.268543 110.04438 29.169383 108.7881 29.888672 107.94531 L 31.175781 106.4375 z M 110.08008 107.91016 L 110.11133 107.94531 C 110.22466 108.0781 110.31178 108.22345 110.38477 108.37305 C 110.3017 108.22969 110.20486 108.08045 110.08008 107.91016 z M 110.46875 109.9082 C 110.35523 110.22799 110.16651 110.52655 109.88867 110.76367 L 108.91406 111.5957 C 109.70516 110.84296 110.26814 110.24226 110.46875 109.9082 z M 97.589844 116.37891 C 98.508616 117.38803 99.077824 117.9543 99.419922 118.20898 C 99.152396 118.09105 98.904254 117.91959 98.701172 117.68164 L 97.589844 116.37891 z M 103.25977 116.42188 L 101.52148 117.90625 C 101.22073 118.16293 100.8671 118.31002 100.50391 118.36133 C 101.04659 118.08855 102.07668 117.3442 103.25977 116.42188 z M 38.306641 117.75977 C 38.640342 118.01172 38.941415 118.18864 39.222656 118.30273 C 38.957484 118.22604 38.702824 118.09769 38.478516 117.90625 L 38.306641 117.75977 z " /></g><g
   inkscape:groupmode="layer"
   id="layer2"
   inkscape:label="Layer 2"
   style="opacity:0.992325" /></svg>
