<?xml version="1.0" encoding="utf-8"?>
<!-- Generator: Adobe Illustrator 25.2.3, SVG Export Plug-In . SVG Version: 6.00 Build 0)  -->
<svg version="1.1"
	 id="Capa_1" xmlns:cc="http://creativecommons.org/ns#" xmlns:dc="http://purl.org/dc/elements/1.1/" xmlns:inkscape="http://www.inkscape.org/namespaces/inkscape" xmlns:rdf="http://www.w3.org/1999/02/22-rdf-syntax-ns#" xmlns:sodipodi="http://sodipodi.sourceforge.net/DTD/sodipodi-0.dtd" xmlns:svg="http://www.w3.org/2000/svg"
	 xmlns="http://www.w3.org/2000/svg" xmlns:xlink="http://www.w3.org/1999/xlink" x="0px" y="0px" viewBox="0 0 141.7 141.7"
	 style="enable-background:new 0 0 141.7 141.7;" xml:space="preserve">
<style type="text/css">
	.st0{opacity:0.9942;fill:#4CB944;enable-background:new    ;}
	.st1{fill:#4CB944;}
</style>
<sodipodi:namedview  bordercolor="#666666" borderopacity="1" gridtolerance="10" guidetolerance="10" id="namedview15" inkscape:current-layer="layer1" inkscape:cx="70.17472" inkscape:cy="76.133228" inkscape:document-rotation="0" inkscape:pageopacity="0" inkscape:pageshadow="2" inkscape:snap-grids="true" inkscape:window-height="850" inkscape:window-maximized="1" inkscape:window-width="1368" inkscape:window-x="-6" inkscape:window-y="-6" inkscape:zoom="4.064926" objecttolerance="10" pagecolor="#ffffff" showgrid="true">
	<inkscape:grid  id="grid1409" type="xygrid"></inkscape:grid>
</sodipodi:namedview>
<g id="layer1" inkscape:groupmode="layer" inkscape:label="Layer 1">
	<g>
		<path id="rect1518_8_" class="st0" d="M30,55c-2.8,0-5,2.2-5,5v70c0,2.8,2.2,5,5,5h30.5c-1.7,0-3-1.3-3-3V93c0-1.7,1.3-3,3-3h19
			c1.7,0,3,1.3,3,3v39c0,1.7-1.3,3-3,3H110c2.8,0,5-2.2,5-5V60c0-2.8-2.2-5-5-5H30z"/>
		<path id="path1522_8_" sodipodi:nodetypes="cccc" class="st1" d="M5,75h130L70,15L5,75z"/>
		<path id="rect1524_8_" class="st0" d="M93,20h14c1.7,0,3,1.3,3,3v29c0,1.7-1.3,3-3,3H93c-1.7,0-3-1.3-3-3V23
			C90,21.3,91.3,20,93,20z"/>
	</g>
</g>
<g id="layer2" inkscape:groupmode="layer" inkscape:label="Layer 2">
</g>
</svg>
