<?xml version="1.0" encoding="utf-8"?>
<!-- Generator: Adobe Illustrator 19.1.0, SVG Export Plug-In . SVG Version: 6.00 Build 0)  -->
<svg version="1.1" id="Capa_1" xmlns="http://www.w3.org/2000/svg" xmlns:xlink="http://www.w3.org/1999/xlink" x="0px" y="0px"
	 viewBox="-28 30.3 141.7 141.7" style="enable-background:new -28 30.3 141.7 141.7;" xml:space="preserve">
<style type="text/css">
	.st0{fill:#FFFFFF;stroke:#FFFFFF;stroke-width:5;stroke-miterlimit:10;}
</style>
<path class="st0" d="M42.2,154.8c-29.8,0-54-24.2-54-54c0-29.8,24.2-54,54-54c29.8,0,54,24.2,54,54S72,154.8,42.2,154.8z M42.2,51.7
	c-27,0-49,22-49,49c0,27,22,49,49,49c27,0,49-22,49-49C91.2,73.7,69.2,51.7,42.2,51.7z"/>
<g>
	<g>
		<g>
			<path class="st0" d="M42.2,100.7l0,33.7c-18.6,0-33.7-15.1-33.7-33.7l0,0L42.2,100.7z"/>
		</g>
	</g>
	<g>
		<g>
			<path class="st0" d="M42.2,100.7l0-33.7c18.6,0,33.7,15.1,33.7,33.7l0,0L42.2,100.7z"/>
		</g>
	</g>
</g>
<rect x="39.7" y="34.7" class="st0" width="5" height="132"/>
<rect x="-23.8" y="98.2" class="st0" width="132" height="5"/>
</svg>
