<?xml version="1.0" encoding="utf-8"?>
<!-- Generator: Adobe Illustrator 25.2.3, SVG Export Plug-In . SVG Version: 6.00 Build 0)  -->
<svg version="1.1" id="Capa_1" xmlns="http://www.w3.org/2000/svg" xmlns:xlink="http://www.w3.org/1999/xlink" x="0px" y="0px"
	 viewBox="0 0 92 92" style="enable-background:new 0 0 92 92;" xml:space="preserve">
<style type="text/css">
	.st0{fill:#4CB944;}
</style>
<g>
	<g>
		<path class="st0" d="M45.4,3C21.6,3.3,2.6,22.8,2.9,46.6s19.8,42.8,43.6,42.5C70.3,88.8,89.3,69.3,89,45.5S69.2,2.7,45.4,3z
			 M45.3,72.2H45c-3.6-0.1-6.3-2.8-6.2-6.5c0.1-3.6,2.7-6.1,6.3-6.1h0.2c3.7,0.1,6.3,2.8,6.2,6.5C51.5,69.7,48.9,72.2,45.3,72.2z
			 M60.7,41.6c-0.8,1.2-2.7,2.7-5.1,4.6L53,48c-1.4,1.1-2.3,2.2-2.6,3.2c-0.3,0.8-0.4,1-0.4,2.7v0.5H40v-0.8
			c0.1-3.5,0.2-5.5,1.7-7.2c2.2-2.6,7.3-5.9,7.5-6c0.7-0.6,1.3-1.1,1.8-1.8c1-1.5,1.5-2.6,1.5-3.7c0-1.6-0.5-3-1.4-4.3
			c-0.8-1.2-2.5-1.9-5-1.9s-4,0.7-5.1,2.3c-1,1.6-1.5,3.3-1.5,5.1v0.5H29.1V36c0.3-6.4,2.5-10.9,6.7-13.6c2.6-1.7,5.9-2.5,9.7-2.5
			c5,0,9.3,1.2,12.5,3.6c3.4,2.4,5.1,6.1,5.1,10.9C63.2,36.9,62.4,39.4,60.7,41.6z"/>
	</g>
</g>
</svg>
