<?xml version="1.0" encoding="utf-8"?>
<!-- Generator: Adobe Illustrator 16.0.0, SVG Export Plug-In . SVG Version: 6.00 Build 0)  -->
<!DOCTYPE svg PUBLIC "-//W3C//DTD SVG 1.1//EN" "http://www.w3.org/Graphics/SVG/1.1/DTD/svg11.dtd">
<svg version="1.1" id="Capa_1" xmlns="http://www.w3.org/2000/svg" xmlns:xlink="http://www.w3.org/1999/xlink" x="0px" y="0px"
	 width="283.46px" height="141.73px" viewBox="0 0 283.46 141.73" enable-background="new 0 0 283.46 141.73" xml:space="preserve">
<g>
	<circle fill="#999999" cx="141.73" cy="100.25" r="5.271"/>
	<path fill="#999999" d="M160.347,114.468h-37.234c0.025,7.52-4.19,12.583-9.941,16.749h57.114
		C163.099,126.682,160.447,120.906,160.347,114.468z"/>
	<path fill="#999999" d="M213.125,6H70.336c-2.261,0-4.104,1.843-4.104,4.104v94.594c0,2.262,1.843,4.104,4.104,4.104h142.789
		c2.262,0,4.104-1.844,4.104-4.104V10.104C217.228,7.843,215.386,6,213.125,6z M141.73,105.521c-2.912,0-5.271-2.359-5.271-5.271
		s2.359-5.271,5.271-5.271s5.272,2.359,5.272,5.271S144.642,105.521,141.73,105.521z M208.515,88.036
		c0,1.99-1.633,3.624-3.623,3.624H78.581c-1.99,0-3.625-1.634-3.625-3.624V17.354c-0.012-1.991,1.622-3.625,3.625-3.625h126.311
		c2.002,0,3.623,1.634,3.623,3.625V88.036z"/>
</g>
</svg>
