<?xml version="1.0" encoding="UTF-8" standalone="no"?>
<!-- Generator: Adobe Illustrator 18.1.1, SVG Export Plug-In . SVG Version: 6.00 Build 0)  -->

<svg
   version="1.1"
   id="Capa_1"
   x="0px"
   y="0px"
   viewBox="0 0 141.7 141.7"
   enable-background="new 0 0 141.7 141.7"
   xml:space="preserve"
   sodipodi:docname="cf_icon_MM_white.svg"
   inkscape:version="1.1 (c68e22c387, 2021-05-23)"
   xmlns:inkscape="http://www.inkscape.org/namespaces/inkscape"
   xmlns:sodipodi="http://sodipodi.sourceforge.net/DTD/sodipodi-0.dtd"
   xmlns="http://www.w3.org/2000/svg"
   xmlns:svg="http://www.w3.org/2000/svg"><defs
   id="defs12" /><sodipodi:namedview
   id="namedview10"
   pagecolor="#ffffff"
   bordercolor="#666666"
   borderopacity="1.0"
   inkscape:pageshadow="2"
   inkscape:pageopacity="0.0"
   inkscape:pagecheckerboard="true"
   showgrid="false"
   inkscape:zoom="3.7402965"
   inkscape:cx="77.132923"
   inkscape:cy="70.983678"
   inkscape:window-width="1366"
   inkscape:window-height="715"
   inkscape:window-x="-8"
   inkscape:window-y="-8"
   inkscape:window-maximized="1"
   inkscape:current-layer="Capa_1" />
<g
   id="g7"
   transform="rotate(-90,69.810245,71.05)">
	<g
   id="_x34_29._Network">
		<g
   id="g4">
			<path
   fill="#ffffff"
   d="M 122.4,98.3 V 77.6 c 0,-7.2 -5.9,-13.1 -13.1,-13.1 H 76.6 V 43.7 C 84.2,41 89.7,33.7 89.7,25.2 89.7,14.4 80.9,5.6 70.1,5.6 59.3,5.6 50.5,14.4 50.5,25.2 50.5,33.8 56,41 63.6,43.7 V 64.5 H 30.7 c -7.2,0 -13.1,5.9 -13.1,13.1 V 98.4 C 10,101 4.5,108.3 4.5,116.8 c 0,10.8 8.8,19.6 19.6,19.6 10.8,0 19.6,-8.8 19.6,-19.6 0,-8.5 -5.5,-15.8 -13.1,-18.5 V 77.6 h 32.7 v 20.8 c -7.6,2.7 -13.1,9.9 -13.1,18.5 0,10.8 8.8,19.6 19.6,19.6 10.8,0 19.6,-8.8 19.6,-19.6 0,-8.5 -5.5,-15.8 -13.1,-18.5 V 77.6 H 109 v 20.8 c -7.6,2.7 -13.1,9.9 -13.1,18.5 0,10.8 8.8,19.6 19.6,19.6 10.8,0 19.6,-8.8 19.6,-19.6 0.4,-8.6 -5.1,-15.9 -12.7,-18.6 z m -98.2,25.1 c -3.6,0 -6.5,-2.9 -6.5,-6.5 0,-3.6 2.9,-6.5 6.5,-6.5 3.6,0 6.5,2.9 6.5,6.5 0,3.6 -2.9,6.5 -6.5,6.5 z m 45.8,0 c -3.6,0 -6.5,-2.9 -6.5,-6.5 0,-3.6 2.9,-6.5 6.5,-6.5 3.6,0 6.5,2.9 6.5,6.5 0.1,3.6 -2.9,6.5 -6.5,6.5 z m 0,-91.7 c -3.6,0 -6.5,-2.9 -6.5,-6.6 0,-3.6 2.9,-6.5 6.5,-6.5 3.6,0 6.5,2.9 6.5,6.5 0.1,3.7 -2.9,6.6 -6.5,6.6 z m 45.8,91.7 c -3.6,0 -6.5,-2.9 -6.5,-6.5 0,-3.6 2.9,-6.5 6.5,-6.5 3.6,0 6.5,2.9 6.5,6.5 0.1,3.6 -2.8,6.5 -6.5,6.5 z"
   id="path2" />
		</g>
	</g>
</g>
</svg>
