<?xml version="1.0" encoding="UTF-8" standalone="no"?>
<svg
   xmlns:dc="http://purl.org/dc/elements/1.1/"
   xmlns:cc="http://creativecommons.org/ns#"
   xmlns:rdf="http://www.w3.org/1999/02/22-rdf-syntax-ns#"
   xmlns:svg="http://www.w3.org/2000/svg"
   xmlns="http://www.w3.org/2000/svg"
   xmlns:sodipodi="http://sodipodi.sourceforge.net/DTD/sodipodi-0.dtd"
   xmlns:inkscape="http://www.inkscape.org/namespaces/inkscape"
   version="1.1"
   id="Capa_1"
   x="0px"
   y="0px"
   viewBox="0 0 141.7 141.7"
   enable-background="new 0 0 141.7 141.7"
   xml:space="preserve"
   sodipodi:docname="cf_icon_safehome_white.svg"
   inkscape:version="1.0.1 (3bc2e813f5, 2020-09-07)"><metadata
   id="metadata955"><rdf:RDF><cc:Work
       rdf:about=""><dc:format>image/svg+xml</dc:format><dc:type
         rdf:resource="http://purl.org/dc/dcmitype/StillImage" /><dc:title></dc:title></cc:Work></rdf:RDF></metadata><defs
   id="defs953" /><sodipodi:namedview
   pagecolor="#ffffff"
   bordercolor="#666666"
   borderopacity="1"
   objecttolerance="10"
   gridtolerance="10"
   guidetolerance="10"
   inkscape:pageopacity="0"
   inkscape:pageshadow="2"
   inkscape:window-width="1368"
   inkscape:window-height="850"
   id="namedview951"
   showgrid="false"
   inkscape:zoom="2.9841204"
   inkscape:cx="54.451582"
   inkscape:cy="68.406303"
   inkscape:window-x="-6"
   inkscape:window-y="-6"
   inkscape:window-maximized="1"
   inkscape:current-layer="Capa_1" />

<g
   id="g1558"
   transform="translate(16.398417,2.4436968)"
   style="fill:#ffffff;fill-opacity:1"><path
     id="rect1518"
     style="display:inline;opacity:0.994175;fill:#ffffff;fill-opacity:1;stroke-width:6;stroke-linecap:round;stroke-linejoin:round"
     d="m 14.451582,48.406303 c -2.77,0 -4.9999999,2.23 -4.9999999,5 V 123.4063 c 0,2.77 2.2299999,5 4.9999999,5 h 30.5 c -1.662,0 -3,-1.338 -3,-3 V 86.406303 c 0,-1.662 1.338,-3 3,-3 h 19 c 1.662,0 3,1.338 3,3 V 125.4063 c 0,1.662 -1.338,3 -3,3 h 30.5 c 2.77,0 5,-2.23 5,-5 V 53.406303 c 0,-2.77 -2.23,-5 -5,-5 z" /><path
     style="display:inline;opacity:1;fill:#ffffff;fill-opacity:1;stroke:none;stroke-width:1px;stroke-linecap:butt;stroke-linejoin:miter;stroke-opacity:1"
     d="M -10.548418,68.406303 H 119.45158 L 54.451582,8.4063034 Z"
     id="path1522"
     sodipodi:nodetypes="cccc" /><rect
     style="display:inline;opacity:0.994175;fill:#ffffff;fill-opacity:1;fill-rule:nonzero;stroke:none;stroke-width:6;stroke-linecap:round;stroke-linejoin:round"
     id="rect1524"
     width="20"
     height="35"
     x="74.451584"
     y="13.406303"
     ry="3" /></g></svg>
