<?xml version="1.0" standalone="no"?>
<!DOCTYPE svg PUBLIC "-//W3C//DTD SVG 20010904//EN"
 "http://www.w3.org/TR/2001/REC-SVG-20010904/DTD/svg10.dtd">
<svg version="1.0" xmlns="http://www.w3.org/2000/svg"
 width="1052.000000pt" height="1052.000000pt" viewBox="0 0 1052.000000 1052.000000"
 preserveAspectRatio="xMidYMid meet">
<metadata>
Created by potrace 1.10, written by Peter Selinger 2001-2011
</metadata>
<g transform="translate(0.000000,1052.000000) scale(0.100000,-0.100000)"
fill="#ffffff" stroke="none">
<path d="M7840 5740 c-378 -30 -695 -166 -931 -400 -243 -241 -359 -535 -359
-908 0 -558 229 -948 740 -1257 130 -78 307 -163 613 -295 417 -179 572 -264
671 -370 122 -131 156 -340 79 -500 -15 -31 -54 -83 -89 -118 -118 -119 -304
-182 -535 -182 -390 0 -681 160 -915 506 -32 46 -61 84 -65 84 -9 0 -770 -439
-786 -454 -10 -9 -2 -30 37 -94 304 -512 779 -812 1421 -898 168 -23 483 -22
644 0 404 57 707 191 942 419 250 241 373 553 373 944 0 250 -41 445 -134 638
-64 132 -128 221 -238 333 -211 214 -484 376 -1029 610 -412 177 -550 253
-641 350 -87 93 -124 202 -116 338 7 108 37 181 103 252 95 103 205 146 375
145 193 0 318 -50 445 -178 45 -44 103 -115 130 -158 31 -49 54 -76 62 -73 26
11 753 481 753 488 0 4 -37 62 -82 130 -96 144 -269 324 -388 403 -220 146
-455 221 -765 244 -152 12 -172 12 -315 1z"/>
<path d="M4727 3923 l-3 -1768 -22 -83 c-29 -109 -63 -174 -123 -234 -84 -84
-192 -119 -372 -120 -257 -1 -411 108 -590 414 -29 48 -55 87 -58 86 -4 -2
-185 -111 -402 -242 l-395 -240 30 -60 c179 -357 489 -627 862 -751 394 -131
900 -119 1271 30 445 180 706 552 775 1105 6 56 10 681 10 1857 l0 1773 -490
0 -489 0 -4 -1767z"/>
</g>
</svg>
