<?xml version="1.0" encoding="utf-8"?>
<!-- Generator: Adobe Illustrator 25.2.3, SVG Export Plug-In . SVG Version: 6.00 Build 0)  -->
<svg version="1.1" id="Ebene_1" xmlns="http://www.w3.org/2000/svg" xmlns:xlink="http://www.w3.org/1999/xlink" x="0px" y="0px"
	 viewBox="0 0 76.5 76.3" style="enable-background:new 0 0 76.5 76.3;" xml:space="preserve">
<style type="text/css">
	.st0{fill:#FFFFFF;stroke:#ADADAD;stroke-width:5;stroke-miterlimit:10;}
	.st1{fill:#FFFFFF;}
	.st2{fill:#4CB944;}
	.st3{fill:none;stroke:#606060;stroke-miterlimit:10;}
	.st4{fill:#606060;}
</style>
<g>
	<g>
		<circle class="st0" cx="39.4" cy="38.4" r="33.3"/>
		<g>
			<circle class="st1" cx="15.1" cy="15.9" r="11.4"/>
			<circle class="st2" cx="15.1" cy="15.9" r="9.3"/>
		</g>
		<g>
			<g>
				<g>
					<path class="st1" d="M18.9,14.6l-0.2-0.4c0.6-1.4,0.6-1.4,0.5-1.5l-0.8-0.8l-0.1-0.1h-0.1c0,0-0.2,0-1.4,0.5l-0.4-0.2
						c-0.6-1.4-0.6-1.4-0.8-1.4h-1.1c-0.2,0-0.2,0-0.8,1.4l-0.4,0.2c-0.8-0.3-1.3-0.5-1.4-0.5h-0.1L11,12.6
						c-0.1,0.1-0.2,0.2,0.5,1.5l-0.2,0.4c-1.4,0.6-1.4,0.6-1.4,0.8v1.1c0,0.2,0,0.2,1.4,0.7l0.2,0.4c-0.6,1.4-0.6,1.4-0.5,1.5
						l0.8,0.8l0.1,0.1H12c0,0,0.2,0,1.4-0.5l0.4,0.2c0.6,1.4,0.6,1.4,0.8,1.4h1.1c0.2,0,0.2,0,0.8-1.4l0.4-0.2
						c0.8,0.3,1.3,0.5,1.4,0.5h0.1l0.8-0.8c0.1-0.1,0.2-0.2-0.5-1.5l0.2-0.4c1.4-0.6,1.4-0.6,1.4-0.8v-1.1
						C20.3,15.2,20.3,15.1,18.9,14.6z M15.1,17.7c-1,0-1.8-0.8-1.8-1.8s0.8-1.8,1.8-1.8s1.8,0.8,1.8,1.8S16.1,17.7,15.1,17.7z"/>
				</g>
			</g>
		</g>
	</g>
	<g>
		<g>
			<g>
				<path class="st3" d="M51.6,48c-0.1,0-0.1-0.1-0.2-0.1c-1.6-0.7-2.8-1.3-4.2-3.6s-2.1-3.4-2.2-5.1c0.1-1.6,0.9-2.7,2.2-5
					s2.6-2.9,4.2-3.6c0.1,0,0.1-0.1,0.2-0.1c0.7-0.3,1.2-1.1,1.2-1.9c0-1.2-0.9-2.1-2.1-2.1c-0.9,0-1.7,0.6-2,1.4
					c-1.3,2.1-2.3,3-4.2,4.5s-4,2.4-5.1,2.4h-0.2c-1.1,0-3.2-0.9-5.1-2.4c-1.8-1.5-2.9-2.3-4.2-4.5c-0.3-0.8-1.1-1.4-2-1.4
					c-1.2,0-2.1,0.9-2.1,2.1c0,0.8,0.5,1.6,1.2,1.9c0.1,0,0.1,0.1,0.2,0.1c1.7,0.7,2.9,1.3,4.3,3.6c1.4,2.3,2.1,3.4,2.2,5.1
					c-0.1,1.6-0.9,2.7-2.2,5c-1.4,2.3-2.6,2.9-4.2,3.6c-0.1,0-0.1,0.1-0.2,0.1c-0.7,0.3-1.2,1.1-1.2,1.9c0,1.2,0.9,2.1,2.1,2.1
					c0.9,0,1.7-0.6,2-1.4c1.3-2.1,2.3-3,4.2-4.5s4-2.4,5.1-2.4h0.2c1.1,0,3.2,0.9,5.1,2.4c1.8,1.5,2.9,2.3,4.2,4.5
					c0.3,0.8,1.1,1.4,2,1.4c1.2,0,2.1-0.9,2.1-2.1C52.8,49.1,52.3,48.3,51.6,48z"/>
			</g>
		</g>
		<path class="st4" d="M29,33.3c-0.3,0.1-0.7,0.1-1,0.1c-2.7,0-4.8-2.2-4.8-4.8s2.2-4.8,4.8-4.8s4.8,2.2,4.8,4.8
			c0,0.2,0,0.4-0.1,0.7l0.9,0.6c0.1-0.4,0.1-0.8,0.1-1.3c0-3.2-2.6-5.8-5.8-5.8s-5.8,2.6-5.8,5.8c0,3.2,2.6,5.8,5.8,5.8
			c0.6,0,1.1-0.1,1.7-0.2L29,33.3z"/>
		<path class="st4" d="M50.8,22.8c-3.2,0-5.8,2.6-5.8,5.8c0,0.5,0.1,0.9,0.2,1.3l0.9-0.6c0-0.2-0.1-0.5-0.1-0.7
			c0-2.7,2.2-4.8,4.8-4.8s4.8,2.2,4.8,4.8c0,2.6-2.2,4.8-4.8,4.8c-0.3,0-0.6,0-1-0.1l-0.6,0.9c0.5,0.1,1,0.2,1.6,0.2
			c3.2,0,5.8-2.6,5.8-5.8C56.6,25.4,54,22.8,50.8,22.8z"/>
		<path class="st4" d="M29,45.3c-0.3-0.1-0.7-0.1-1-0.1c-2.7,0-4.8,2.2-4.8,4.8s2.2,4.8,4.8,4.8s4.8-2.2,4.8-4.8
			c0-0.2,0-0.4-0.1-0.7l0.9-0.6c0.1,0.4,0.1,0.8,0.1,1.3c0,3.2-2.6,5.8-5.8,5.8s-5.8-2.6-5.8-5.8s2.6-5.8,5.8-5.8
			c0.6,0,1.1,0.1,1.7,0.2L29,45.3z"/>
		<path class="st4" d="M50.8,55.8c-3.2,0-5.8-2.6-5.8-5.8c0-0.5,0.1-0.9,0.2-1.3l0.9,0.6c0,0.2-0.1,0.5-0.1,0.7
			c0,2.7,2.2,4.8,4.8,4.8s4.8-2.2,4.8-4.8s-2.2-4.8-4.8-4.8c-0.3,0-0.6,0-1,0.1l-0.6-0.9c0.5-0.1,1-0.2,1.6-0.2
			c3.2,0,5.8,2.6,5.8,5.8C56.6,53.2,54,55.8,50.8,55.8z"/>
	</g>
</g>
</svg>
