<?xml version="1.0" encoding="utf-8"?>
<!-- Generator: Adobe Illustrator 25.2.3, SVG Export Plug-In . SVG Version: 6.00 Build 0)  -->
<svg version="1.1" id="Ebene_1" xmlns="http://www.w3.org/2000/svg" xmlns:xlink="http://www.w3.org/1999/xlink" x="0px" y="0px"
	 viewBox="0 0 76.5 76.3" style="enable-background:new 0 0 76.5 76.3;" xml:space="preserve">
<style type="text/css">
	.st0{fill:#FFFFFF;}
	.st1{fill:#4CB944;}
</style>
<g>
	<g>
		<g>
			<circle class="st0" cx="39.4" cy="38.4" r="33.3"/>
			<path class="st1" d="M39.4,74.2c-19.7,0-35.8-16.1-35.8-35.8c0-19.7,16.1-35.8,35.8-35.8s35.8,16.1,35.8,35.8
				C75.2,58.1,59.1,74.2,39.4,74.2z M39.4,7.6c-17,0-30.8,13.8-30.8,30.8s13.8,30.8,30.8,30.8s30.8-13.8,30.8-30.8
				S56.4,7.6,39.4,7.6z"/>
		</g>
	</g>
	<g>
		<g>
			<g>
				<path class="st1" d="M29.5,25.4l-4.9-4.9h-2.5V23l4.9,4.9L29.5,25.4z M32,18h2.5v4.9H32V18L32,18z M41.9,30.3h4.9v2.5h-4.9V30.3
					z M44.3,22.9v-2.5h-2.5l-4.9,5l2.5,2.5L44.3,22.9z M19.6,30.3h4.9v2.5h-4.9V30.3z M32,40.2h2.5v4.9H32V40.2L32,40.2z M22.1,40.2
					v2.5h2.5l4.9-4.9L27,35.3L22.1,40.2z M58.6,52L34.1,27.5c-0.7-0.7-1.9-0.7-2.6,0l-2.3,2.3c-0.7,0.7-0.7,1.9,0,2.6L53.7,57
					c0.7,0.7,1.9,0.7,2.6,0l2.3-2.3C59.4,53.9,59.4,52.7,58.6,52z M38.2,39l-7.4-7.4l2.5-2.5l7.4,7.4L38.2,39z"/>
			</g>
		</g>
	</g>
</g>
</svg>
