<?xml version="1.0" encoding="utf-8"?>
<!-- Generator: Adobe Illustrator 19.1.0, SVG Export Plug-In . SVG Version: 6.00 Build 0)  -->
<svg version="1.1" id="Ebene_1" xmlns="http://www.w3.org/2000/svg" xmlns:xlink="http://www.w3.org/1999/xlink" x="0px" y="0px"
	 viewBox="0 0 76.5 76.3" style="enable-background:new 0 0 76.5 76.3;" xml:space="preserve">
<style type="text/css">
	.st0{fill:#FFFFFF;stroke:#37A8DB;stroke-width:5;stroke-miterlimit:10;}
	.st1{fill:#37A8DB;}
</style>
<g>
	<g>
		<circle class="st0" cx="39.4" cy="38.4" r="33.3"/>
	</g>
	<g>
		<path class="st1" d="M29.5,25.4l-4.9-4.9h-2.5v2.5l4.9,4.9L29.5,25.4z M32,18h2.5v4.9H32V18L32,18z M41.9,30.3h4.9v2.5h-4.9V30.3z
			 M44.3,22.9v-2.5h-2.5l-4.9,5l2.5,2.5L44.3,22.9z M19.6,30.3h4.9v2.5h-4.9V30.3z M32,40.2h2.5v4.9H32V40.2L32,40.2z M22.1,40.2
			v2.5h2.5l4.9-4.9l-2.5-2.5L22.1,40.2z M58.6,52L34.1,27.5c-0.7-0.7-1.9-0.7-2.6,0l-2.3,2.3c-0.7,0.7-0.7,1.9,0,2.6L53.7,57
			c0.7,0.7,1.9,0.7,2.6,0l2.3-2.3C59.4,53.9,59.4,52.7,58.6,52z M38.2,39l-7.4-7.4l2.5-2.5l7.4,7.4L38.2,39z"/>
	</g>
</g>
</svg>
