<?xml version="1.0" encoding="utf-8"?>
<!-- Generator: Adobe Illustrator 19.1.0, SVG Export Plug-In . SVG Version: 6.00 Build 0)  -->
<svg version="1.1" id="Ebene_1" xmlns="http://www.w3.org/2000/svg" xmlns:xlink="http://www.w3.org/1999/xlink" x="0px" y="0px"
	 viewBox="0 0 180 180" style="enable-background:new 0 0 180 180;" xml:space="preserve">
<style type="text/css">
	.st0{fill:#37A8DB;}
</style>
<path class="st0" d="M93.3,102.9h10.9c0.6,0,1-0.2,1.5-0.6c0.5-0.3,0.7-0.9,0.7-1.6v-4.3h8.1h12.6c0,0.1,0.1,0.1,0.1,0.2
	c0,0.1,0.1,0.1,0.1,0.2l0,0l0.1,0.1c0,0,0.1,0,0.1,0.1c0.1,0,0.1,0.1,0.2,0.1c0.1,0,0.1,0.1,0.2,0.1c0.1,0,0.1,0,0.2,0.1
	c0.1,0,0.1,0,0.2,0l0,0c0.1,0,0.1,0,0.2,0c0.1,0,0.1,0,0.2,0h10.8c1.1,0,2.1-0.9,2.1-2.1v-0.7v-0.5v-1c0-1.1-0.9-2.1-2.1-2.1h-1.5
	l-0.5-0.5v-0.2h0.3v-0.6h-0.3V89h-1.6l0,0v-3.4h28.9l0,0l0,0l-3.2-2.6h-20.8l-1.7,0.9h-1c0-0.9-0.8-1.7-1.7-1.7l0,0v-1h-0.6
	c0-1.7-0.8-3-1.7-3h-0.1c-0.8,0.1-1.5,1.5-1.6,3h-0.6v1l0,0c-0.9,0-1.7,0.8-1.7,1.7h-1l-1.7-0.9h-20.8l-3.2,2.6h28.9V89h-2.1v0.8
	h-0.2v0.6h0.2v0.7H129c-0.8,0-1.4,0.3-1.8,0.9l-18.8-1.8l-15.8-1.6l-3.2-0.3l0,0l0,0l0,0l0,0l-4.6,0.5L79,89.3l-26.3,2.6L51.9,92
	l0,0c-0.3-0.6-1-0.9-1.8-0.9h-1.7v-0.7h0.2v-0.6h-0.2V89h-2.1v-3.4h-1.6h-0.2l0,0h0.3l0,0l0,0h30.5l-3.2-2.6H51.3L49.6,84h-1
	c0-0.9-0.8-1.7-1.7-1.7l0,0v-1h-0.6c0-1.6-0.7-2.9-1.6-3h-0.1c-0.9,0-1.7,1.4-1.7,3h-0.6v1l0,0c-0.9,0-1.7,0.8-1.7,1.7h-1L38,83.1
	H17.2L14,85.7l0,0l0,0H43V89h-1.7v0.8H41v0.6h0.3v0.7h-1.9c-1.1,0-2.1,0.9-2.1,2.1v1v1c0,1.1,0.9,2.1,2.1,2.1h10.8
	c0.7,0,1.4-0.3,1.7-0.9h5.2h15.5v4.3c0,0.1,0,0.1,0,0.2v0.1v0.1v0.1l0,0c0,0.1,0,0.1,0.1,0.2l0,0c0,0.1,0.1,0.1,0.1,0.2l0,0
	c0.1,0.2,0.2,0.3,0.3,0.5c0.3,0.3,0.9,0.6,1.5,0.6h12.5"/>
</svg>
