<?xml version="1.0" encoding="utf-8"?>
<!-- Generator: Adobe Illustrator 19.1.0, SVG Export Plug-In . SVG Version: 6.00 Build 0)  -->
<svg version="1.1" id="Ebene_1" xmlns="http://www.w3.org/2000/svg" xmlns:xlink="http://www.w3.org/1999/xlink" x="0px" y="0px"
	 viewBox="-9 11 180 180" style="enable-background:new -9 11 180 180;" xml:space="preserve">
<style type="text/css">
	.st0{fill:#C1C1C1;}
</style>
<path class="st0" d="M84.3,113.9h10.9c0.6,0,1-0.2,1.5-0.6c0.5-0.3,0.7-0.9,0.7-1.6v-4.3h8.1h12.6c0,0.1,0.1,0.1,0.1,0.2
	s0.1,0.1,0.1,0.2l0,0l0.1,0.1c0,0,0.1,0,0.1,0.1c0.1,0,0.1,0.1,0.2,0.1s0.1,0.1,0.2,0.1s0.1,0,0.2,0.1c0.1,0,0.1,0,0.2,0l0,0
	c0.1,0,0.1,0,0.2,0c0.1,0,0.1,0,0.2,0h10.8c1.1,0,2.1-0.9,2.1-2.1v-0.7V105v-1c0-1.1-0.9-2.1-2.1-2.1H129l-0.5-0.5v-0.2h0.3v-0.6
	h-0.3V100h-1.6l0,0v-3.4h28.9l0,0l0,0l-3.2-2.6h-20.8l-1.7,0.9h-1c0-0.9-0.8-1.7-1.7-1.7l0,0v-1h-0.6c0-1.7-0.8-3-1.7-3H125
	c-0.8,0.1-1.5,1.5-1.6,3h-0.6v1l0,0c-0.9,0-1.7,0.8-1.7,1.7h-1l-1.7-0.9H97.6l-3.2,2.6h28.9v3.4h-2.1v0.8H121v0.6h0.2v0.7H120
	c-0.8,0-1.4,0.3-1.8,0.9l-18.8-1.8l-15.8-1.6l-3.2-0.3l0,0l0,0l0,0l0,0l-4.6,0.5l-5.8,0.5l-26.3,2.6l-0.8,0.1l0,0
	c-0.3-0.6-1-0.9-1.8-0.9h-1.7v-0.7h0.2v-0.6h-0.2V100h-2.1v-3.4h-1.6h-0.2l0,0h0.3l0,0l0,0h30.5L63.1,94H42.3l-1.7,1h-1
	c0-0.9-0.8-1.7-1.7-1.7l0,0v-1h-0.6c0-1.6-0.7-2.9-1.6-3h-0.1c-0.9,0-1.7,1.4-1.7,3h-0.6v1l0,0c-0.9,0-1.7,0.8-1.7,1.7h-1L29,94.1
	H8.2L5,96.7l0,0l0,0h29v3.3h-1.7v0.8H32v0.6h0.3v0.7h-1.9c-1.1,0-2.1,0.9-2.1,2.1v1v1c0,1.1,0.9,2.1,2.1,2.1h10.8
	c0.7,0,1.4-0.3,1.7-0.9h5.2h15.5v4.3c0,0.1,0,0.1,0,0.2v0.1v0.1v0.1l0,0c0,0.1,0,0.1,0.1,0.2l0,0c0,0.1,0.1,0.1,0.1,0.2l0,0
	c0.1,0.2,0.2,0.3,0.3,0.5c0.3,0.3,0.9,0.6,1.5,0.6h12.5"/>
<path class="st0" d="M156,122H4c-0.6,0-1-0.4-1-1s0.4-1,1-1h152c0.6,0,1,0.4,1,1S156.6,122,156,122z"/>
</svg>
