<?xml version="1.0" encoding="utf-8"?>
<!-- Generator: Adobe Illustrator 19.1.0, SVG Export Plug-In . SVG Version: 6.00 Build 0)  -->
<svg version="1.1" id="Ebene_1" xmlns="http://www.w3.org/2000/svg" xmlns:xlink="http://www.w3.org/1999/xlink" x="0px" y="0px"
	 viewBox="-9 11 180 180" style="enable-background:new -9 11 180 180;" xml:space="preserve">
<style type="text/css">
	.st0{fill:#37A8DB;}
	.st1{fill:#C1C1C1;}
</style>
<path class="st0" d="M76.9,89.2H66c-0.6,0-1,0.2-1.5,0.6c-0.5,0.3-0.7,0.9-0.7,1.6v4.3h-8.1H43.1c0-0.1-0.1-0.1-0.1-0.2
	s-0.1-0.1-0.1-0.2l0,0l-0.1-0.1c0,0-0.1,0-0.1-0.1c-0.1,0-0.1-0.1-0.2-0.1c-0.1,0-0.1-0.1-0.2-0.1c-0.1,0-0.1,0-0.2-0.1
	c-0.1,0-0.1,0-0.2,0l0,0c-0.1,0-0.1,0-0.2,0c-0.1,0-0.1,0-0.2,0h-11c-1.1,0-2.1,0.9-2.1,2.1v0.7v0.5v1c0,1.1,0.9,2.1,2.1,2.1H32
	l0.5,0.5v0.2h-0.3v0.6h0.3v0.8H34l0,0v3.4H5.1l0,0l0,0l3.2,2.6L29,109l1.7-0.9h1c0,0.9,0.8,1.7,1.7,1.7l0,0v1H34c0,1.7,0.8,3,1.7,3
	h0.1c0.8-0.1,1.5-1.5,1.6-3H38v-1l0,0c0.9,0,1.7-0.8,1.7-1.7h1l1.7,0.9h20.8l3.2-2.6H37.5V103h2.1v-0.8h0.2v-0.6h-0.2V101h1.7
	c0.8,0,1.4-0.3,1.8-0.9l18.8,1.8l15.8,1.6l3.2,0.3l0,0l0,0l0,0l0,0l4.6-0.5l5.9-0.6l26.3-2.6l0.8-0.1l0,0c0.3,0.6,1,0.9,1.8,0.9h1.7
	v0.7h-0.2v0.6h0.2v0.8h2.1v3.4h1.6h0.2l0,0h-0.3l0,0l0,0H95.1l3.2,2.6h20.8l1.7-0.9h1c0,0.9,0.8,1.7,1.7,1.7l0,0v1h0.6
	c0,1.6,0.7,2.9,1.6,3h0.1c0.9,0,1.7-1.4,1.7-3h0.6v-1l0,0c0.9,0,1.7-0.8,1.7-1.7h1l1.7,0.9h20.8l3.2-2.6l0,0l0,0h-28.9V103h1.7v-0.8
	h0.3v-0.6h-0.3V101h1.9c1.1,0,2.1-0.9,2.1-2.1v-1v-1c0-1.1-0.9-2.1-2.1-2.1H120c-0.7,0-1.4,0.3-1.7,0.9h-5.2H97.6v-4.3
	c0-0.1,0-0.1,0-0.2V91v-0.1v-0.1l0,0c0-0.1,0-0.1-0.1-0.2l0,0c0-0.1-0.1-0.1-0.1-0.2l0,0c-0.1-0.2-0.2-0.3-0.3-0.5
	c-0.3-0.3-0.9-0.6-1.5-0.6H83.1"/>
<path class="st1" d="M156,122H4c-0.6,0-1-0.4-1-1s0.4-1,1-1h152c0.6,0,1,0.4,1,1S156.6,122,156,122z"/>
</svg>
