<?xml version="1.0" encoding="utf-8"?>
<!-- Generator: Adobe Illustrator 19.1.0, SVG Export Plug-In . SVG Version: 6.00 Build 0)  -->
<svg version="1.1" id="Ebene_1" xmlns="http://www.w3.org/2000/svg" xmlns:xlink="http://www.w3.org/1999/xlink" x="0px" y="0px"
	 viewBox="0 0 180 180" style="enable-background:new 0 0 180 180;" xml:space="preserve">
<style type="text/css">
	.st0{fill:#37A8DB;}
	.st1{fill:#FFFFFF;}
</style>
<g>
	<g>
		<path class="st0" d="M126,40.4c-1.8-1.7-4.2-4.5-6.8-8.5c-5.3-8.1-14.9-14.1-14.9-14.1l-2.6,4.9c0,0,6.3,11.4,16.2,17.9
			c2.3,1.5,4,2.7,5.4,3.5C123.8,42.6,124.8,41.3,126,40.4z"/>
		<path class="st0" d="M119.2,148.1c2.6-4,5-6.7,6.8-8.4c-1.3-0.9-2.2-2.2-2.8-3.8c-1.3,0.9-3,2-5.3,3.5
			c-9.9,6.5-16.2,17.9-16.2,17.9l2.6,4.9C104.3,162.2,113.9,156.2,119.2,148.1z"/>
		<path class="st0" d="M56.9,44.1c1.3-0.9,3.1-2,5.4-3.5c9.9-6.5,16.2-17.9,16.2-17.9l-2.6-4.9c0,0-9.6,6-14.9,14.1
			c-2.6,4-5,6.7-6.8,8.4C55.4,41.2,56.4,42.5,56.9,44.1z"/>
		<path class="st0" d="M44.5,127.3c-1.8-1.6-4.6-4.6-7.7-9.3c-5.3-8.1-14.9-14.1-14.9-14.1l-2.6,4.9c0,0,6.3,11.4,16.2,17.9
			c3.2,2.1,5.3,3.5,6.7,4.4C42.6,129.6,43.4,128.3,44.5,127.3z"/>
		<path class="st0" d="M56.8,136.7c0.1-0.2,0.2-0.4,0.3-0.6c2.5-6.1,5-10.8,13.7-16.1s13.2-8.2,19.4-8.6c6.2,0.4,10.5,3.4,19.2,8.6
			s11.2,10,13.7,16.1c0.1,0.2,0.2,0.4,0.3,0.6c1.3,2.7,4.1,4.6,7.3,4.6c4.5,0,8.1-3.6,8.1-8.1c0-3.5-2.2-6.4-5.2-7.6
			c-8.2-4.8-11.4-9-17.1-16c-5.7-7.1-9.3-15.3-9.3-19.4l-7-0.4l7-0.4c0-4.1,3.6-12.3,9.3-19.4c5.6-7,8.9-11.2,17.1-16
			c3-1.2,5.2-4.1,5.2-7.6c0-4.5-3.6-8.1-8.1-8.1c-3.2,0-6,1.9-7.3,4.6c-0.1,0.2-0.2,0.4-0.3,0.6c-2.5,6.1-5,10.8-13.7,16.1
			S96.2,68.1,90,68.4c-6.2-0.4-10.5-3.4-19.2-8.6s-11.2-10-13.7-16.1c-0.1-0.2-0.2-0.4-0.3-0.6c-1.3-2.7-4.1-4.6-7.3-4.6
			c-4.5,0-8.1,3.6-8.1,8.1c0,3.5,2.2,6.4,5.2,7.6c8.2,4.8,11.4,9,17.1,16c5.7,7.1,9.3,15.3,9.3,19.4l6.3,0.4L73,90.3
			c0,4.1-3.6,12.3-9.3,19.4c-5.6,7-8.9,11.2-17.1,16c-3,1.2-5.2,4.1-5.2,7.6c0,4.5,3.6,8.1,8.1,8.1
			C52.7,141.4,55.5,139.5,56.8,136.7z M124.9,131.9c0.2-0.9,0.6-1.7,1.1-2.4l1.7,1.4c-0.3,0.4-0.6,0.9-0.7,1.5L124.9,131.9z
			 M130.6,139.2c-0.9,0-1.8-0.2-2.6-0.6l1-2c0.5,0.2,1,0.4,1.6,0.4L130.6,139.2z M135.2,137c-0.6,0.7-1.3,1.2-2.1,1.6l-1-2
			c0.5-0.2,0.9-0.6,1.3-1L135.2,137z M126,136.9c-0.5-0.7-0.9-1.5-1.1-2.4l2.2-0.5c0.1,0.5,0.4,1,0.7,1.5L126,136.9z M136.6,133.2
			C136.6,133.2,136.6,133.2,136.6,133.2c0,0.5-0.1,0.9-0.2,1.4l-2.2-0.5c0.1-0.3,0.1-0.6,0.1-0.9c0-0.3,0-0.5-0.1-0.8l2.2-0.5
			C136.5,132.4,136.6,132.8,136.6,133.2z M132.5,133.2c0,1-0.8,1.9-1.9,1.9c-1,0-1.9-0.8-1.9-1.9c0-1,0.8-1.9,1.9-1.9
			C131.7,131.4,132.5,132.2,132.5,133.2z M135.3,129.6l-1.8,1.4c-0.3-0.4-0.8-0.8-1.3-1l1-2C134.1,128.3,134.8,128.9,135.3,129.6z
			 M130.7,127.3l-0.1,2.2c-0.6,0-1.1,0.1-1.6,0.4l-1-2C128.9,127.5,129.7,127.3,130.7,127.3L130.7,127.3z M135.3,50.4
			c-0.5,0.7-1.2,1.3-2,1.7l-1-2c0.5-0.2,0.9-0.6,1.3-1L135.3,50.4z M136.6,46.7C136.6,46.7,136.6,46.7,136.6,46.7
			c0,0.4,0,0.9-0.1,1.3l-2.2-0.5c0.1-0.3,0.1-0.5,0.1-0.8c0-0.3,0-0.6-0.1-0.9l2.2-0.5C136.5,45.8,136.6,46.3,136.6,46.7z M135.2,43
			l-1.7,1.4c-0.3-0.4-0.8-0.8-1.3-1l1-2C134,41.7,134.7,42.3,135.2,43z M130.6,40.8l0,2.2c-0.6,0-1.1,0.1-1.6,0.4l-1-2
			C128.9,41,129.7,40.8,130.6,40.8z M124.9,45.4c0.2-0.9,0.6-1.7,1.1-2.4l1.8,1.4c-0.3,0.4-0.6,0.9-0.7,1.5L124.9,45.4z M130.6,44.9
			c1,0,1.9,0.8,1.9,1.9c0,1-0.8,1.9-1.9,1.9c-1,0-1.9-0.8-1.9-1.9C128.8,45.7,129.6,44.9,130.6,44.9z M124.9,48.1l2.2-0.5
			c0.1,0.5,0.4,1,0.7,1.5l-1.7,1.4C125.5,49.7,125.1,48.9,124.9,48.1z M128.1,52.1l1-2c0.5,0.2,1,0.4,1.6,0.4l0.1,2.2l-0.1,0
			C129.7,52.6,128.9,52.5,128.1,52.1z M55.3,48.1c-0.2,0.9-0.6,1.7-1.1,2.4L52.4,49c0.3-0.4,0.6-0.9,0.7-1.5L55.3,48.1z M49.5,40.8
			c0.9,0,1.8,0.2,2.6,0.6l-1,2c-0.5-0.2-1-0.4-1.6-0.4L49.5,40.8z M44.9,43c0.6-0.7,1.3-1.2,2.1-1.6l1,2c-0.5,0.2-0.9,0.6-1.3,1
			L44.9,43z M54.2,43c0.5,0.7,0.9,1.5,1.1,2.4l-2.2,0.5c-0.1-0.5-0.4-1-0.7-1.5L54.2,43z M43.6,46.7C43.6,46.7,43.6,46.7,43.6,46.7
			c0-0.5,0.1-0.9,0.2-1.4l2.2,0.5c-0.1,0.3-0.1,0.6-0.1,0.9c0,0.3,0,0.5,0.1,0.8L43.7,48C43.6,47.6,43.6,47.2,43.6,46.7z M47.6,46.7
			c0-1,0.8-1.9,1.9-1.9c1,0,1.9,0.8,1.9,1.9c0,1-0.8,1.9-1.9,1.9C48.5,48.6,47.6,47.8,47.6,46.7z M44.8,50.4l1.8-1.4
			c0.3,0.4,0.8,0.8,1.3,1l-1,2C46.1,51.6,45.4,51.1,44.8,50.4z M49.4,52.6l0.1-2.2c0.6,0,1.1-0.1,1.6-0.4l1,2
			C51.3,52.5,50.4,52.6,49.4,52.6L49.4,52.6z M55.3,131.9l-2.2,0.5c-0.1-0.5-0.4-1-0.7-1.5l1.7-1.4C54.7,130.2,55.1,131,55.3,131.9z
			 M49.4,127.3L49.4,127.3c1,0,1.8,0.2,2.6,0.6l-1,2c-0.5-0.2-1-0.4-1.6-0.4L49.4,127.3z M44.8,129.6c0.5-0.7,1.2-1.3,2-1.7l1,2
			c-0.5,0.2-0.9,0.6-1.3,1L44.8,129.6z M43.6,133.2C43.6,133.2,43.6,133.2,43.6,133.2c0-0.4,0-0.9,0.1-1.3l2.2,0.5
			c-0.1,0.3-0.1,0.5-0.1,0.8c0,0.3,0,0.6,0.1,0.9l-2.2,0.5C43.6,134.1,43.6,133.7,43.6,133.2z M47.6,133.2c0-1,0.8-1.9,1.9-1.9
			c1,0,1.9,0.8,1.9,1.9c0,1-0.8,1.9-1.9,1.9C48.5,135.1,47.6,134.3,47.6,133.2z M53.1,134l2.2,0.5c-0.2,0.9-0.6,1.7-1.1,2.4
			l-1.8-1.4C52.7,135.1,53,134.6,53.1,134z M44.9,137l1.7-1.4c0.3,0.4,0.8,0.8,1.3,1l-1,2C46.2,138.2,45.5,137.6,44.9,137z
			 M49.5,136.9c0.6,0,1.1-0.1,1.6-0.4l1,2c-0.8,0.4-1.7,0.6-2.6,0.6L49.5,136.9z"/>
		<path class="st0" d="M58.3,105l0-30c0-1.6,1.3-2.8,2.8-2.8l58,0c1.6,0,2.8,1.3,2.8,2.8l0,30c0,1.6-1.3,2.8-2.8,2.8l-58,0
			C59.5,107.8,58.3,106.5,58.3,105z"/>
		<path class="st0" d="M160.9,71.2c0,0-6.3-11.4-16.2-17.9c-3.1-2.1-5.2-3.5-6.6-4.4c-0.4,1.5-1.3,2.7-2.4,3.7
			c1.8,1.6,4.6,4.6,7.8,9.4c5.3,8.1,14.9,14.1,14.9,14.1L160.9,71.2z"/>
		<path class="st0" d="M135.5,127.4c1.1,0.9,2,2.2,2.5,3.7c1.4-0.9,3.5-2.3,6.7-4.4c9.9-6.5,16.2-17.9,16.2-17.9l-2.6-4.9
			c0,0-9.6,6-14.9,14.1C140.2,122.8,137.3,125.8,135.5,127.4z"/>
		<path class="st0" d="M36.8,62c3.2-4.8,6-7.8,7.8-9.4c-1.1-0.9-2-2.2-2.5-3.7c-1.4,0.9-3.5,2.3-6.6,4.4
			c-9.9,6.5-16.2,17.9-16.2,17.9l2.6,4.9C21.8,76.1,31.5,70.1,36.8,62z"/>
		<path class="st0" d="M78.5,157.3c0,0-6.3-11.4-16.2-17.9c-2.3-1.5-4-2.6-5.3-3.5c-0.6,1.5-1.6,2.8-2.9,3.7
			c1.8,1.7,4.2,4.5,6.9,8.5c5.3,8.1,14.9,14.1,14.9,14.1L78.5,157.3z"/>
	</g>
	<polygon class="st1" points="83,101.1 86.3,90 83,78.8 103.8,90 	"/>
</g>
</svg>
