<?xml version="1.0" encoding="utf-8"?>
<!-- Generator: Adobe Illustrator 19.1.0, SVG Export Plug-In . SVG Version: 6.00 Build 0)  -->
<svg version="1.1" id="Ebene_1" xmlns="http://www.w3.org/2000/svg" xmlns:xlink="http://www.w3.org/1999/xlink" x="0px" y="0px"
	 viewBox="0 0 180 180" style="enable-background:new 0 0 180 180;" xml:space="preserve">
<style type="text/css">
	.st0{fill:#C1C1C1;}
</style>
<path class="st0" d="M143.4,118c-3,4.5-5.7,7.3-7.5,9c-0.7-0.6-1.5-1.1-2.3-1.4c-8.2-4.8-11.4-9-17.1-16c-0.5-0.6-0.9-1.2-1.4-1.8h4
	c1.5,0,2.8-1.2,2.8-2.8V75c0-1.5-1.2-2.8-2.8-2.8h-4.3c0.5-0.7,1.1-1.5,1.7-2.2c5.6-7,8.9-11.2,17.1-16c0.8-0.3,1.5-0.8,2.2-1.3
	c1.8,1.6,4.6,4.6,7.7,9.3c5.3,8.1,14.9,14.1,14.9,14.1l2.5-4.9c0,0-6.3-11.4-16.2-17.9c-2.9-2-5-3.3-6.4-4.2
	c0.3-0.8,0.5-1.7,0.5-2.7c0-4.5-3.6-8.1-8.1-8.1c-1.9,0-3.6,0.7-5,1.8c-1.8-1.7-4-4.4-6.5-8.2c-5.3-8.1-14.9-14.1-14.9-14.1
	l-2.6,4.9c0,0,6.3,11.4,16.2,17.9c2.1,1.4,3.7,2.5,5,3.3c-2.4,5.9-5,10.5-13.5,15.7c-8.7,5.3-13.2,8.5-19.4,8.8
	C83.8,68,79.5,65,70.8,59.8c-8.6-5.1-11.1-9.9-13.6-15.9c1.3-0.9,3-1.9,5.1-3.3c9.9-6.5,16.2-17.9,16.2-17.9l-2.6-4.9
	c0,0-9.6,6-14.9,14.1c-2.5,3.9-4.9,6.5-6.6,8.3c-1.4-1-3-1.7-4.9-1.7c-4.5,0-8.1,3.6-8.1,8.1c0,0.9,0.1,1.7,0.4,2.5
	c-1.4,0.9-3.4,2.2-6.3,4.2c-9.9,6.5-16.2,17.9-16.2,17.9l2.6,4.9c-0.1,0,9.6-6,14.9-14.1c3.1-4.6,5.7-7.5,7.5-9.2
	c0.7,0.6,1.4,1,2.3,1.4c8.2,4.8,11.4,9,17.1,16c0.5,0.7,1,1.3,1.5,2h-4.1c-1.5,0-2.8,1.2-2.8,2.8v30c0,1.5,1.2,2.8,2.8,2.8h4.1
	c-0.5,0.6-0.9,1.3-1.5,1.9c-5.6,7-8.9,11.2-17.1,16c-0.8,0.3-1.6,0.8-2.3,1.4c-1.8-1.6-4.5-4.6-7.5-9.1
	c-5.3-8.1-14.9-14.1-14.9-14.1l-2.6,4.9c0,0,6.3,11.4,16.2,17.9c2.9,1.9,4.9,3.2,6.3,4.1c-0.2,0.8-0.4,1.6-0.4,2.5
	c0,4.5,3.6,8.1,8.1,8.1c1.8,0,3.4-0.6,4.8-1.6c1.8,1.7,4.1,4.5,6.7,8.3c5.3,8.1,14.9,14.1,14.9,14.1l2.6-4.9c0,0-6.3-11.4-16.2-17.9
	c-2.2-1.4-3.9-2.5-5.2-3.4c2.5-6,5-10.7,13.7-16s13.2-8.2,19.4-8.6c6.2,0.4,10.5,3.4,19.2,8.6s11.2,9.9,13.7,16
	c-1.3,0.9-2.9,2-5.2,3.4c-9.9,6.5-16.2,17.9-16.2,17.9l2.6,4.9c0,0,9.6-6,14.9-14.1c2.6-4,5-6.7,6.8-8.4c1.3,1,3,1.6,4.7,1.6
	c4.5,0,8.1-3.6,8.1-8.1c0-0.8-0.1-1.6-0.4-2.4c1.4-0.9,3.4-2.2,6.3-4.1c9.9-6.5,16.2-17.9,16.2-17.9l-2.6-4.9
	C158.3,103.9,148.7,109.9,143.4,118z M130.7,52.7c-1-0.1-1.8-0.2-2.6-0.6l1-2c0.5,0.2,1,0.4,1.6,0.4l0.1,2.2
	C130.8,52.7,130.7,52.7,130.7,52.7z M133.3,52.1l-1-2c0.5-0.2,0.9-0.6,1.3-1l1.7,1.3C134.8,51.1,134.1,51.7,133.3,52.1z M136.5,45.3
	c0,0.5,0.1,1,0.1,1.4s0,0.9-0.1,1.3l-2.2-0.5c0.1-0.3,0.1-0.5,0.1-0.8s0-0.6-0.1-0.9L136.5,45.3z M133.2,41.4c0.8,0.3,1.5,0.9,2,1.6
	l-1.7,1.4c-0.3-0.4-0.8-0.8-1.3-1L133.2,41.4z M132.5,46.8c0,1-0.8,1.9-1.9,1.9c-1,0-1.9-0.8-1.9-1.9c0.1-1.1,0.9-1.9,1.9-1.9
	S132.5,45.7,132.5,46.8z M130.6,40.8V43c-0.6,0-1.1,0.1-1.6,0.4l-1-2C128.9,41,129.7,40.8,130.6,40.8z M126,43l1.8,1.4
	c-0.3,0.4-0.6,0.9-0.7,1.5l-2.2-0.5C125.1,44.5,125.5,43.7,126,43z M127.1,47.6c0.1,0.5,0.4,1,0.7,1.5l-1.7,1.4
	c-0.6-0.8-1-1.6-1.2-2.4L127.1,47.6z M47,41.4l1,2c-0.5,0.2-0.9,0.6-1.3,1L44.9,43C45.5,42.3,46.2,41.8,47,41.4z M43.7,48
	c-0.1-0.4-0.1-0.8-0.1-1.3s0.1-0.9,0.2-1.4l2.2,0.5c-0.1,0.3-0.1,0.6-0.1,0.9s0,0.5,0.1,0.8L43.7,48z M46.9,52
	c-0.8-0.4-1.5-0.9-2.1-1.6l1.8-1.4c0.3,0.4,0.8,0.8,1.3,1L46.9,52z M47.6,46.7c0-1,0.8-1.9,1.9-1.9c1,0,1.9,0.8,1.9,1.9
	c0,1-0.8,1.9-1.9,1.9C48.5,48.6,47.6,47.8,47.6,46.7z M49.4,52.6l0.1-2.2c0.6,0,1.1-0.1,1.6-0.4l1,2C51.3,52.5,50.4,52.6,49.4,52.6z
	 M51.1,43.4c-0.5-0.2-1-0.4-1.6-0.4v-2.2c0.9,0,1.8,0.2,2.6,0.6L51.1,43.4z M54.2,50.5L52.4,49c0.3-0.4,0.6-0.9,0.7-1.5l2.2,0.6
	C55.1,49,54.7,49.8,54.2,50.5z M53.1,45.9c-0.1-0.5-0.4-1-0.7-1.5l1.8-1.4c0.5,0.7,0.9,1.5,1.1,2.4L53.1,45.9z M49.4,127.3
	c1,0,1.8,0.2,2.6,0.6l-1,2c-0.5-0.2-1-0.4-1.6-0.4V127.3z M46.8,127.9l1,2c-0.5,0.2-0.9,0.6-1.3,1l-1.7-1.3
	C45.3,128.9,46,128.3,46.8,127.9z M43.7,134.6c-0.1-0.5-0.1-0.9-0.1-1.4c0-0.4,0-0.9,0.1-1.3l2.2,0.5c-0.1,0.3-0.1,0.5-0.1,0.8
	s0,0.6,0.1,0.9L43.7,134.6z M46.9,138.6c-0.7-0.4-1.4-1-2-1.6l1.7-1.4c0.3,0.4,0.8,0.8,1.3,1L46.9,138.6z M47.6,133.2
	c0-1,0.8-1.9,1.9-1.9c1,0,1.9,0.8,1.9,1.9c0,1-0.8,1.9-1.9,1.9C48.5,135.1,47.6,134.3,47.6,133.2z M49.5,139.1v-2.2
	c0.6,0,1.1-0.1,1.6-0.4l1,2C51.3,138.9,50.4,139.1,49.5,139.1z M54.2,136.9l-1.8-1.4c0.3-0.4,0.6-0.9,0.7-1.5l2.2,0.5
	C55.1,135.4,54.7,136.2,54.2,136.9z M53.1,132.4c-0.1-0.5-0.4-1-0.7-1.5l1.7-1.4c0.6,0.7,1,1.5,1.2,2.4L53.1,132.4z M83,101.1
	L86.3,90L83,78.8L103.8,90L83,101.1z M133.2,128c0.9,0.3,1.6,0.9,2.1,1.6l-1.8,1.4c-0.3-0.4-0.8-0.8-1.3-1L133.2,128z M130.7,127.3
	l-0.1,2.2c-0.6,0-1.1,0.1-1.6,0.4l-1-2C128.9,127.5,129.7,127.3,130.7,127.3z M126,129.5l1.7,1.4c-0.3,0.4-0.6,0.9-0.7,1.5l-2.1-0.5
	C125.1,131,125.5,130.2,126,129.5z M126,136.9c-0.5-0.7-0.9-1.5-1.1-2.4l2.2-0.5c0.1,0.5,0.4,1,0.7,1.5L126,136.9z M130.6,139.2
	c-0.9,0-1.8-0.2-2.6-0.6l1-2c0.5,0.2,1,0.4,1.6,0.4V139.2z M130.6,135.1c-1,0-1.9-0.8-1.9-1.9c0-1,0.8-1.9,1.9-1.9
	c1.1,0.1,1.9,0.9,1.9,1.9S131.7,135.1,130.6,135.1z M133.1,138.6l-1-2c0.5-0.2,0.9-0.6,1.3-1l1.8,1.4
	C134.6,137.7,133.9,138.2,133.1,138.6z M136.4,134.6l-2.2-0.5c0.1-0.3,0.1-0.6,0.1-0.9c0-0.3,0-0.5-0.1-0.8l2.2-0.5
	c0.1,0.5,0.2,0.9,0.2,1.3C136.6,133.7,136.5,134.1,136.4,134.6z"/>
</svg>
