<?xml version="1.0" encoding="utf-8"?>
<!-- Generator: Adobe Illustrator 19.1.0, SVG Export Plug-In . SVG Version: 6.00 Build 0)  -->
<svg version="1.1" id="Ebene_1" xmlns="http://www.w3.org/2000/svg" xmlns:xlink="http://www.w3.org/1999/xlink" x="0px" y="0px"
	 viewBox="0 0 180 180" style="enable-background:new 0 0 180 180;" xml:space="preserve">
<style type="text/css">
	.st0{fill:#C1C1C1;}
</style>
<path class="st0" d="M139.5,117.7c-1.4,2.2-2.5,3.9-3.4,5.2c-6-2.5-10.7-5-16-13.7c-5.2-8.7-8.2-13.2-8.6-19.4
	c0.4-6.2,3.4-10.5,8.6-19.2C125.3,62,130,59.4,136,57c0.9,1.3,2,3,3.5,5.2c6.5,9.9,17.9,16.2,17.9,16.2l4.9-2.6c0,0-6-9.6-14.1-14.9
	c-4-2.6-6.7-5-8.4-6.8c0,0.1-0.1,0.1-0.1,0.2c1.1-1.4,1.7-3.1,1.7-5c0-4.5-3.6-8.1-8.1-8.1c-0.8,0-1.6,0.1-2.4,0.4
	c-0.9-1.4-2.2-3.4-4.1-6.3c-6.5-9.9-17.9-16.2-17.9-16.2l-4.9,2.6c0,0,6,9.6,14.1,14.9c4.5,3.1,7.3,5.7,9,7.5
	c-0.6,0.7-1.1,1.5-1.4,2.3c-4.8,8.2-9,11.4-16,17.1c-0.6,0.5-1.2,0.9-1.8,1.4V61c0-1.5-1.2-2.8-2.8-2.8h-30c-1.5,0-2.8,1.2-2.8,2.8
	v4.2c-0.7-0.5-1.5-1.1-2.2-1.7c-7-5.6-11.2-8.9-16-17.1c-0.3-0.8-0.8-1.5-1.3-2.2c1.6-1.8,4.6-4.6,9.3-7.7
	c8.1-5.3,14.1-14.9,14.1-14.9l-4.9-2.5c0,0-11.4,6.3-17.9,16.2c-2,2.9-3.3,5-4.2,6.4c-0.8-0.3-1.7-0.5-2.7-0.5
	c-4.5,0-8.1,3.6-8.1,8.1c0,1.9,0.7,3.6,1.8,5c-1.7,1.8-4.4,4-8.2,6.5c-8.1,5.3-14.1,14.9-14.1,14.9l4.9,2.6c0,0,11.4-6.3,17.9-16.2
	c1.4-2.1,2.5-3.7,3.3-5c6.2,2.5,10.8,5.1,16,13.6c5.3,8.7,8.2,13.2,8.6,19.4c-0.4,6.2-3.4,10.5-8.6,19.2
	c-5.1,8.6-9.9,11.1-15.9,13.6c-0.9-1.3-1.9-3-3.4-5.2c-6.5-9.9-17.9-16.2-17.9-16.2l-4.9,2.6c0,0,6,9.6,14.1,14.9
	c4,2.6,6.6,5,8.4,6.7c-1,1.4-1.7,3-1.7,4.9c0,4.5,3.6,8.1,8.1,8.1c0.8,0,1.7-0.1,2.4-0.4c0.9,1.4,2.2,3.4,4.2,6.3
	c6.5,9.9,17.9,16.2,17.9,16.2l4.9-2.6c0,0-6-9.6-14.1-14.9c-4.5-3-7.5-5.7-9.1-7.5c0.6-0.7,1.1-1.5,1.4-2.3c4.8-8.2,9-11.4,16-17.1
	c0.6-0.5,1.3-1,1.9-1.4v4c0,1.5,1.2,2.8,2.8,2.8h30c1.5,0,2.8-1.3,2.8-2.8v-4.2c0.7,0.5,1.4,1,2.1,1.6c7,5.6,11.2,8.9,16,17.1
	c0.3,0.8,0.7,1.5,1.3,2.1c-1.6,1.8-4.6,4.5-9.2,7.6c-8.1,5.3-14.1,14.9-14.1,14.9l4.9,2.6c0,0,11.4-6.3,17.9-16.2
	c1.9-2.9,3.2-4.9,4.1-6.3c0.8,0.3,1.7,0.5,2.7,0.5c4.5,0,8.1-3.6,8.1-8.1c-0.1-1.9-0.8-3.5-1.8-4.9c1.7-1.8,4.4-4.1,8.3-6.7
	c8.1-5.3,14.1-14.9,14.1-14.9l-4.9-2.6C157.4,101.5,146,107.8,139.5,117.7z M132,55.2c-0.9-0.2-1.7-0.6-2.4-1.1l1.4-1.7
	c0.4,0.3,0.9,0.6,1.5,0.7L132,55.2z M139.3,49.4c0,0.9-0.2,1.8-0.6,2.6l-2-1c0.2-0.5,0.4-1,0.4-1.6H139.3z M137.1,44.8
	c0.7,0.6,1.2,1.3,1.6,2.1l-2,1c-0.2-0.5-0.6-0.9-1-1.3L137.1,44.8z M137,54.1c-0.7,0.5-1.5,0.9-2.4,1.1l-0.5-2.2
	c0.5-0.1,1-0.4,1.5-0.7L137,54.1z M133.3,43.5c0.5,0,0.9,0.1,1.4,0.2l-0.5,2.2c-0.3-0.1-0.6-0.1-0.9-0.1s-0.5,0-0.8,0.1l-0.5-2.2
	C132.5,43.5,132.9,43.5,133.3,43.5z M133.3,47.5c1,0,1.9,0.8,1.9,1.9c0,1-0.8,1.9-1.9,1.9c-1,0-1.9-0.8-1.9-1.9
	C131.5,48.4,132.3,47.5,133.3,47.5z M129.7,44.7l1.4,1.8c-0.4,0.3-0.8,0.8-1,1.3l-2-1C128.4,46,129,45.3,129.7,44.7z M129.6,49.4
	c0,0.6,0.1,1.1,0.4,1.6l-2,1c-0.4-0.8-0.6-1.7-0.6-2.7L129.6,49.4z M50.5,44.7c0.7,0.5,1.3,1.2,1.7,2l-2,1c-0.2-0.5-0.6-0.9-1-1.3
	L50.5,44.7z M46.8,43.5c0.4,0,0.9,0,1.3,0.1l-0.5,2.2c-0.3-0.1-0.5-0.1-0.8-0.1s-0.6,0-0.9,0.1l-0.5-2.2
	C45.9,43.5,46.4,43.5,46.8,43.5z M43.1,44.8l1.4,1.7c-0.4,0.3-0.8,0.8-1,1.3l-2-1C41.8,46.1,42.4,45.4,43.1,44.8z M40.9,49.4h2.2
	c0,0.6,0.1,1.1,0.4,1.6l-2,1C41.1,51.2,40.9,50.3,40.9,49.4z M45.5,55.2c-0.9-0.2-1.7-0.6-2.4-1.1l1.4-1.8c0.4,0.3,0.9,0.6,1.5,0.7
	L45.5,55.2z M45,49.4c0-1,0.8-1.9,1.9-1.9c1,0,1.9,0.8,1.9,1.9c0,1-0.8,1.9-1.9,1.9C45.8,51.3,45,50.4,45,49.4z M48.2,55.2L47.7,53
	c0.5-0.1,1-0.4,1.5-0.7l1.4,1.7C49.8,54.6,49,55,48.2,55.2z M52.8,49.4c0,0.9-0.2,1.8-0.6,2.6l-2-1c0.2-0.5,0.4-1,0.4-1.6H52.8
	C52.8,49.3,52.8,49.4,52.8,49.4z M48.2,124.8c0.9,0.2,1.7,0.6,2.4,1.1l-1.4,1.7c-0.4-0.3-0.9-0.6-1.5-0.7L48.2,124.8z M40.9,130.5
	c0-0.9,0.2-1.8,0.6-2.6l2,1c-0.2,0.5-0.4,1-0.4,1.6H40.9z M43.1,135.1c-0.7-0.6-1.2-1.3-1.6-2.1l2-1c0.2,0.5,0.6,0.9,1,1.3
	L43.1,135.1z M43.2,125.9c0.7-0.5,1.5-0.9,2.4-1.1l0.5,2.2c-0.5,0.1-1,0.4-1.5,0.7L43.2,125.9z M46.8,136.5c-0.5,0-0.9-0.1-1.4-0.2
	l0.5-2.2c0.3,0.1,0.6,0.1,0.9,0.1s0.5,0,0.8-0.1l0.5,2.2C47.7,136.4,47.3,136.5,46.8,136.5z M46.8,132.4c-1,0-1.9-0.8-1.9-1.9
	c0-1,0.8-1.9,1.9-1.9c1,0,1.9,0.8,1.9,1.9S47.9,132.4,46.8,132.4z M50.5,135.2l-1.4-1.8c0.4-0.3,0.8-0.8,1-1.3l2,1
	C51.7,134,51.2,134.7,50.5,135.2z M52.7,130.6l-2.2-0.1c0-0.6-0.1-1.1-0.4-1.6l2-1C52.6,128.8,52.8,129.6,52.7,130.6z M90.1,93.7
	l-11.2,3.4l11.2-20.8l11.1,20.8L90.1,93.7z M128,128l2,1c-0.2,0.5-0.4,1-0.4,1.6h-2.2C127.4,129.6,127.6,128.8,128,128z
	 M129.7,135.2c-0.7-0.5-1.3-1.2-1.7-2l2-1c0.2,0.5,0.6,0.9,1,1.3L129.7,135.2z M129.6,126c0.7-0.6,1.5-1,2.4-1.2l0.5,2.2
	c-0.5,0.1-1,0.4-1.5,0.7L129.6,126z M133.3,136.5c-0.4,0-0.9,0-1.3-0.1l0.5-2.2c0.3,0.1,0.5,0.1,0.8,0.1s0.6,0,0.9-0.1l0.5,2.2
	C134.3,136.4,133.8,136.5,133.3,136.5z M133.3,132.4c-1,0-1.9-0.8-1.9-1.9c0-1,0.8-1.9,1.9-1.9c1,0,1.9,0.8,1.9,1.9
	S134.4,132.4,133.3,132.4z M134.1,126.9l0.5-2.2c0.9,0.2,1.7,0.6,2.4,1.1l-1.4,1.8C135.2,127.3,134.7,127.1,134.1,126.9z
	 M137.1,135.1l-1.4-1.7c0.4-0.3,0.8-0.8,1-1.3l2,1C138.3,133.9,137.7,134.6,137.1,135.1z M137,130.5c0-0.6-0.1-1.1-0.4-1.6l2-1
	c0.4,0.8,0.6,1.7,0.6,2.6H137z"/>
</svg>
