<?xml version="1.0" encoding="utf-8"?>
<!-- Generator: Adobe Illustrator 19.1.0, SVG Export Plug-In . SVG Version: 6.00 Build 0)  -->
<svg version="1.1" id="Ebene_1" xmlns="http://www.w3.org/2000/svg" xmlns:xlink="http://www.w3.org/1999/xlink" x="0px" y="0px"
	 viewBox="0 0 180 180" style="enable-background:new 0 0 180 180;" xml:space="preserve">
<style type="text/css">
	.st0{fill:#37A8DB;}
	.st1{fill:#FFFFFF;}
</style>
<g>
	<g>
		<path class="st0" d="M40.5,54c-1.7,1.8-4.5,4.2-8.5,6.8c-8.1,5.3-14.1,14.9-14.1,14.9l4.9,2.6c0,0,11.4-6.3,17.9-16.2
			c1.5-2.3,2.7-4,3.5-5.4C42.7,56.3,41.4,55.3,40.5,54z"/>
		<path class="st0" d="M148.2,60.9c-4-2.6-6.7-5-8.4-6.8c-0.9,1.3-2.2,2.2-3.8,2.8c0.9,1.3,2,3,3.5,5.3c6.5,9.9,17.9,16.2,17.9,16.2
			l4.9-2.6C162.3,75.8,156.3,66.2,148.2,60.9z"/>
		<path class="st0" d="M44.2,123.1c-0.9-1.3-2-3.1-3.5-5.4c-6.5-9.9-17.9-16.2-17.9-16.2l-4.9,2.6c0,0,6,9.6,14.1,14.9
			c4,2.6,6.7,5,8.4,6.8C41.3,124.6,42.6,123.7,44.2,123.1z"/>
		<path class="st0" d="M127.4,135.5c-1.6,1.8-4.6,4.6-9.3,7.7c-8.1,5.3-14.1,14.9-14.1,14.9l4.9,2.6c0,0,11.4-6.3,17.9-16.2
			c2.1-3.2,3.5-5.3,4.4-6.7C129.7,137.5,128.4,136.6,127.4,135.5z"/>
		<path class="st0" d="M136.8,123.2c-0.2-0.1-0.4-0.2-0.6-0.3c-6.1-2.5-10.8-5-16.1-13.7c-5.2-8.7-8.2-13.2-8.6-19.4
			c0.4-6.2,3.4-10.5,8.6-19.2c5.2-8.7,10-11.2,16.1-13.7c0.2-0.1,0.4-0.2,0.6-0.3c2.7-1.3,4.6-4.1,4.6-7.3c0-4.5-3.6-8.1-8.1-8.1
			c-3.5,0-6.4,2.2-7.6,5.2c-4.8,8.2-9,11.4-16,17.1c-7.1,5.7-15.3,9.3-19.4,9.3l-0.4,7l-0.4-7c-4.1,0-12.3-3.6-19.4-9.3
			c-7-5.6-11.2-8.9-16-17.1c-1.2-3-4.1-5.2-7.6-5.2c-4.5,0-8.1,3.6-8.1,8.1c0,3.2,1.9,6,4.6,7.3c0.2,0.1,0.4,0.2,0.6,0.3
			C50,59.5,54.7,62,60,70.7s8.2,13.2,8.6,19.4c-0.4,6.2-3.4,10.5-8.6,19.2s-10,11.2-16.1,13.7c-0.2,0.1-0.4,0.2-0.6,0.3
			c-2.7,1.3-4.6,4.1-4.6,7.3c0,4.5,3.6,8.1,8.1,8.1c3.5,0,6.4-2.2,7.6-5.2c4.8-8.2,9-11.4,16-17.1c7.1-5.7,15.3-9.3,19.4-9.3
			l0.4-6.3l0.4,6.3c4.1,0,12.3,3.6,19.4,9.3c7,5.6,11.2,8.9,16,17.1c1.2,3,4.1,5.2,7.6,5.2c4.5,0,8.1-3.6,8.1-8.1
			C141.5,127.3,139.6,124.5,136.8,123.2z M132,55.2c-0.9-0.2-1.7-0.6-2.4-1.1l1.4-1.7c0.4,0.3,0.9,0.6,1.5,0.7L132,55.2z
			 M139.3,49.4c0,0.9-0.2,1.8-0.6,2.6l-2-1c0.2-0.5,0.4-1,0.4-1.6L139.3,49.4z M137.1,44.8c0.7,0.6,1.2,1.3,1.6,2.1l-2,1
			c-0.2-0.5-0.6-0.9-1-1.3L137.1,44.8z M137,54.1c-0.7,0.5-1.5,0.9-2.4,1.1l-0.5-2.2c0.5-0.1,1-0.4,1.5-0.7L137,54.1z M133.3,43.5
			C133.3,43.5,133.3,43.5,133.3,43.5c0.5,0,0.9,0.1,1.4,0.2l-0.5,2.2c-0.3-0.1-0.6-0.1-0.9-0.1c-0.3,0-0.5,0-0.8,0.1l-0.5-2.2
			C132.5,43.5,132.9,43.5,133.3,43.5z M133.3,47.5c1,0,1.9,0.8,1.9,1.9c0,1-0.8,1.9-1.9,1.9c-1,0-1.9-0.8-1.9-1.9
			C131.5,48.4,132.3,47.5,133.3,47.5z M129.7,44.7l1.4,1.8c-0.4,0.3-0.8,0.8-1,1.3l-2-1C128.4,46,129,45.3,129.7,44.7z M127.4,49.3
			l2.2,0.1c0,0.6,0.1,1.1,0.4,1.6l-2,1C127.6,51.2,127.4,50.3,127.4,49.3L127.4,49.3z M50.5,44.7c0.7,0.5,1.3,1.2,1.7,2l-2,1
			c-0.2-0.5-0.6-0.9-1-1.3L50.5,44.7z M46.8,43.5C46.8,43.5,46.8,43.5,46.8,43.5c0.4,0,0.9,0,1.3,0.1l-0.5,2.2
			c-0.3-0.1-0.5-0.1-0.8-0.1c-0.3,0-0.6,0-0.9,0.1l-0.5-2.2C45.9,43.5,46.4,43.5,46.8,43.5z M43.1,44.8l1.4,1.7
			c-0.4,0.3-0.8,0.8-1,1.3l-2-1C41.8,46.1,42.4,45.4,43.1,44.8z M40.9,49.4l2.2,0c0,0.6,0.1,1.1,0.4,1.6l-2,1
			C41.1,51.2,40.9,50.3,40.9,49.4z M45.5,55.2c-0.9-0.2-1.7-0.6-2.4-1.1l1.4-1.8c0.4,0.3,0.9,0.6,1.5,0.7L45.5,55.2z M45,49.4
			c0-1,0.8-1.9,1.9-1.9c1,0,1.9,0.8,1.9,1.9c0,1-0.8,1.9-1.9,1.9C45.8,51.3,45,50.4,45,49.4z M48.2,55.2L47.7,53
			c0.5-0.1,1-0.4,1.5-0.7l1.4,1.7C49.8,54.6,49,55,48.2,55.2z M52.2,52l-2-1c0.2-0.5,0.4-1,0.4-1.6l2.2-0.1l0,0.1
			C52.8,50.3,52.6,51.2,52.2,52z M48.2,124.8c0.9,0.2,1.7,0.6,2.4,1.1l-1.4,1.7c-0.4-0.3-0.9-0.6-1.5-0.7L48.2,124.8z M40.9,130.5
			c0-0.9,0.2-1.8,0.6-2.6l2,1c-0.2,0.5-0.4,1-0.4,1.6L40.9,130.5z M43.1,135.1c-0.7-0.6-1.2-1.3-1.6-2.1l2-1c0.2,0.5,0.6,0.9,1,1.3
			L43.1,135.1z M43.2,125.9c0.7-0.5,1.5-0.9,2.4-1.1l0.5,2.2c-0.5,0.1-1,0.4-1.5,0.7L43.2,125.9z M46.8,136.5
			C46.8,136.5,46.8,136.5,46.8,136.5c-0.5,0-0.9-0.1-1.4-0.2l0.5-2.2c0.3,0.1,0.6,0.1,0.9,0.1c0.3,0,0.5,0,0.8-0.1l0.5,2.2
			C47.7,136.4,47.3,136.5,46.8,136.5z M46.8,132.4c-1,0-1.9-0.8-1.9-1.9c0-1,0.8-1.9,1.9-1.9c1,0,1.9,0.8,1.9,1.9
			C48.7,131.6,47.9,132.4,46.8,132.4z M50.5,135.2l-1.4-1.8c0.4-0.3,0.8-0.8,1-1.3l2,1C51.7,134,51.2,134.7,50.5,135.2z M52.7,130.6
			l-2.2-0.1c0-0.6-0.1-1.1-0.4-1.6l2-1C52.6,128.8,52.8,129.6,52.7,130.6L52.7,130.6z M132,124.8l0.5,2.2c-0.5,0.1-1,0.4-1.5,0.7
			l-1.4-1.7C130.3,125.4,131.1,125,132,124.8z M127.4,130.6L127.4,130.6c0-1,0.2-1.8,0.6-2.6l2,1c-0.2,0.5-0.4,1-0.4,1.6
			L127.4,130.6z M129.7,135.2c-0.7-0.5-1.3-1.2-1.7-2l2-1c0.2,0.5,0.6,0.9,1,1.3L129.7,135.2z M133.3,136.5
			C133.3,136.5,133.3,136.5,133.3,136.5c-0.4,0-0.9,0-1.3-0.1l0.5-2.2c0.3,0.1,0.5,0.1,0.8,0.1c0.3,0,0.6,0,0.9-0.1l0.5,2.2
			C134.3,136.4,133.8,136.5,133.3,136.5z M133.3,132.4c-1,0-1.9-0.8-1.9-1.9c0-1,0.8-1.9,1.9-1.9c1,0,1.9,0.8,1.9,1.9
			C135.2,131.6,134.4,132.4,133.3,132.4z M134.1,126.9l0.5-2.2c0.9,0.2,1.7,0.6,2.4,1.1l-1.4,1.8
			C135.2,127.3,134.7,127.1,134.1,126.9z M137.1,135.1l-1.4-1.7c0.4-0.3,0.8-0.8,1-1.3l2,1C138.3,133.9,137.7,134.6,137.1,135.1z
			 M137,130.5c0-0.6-0.1-1.1-0.4-1.6l2-1c0.4,0.8,0.6,1.7,0.6,2.6L137,130.5z"/>
		<path class="st0" d="M105.1,121.8h-30c-1.6,0-2.8-1.3-2.8-2.8V61c0-1.6,1.3-2.8,2.8-2.8h30c1.6,0,2.8,1.3,2.8,2.8l0,58
			C107.9,120.5,106.6,121.8,105.1,121.8z"/>
		<path class="st0" d="M71.3,19.1c0,0-11.4,6.3-17.9,16.2c-2.1,3.1-3.5,5.2-4.4,6.6c1.5,0.4,2.7,1.3,3.7,2.4
			c1.6-1.8,4.6-4.6,9.4-7.8c8.1-5.3,14.1-14.9,14.1-14.9L71.3,19.1z"/>
		<path class="st0" d="M127.5,44.5c0.9-1.1,2.2-2,3.7-2.5c-0.9-1.4-2.3-3.5-4.4-6.7c-6.5-9.9-17.9-16.2-17.9-16.2l-4.9,2.6
			c0,0,6,9.6,14.1,14.9C122.9,39.9,125.9,42.7,127.5,44.5z"/>
		<path class="st0" d="M62.1,143.3c-4.8-3.2-7.8-6-9.4-7.8c-0.9,1.1-2.2,2-3.7,2.5c0.9,1.4,2.3,3.5,4.4,6.6
			c6.5,9.9,17.9,16.2,17.9,16.2l4.9-2.6C76.2,158.2,70.2,148.6,62.1,143.3z"/>
		<path class="st0" d="M157.4,101.5c0,0-11.4,6.3-17.9,16.2c-1.5,2.3-2.6,4-3.5,5.3c1.5,0.6,2.8,1.6,3.7,2.9
			c1.7-1.8,4.5-4.2,8.5-6.9c8.1-5.3,14.1-14.9,14.1-14.9L157.4,101.5z"/>
	</g>
	<polygon class="st1" points="101.2,97.1 90.1,93.7 78.9,97.1 90.1,76.3 	"/>
</g>
</svg>
