<?xml version="1.0" encoding="utf-8"?>
<!-- Generator: Adobe Illustrator 19.1.0, SVG Export Plug-In . SVG Version: 6.00 Build 0)  -->
<svg version="1.1" id="Ebene_1" xmlns="http://www.w3.org/2000/svg" xmlns:xlink="http://www.w3.org/1999/xlink" x="0px" y="0px"
	 viewBox="0 0 180 180" style="enable-background:new 0 0 180 180;" xml:space="preserve">
<style type="text/css">
	.st0{fill:#37A8DB;}
	.st1{fill:#FFFFFF;}
</style>
<g>
	<g>
		<path class="st0" d="M54.1,139.6c1.8,1.7,4.2,4.5,6.8,8.5c5.3,8.1,14.9,14.1,14.9,14.1l2.6-4.9c0,0-6.3-11.4-16.2-17.9
			c-2.3-1.5-4-2.7-5.4-3.5C56.4,137.4,55.4,138.7,54.1,139.6z"/>
		<path class="st0" d="M61,31.8c-2.6,4-5,6.7-6.8,8.4c1.3,0.9,2.2,2.2,2.8,3.8c1.3-0.9,3-2,5.3-3.5c9.9-6.5,16.2-17.9,16.2-17.9
			l-2.6-4.9C75.9,17.8,66.3,23.7,61,31.8z"/>
		<path class="st0" d="M123.2,135.9c-1.3,0.9-3.1,2-5.4,3.5c-9.9,6.5-16.2,17.9-16.2,17.9l2.6,4.9c0,0,9.6-6,14.9-14.1
			c2.6-4,5-6.7,6.8-8.4C124.7,138.7,123.8,137.4,123.2,135.9z"/>
		<path class="st0" d="M135.6,52.6c1.8,1.6,4.6,4.6,7.7,9.3c5.3,8.1,14.9,14.1,14.9,14.1l2.6-4.9c0,0-6.3-11.4-16.2-17.9
			c-3.2-2.1-5.3-3.5-6.7-4.4C137.6,50.3,136.7,51.6,135.6,52.6z"/>
		<path class="st0" d="M123.3,43.2c-0.1,0.2-0.2,0.4-0.3,0.6c-2.5,6.1-5,10.8-13.7,16.1S96.2,68.1,90,68.4
			c-6.2-0.4-10.5-3.4-19.2-8.6s-11.2-10-13.7-16.1c-0.1-0.2-0.2-0.4-0.3-0.6c-1.3-2.7-4.1-4.6-7.3-4.6c-4.5,0-8.1,3.6-8.1,8.1
			c0,3.5,2.2,6.4,5.2,7.6c8.2,4.8,11.4,9,17.1,16c5.7,7.1,9.3,15.3,9.3,19.4l7,0.4l-7,0.4c0,4.1-3.6,12.3-9.3,19.4
			c-5.6,7-8.9,11.2-17.1,16c-3,1.2-5.2,4.1-5.2,7.6c0,4.5,3.6,8.1,8.1,8.1c3.2,0,6-1.9,7.3-4.6c0.1-0.2,0.2-0.4,0.3-0.6
			c2.5-6.1,5-10.8,13.7-16.1s13.2-8.2,19.4-8.6c6.2,0.4,10.5,3.4,19.2,8.6c8.7,5.2,11.2,10,13.7,16.1c0.1,0.2,0.2,0.4,0.3,0.6
			c1.3,2.7,4.1,4.6,7.3,4.6c4.5,0,8.1-3.6,8.1-8.1c0-3.5-2.2-6.4-5.2-7.6c-8.2-4.8-11.4-9-17.1-16c-5.7-7.1-9.3-15.3-9.3-19.4
			l-6.3-0.4l6.3-0.4c0-4.1,3.6-12.3,9.3-19.4c5.6-7,8.9-11.2,17.1-16c3-1.2,5.2-4.1,5.2-7.6c0-4.5-3.6-8.1-8.1-8.1
			C127.4,38.6,124.6,40.5,123.3,43.2z M55.3,48.1c-0.2,0.9-0.6,1.7-1.1,2.4L52.4,49c0.3-0.4,0.6-0.9,0.7-1.5L55.3,48.1z M49.5,40.8
			c0.9,0,1.8,0.2,2.6,0.6l-1,2c-0.5-0.2-1-0.4-1.6-0.4L49.5,40.8z M44.9,43c0.6-0.7,1.3-1.2,2.1-1.6l1,2c-0.5,0.2-0.9,0.6-1.3,1
			L44.9,43z M54.2,43c0.5,0.7,0.9,1.5,1.1,2.4l-2.2,0.5c-0.1-0.5-0.4-1-0.7-1.5L54.2,43z M43.6,46.7C43.6,46.7,43.6,46.7,43.6,46.7
			c0-0.5,0.1-0.9,0.2-1.4l2.2,0.5c-0.1,0.3-0.1,0.6-0.1,0.9c0,0.3,0,0.5,0.1,0.8L43.7,48C43.6,47.6,43.6,47.2,43.6,46.7z M47.6,46.7
			c0-1,0.8-1.9,1.9-1.9c1,0,1.9,0.8,1.9,1.9c0,1-0.8,1.9-1.9,1.9C48.5,48.6,47.6,47.8,47.6,46.7z M44.8,50.4l1.8-1.4
			c0.3,0.4,0.8,0.8,1.3,1l-1,2C46.1,51.6,45.4,51.1,44.8,50.4z M49.4,52.6l0.1-2.2c0.6,0,1.1-0.1,1.6-0.4l1,2
			C51.3,52.5,50.4,52.6,49.4,52.6L49.4,52.6z M44.8,129.6c0.5-0.7,1.2-1.3,2-1.7l1,2c-0.5,0.2-0.9,0.6-1.3,1L44.8,129.6z
			 M43.6,133.2C43.6,133.2,43.6,133.2,43.6,133.2c0-0.4,0-0.9,0.1-1.3l2.2,0.5c-0.1,0.3-0.1,0.5-0.1,0.8c0,0.3,0,0.6,0.1,0.9
			l-2.2,0.5C43.6,134.1,43.6,133.7,43.6,133.2z M44.9,137l1.7-1.4c0.3,0.4,0.8,0.8,1.3,1l-1,2C46.2,138.2,45.5,137.6,44.9,137z
			 M49.5,139.2l0-2.2c0.6,0,1.1-0.1,1.6-0.4l1,2C51.3,138.9,50.4,139.1,49.5,139.2z M55.3,134.5c-0.2,0.9-0.6,1.7-1.1,2.4l-1.8-1.4
			c0.3-0.4,0.6-0.9,0.7-1.5L55.3,134.5z M49.5,135.1c-1,0-1.9-0.8-1.9-1.9c0-1,0.8-1.9,1.9-1.9s1.9,0.8,1.9,1.9
			C51.4,134.3,50.5,135.1,49.5,135.1z M55.3,131.9l-2.2,0.5c-0.1-0.5-0.4-1-0.7-1.5l1.7-1.4C54.7,130.2,55.1,131,55.3,131.9z
			 M52.1,127.9l-1,2c-0.5-0.2-1-0.4-1.6-0.4l-0.1-2.2l0.1,0C50.4,127.3,51.3,127.5,52.1,127.9z M124.9,131.9
			c0.2-0.9,0.6-1.7,1.1-2.4l1.7,1.4c-0.3,0.4-0.6,0.9-0.7,1.5L124.9,131.9z M130.6,139.2c-0.9,0-1.8-0.2-2.6-0.6l1-2
			c0.5,0.2,1,0.4,1.6,0.4L130.6,139.2z M135.2,137c-0.6,0.7-1.3,1.2-2.1,1.6l-1-2c0.5-0.2,0.9-0.6,1.3-1L135.2,137z M126,136.9
			c-0.5-0.7-0.9-1.5-1.1-2.4l2.2-0.5c0.1,0.5,0.4,1,0.7,1.5L126,136.9z M136.6,133.2C136.6,133.2,136.6,133.2,136.6,133.2
			c0,0.5-0.1,0.9-0.2,1.4l-2.2-0.5c0.1-0.3,0.1-0.6,0.1-0.9c0-0.3,0-0.5-0.1-0.8l2.2-0.5C136.5,132.4,136.6,132.8,136.6,133.2z
			 M132.5,133.2c0,1-0.8,1.9-1.9,1.9c-1,0-1.9-0.8-1.9-1.9c0-1,0.8-1.9,1.9-1.9C131.7,131.4,132.5,132.2,132.5,133.2z M135.3,129.6
			l-1.8,1.4c-0.3-0.4-0.8-0.8-1.3-1l1-2C134.1,128.3,134.8,128.9,135.3,129.6z M130.7,127.3l-0.1,2.2c-0.6,0-1.1,0.1-1.6,0.4l-1-2
			C128.9,127.5,129.7,127.3,130.7,127.3L130.7,127.3z M124.9,48.1l2.2-0.5c0.1,0.5,0.4,1,0.7,1.5l-1.7,1.4
			C125.5,49.7,125.1,48.9,124.9,48.1z M130.7,52.6L130.7,52.6c-1,0-1.8-0.2-2.6-0.6l1-2c0.5,0.2,1,0.4,1.6,0.4L130.7,52.6z
			 M135.3,50.4c-0.5,0.7-1.2,1.3-2,1.7l-1-2c0.5-0.2,0.9-0.6,1.3-1L135.3,50.4z M136.6,46.7C136.6,46.7,136.6,46.7,136.6,46.7
			c0,0.4,0,0.9-0.1,1.3l-2.2-0.5c0.1-0.3,0.1-0.5,0.1-0.8c0-0.3,0-0.6-0.1-0.9l2.2-0.5C136.5,45.8,136.6,46.3,136.6,46.7z
			 M132.5,46.7c0,1-0.8,1.9-1.9,1.9c-1,0-1.9-0.8-1.9-1.9c0-1,0.8-1.9,1.9-1.9C131.7,44.9,132.5,45.7,132.5,46.7z M127.1,45.9
			l-2.2-0.5c0.2-0.9,0.6-1.7,1.1-2.4l1.8,1.4C127.4,44.9,127.2,45.4,127.1,45.9z M135.2,43l-1.7,1.4c-0.3-0.4-0.8-0.8-1.3-1l1-2
			C134,41.7,134.7,42.3,135.2,43z M130.6,43c-0.6,0-1.1,0.1-1.6,0.4l-1-2c0.8-0.4,1.7-0.6,2.6-0.6L130.6,43z"/>
		<path class="st0" d="M121.9,75l0,30c0,1.6-1.3,2.8-2.8,2.8l-58,0c-1.6,0-2.8-1.3-2.8-2.8l0-30c0-1.6,1.3-2.8,2.8-2.8l58,0
			C120.6,72.1,121.9,73.4,121.9,75z"/>
		<path class="st0" d="M19.2,108.8c0,0,6.3,11.4,16.2,17.9c3.1,2.1,5.2,3.5,6.6,4.4c0.4-1.5,1.3-2.7,2.4-3.7
			c-1.8-1.6-4.6-4.6-7.8-9.4c-5.3-8.1-14.9-14.1-14.9-14.1L19.2,108.8z"/>
		<path class="st0" d="M44.6,52.5c-1.1-0.9-2-2.2-2.5-3.7c-1.4,0.9-3.5,2.3-6.7,4.4c-9.9,6.5-16.2,17.9-16.2,17.9l2.6,4.9
			c0,0,9.6-6,14.9-14.1C40,57.1,42.8,54.1,44.6,52.5z"/>
		<path class="st0" d="M143.4,118c-3.2,4.8-6,7.8-7.8,9.4c1.1,0.9,2,2.2,2.5,3.7c1.4-0.9,3.5-2.3,6.6-4.4
			c9.9-6.5,16.2-17.9,16.2-17.9l-2.6-4.9C158.3,103.9,148.7,109.9,143.4,118z"/>
		<path class="st0" d="M101.6,22.6c0,0,6.3,11.4,16.2,17.9c2.3,1.5,4,2.6,5.3,3.5c0.6-1.5,1.6-2.8,2.9-3.7c-1.8-1.7-4.2-4.5-6.9-8.5
			c-5.3-8.1-14.9-14.1-14.9-14.1L101.6,22.6z"/>
	</g>
	<polygon class="st1" points="97.2,78.8 93.8,90 97.2,101.1 76.4,90 	"/>
</g>
</svg>
