<?xml version="1.0" encoding="utf-8"?>
<!-- Generator: Adobe Illustrator 25.2.3, SVG Export Plug-In . SVG Version: 6.00 Build 0)  -->
<svg version="1.1" id="Ebene_1" xmlns="http://www.w3.org/2000/svg" xmlns:xlink="http://www.w3.org/1999/xlink" x="0px" y="0px"
	 viewBox="0 0 180 180" style="enable-background:new 0 0 180 180;" xml:space="preserve">
<style type="text/css">
	.st0{fill:#4CB944;}
	.st1{fill:#C1C1C1;}
</style>
<g>
	<g>
		<path class="st0" d="M80,89.4l20.8-11.2l-3.3,11.1l3.3,11.1L80,89.4z"/>
		<g>
			<g>
				<g>
					<path class="st0" d="M46.1,129.3c0-3.4,2.2-6.5,5.4-7.8c6.7-4,9.5-7.4,13.8-12.5l1.3-1.6c5.2-6.6,8-13.5,8-16.8v-0.7
						c0-3.3-2.8-10.2-8-16.9c-5.1-6.5-8.1-9.8-15.1-14.1c-3.2-1.2-5.4-4.4-5.4-7.8c0-4.7,3.5-8.2,8.2-8.2c3.1,0,6.3,2,7.4,4.7
						l0.1,0.1c0.1,0.1,0.3,0.4,0.3,0.7c2.5,5.6,4.5,9.3,11.9,13.8c1.3,0.7,2.5,1.4,3.6,2c5.4,3.2,8.7,5.1,13.1,5.3
						c5.4-0.3,9-2.5,16.2-7l0.7-0.4c7.5-4.6,9.5-8.4,11.9-14.1c0.1-0.3,0.2-0.6,0.3-0.7l0.1-0.1c1.2-2.7,4.3-4.7,7.4-4.7
						c4.7,0,8.2,3.5,8.2,8.2c0,3.4-2.2,6.5-5.4,7.8c-6.7,4-9.5,7.4-13.8,12.5l-1.3,1.6c-5.2,6.6-8,13.5-8,16.8v0.7
						c0,3.3,2.8,10.2,8,16.9c5.1,6.5,8.1,9.8,15.1,14.1c3.2,1.2,5.4,4.4,5.4,7.8c0,4.7-3.5,8.2-8.2,8.2c-3.1,0-6.3-2-7.4-4.7
						l-0.1-0.1c-0.1-0.1-0.3-0.4-0.3-0.7c-2.2-5.1-4.2-9.5-11.9-13.8c-1.3-0.7-2.5-1.4-3.6-2.1c-5.4-3.2-8.7-5.1-13.1-5.3
						c-5.4,0.3-9,2.5-16.2,7l-0.7,0.4c-7.4,4.5-9.4,8.2-11.9,13.8c-0.1,0.3-0.2,0.5-0.3,0.7l-0.1,0.1c-1.1,2.6-4.1,4.7-7.3,5.1h-0.1
						C49.6,137.5,46.1,133.9,46.1,129.3z M76.6,89.8v0.7c0,4.4-3.5,11.8-8.4,18.1l-1.3,1.6c-4.4,5.3-7.3,8.9-14.4,13l-0.2,0.1
						c-2.4,0.9-4.2,3.4-4.2,5.9c0,3.5,2.6,6.2,6.1,6.2c2.5-0.3,4.7-1.8,5.6-3.7c0.1-0.3,0.2-0.5,0.3-0.7l0.1-0.1
						c2.6-5.8,4.8-10,12.7-14.9l0.7-0.4c7.5-4.6,11.3-6.9,17.2-7.2h0.1H91c4.8,0.3,8.3,2.3,14,5.6c1.1,0.6,2.3,1.3,3.6,2.1
						c8.3,4.7,10.5,9.6,12.8,14.9l0.1,0.1c0.1,0.1,0.3,0.4,0.3,0.7c0.9,2,3.2,3.4,5.5,3.4c3.5,0,6.2-2.7,6.2-6.2
						c0-2.6-1.7-5-4.2-5.9l-0.2-0.1c-7.3-4.5-10.5-8.1-15.7-14.6c-5-6.3-8.4-13.7-8.4-18.1v-0.7c0-4.4,3.5-11.8,8.4-18.1l1.3-1.6
						c4.4-5.3,7.3-8.9,14.4-13l0.2-0.1c2.4-0.9,4.2-3.4,4.2-5.9c0-3.5-2.7-6.2-6.2-6.2c-2.3,0-4.6,1.4-5.5,3.4
						c-0.1,0.3-0.2,0.5-0.3,0.7v0.1c-2.5,6-4.7,10.3-12.7,15.2l-0.7,0.4c-7.5,4.6-11.3,6.9-17.2,7.2h-0.1h-0.1
						c-4.8-0.3-8.3-2.3-14-5.6c-1.1-0.6-2.3-1.3-3.6-2.1c-7.9-4.8-10.2-9-12.8-14.9L60.2,49c-0.1-0.1-0.3-0.4-0.3-0.7
						c-0.9-2-3.2-3.4-5.5-3.4c-3.5,0-6.2,2.7-6.2,6.2c0,2.6,1.7,5,4.2,5.9l0.2,0.1c7.3,4.5,10.5,8.1,15.7,14.6
						C73.1,78,76.6,85.5,76.6,89.8z"/>
				</g>
			</g>
			<path class="st0" d="M111.2,54.5c-0.3-1-0.3-2.4-0.3-3.4c0-9.3,7.5-16.5,16.5-16.5c8.9,0,16.5,7.5,16.5,16.5s-7.5,16.5-16.5,16.5
				c-0.7,0-1.4,0-2.4-0.3l-2.1,3.1c1.4,0.3,2.7,0.3,4.5,0.3c11,0,19.9-8.9,19.9-19.9s-8.9-19.9-19.9-19.9s-19.9,8.9-19.9,19.9
				c0,2.1,0.3,3.8,0.7,5.8L111.2,54.5z"/>
			<path class="st0" d="M147.2,129.3c0-11-8.9-19.9-19.9-19.9c-1.7,0-3.1,0.3-4.5,0.7l2.1,3.1c0.7,0,1.7-0.3,2.4-0.3
				c9.3,0,16.5,7.5,16.5,16.5c0,8.9-7.5,16.5-16.5,16.5s-16.5-7.5-16.5-16.5c0-1,0-2.1,0.3-3.4l-3.1-2.1c-0.3,1.7-0.7,3.4-0.7,5.5
				c0,11,8.9,19.9,19.9,19.9C138.3,149.1,147.2,140.2,147.2,129.3z"/>
			<path class="st0" d="M70.1,54.5c0.3-1,0.3-2.4,0.3-3.4c0-9.3-7.5-16.5-16.5-16.5s-16.5,7.5-16.5,16.5C37.5,60,45,67.5,54,67.5
				c0.7,0,1.4,0,2.4-0.3l2.1,3.1c-1.4,0.3-2.7,0.3-4.5,0.3c-11,0-19.9-8.9-19.9-19.9S43,30.8,54,30.8s19.9,8.9,19.9,19.9
				c0,2.1-0.3,3.8-0.7,5.8L70.1,54.5z"/>
			<path class="st0" d="M34.1,129.3c0-11,8.9-19.9,19.9-19.9c1.7,0,3.1,0.3,4.5,0.7l-2.1,3.1c-0.7,0-1.7-0.3-2.4-0.3
				c-9.3,0-16.5,7.5-16.5,16.5S45,145.7,54,145.7c8.9,0,16.5-7.5,16.5-16.5c0-1,0-2.1-0.3-3.4l3.1-2.1c0.3,1.7,0.7,3.4,0.7,5.5
				c0,11-8.9,19.9-19.9,19.9C43,149.1,34.1,140.2,34.1,129.3z"/>
		</g>
	</g>
</g>
<path class="st1" d="M166,154H14c-0.6,0-1-0.4-1-1s0.4-1,1-1h152c0.6,0,1,0.4,1,1S166.6,154,166,154z"/>
</svg>
