<?xml version="1.0" encoding="UTF-8" standalone="no"?>
<svg
   fill="none"
   height="24"
   viewBox="0 0 24 24"
   width="24"
   version="1.1"
   id="svg4"
   sodipodi:docname="search-gray.svg"
   inkscape:version="1.1.2 (0a00cf5339, 2022-02-04)"
   xmlns:inkscape="http://www.inkscape.org/namespaces/inkscape"
   xmlns:sodipodi="http://sodipodi.sourceforge.net/DTD/sodipodi-0.dtd"
   xmlns="http://www.w3.org/2000/svg"
   xmlns:svg="http://www.w3.org/2000/svg">
  <defs
     id="defs8" />
  <sodipodi:namedview
     id="namedview6"
     pagecolor="#ffffff"
     bordercolor="#666666"
     borderopacity="1.0"
     inkscape:pageshadow="2"
     inkscape:pageopacity="0.0"
     inkscape:pagecheckerboard="0"
     showgrid="false"
     inkscape:zoom="35.166667"
     inkscape:cx="11.985782"
     inkscape:cy="12"
     inkscape:window-width="1920"
     inkscape:window-height="1043"
     inkscape:window-x="1920"
     inkscape:window-y="0"
     inkscape:window-maximized="1"
     inkscape:current-layer="svg4" />
  <path
     d="M 22.817719,22.609242 17.241498,17.071588 M 1.2563285,10.426403 c 0,-5.0972703 4.1609321,-9.2294236 9.2937025,-9.2294236 5.1328,0 9.293702,4.1321533 9.293702,9.2294236 0,5.0973 -4.160902,9.229425 -9.293702,9.229425 -5.1327704,0 -9.2937025,-4.132125 -9.2937025,-9.229425 z"
     stroke="#141414"
     stroke-linecap="round"
     stroke-linejoin="round"
     stroke-width="2.22276"
     id="path2" />
  <path
     style="fill:#b3b3b3;fill-opacity:0.690196;stroke:#000080;stroke-width:0;paint-order:fill markers stroke"
     d="m 22.560645,23.674438 c -0.271493,-0.06481 -0.322308,-0.110767 -2.442162,-2.208491 -1.141706,-1.129788 -2.286821,-2.266243 -2.5447,-2.525456 -0.257879,-0.259213 -0.477162,-0.471297 -0.487296,-0.471297 -0.01013,0 -0.155719,0.102393 -0.323523,0.22754 -1.425401,1.063051 -3.042498,1.71221 -4.93358,1.980509 -0.510169,0.07238 -2.0490732,0.07238 -2.5592418,0 C 7.9662336,20.492249 6.9018984,20.164909 5.8293839,19.619024 2.67967,18.015894 0.58234172,14.969651 0.21410978,11.463177 0.16400502,10.986057 0.15685852,9.9949573 0.20003937,9.5118483 0.37831158,7.517332 1.1656657,5.5683984 2.434442,3.9810427 2.769248,3.5621696 3.6020881,2.7326217 4.0236967,2.3980701 5.6296308,1.1237417 7.4157645,0.38857817 9.4834123,0.15087916 c 0.4061301,-0.0466892 1.7265717,-0.0466892 2.1327017,0 2.503885,0.28784931 4.671795,1.33908644 6.385735,3.09649434 0.491665,0.5041342 0.818269,0.9046834 1.189482,1.4587876 0.967904,1.4447753 1.555516,3.0979522 1.708156,4.8056872 0.04318,0.483109 0.03603,1.4742087 -0.01407,1.9513287 -0.194938,1.856288 -0.880948,3.621095 -1.978725,5.090401 -0.126969,0.16994 -0.236349,0.322944 -0.243067,0.340009 -0.0067,0.01706 1.127441,1.16452 2.520351,2.5499 2.394995,2.382048 2.53754,2.529421 2.624175,2.713049 0.08188,0.173541 0.09165,0.221371 0.09197,0.450099 3.19e-4,0.22769 -0.0094,0.276464 -0.08787,0.442105 -0.106338,0.224402 -0.223503,0.363082 -0.40308,0.477096 -0.240824,0.152901 -0.580982,0.212472 -0.848522,0.148602 z M 11.658768,18.485073 c 0.449694,-0.06668 0.855516,-0.153065 1.206106,-0.256722 3.011636,-0.890439 5.239125,-3.373114 5.762308,-6.422448 0.168777,-0.983709 0.145611,-2.1184691 -0.06306,-3.0886438 C 18.071033,6.4246769 16.600638,4.460065 14.514464,3.3064618 12.92976,2.4301589 11.030506,2.107514 9.2075275,2.4049203 5.8511773,2.9524854 3.1879422,5.5069118 2.514306,8.8246837 2.3035594,9.8626464 2.3109634,11.067332 2.5346081,12.127962 c 0.5433382,2.576769 2.3775202,4.772764 4.8436826,5.799153 0.648683,0.269975 1.5024543,0.493148 2.1762117,0.568856 0.1485782,0.01669 0.3149289,0.03551 0.3696682,0.04182 0.2296784,0.02645 1.4510174,-0.01066 1.7345974,-0.05272 z"
     id="path1025" />
</svg>
