<?xml version="1.0" encoding="utf-8"?>
<!-- Generator: Adobe Illustrator 19.1.0, SVG Export Plug-In . SVG Version: 6.00 Build 0)  -->
<svg version="1.1" id="Capa_1" xmlns="http://www.w3.org/2000/svg" xmlns:xlink="http://www.w3.org/1999/xlink" x="0px" y="0px"
	 viewBox="-1203 55 92 92" style="enable-background:new -1203 55 92 92;" xml:space="preserve">
<style type="text/css">
	.st0{fill:#37A8DB;}
</style>
<g>
	<path class="st0" d="M-1157.6,58c-23.8,0.3-42.8,19.8-42.5,43.6s19.8,42.8,43.6,42.5c23.8-0.3,42.8-19.8,42.5-43.6
		S-1133.8,57.7-1157.6,58z M-1157.7,127.2h-0.3c-3.6-0.1-6.3-2.8-6.2-6.5c0.1-3.6,2.7-6.1,6.3-6.1h0.2c3.7,0.1,6.3,2.8,6.2,6.5
		C-1151.5,124.7-1154.1,127.2-1157.7,127.2z M-1142.3,96.6c-0.8,1.2-2.7,2.7-5.1,4.6l-2.6,1.8c-1.4,1.1-2.3,2.2-2.6,3.2
		c-0.3,0.8-0.4,1-0.4,2.7v0.5h-10v-0.8c0.1-3.5,0.2-5.5,1.7-7.2c2.2-2.6,7.3-5.9,7.5-6c0.7-0.6,1.3-1.1,1.8-1.8
		c1-1.5,1.5-2.6,1.5-3.7c0-1.6-0.5-3-1.4-4.3c-0.8-1.2-2.5-1.9-5-1.9s-4,0.7-5.1,2.3c-1,1.6-1.5,3.3-1.5,5.1v0.5h-10.4V91
		c0.3-6.4,2.5-10.9,6.7-13.6c2.6-1.7,5.9-2.5,9.7-2.5c5,0,9.3,1.2,12.5,3.6c3.4,2.4,5.1,6.1,5.1,10.9
		C-1139.8,91.9-1140.6,94.4-1142.3,96.6z"/>
</g>
</svg>
