<?xml version="1.0" encoding="utf-8"?>
<!-- Generator: Adobe Illustrator 16.0.0, SVG Export Plug-In . SVG Version: 6.00 Build 0)  -->
<!DOCTYPE svg PUBLIC "-//W3C//DTD SVG 1.1//EN" "http://www.w3.org/Graphics/SVG/1.1/DTD/svg11.dtd">
<svg version="1.1" id="Ebene_1" xmlns="http://www.w3.org/2000/svg" xmlns:xlink="http://www.w3.org/1999/xlink" x="0px" y="0px"
	 width="141.7px" height="141.7px" viewBox="0 0 141.7 141.7" enable-background="new 0 0 141.7 141.7" xml:space="preserve">
<g>
	<circle fill="#9A9999" cx="70.85" cy="102.911" r="4.754"/>
	<path fill="#9A9999" d="M87.639,115.732H54.062c0.021,6.782-3.779,11.349-8.966,15.105h51.508
		C90.122,126.748,87.729,121.538,87.639,115.732z"/>
	<path fill="#9A9999" d="M135.235,17.913H6.465c-2.039,0-3.701,1.663-3.701,3.702v85.308c0,2.04,1.662,3.7,3.701,3.7h128.771
		c2.039,0,3.701-1.662,3.701-3.7V21.615C138.937,19.576,137.274,17.913,135.235,17.913z M70.85,107.665
		c-2.626,0-4.754-2.128-4.754-4.754c0-2.627,2.128-4.755,4.754-4.755c2.628,0,4.756,2.128,4.756,4.755
		C75.605,105.537,73.478,107.665,70.85,107.665z M131.079,91.896c0,1.795-1.474,3.269-3.27,3.269H13.9
		c-1.796,0-3.269-1.474-3.269-3.269V28.153c-0.011-1.795,1.462-3.269,3.269-3.269H127.81c1.807,0,3.27,1.474,3.27,3.269V91.896z"/>
</g>
</svg>
