<?xml version="1.0" encoding="utf-8"?>
<!-- Generator: Adobe Illustrator 25.2.3, SVG Export Plug-In . SVG Version: 6.00 Build 0)  -->
<svg version="1.1" id="Layer_1" xmlns="http://www.w3.org/2000/svg" xmlns:xlink="http://www.w3.org/1999/xlink" x="0px" y="0px"
	 viewBox="0 0 400.7 400.7" style="enable-background:new 0 0 400.7 400.7;" xml:space="preserve">
<style type="text/css">
	.st0{fill:#4CB944;}
	.st1{fill:#333333;}
	.st2{fill:none;stroke:#FFFFFF;stroke-width:4;stroke-miterlimit:10;}
	.st3{fill:#FFFFFF;}
</style>
<path class="st0" d="M200.7,50.4c-82.7,0-149.8,67.1-149.8,149.8S118,349.9,200.7,349.9s149.8-67.1,149.8-149.8
	S283.4,50.4,200.7,50.4z M200.7,300.5c-55.4,0-100.3-44.9-100.3-100.3c0-55.4,44.9-100.3,100.3-100.3c55.4,0,100.3,44.9,100.3,100.3
	S256.1,300.5,200.7,300.5z"/>
<path class="st1" d="M301,200.2c0,55.4-44.9,100.3-100.3,100.3c-55.4,0-100.3-44.9-100.3-100.3H50.9c0,0,0,0,0,0
	c0,82.7,67.1,149.8,149.8,149.8s149.8-67.1,149.8-149.8c0,0,0,0,0,0H301z"/>
<line class="st2" x1="50.7" y1="200.3" x2="100.3" y2="200.3"/>
<line class="st2" x1="300.7" y1="200.3" x2="350.4" y2="200.3"/>
<line class="st2" x1="78.4" y1="131.6" x2="112.1" y2="151.9"/>
<line class="st2" x1="288.8" y1="151.9" x2="323.6" y2="131.6"/>
<line class="st2" x1="149.4" y1="113.8" x2="129.4" y2="79.2"/>
<line class="st2" x1="252.1" y1="113.8" x2="272.8" y2="79.2"/>
<polygon class="st3" points="185.9,60.1 215.3,60.1 200.6,98.9 "/>
<polygon class="st3" points="119.1,117.4 112.1,124.3 126.6,131.6 "/>
<polygon class="st3" points="274.1,131.6 281.3,117.4 288.8,124.5 "/>
</svg>
