<?xml version="1.0" encoding="utf-8"?>
<!-- Generator: Adobe Illustrator 25.2.3, SVG Export Plug-In . SVG Version: 6.00 Build 0)  -->
<svg version="1.1" id="Layer_1" xmlns="http://www.w3.org/2000/svg" xmlns:xlink="http://www.w3.org/1999/xlink" x="0px" y="0px"
	 viewBox="0 0 400.7 400.7" style="enable-background:new 0 0 400.7 400.7;" xml:space="preserve">
<style type="text/css">
	.st0{fill:#4CB944;}
	.st1{fill:#333333;}
	.st2{fill:none;stroke:#FFFFFF;stroke-width:2;stroke-miterlimit:10;}
	.st3{fill:#FFFFFF;}
</style>
<g>
	<g>
		<path class="st0" d="M301.3,200.3c0,41.9-34,75.9-75.9,76c0,0-50.1,0-50.1,0c-42,0-76-34-76-76s34-76,76-76c0,0,50.1,0,50.1,0
			C267.4,124.4,301.3,158.4,301.3,200.3z"/>
	</g>
</g>
<path class="st1" d="M99.3,200.5c0.1,41.9,34.1,75.9,76,75.9c0,0,50.1,0,50.1,0c41.9-0.1,75.8-34,75.9-75.9H99.3z"/>
<line class="st2" x1="99.7" y1="200.5" x2="301.7" y2="200.5"/>
<line class="st2" x1="188" y1="187.4" x2="213" y2="187.4"/>
<line class="st2" x1="188.2" y1="213.5" x2="213.2" y2="213.5"/>
<line class="st2" x1="188" y1="241.4" x2="213" y2="241.4"/>
<line class="st2" x1="188.2" y1="159.4" x2="213.2" y2="159.4"/>
<line class="st2" x1="180" y1="173.4" x2="220" y2="173.4"/>
<line class="st2" x1="180" y1="227.5" x2="220" y2="227.5"/>
<line class="st2" x1="170" y1="255.3" x2="230" y2="255.3"/>
<line class="st2" x1="170" y1="145.3" x2="230" y2="145.3"/>
<g>
	<path class="st3" d="M166.6,169.2h2.2v7.9h-1.5v-6.5h-1.6L166.6,169.2z"/>
	<path class="st3" d="M172.8,169c0.6,0,1.1,0.1,1.5,0.4c0.4,0.3,0.7,0.7,1,1.3c0.2,0.6,0.3,1.4,0.3,2.4c0,1-0.1,1.9-0.3,2.4
		c-0.2,0.6-0.5,1-0.9,1.3c-0.4,0.3-0.9,0.4-1.5,0.4s-1.1-0.1-1.5-0.4s-0.7-0.7-1-1.3s-0.3-1.4-0.3-2.4c0-1.4,0.2-2.5,0.7-3.2
		C171.3,169.4,172,169,172.8,169z M172.9,170.5c-0.3,0-0.5,0.1-0.7,0.2c-0.2,0.2-0.3,0.4-0.4,0.8s-0.2,1-0.2,1.7
		c0,1,0.1,1.7,0.4,2.1c0.2,0.4,0.5,0.6,0.9,0.6c0.4,0,0.7-0.2,0.9-0.5c0.3-0.4,0.4-1.2,0.4-2.2c0-1-0.1-1.8-0.4-2.1
		S173.2,170.5,172.9,170.5z"/>
</g>
<g>
	<path class="st3" d="M155.6,143.9h-1.5c0-0.9,0.3-1.5,0.8-2c0.5-0.5,1.1-0.7,1.9-0.7c0.5,0,0.9,0.1,1.3,0.3
		c0.4,0.2,0.7,0.5,0.9,0.9c0.2,0.4,0.3,0.8,0.3,1.2c0,0.5-0.1,1-0.4,1.5s-0.8,1.2-1.5,1.9l-0.9,0.9h2.8v1.4h-5.5v-0.7l2.4-2.5
		c0.6-0.6,1-1.1,1.2-1.4s0.3-0.7,0.3-1c0-0.3-0.1-0.6-0.3-0.8c-0.2-0.2-0.5-0.3-0.8-0.3c-0.3,0-0.6,0.1-0.8,0.4
		S155.6,143.5,155.6,143.9z"/>
	<path class="st3" d="M162.9,141.1c0.6,0,1.1,0.1,1.5,0.4c0.4,0.3,0.7,0.7,1,1.3c0.2,0.6,0.3,1.4,0.3,2.4c0,1-0.1,1.9-0.3,2.4
		c-0.2,0.6-0.5,1-0.9,1.3c-0.4,0.3-0.9,0.4-1.5,0.4s-1.1-0.1-1.5-0.4s-0.7-0.7-1-1.3s-0.3-1.4-0.3-2.4c0-1.4,0.2-2.5,0.7-3.2
		C161.3,141.5,162,141.1,162.9,141.1z M162.9,142.6c-0.3,0-0.5,0.1-0.7,0.2c-0.2,0.2-0.3,0.4-0.4,0.8s-0.2,1-0.2,1.7
		c0,1,0.1,1.7,0.4,2.1c0.2,0.4,0.5,0.6,0.9,0.6c0.4,0,0.7-0.2,0.9-0.5c0.3-0.4,0.4-1.2,0.4-2.2c0-1-0.1-1.8-0.4-2.1
		S163.3,142.6,162.9,142.6z"/>
</g>
<g>
	<path class="st3" d="M235,143.8h-1.5c0-0.9,0.3-1.5,0.8-2c0.5-0.5,1.1-0.7,1.9-0.7c0.5,0,0.9,0.1,1.3,0.3c0.4,0.2,0.7,0.5,0.9,0.9
		c0.2,0.4,0.3,0.8,0.3,1.2c0,0.5-0.1,1-0.4,1.5s-0.8,1.2-1.5,1.9l-0.9,0.9h2.8v1.4h-5.5v-0.7l2.4-2.5c0.6-0.6,1-1.1,1.2-1.4
		s0.3-0.7,0.3-1c0-0.3-0.1-0.6-0.3-0.8c-0.2-0.2-0.5-0.3-0.8-0.3c-0.3,0-0.6,0.1-0.8,0.4S235,143.4,235,143.8z"/>
	<path class="st3" d="M242.3,141c0.6,0,1.1,0.1,1.5,0.4c0.4,0.3,0.7,0.7,1,1.3c0.2,0.6,0.3,1.4,0.3,2.4c0,1-0.1,1.9-0.3,2.4
		c-0.2,0.6-0.5,1-0.9,1.3c-0.4,0.3-0.9,0.4-1.5,0.4s-1.1-0.1-1.5-0.4s-0.7-0.7-1-1.3s-0.3-1.4-0.3-2.4c0-1.4,0.2-2.5,0.7-3.2
		C240.7,141.4,241.4,141,242.3,141z M242.3,142.5c-0.3,0-0.5,0.1-0.7,0.2c-0.2,0.2-0.3,0.4-0.4,0.8s-0.2,1-0.2,1.7
		c0,1,0.1,1.7,0.4,2.1c0.2,0.4,0.5,0.6,0.9,0.6c0.4,0,0.7-0.2,0.9-0.5c0.3-0.4,0.4-1.2,0.4-2.2c0-1-0.1-1.8-0.4-2.1
		S242.7,142.5,242.3,142.5z"/>
</g>
<g>
	<path class="st3" d="M224.3,169.2h2.2v7.9h-1.5v-6.5h-1.6L224.3,169.2z"/>
	<path class="st3" d="M230.5,169c0.6,0,1.1,0.1,1.5,0.4c0.4,0.3,0.7,0.7,1,1.3c0.2,0.6,0.3,1.4,0.3,2.4c0,1-0.1,1.9-0.3,2.4
		c-0.2,0.6-0.5,1-0.9,1.3c-0.4,0.3-0.9,0.4-1.5,0.4s-1.1-0.1-1.5-0.4s-0.7-0.7-1-1.3s-0.3-1.4-0.3-2.4c0-1.4,0.2-2.5,0.7-3.2
		C229,169.4,229.6,169,230.5,169z M230.6,170.5c-0.3,0-0.5,0.1-0.7,0.2c-0.2,0.2-0.3,0.4-0.4,0.8s-0.2,1-0.2,1.7
		c0,1,0.1,1.7,0.4,2.1c0.2,0.4,0.5,0.6,0.9,0.6c0.4,0,0.7-0.2,0.9-0.5c0.3-0.4,0.4-1.2,0.4-2.2c0-1-0.1-1.8-0.4-2.1
		S230.9,170.5,230.6,170.5z"/>
</g>
<g>
	<path class="st3" d="M166.6,223.2h2.2v7.9h-1.5v-6.5h-1.6L166.6,223.2z"/>
	<path class="st3" d="M172.8,223c0.6,0,1.1,0.1,1.5,0.4c0.4,0.3,0.7,0.7,1,1.3c0.2,0.6,0.3,1.4,0.3,2.4c0,1-0.1,1.9-0.3,2.4
		c-0.2,0.6-0.5,1-0.9,1.3c-0.4,0.3-0.9,0.4-1.5,0.4s-1.1-0.1-1.5-0.4s-0.7-0.7-1-1.3s-0.3-1.4-0.3-2.4c0-1.4,0.2-2.5,0.7-3.2
		C171.3,223.4,172,223,172.8,223z M172.9,224.5c-0.3,0-0.5,0.1-0.7,0.2c-0.2,0.2-0.3,0.4-0.4,0.8s-0.2,1-0.2,1.7
		c0,1,0.1,1.7,0.4,2.1c0.2,0.4,0.5,0.6,0.9,0.6c0.4,0,0.7-0.2,0.9-0.5c0.3-0.4,0.4-1.2,0.4-2.2c0-1-0.1-1.8-0.4-2.1
		S173.2,224.5,172.9,224.5z"/>
</g>
<g>
	<path class="st3" d="M224.3,223.2h2.2v7.9h-1.5v-6.5h-1.6L224.3,223.2z"/>
	<path class="st3" d="M230.5,223c0.6,0,1.1,0.1,1.5,0.4c0.4,0.3,0.7,0.7,1,1.3c0.2,0.6,0.3,1.4,0.3,2.4c0,1-0.1,1.9-0.3,2.4
		c-0.2,0.6-0.5,1-0.9,1.3c-0.4,0.3-0.9,0.4-1.5,0.4s-1.1-0.1-1.5-0.4s-0.7-0.7-1-1.3s-0.3-1.4-0.3-2.4c0-1.4,0.2-2.5,0.7-3.2
		C229,223.4,229.6,223,230.5,223z M230.6,224.5c-0.3,0-0.5,0.1-0.7,0.2c-0.2,0.2-0.3,0.4-0.4,0.8s-0.2,1-0.2,1.7
		c0,1,0.1,1.7,0.4,2.1c0.2,0.4,0.5,0.6,0.9,0.6c0.4,0,0.7-0.2,0.9-0.5c0.3-0.4,0.4-1.2,0.4-2.2c0-1-0.1-1.8-0.4-2.1
		S230.9,224.5,230.6,224.5z"/>
</g>
<g>
	<path class="st3" d="M155.6,253.9h-1.5c0-0.9,0.3-1.5,0.8-2c0.5-0.5,1.1-0.7,1.9-0.7c0.5,0,0.9,0.1,1.3,0.3
		c0.4,0.2,0.7,0.5,0.9,0.9c0.2,0.4,0.3,0.8,0.3,1.2c0,0.5-0.1,1-0.4,1.5s-0.8,1.2-1.5,1.9l-0.9,0.9h2.8v1.4h-5.5v-0.7l2.4-2.5
		c0.6-0.6,1-1.1,1.2-1.4s0.3-0.7,0.3-1c0-0.3-0.1-0.6-0.3-0.8c-0.2-0.2-0.5-0.3-0.8-0.3c-0.3,0-0.6,0.1-0.8,0.4
		S155.6,253.5,155.6,253.9z"/>
	<path class="st3" d="M162.9,251.1c0.6,0,1.1,0.1,1.5,0.4c0.4,0.3,0.7,0.7,1,1.3c0.2,0.6,0.3,1.4,0.3,2.4c0,1-0.1,1.9-0.3,2.4
		c-0.2,0.6-0.5,1-0.9,1.3c-0.4,0.3-0.9,0.4-1.5,0.4s-1.1-0.1-1.5-0.4s-0.7-0.7-1-1.3s-0.3-1.4-0.3-2.4c0-1.4,0.2-2.5,0.7-3.2
		C161.3,251.5,162,251.1,162.9,251.1z M162.9,252.6c-0.3,0-0.5,0.1-0.7,0.2c-0.2,0.2-0.3,0.4-0.4,0.8s-0.2,1-0.2,1.7
		c0,1,0.1,1.7,0.4,2.1c0.2,0.4,0.5,0.6,0.9,0.6c0.4,0,0.7-0.2,0.9-0.5c0.3-0.4,0.4-1.2,0.4-2.2c0-1-0.1-1.8-0.4-2.1
		S163.3,252.6,162.9,252.6z"/>
</g>
<g>
	<path class="st3" d="M235,253.8h-1.5c0-0.9,0.3-1.5,0.8-2c0.5-0.5,1.1-0.7,1.9-0.7c0.5,0,0.9,0.1,1.3,0.3c0.4,0.2,0.7,0.5,0.9,0.9
		c0.2,0.4,0.3,0.8,0.3,1.2c0,0.5-0.1,1-0.4,1.5s-0.8,1.2-1.5,1.9l-0.9,0.9h2.8v1.4h-5.5v-0.7l2.4-2.5c0.6-0.6,1-1.1,1.2-1.4
		s0.3-0.7,0.3-1c0-0.3-0.1-0.6-0.3-0.8c-0.2-0.2-0.5-0.3-0.8-0.3c-0.3,0-0.6,0.1-0.8,0.4S235,253.4,235,253.8z"/>
	<path class="st3" d="M242.3,251c0.6,0,1.1,0.1,1.5,0.4c0.4,0.3,0.7,0.7,1,1.3c0.2,0.6,0.3,1.4,0.3,2.4c0,1-0.1,1.9-0.3,2.4
		c-0.2,0.6-0.5,1-0.9,1.3c-0.4,0.3-0.9,0.4-1.5,0.4s-1.1-0.1-1.5-0.4s-0.7-0.7-1-1.3s-0.3-1.4-0.3-2.4c0-1.4,0.2-2.5,0.7-3.2
		C240.7,251.4,241.4,251,242.3,251z M242.3,252.5c-0.3,0-0.5,0.1-0.7,0.2c-0.2,0.2-0.3,0.4-0.4,0.8s-0.2,1-0.2,1.7
		c0,1,0.1,1.7,0.4,2.1c0.2,0.4,0.5,0.6,0.9,0.6c0.4,0,0.7-0.2,0.9-0.5c0.3-0.4,0.4-1.2,0.4-2.2c0-1-0.1-1.8-0.4-2.1
		S242.7,252.5,242.3,252.5z"/>
</g>
</svg>
