<?xml version="1.0" encoding="utf-8"?>
<!-- Generator: Adobe Illustrator 19.1.0, SVG Export Plug-In . SVG Version: 6.00 Build 0)  -->
<svg version="1.1" id="Capa_1" xmlns="http://www.w3.org/2000/svg" xmlns:xlink="http://www.w3.org/1999/xlink" x="0px" y="0px"
	 viewBox="-943 -206 612 612" style="enable-background:new -943 -206 612 612;" xml:space="preserve">
<style type="text/css">
	.st0{fill:#37A8DB;}
</style>
<g>
	<g id="Right">
		<g>
			<path class="st0" d="M-665.4-27.6L-665.4-27.6c-5.2-4.6-11.9-7.6-19.4-7.6c-15.8,0-28.7,12.9-28.7,28.7c0,8.4,3.6,15.8,9.4,21.1
				l-0.1,0.1l91.7,84l-91.7,84.1l0.1,0.1c-5.7,5.2-9.4,12.7-9.4,21.1c0,15.8,12.9,28.7,28.7,28.7c7.5,0,14.2-2.9,19.3-7.6l0.1,0.1
				l114.7-105.3c5.9-5.5,9.3-13.1,9.3-21.2s-3.4-15.7-9.3-21.2L-665.4-27.6z M-637-207.3c-169,0-306,137-306,306s137,306,306,306
				s306-137,306-306S-468-207.3-637-207.3z M-637,347.4c-137.1,0-248.6-111.5-248.6-248.6S-774.1-149.9-637-149.9
				S-388.4-38.4-388.4,98.7S-499.9,347.4-637,347.4z"/>
		</g>
	</g>
</g>
</svg>
