<?xml version="1.0" encoding="utf-8"?>
<!-- Generator: Adobe Illustrator 19.1.0, SVG Export Plug-In . SVG Version: 6.00 Build 0)  -->
<svg version="1.1" id="Ebene_1" xmlns="http://www.w3.org/2000/svg" xmlns:xlink="http://www.w3.org/1999/xlink" x="0px" y="0px"
	 viewBox="151 -1.3 585.1 58" style="enable-background:new 151 -1.3 585.1 58;" xml:space="preserve">
<style type="text/css">
	.st0{fill:#58585A;}
	.st1{fill:#37A8DB;}
</style>
<g>
	<path class="st0" d="M407.2,0.5h1.5c0.7,0,0.9,0.2,0.9,1v50.3c0,0.7-0.2,1-0.9,1h-1.5c-0.7,0-1-0.2-1-1V1.5
		C406.2,0.8,406.5,0.5,407.2,0.5z"/>
	<path class="st0" d="M459.2,1.5v50.3c0,0.7-0.2,1-0.9,1h-1.5c-0.5,0-0.7-0.1-1-0.6l-26.1-37.2c-2.4-3.5-4.4-7.4-6-9.6h-0.1
		c0,2.8,0.4,7.5,0.4,12.1v34.3c0,0.7-0.2,1-0.9,1h-1.5c-0.7,0-1-0.2-1-1V1.5c0-0.7,0.2-1,1-1h1.5c0.6,0,0.9,0.3,1,0.5l25.4,36.3
		c2.7,3.9,5,8,6.8,10.5h0.1c0-3.2-0.5-8.2-0.5-13.2V1.4c0-0.7,0.2-0.9,1-0.9h1.5C459,0.5,459.2,0.8,459.2,1.5z"/>
	<path class="st0" d="M511.3,52.7h-1.3c-1.1,0-1.5-0.1-1.6-0.8l-6.5-16.3h-24.4l-6.5,16.3c-0.2,0.7-0.6,0.8-1.7,0.8h-1.2
		c-0.7,0-0.9-0.4-0.7-0.9L487.7,1c0.3-0.7,0.6-0.9,1.2-0.9h1.5c0.7,0,1,0.2,1.2,0.9L512,51.9C512.2,52.4,512.1,52.7,511.3,52.7z
		 M489.6,3.5h-0.2c0,0.4-0.1,1.7-0.6,3.2l-10.4,26.1h22.4L490.4,6.7C489.9,5.2,489.7,3.9,489.6,3.5z"/>
	<path class="st0" d="M551.6,1.4L532,51.9c-0.2,0.7-0.6,0.9-1.3,0.9h-1.4c-0.7,0-1-0.2-1.3-0.8L508.4,1.4c-0.2-0.5-0.1-0.9,0.6-0.9
		h1.4c1.1,0,1.4,0.1,1.6,0.8l16.3,42.3c0.7,1.8,1.3,4,1.6,4.9h0.2c0.4-1,0.9-3,1.5-4.9L548,1.3c0.2-0.7,0.6-0.8,1.6-0.8h1.4
		C551.7,0.5,551.8,0.9,551.6,1.4z"/>
</g>
<path class="st1" d="M363.2,39.3c0.1,0.1,0.2,0.2,0.4,0.2c0.1,0,0.3-0.1,0.4-0.2c0.8-0.8,2.4-2.6,3.9-4.8c2-2.8,4.3-6.9,4.3-10.5
	c0-4.8-3.9-8.6-8.6-8.6c-4.8,0-8.6,3.9-8.6,8.6c0,3.6,2.4,7.7,4.3,10.5C360.9,36.7,362.4,38.4,363.2,39.3L363.2,39.3z M363.6,18.6
	c2.9,0,5.3,2.4,5.3,5.3c0,2.9-2.4,5.3-5.3,5.3c-2.9,0-5.3-2.4-5.3-5.3C358.3,20.9,360.7,18.6,363.6,18.6L363.6,18.6z M363.6,18.6"/>
<g>
	<g>
		<g>
			<path class="st0" d="M350.6,10c0-1.7-1.4-3-3-3c-1.7,0-3,1.4-3,3c0,1.7,1.4,3,3,3c0.4,0,0.8-0.1,1.1-0.2l6.2,6.2l1.7-1.7
				l-6.2-6.2C350.5,10.8,350.6,10.4,350.6,10z"/>
			<path class="st0" d="M347.6-1.7c-6.5,0-11.7,5.2-11.7,11.7s5.2,11.7,11.7,11.7c1.7,0,3.2-0.4,4.7-1l-1.8-1.8
				c-0.9,0.3-1.8,0.4-2.8,0.4c-5.1,0-9.3-4.2-9.3-9.3s4.2-9.3,9.3-9.3s9.3,4.2,9.3,9.3c0,1.3-0.3,2.5-0.7,3.6l1.8,1.8
				c0.8-1.6,1.3-3.4,1.3-5.4C359.3,3.5,354.1-1.7,347.6-1.7z"/>
		</g>
		<g>
			<path class="st0" d="M376.6,10c0-1.7,1.4-3,3-3c1.7,0,3,1.4,3,3c0,1.7-1.4,3-3,3c-0.4,0-0.8-0.1-1.1-0.2l-6.2,6.2l-1.7-1.7
				l6.2-6.2C376.6,10.8,376.6,10.4,376.6,10z"/>
			<path class="st0" d="M379.6-1.7c6.5,0,11.7,5.2,11.7,11.7s-5.2,11.7-11.7,11.7c-1.7,0-3.2-0.4-4.7-1l1.8-1.8
				c0.9,0.3,1.8,0.4,2.8,0.4c5.1,0,9.3-4.2,9.3-9.3s-4.2-9.3-9.3-9.3c-5.1,0-9.3,4.2-9.3,9.3c0,1.3,0.3,2.5,0.7,3.6l-1.8,1.8
				c-0.8-1.6-1.3-3.4-1.3-5.4C367.9,3.5,373.1-1.7,379.6-1.7z"/>
		</g>
	</g>
	<g>
		<path class="st0" d="M350.6,42.9c0,1.7-1.4,3-3,3c-1.7,0-3-1.4-3-3c0-1.7,1.4-3,3-3c0.4,0,0.8,0.1,1.1,0.2l6.2-6.2l1.7,1.7
			l-6.2,6.2C350.5,42.1,350.6,42.5,350.6,42.9z"/>
		<path class="st0" d="M347.6,54.6c-6.5,0-11.7-5.2-11.7-11.7s5.2-11.7,11.7-11.7c1.7,0,3.2,0.4,4.7,1l-1.8,1.8
			c-0.9-0.3-1.8-0.4-2.8-0.4c-5.1,0-9.3,4.2-9.3,9.3s4.2,9.3,9.3,9.3s9.3-4.2,9.3-9.3c0-1.3-0.3-2.5-0.7-3.6l1.8-1.8
			c0.8,1.6,1.3,3.4,1.3,5.4C359.3,49.4,354.1,54.6,347.6,54.6z"/>
	</g>
	<g>
		<path class="st0" d="M376.6,42.9c0,1.7,1.4,3,3,3c1.7,0,3-1.4,3-3c0-1.7-1.4-3-3-3c-0.4,0-0.8,0.1-1.1,0.2l-6.2-6.2l-1.7,1.7
			l6.2,6.2C376.6,42.1,376.6,42.5,376.6,42.9z"/>
		<path class="st0" d="M379.6,54.6c6.5,0,11.7-5.2,11.7-11.7s-5.2-11.7-11.7-11.7c-1.7,0-3.2,0.4-4.7,1l1.8,1.8
			c0.9-0.3,1.8-0.4,2.8-0.4c5.1,0,9.3,4.2,9.3,9.3s-4.2,9.3-9.3,9.3c-5.1,0-9.3-4.2-9.3-9.3c0-1.3,0.3-2.5,0.7-3.6l-1.8-1.8
			c-0.8,1.6-1.3,3.4-1.3,5.4C367.9,49.4,373.1,54.6,379.6,54.6z"/>
	</g>
</g>
<path class="st1" d="M514.6,41.5"/>
</svg>
