<?xml version="1.0" encoding="utf-8"?>
<!-- Generator: Adobe Illustrator 21.0.0, SVG Export Plug-In . SVG Version: 6.00 Build 0)  -->
<svg version="1.1" id="Capa_1" xmlns="http://www.w3.org/2000/svg" xmlns:xlink="http://www.w3.org/1999/xlink" x="0px" y="0px"
	 viewBox="0 0 141.7 141.7" style="enable-background:new 0 0 141.7 141.7;" xml:space="preserve">
<style type="text/css">
	.st0{fill:#818181;}
</style>
<g>
	<path class="st0" d="M128.7,54.1h-10.5c-0.7-2.3-1.6-4.5-2.7-6.6l7.4-7.4c0,0,0,0,0,0c2.1-2.1,2.1-5.4,0-7.4l-14.9-14.9
		c-2.1-2-5.4-2-7.4,0l-7.4,7.4c-2.1-1.1-4.3-2-6.6-2.7V12c0-2.9-2.4-5.3-5.3-5.3h-21c-2.9,0-5.3,2.4-5.3,5.3v10.5
		c-2.3,0.7-4.5,1.6-6.6,2.7l-7.4-7.4c-2.1-2-5.4-2-7.4,0L18.8,32.7c-2.1,2.1-2.1,5.4,0,7.4l7.4,7.4c-1.1,2.1-2,4.3-2.7,6.6H13
		c-2.9,0-5.3,2.4-5.3,5.3v10.5H10v0h37.7v0h2.1v-2.6c0-11.6,9.4-21,21-21s21,9.4,21,21v2.6H94v0h24.2h5.3h7.1v0h3.5V59.3
		C134,56.4,131.6,54.1,128.7,54.1z"/>
	<path class="st0" d="M39.3,106.7H13c-2.9,0-5.3,2.4-5.3,5.3v15.8c0,2.9,2.4,5.3,5.3,5.3h26.3c2.9,0,5.3-2.4,5.3-5.3v-15.8
		C44.6,109,42.2,106.7,39.3,106.7z M39.3,127.7H13v-15.8h26.3V127.7z"/>
	<path class="st0" d="M128.7,106.7h-26.3c-2.9,0-5.3,2.4-5.3,5.3v15.8c0,2.9,2.4,5.3,5.3,5.3h26.3c2.9,0,5.3-2.4,5.3-5.3v-15.8
		C134,109,131.6,106.7,128.7,106.7z M128.7,127.7h-26.3v-15.8h26.3V127.7z"/>
	<path class="st0" d="M84,106.7H57.7c-2.9,0-5.3,2.4-5.3,5.3v15.8c0,2.9,2.4,5.3,5.3,5.3H84c2.9,0,5.3-2.4,5.3-5.3v-15.8
		C89.3,109,86.9,106.7,84,106.7z M84,127.7L84,127.7H57.7v-15.8H84V127.7z"/>
	<path class="st0" d="M23.5,88.3v13.1h5.3V90.9h39.4v10.5h5.3V90.9h39.4v10.5h5.3V88.3c0-1.5-1.2-2.6-2.6-2.6H73.5V67.2h-5.3v18.4
		H26.2C24.7,85.6,23.5,86.8,23.5,88.3z"/>
	<rect x="18.3" y="117.2" class="st0" width="5.3" height="5.3"/>
	<rect x="28.8" y="117.2" class="st0" width="5.3" height="5.3"/>
	<rect x="63" y="117.2" class="st0" width="5.3" height="5.3"/>
	<rect x="73.5" y="117.2" class="st0" width="5.3" height="5.3"/>
	<rect x="107.7" y="117.2" class="st0" width="5.3" height="5.3"/>
	<rect x="118.2" y="117.2" class="st0" width="5.3" height="5.3"/>
	<path class="st0" d="M84,69.9v-2.6c0-7.3-5.9-13.1-13.1-13.1S57.7,60,57.7,67.2v2.6H63v-2.6c0-4.4,3.5-7.9,7.9-7.9s7.9,3.5,7.9,7.9
		v2.6H84z"/>
</g>
</svg>
