<?xml version="1.0" encoding="utf-8"?>
<!-- Generator: Adobe Illustrator 19.1.0, SVG Export Plug-In . SVG Version: 6.00 Build 0)  -->
<svg version="1.1" id="Ebene_1" xmlns="http://www.w3.org/2000/svg" xmlns:xlink="http://www.w3.org/1999/xlink" x="0px" y="0px"
	 viewBox="0 0 76.5 76.3" style="enable-background:new 0 0 76.5 76.3;" xml:space="preserve">
<style type="text/css">
	.st0{fill:#FFFFFF;stroke:#ADADAD;stroke-width:5;stroke-miterlimit:10;}
	.st1{fill:#FFFFFF;}
	.st2{fill:#37A8DB;}
	.st3{fill:none;stroke:#606060;stroke-miterlimit:10;}
</style>
<g>
	<g>
		<circle class="st0" cx="39.4" cy="38.4" r="33.3"/>
		<g>
			<circle class="st1" cx="15.1" cy="15.9" r="11.4"/>
			<circle class="st2" cx="15.1" cy="15.9" r="9.3"/>
		</g>
		<g>
			<g>
				<g>
					<path class="st1" d="M18.9,14.6l-0.2-0.4c0.6-1.4,0.6-1.4,0.5-1.5l-0.8-0.8l-0.1-0.1h-0.1c0,0-0.2,0-1.4,0.5l-0.4-0.2
						c-0.6-1.4-0.6-1.4-0.8-1.4h-1.1c-0.2,0-0.2,0-0.8,1.4l-0.4,0.2c-0.8-0.3-1.3-0.5-1.4-0.5h-0.1l-0.8,0.8
						c-0.1,0.1-0.2,0.2,0.5,1.5l-0.2,0.4c-1.4,0.6-1.4,0.6-1.4,0.8v1.1c0,0.2,0,0.2,1.4,0.7l0.2,0.4c-0.6,1.4-0.6,1.4-0.5,1.5
						l0.8,0.8l0.1,0.1h0.1c0,0,0.2,0,1.4-0.5l0.4,0.2c0.6,1.4,0.6,1.4,0.8,1.4h1.1c0.2,0,0.2,0,0.8-1.4l0.4-0.2
						c0.8,0.3,1.3,0.5,1.4,0.5h0.1l0.8-0.8c0.1-0.1,0.2-0.2-0.5-1.5l0.2-0.4c1.4-0.6,1.4-0.6,1.4-0.8v-1.1
						C20.3,15.2,20.3,15.1,18.9,14.6z M15.1,17.7c-1,0-1.8-0.8-1.8-1.8s0.8-1.8,1.8-1.8s1.8,0.8,1.8,1.8
						C16.9,16.9,16.1,17.7,15.1,17.7z"/>
				</g>
			</g>
		</g>
	</g>
	<path class="st3" d="M62.1,45.7v-5.9l-19.2-9.2c0.1-2.9,0.2-6.6,0.2-7.6c0-4.1-3.3-5.5-3.6-5.6l0,0l0,0c-0.3,0.2-3.6,1.5-3.6,5.6
		c0,0.9,0.1,4.6,0.2,7.6L16,39.8l0,5.9l20.9-4.3c0.2,3.9,0.1,5.2,0.3,8.4l-4.6,3.2v2.7l5.2-1.6c0.1,2.1,1.3,3.4,1.3,3.4h0.3h0h0.3
		c0,0,1.2-1.2,1.3-3.4l5.2,1.6v-2.7l-4.6-3.2c0.2-3.3,0.1-4.5,0.3-8.4L62.1,45.7z"/>
</g>
</svg>
