<?xml version="1.0" encoding="UTF-8"?>
<!DOCTYPE svg PUBLIC "-//W3C//DTD SVG 1.1//EN" "http://www.w3.org/Graphics/SVG/1.1/DTD/svg11.dtd">
<!-- Creator: CorelDRAW 2021 (64-Bit) -->
<svg xmlns="http://www.w3.org/2000/svg" xml:space="preserve" width="850px" height="850px" version="1.1" style="shape-rendering:geometricPrecision; text-rendering:geometricPrecision; image-rendering:optimizeQuality; fill-rule:evenodd; clip-rule:evenodd"
viewBox="0 0 850 850"
 xmlns:xlink="http://www.w3.org/1999/xlink"
 xmlns:xodm="http://www.corel.com/coreldraw/odm/2003">
 <defs>
  <style type="text/css">
   <![CDATA[
    .fil4 {fill:#00E000}
    .fil0 {fill:#999999}
    .fil3 {fill:red}
    .fil1 {fill:#FF7F00}
    .fil2 {fill:white;fill-rule:nonzero}
   ]]>
  </style>
 </defs>
 <g id="Layer_x0020_1">
  <metadata id="CorelCorpID_0Corel-Layer"/>
  <path class="fil0" d="M218.86 837.63l188.43 -70.03c5.38,21.31 11.3,33.52 17.71,33.52 6.41,0 12.33,-12.21 17.71,-33.52l188.43 70.03 -10 -93.62 -154.54 -105.35c6.72,-69.54 16.76,-153.84 19.95,-237.19l326.09 40.02 0 -169.86 -312.14 -60.03c0.45,-66.81 4.39,-94.22 -1.5,-129.58 -6.01,-36.11 -37.14,-74.01 -74,-74.01 -36.86,0 -67.99,37.9 -74,74.01 -5.89,35.36 -1.95,62.77 -1.5,129.58l-312.14 60.03 0 169.86 326.09 -40.02c3.19,83.35 13.23,167.65 19.95,237.19l-154.54 105.35 -10 93.62z"/>
  <polygon class="fil1" points="572.59,412.03 792.63,439.04 792.63,370 572.59,343 "/>
  <polygon class="fil1" points="57.37,439.04 277.41,412.03 277.41,343 57.37,370 "/>
  <path class="fil2" d="M405.45 376.22l0 -84.15 -27.27 0 46.82 -84.15 46.82 84.15 -27.27 0 0 84.15 -39.1 0zm0 -42.08m-13.64 -42.07m9.78 -42.08m46.82 0m9.77 42.08m-13.63 42.07m-19.55 42.08"/>
  <polygon class="fil3" points="218.86,837.63 387.28,775.04 373.79,711.02 226.54,765.74 "/>
  <polygon class="fil4" points="631.14,837.63 462.72,775.04 476.21,711.02 623.46,765.74 "/>
 </g>
</svg>
