<?xml version="1.0" encoding="UTF-8"?>
<!DOCTYPE svg PUBLIC "-//W3C//DTD SVG 1.1//EN" "http://www.w3.org/Graphics/SVG/1.1/DTD/svg11.dtd">
<!-- Creator: CorelDRAW 2021 (64-Bit) -->
<svg xmlns="http://www.w3.org/2000/svg" xml:space="preserve" width="850px" height="850px" version="1.1" style="shape-rendering:geometricPrecision; text-rendering:geometricPrecision; image-rendering:optimizeQuality; fill-rule:evenodd; clip-rule:evenodd"
viewBox="0 0 850 850"
 xmlns:xlink="http://www.w3.org/1999/xlink"
 xmlns:xodm="http://www.corel.com/coreldraw/odm/2003">
 <defs>
  <style type="text/css">
   <![CDATA[
    .str0 {stroke:black;stroke-width:10;stroke-linecap:round;stroke-linejoin:round;stroke-miterlimit:22.9256}
    .str1 {stroke:#00A6FF;stroke-width:10;stroke-linecap:round;stroke-linejoin:round;stroke-miterlimit:22.9256}
    .str3 {stroke:#00E000;stroke-width:10;stroke-linecap:round;stroke-linejoin:round;stroke-miterlimit:22.9256}
    .str2 {stroke:red;stroke-width:10;stroke-linecap:round;stroke-linejoin:round;stroke-miterlimit:22.9256}
    .str4 {stroke:#FF7F00;stroke-width:10;stroke-linecap:round;stroke-linejoin:round;stroke-miterlimit:22.9256}
    .fil4 {fill:#00A6FF}
    .fil1 {fill:#00E000}
    .fil0 {fill:#999999}
    .fil6 {fill:red}
    .fil3 {fill:#FF7F00}
    .fil2 {fill:white}
    .fil5 {fill:black;fill-rule:nonzero}
    .fil7 {fill:white;fill-rule:nonzero}
   ]]>
  </style>
 </defs>
 <g id="Layer_x0020_1">
  <metadata id="CorelCorpID_0Corel-Layer"/>
  <path class="fil0" d="M258.88 767.6l148.41 0c5.38,21.31 11.3,33.52 17.71,33.52 6.41,0 12.33,-12.21 17.71,-33.52l148.41 0 -10 -73.61 -119.52 -25.32c6.72,-69.54 21.76,-183.85 24.95,-267.2l326.09 40.02 0 -169.86 -312.14 -60.03c0.45,-66.81 1.32,-93.85 -1.5,-129.58 -11.36,45.38 -37.14,69.99 -74,69.99 -36.86,0 -65.43,-27.83 -74,-69.99 -2.82,35.73 -1.95,62.77 -1.5,129.58l-312.14 60.03 0 169.86 326.09 -40.02c3.19,83.35 18.23,197.66 24.95,267.2l-119.52 25.32 -10 73.61z"/>
  <polygon class="fil1" points="572.59,412.03 792.63,439.04 792.63,370 572.59,343 "/>
  <circle class="fil2 str0" cx="425" cy="82.02" r="70"/>
  <polygon class="fil3" points="272.88,767.6 577.12,767.6 571.12,718.58 278.88,718.58 "/>
  <path class="fil4" d="M425 839.54c0,0 -38.43,-227.94 0,-227.94 38.43,0 0,227.94 0,227.94z"/>
  <path class="fil5" d="M393.05 105.15l-8.61 0 0 -34.58c0,-4.12 0.09,-7.4 0.3,-9.81 -0.57,0.57 -1.26,1.23 -2.08,1.94 -0.81,0.71 -3.55,2.95 -8.23,6.73l-4.31 -5.46 15.75 -12.37 7.18 0 0 53.55z"/>
  <polygon id="_1" class="fil5" points="435.91,51.6 416,105.15 407.87,105.15 427.82,51.6 "/>
  <path id="_2" class="fil5" d="M476.15 105.15l-36.3 0 0 -6.51 13.81 -13.89c4.08,-4.18 6.78,-7.13 8.11,-8.88 1.33,-1.75 2.3,-3.38 2.92,-4.92 0.61,-1.54 0.91,-3.19 0.91,-4.95 0,-2.42 -0.73,-4.33 -2.18,-5.72 -1.45,-1.38 -3.46,-2.08 -6.02,-2.08 -2.05,0 -4.04,0.37 -5.96,1.14 -1.92,0.75 -4.13,2.12 -6.66,4.09l-4.65 -5.67c2.99,-2.51 5.88,-4.29 8.69,-5.34 2.82,-1.05 5.8,-1.57 8.98,-1.57 4.97,0 8.97,1.3 11.97,3.9 3.02,2.6 4.52,6.1 4.52,10.48 0,2.43 -0.44,4.72 -1.31,6.89 -0.87,2.18 -2.19,4.42 -3.99,6.73 -1.8,2.3 -4.78,5.42 -8.97,9.35l-9.3 9.01 0 0.36 25.43 0 0 7.58z"/>
  <rect class="fil2 str1" x="268.91" y="608.35" width="90" height="90"/>
  <path class="fil5" d="M296.12 657.32c0,-20.95 8.53,-31.43 25.6,-31.43 2.69,0 4.97,0.21 6.82,0.63l0 7.15c-1.85,-0.54 -4,-0.8 -6.45,-0.8 -5.74,0 -10.05,1.53 -12.93,4.61 -2.89,3.09 -4.45,8.02 -4.69,14.81l0.44 0c1.15,-1.97 2.76,-3.51 4.84,-4.6 2.07,-1.09 4.51,-1.62 7.32,-1.62 4.87,0 8.64,1.48 11.35,4.47 2.72,2.98 4.08,7.01 4.08,12.11 0,5.63 -1.58,10.07 -4.71,13.33 -3.14,3.26 -7.42,4.89 -12.84,4.89 -3.84,0 -7.18,-0.93 -10,-2.77 -2.84,-1.85 -5.01,-4.53 -6.54,-8.06 -1.52,-3.52 -2.29,-7.77 -2.29,-12.72zm18.68 16.42c2.96,0 5.24,-0.95 6.84,-2.86 1.6,-1.9 2.4,-4.63 2.4,-8.16 0,-3.09 -0.75,-5.5 -2.25,-7.27 -1.52,-1.76 -3.77,-2.63 -6.77,-2.63 -1.86,0 -3.57,0.4 -5.13,1.18 -1.57,0.8 -2.79,1.89 -3.7,3.27 -0.9,1.38 -1.35,2.78 -1.35,4.23 0,3.44 0.93,6.35 2.8,8.7 1.87,2.37 4.26,3.54 7.16,3.54z"/>
  <rect class="fil2 str2" x="96.18" y="455.06" width="90" height="90"/>
  <path class="fil5" d="M158.46 515.13l-7.23 0 0 11.7 -8.39 0 0 -11.7 -24.47 0 0 -6.61 24.47 -35.39 8.39 0 0 34.88 7.23 0 0 7.12zm-15.62 -7.12l0 -13.45c0,-4.79 0.13,-8.7 0.37,-11.76l-0.29 0c-0.69,1.61 -1.76,3.57 -3.23,5.86l-13.3 19.35 16.45 0z"/>
  <rect class="fil2 str3" x="663.55" y="455.06" width="90" height="90"/>
  <path class="fil5" d="M708.78 493.38c5.4,0 9.68,1.43 12.83,4.29 3.15,2.86 4.72,6.76 4.72,11.7 0,5.71 -1.78,10.18 -5.36,13.39 -3.57,3.21 -8.66,4.82 -15.26,4.82 -5.98,0 -10.69,-0.96 -14.1,-2.9l0 -7.81c1.97,1.13 4.25,1.99 6.81,2.6 2.56,0.61 4.95,0.91 7.15,0.91 3.88,0 6.84,-0.86 8.86,-2.6 2.03,-1.72 3.04,-4.26 3.04,-7.61 0,-6.39 -4.07,-9.59 -12.24,-9.59 -1.15,0 -2.56,0.12 -4.25,0.35 -1.68,0.23 -3.16,0.49 -4.42,0.79l-3.85 -2.27 2.05 -26.17 27.84 0 0 7.65 -20.27 0 -1.2 13.25c0.85,-0.13 1.89,-0.31 3.13,-0.51 1.24,-0.19 2.75,-0.29 4.52,-0.29z"/>
  <rect class="fil2 str4" x="617.8" y="726.17" width="90" height="90"/>
  <path class="fil5" d="M680.15 756.7c0,3.4 -0.98,6.23 -2.96,8.48 -1.99,2.26 -4.76,3.77 -8.36,4.56l0 0.29c4.3,0.53 7.52,1.87 9.67,4.01 2.15,2.14 3.23,4.99 3.23,8.52 0,5.15 -1.83,9.14 -5.46,11.93 -3.64,2.8 -8.82,4.2 -15.53,4.2 -5.94,0 -10.95,-0.96 -15.02,-2.9l0 -7.66c2.27,1.12 4.67,1.98 7.21,2.6 2.55,0.61 4.98,0.91 7.34,0.91 4.15,0 7.24,-0.78 9.3,-2.31 2.05,-1.54 3.07,-3.92 3.07,-7.14 0,-2.86 -1.12,-4.96 -3.4,-6.31 -2.27,-1.34 -5.84,-2.02 -10.7,-2.02l-4.65 0 0 -6.97 4.73 0c8.55,0 12.82,-2.95 12.82,-8.86 0,-2.3 -0.75,-4.08 -2.24,-5.33 -1.48,-1.24 -3.68,-1.86 -6.6,-1.86 -2.02,0 -3.97,0.29 -5.86,0.86 -1.87,0.58 -4.1,1.69 -6.66,3.35l-4.21 -6c4.9,-3.61 10.61,-5.41 17.1,-5.41 5.4,0 9.61,1.16 12.64,3.47 3.03,2.33 4.54,5.52 4.54,9.59z"/>
  <polygon class="fil6" points="57.37,439.04 277.41,412.03 277.41,343 57.37,370 "/>
  <path class="fil7" d="M405.45 376.22l0 -84.15 -27.27 0 46.82 -84.15 46.82 84.15 -27.27 0 0 84.15 -39.1 0zm0 -42.08m-13.64 -42.07m9.78 -42.08m46.82 0m9.77 42.08m-13.63 42.07m-19.55 42.08"/>
 </g>
</svg>
