<?xml version="1.0" encoding="UTF-8"?>
<!DOCTYPE svg PUBLIC "-//W3C//DTD SVG 1.1//EN" "http://www.w3.org/Graphics/SVG/1.1/DTD/svg11.dtd">
<!-- Creator: CorelDRAW 2021 (64-Bit) -->
<svg xmlns="http://www.w3.org/2000/svg" xml:space="preserve" width="850px" height="850px" version="1.1" style="shape-rendering:geometricPrecision; text-rendering:geometricPrecision; image-rendering:optimizeQuality; fill-rule:evenodd; clip-rule:evenodd"
viewBox="0 0 850 850"
 xmlns:xlink="http://www.w3.org/1999/xlink"
 xmlns:xodm="http://www.corel.com/coreldraw/odm/2003">
 <defs>
  <style type="text/css">
   <![CDATA[
    .str0 {stroke:black;stroke-width:10;stroke-linecap:round;stroke-linejoin:round;stroke-miterlimit:22.9256}
    .str3 {stroke:#00E000;stroke-width:10;stroke-linecap:round;stroke-linejoin:round;stroke-miterlimit:22.9256}
    .str2 {stroke:red;stroke-width:10;stroke-linecap:round;stroke-linejoin:round;stroke-miterlimit:22.9256}
    .str1 {stroke:#FF7F00;stroke-width:10;stroke-linecap:round;stroke-linejoin:round;stroke-miterlimit:22.9256}
    .fil6 {fill:#00E000}
    .fil0 {fill:#999999}
    .fil5 {fill:red}
    .fil1 {fill:#FF7F00}
    .fil2 {fill:white}
    .fil3 {fill:black;fill-rule:nonzero}
    .fil4 {fill:white;fill-rule:nonzero}
   ]]>
  </style>
 </defs>
 <g id="Layer_x0020_1">
  <metadata id="CorelCorpID_0Corel-Layer"/>
  <path class="fil0" d="M218.86 837.63l188.43 -70.03c5.38,21.31 11.3,33.52 17.71,33.52 6.41,0 12.33,-12.21 17.71,-33.52l188.43 70.03 -10 -93.62 -154.54 -105.35c6.72,-69.54 16.76,-153.84 19.95,-237.19l326.09 40.02 0 -169.86 -312.14 -60.03c0.45,-66.81 1.32,-93.85 -1.5,-129.58 -11.36,45.38 -37.14,69.99 -74,69.99 -36.86,0 -65.43,-27.83 -74,-69.99 -2.82,35.73 -1.95,62.77 -1.5,129.58l-312.14 60.03 0 169.86 326.09 -40.02c3.19,83.35 13.23,167.65 19.95,237.19l-154.54 105.35 -10 93.62z"/>
  <polygon class="fil1" points="572.59,412.03 792.63,439.04 792.63,370 572.59,343 "/>
  <circle class="fil2 str0" cx="425" cy="82.02" r="70"/>
  <path class="fil3" d="M393.05 105.15l-8.61 0 0 -34.58c0,-4.12 0.09,-7.4 0.3,-9.81 -0.57,0.57 -1.26,1.23 -2.08,1.94 -0.81,0.71 -3.55,2.95 -8.23,6.73l-4.31 -5.46 15.75 -12.37 7.18 0 0 53.55z"/>
  <polygon id="_1" class="fil3" points="435.91,51.6 416,105.15 407.87,105.15 427.82,51.6 "/>
  <path id="_2" class="fil3" d="M476.15 105.15l-36.3 0 0 -6.51 13.81 -13.89c4.08,-4.18 6.78,-7.13 8.11,-8.88 1.33,-1.75 2.3,-3.38 2.92,-4.92 0.61,-1.54 0.91,-3.19 0.91,-4.95 0,-2.42 -0.73,-4.33 -2.18,-5.72 -1.45,-1.38 -3.46,-2.08 -6.02,-2.08 -2.05,0 -4.04,0.37 -5.96,1.14 -1.92,0.75 -4.13,2.12 -6.66,4.09l-4.65 -5.67c2.99,-2.51 5.88,-4.29 8.69,-5.34 2.82,-1.05 5.8,-1.57 8.98,-1.57 4.97,0 8.97,1.3 11.97,3.9 3.02,2.6 4.52,6.1 4.52,10.48 0,2.43 -0.44,4.72 -1.31,6.89 -0.87,2.18 -2.19,4.42 -3.99,6.73 -1.8,2.3 -4.78,5.42 -8.97,9.35l-9.3 9.01 0 0.36 25.43 0 0 7.58z"/>
  <rect class="fil2 str1" x="96.18" y="455.06" width="90" height="90"/>
  <path class="fil3" d="M154.53 485.6c0,3.4 -0.99,6.22 -2.96,8.47 -1.99,2.26 -4.76,3.78 -8.36,4.56l0 0.29c4.3,0.54 7.52,1.88 9.67,4.01 2.15,2.14 3.23,4.99 3.23,8.53 0,5.15 -1.83,9.14 -5.47,11.92 -3.63,2.8 -8.81,4.2 -15.52,4.2 -5.94,0 -10.95,-0.96 -15.03,-2.9l0 -7.66c2.28,1.13 4.68,1.99 7.22,2.6 2.55,0.61 4.98,0.91 7.33,0.91 4.15,0 7.25,-0.77 9.3,-2.31 2.05,-1.54 3.08,-3.91 3.08,-7.14 0,-2.86 -1.13,-4.96 -3.4,-6.31 -2.28,-1.34 -5.84,-2.01 -10.7,-2.01l-4.65 0 0 -6.98 4.72 0c8.55,0 12.83,-2.95 12.83,-8.86 0,-2.3 -0.75,-4.07 -2.24,-5.32 -1.49,-1.24 -3.69,-1.87 -6.6,-1.87 -2.02,0 -3.97,0.29 -5.86,0.87 -1.88,0.57 -4.1,1.68 -6.66,3.35l-4.22 -6c4.9,-3.62 10.62,-5.42 17.1,-5.42 5.4,0 9.62,1.17 12.65,3.48 3.03,2.32 4.54,5.51 4.54,9.59z"/>
  <rect class="fil2 str2" x="108.12" y="744.93" width="90" height="90"/>
  <path class="fil3" d="M174.4 805l-7.23 0 0 11.7 -8.38 0 0 -11.7 -24.48 0 0 -6.62 24.48 -35.38 8.38 0 0 34.87 7.23 0 0 7.13zm-15.61 -7.13l0 -13.45c0,-4.79 0.12,-8.7 0.36,-11.76l-0.29 0c-0.69,1.61 -1.76,3.57 -3.22,5.86l-13.3 19.35 16.45 0z"/>
  <polygon class="fil1" points="57.37,439.04 277.41,412.03 277.41,343 57.37,370 "/>
  <path class="fil4" d="M405.45 376.22l0 -84.15 -27.27 0 46.82 -84.15 46.82 84.15 -27.27 0 0 84.15 -39.1 0zm0 -42.08m-13.64 -42.07m9.78 -42.08m46.82 0m9.77 42.08m-13.63 42.07m-19.55 42.08"/>
  <polygon class="fil5" points="218.86,837.63 387.28,775.04 373.79,711.02 226.54,765.74 "/>
  <polygon class="fil6" points="631.14,837.63 462.72,775.04 476.21,711.02 623.46,765.74 "/>
  <rect class="fil2 str3" x="653.12" y="744.93" width="90" height="90"/>
  <path class="fil3" d="M699.35 783.25c5.4,0 9.67,1.42 12.82,4.28 3.15,2.87 4.73,6.77 4.73,11.7 0,5.72 -1.79,10.18 -5.37,13.39 -3.57,3.21 -8.66,4.83 -15.26,4.83 -5.98,0 -10.69,-0.97 -14.1,-2.9l0 -7.82c1.97,1.13 4.25,1.99 6.81,2.6 2.57,0.62 4.95,0.92 7.15,0.92 3.88,0 6.84,-0.87 8.86,-2.6 2.03,-1.73 3.04,-4.27 3.04,-7.62 0,-6.39 -4.07,-9.58 -12.23,-9.58 -1.16,0 -2.57,0.11 -4.25,0.34 -1.69,0.23 -3.17,0.49 -4.43,0.79l-3.85 -2.27 2.05 -26.16 27.84 0 0 7.65 -20.26 0 -1.2 13.24c0.84,-0.13 1.88,-0.31 3.12,-0.51 1.24,-0.18 2.75,-0.28 4.53,-0.28z"/>
 </g>
</svg>
