<?xml version="1.0" encoding="UTF-8"?>
<!DOCTYPE svg PUBLIC "-//W3C//DTD SVG 1.1//EN" "http://www.w3.org/Graphics/SVG/1.1/DTD/svg11.dtd">
<!-- Creator: CorelDRAW -->
<svg xmlns="http://www.w3.org/2000/svg" xml:space="preserve" width="90mm" height="90mm" style="shape-rendering:geometricPrecision; text-rendering:geometricPrecision; image-rendering:optimizeQuality; fill-rule:evenodd; clip-rule:evenodd"
viewBox="0 0 90 90"
 xmlns:xlink="http://www.w3.org/1999/xlink">
 <defs>
  <style type="text/css">
   <![CDATA[
    .fil6 {fill:none;fill-rule:nonzero}
    .fil5 {fill:black;fill-rule:nonzero}
    .fil1 {fill:silver;fill-rule:nonzero}
    .fil0 {fill:#008452;fill-rule:nonzero}
    .fil2 {fill:#4A82AF;fill-rule:nonzero}
    .fil4 {fill:#DA251D;fill-rule:nonzero}
    .fil3 {fill:#EB891B;fill-rule:nonzero}
   ]]>
  </style>
 </defs>
 <g id="__x0023_Layer_x0020_1">
  <metadata id="CorelCorpID_0Corel-Layer"/>
  <g id="_163606640">
   <path id="_163600880" class="fil0" d="M80.886 17.4754l0 -13.0528 -13.0528 0 0 13.0528 13.0528 0zm-1.1642 -11.8887l0 0 0 10.6892 -10.6891 0 0 -10.6892 10.6891 0z"/>
   <path id="_163604600" class="fil1" d="M57.3204 20.1917c-1.905,0.1764 -3.81,-0.2116 -5.7855,-1.1288l-0.0353 0c-0.0353,-0.0353 -0.0706,-0.0353 -0.1058,-0.0706 -2.0461,-1.0936 -4.3039,-1.6228 -6.8086,-1.6228 -2.3636,0 -4.5155,0.4586 -6.4911,1.4464 -0.1058,0.0353 -0.2116,0.1058 -0.3175,0.1764 -0.1411,0.0353 -0.2822,0.1058 -0.388,0.2117 -1.905,0.8113 -3.7395,1.1641 -5.5034,0.9877 -0.8466,-0.0705 -1.658,-0.2469 -2.5047,-0.5291 -0.388,-0.1411 -0.8114,-0.3175 -1.1994,-0.4939l-0.9525 1.5875 -1.1642 2.0461 -0.9172 1.5875c1.0936,0.7761 2.0461,1.6581 2.7517,2.6811 0.6702,0.9878 1.1641,2.0461 1.4816,3.2808 0.1764,0.5645 0.2823,1.1642 0.3528,1.7639l0.1058 1.0584c0.1764,2.9986 1.1642,5.6444 2.9987,7.9375 0.388,0.4938 0.8113,0.9877 1.3052,1.4816 0.7761,0.7761 1.5875,1.4464 2.4695,2.0108 1.8697,1.27 3.175,2.7516 3.9864,4.4802 0.5644,1.1642 0.8819,2.3989 0.9525,3.7395l1.8697 0 2.3282 0 1.8697 0c0.0706,-1.3406 0.3881,-2.5753 0.9525,-3.7395 0.8114,-1.7286 2.1167,-3.2455 3.9864,-4.4802 0.8467,-0.5997 1.6581,-1.2699 2.4695,-2.0108 2.5753,-2.6105 3.9864,-5.6444 4.2686,-9.2075l0.1764 -1.27c0.2116,-1.9402 0.8466,-3.5983 1.7991,-5.0447 0.7409,-1.023 1.6581,-1.905 2.787,-2.6811l-0.9525 -1.5875 -1.1642 -2.0461 -0.9172 -1.5875c-1.2347,0.5644 -2.4695,0.9172 -3.7042,1.023zm-5.0447 7.5142l0 0c0.7761,1.3053 1.1642,2.787 1.1642,4.4097 0,2.4695 -0.8467,4.5509 -2.5753,6.2795 -1.7639,1.7286 -3.81,2.6105 -6.2794,2.6105 -2.4694,0 -4.5508,-0.8819 -6.2441,-2.6105 -0.1059,-0.0706 -0.1764,-0.1411 -0.247,-0.2117 -1.5875,-1.6933 -2.3636,-3.7042 -2.3636,-6.0678 0,-1.6227 0.3881,-3.1044 1.1642,-4.445 0.3528,-0.5644 0.7408,-1.0936 1.1994,-1.5875 0.0706,-0.0705 0.1411,-0.1411 0.247,-0.2116 1.6933,-1.7286 3.7747,-2.6106 6.2441,-2.6106 2.4694,0 4.5155,0.882 6.2794,2.6106 0.5292,0.5644 1.023,1.1641 1.4111,1.8344z"/>
   <path id="_163601048" class="fil2" d="M51.0763 32.1156c-0.0353,-1.7991 -0.635,-3.3514 -1.905,-4.5861 -1.27,-1.27 -2.787,-1.905 -4.5861,-1.905 -1.7991,0 -3.3161,0.635 -4.5861,1.905 -1.27,1.2347 -1.905,2.787 -1.905,4.5861 0,1.7639 0.635,3.3161 1.905,4.5861 1.27,1.27 2.787,1.905 4.5861,1.905 1.7991,-0.0352 3.3161,-0.6702 4.5861,-1.905 1.27,-1.27 1.8697,-2.8222 1.905,-4.5861zm-2.6811 -3.81l0 0c1.023,1.0231 1.5522,2.2931 1.5522,3.7748 0,1.4816 -0.5292,2.7516 -1.5522,3.8099 -1.0584,1.0584 -2.3284,1.5523 -3.81,1.5523 -1.4816,0 -2.7516,-0.4939 -3.7747,-1.5523 -1.0583,-1.0583 -1.5875,-2.3283 -1.5875,-3.8099 0,-1.4817 0.5292,-2.7517 1.5875,-3.7748 1.0231,-1.0583 2.2931,-1.5875 3.7747,-1.5875 1.4816,0 2.7516,0.5292 3.81,1.5875z"/>
   <path id="_163595912" class="fil0" d="M62.5768 20.6504l-0.1058 -0.1764 -0.5292 0.2822 1.1642 2.0461 0.5291 -0.3175 -0.1058 -0.1764 0.0706 -0.5292 0.3528 -0.1764c0.1058,0.0706 0.2116,0.1059 0.3527,0.1764 0.3528,0.0706 0.635,0.0353 0.9525,-0.1411 0.2823,-0.1764 0.4939,-0.4233 0.5645,-0.7408 0.1058,-0.3528 0.0353,-0.6703 -0.1059,-0.9525 -0.1763,-0.3175 -0.4233,-0.4939 -0.7761,-0.5997 -0.3175,-0.0706 -0.635,-0.0353 -0.9172,0.1411 -0.3175,0.1764 -0.4939,0.4233 -0.5997,0.7408 -0.0353,0.1411 -0.0353,0.2822 -0.0353,0.4234l-0.3175 0.1763 -0.4939 -0.1763z"/>
   <path id="_163604024" class="fil3" d="M45.7493 53.4233l0 -0.5997 -2.3282 0 0 0.5997 0.2469 0 0.3881 0.3175 0 0.3881c-0.1411,0.0705 -0.247,0.1411 -0.3528,0.2469 -0.2469,0.247 -0.3528,0.5292 -0.3528,0.8819 0,0.3176 0.1059,0.6351 0.3528,0.882 0.2469,0.2117 0.5292,0.3528 0.8819,0.3528 0.3527,0 0.635,-0.1411 0.8819,-0.3528 0.2469,-0.2469 0.3528,-0.5644 0.3528,-0.882 0,-0.3527 -0.1059,-0.6349 -0.3528,-0.8819 -0.1058,-0.1058 -0.2117,-0.1764 -0.3175,-0.2469l0 -0.3881 0.388 -0.3175 0.2117 0z"/>
   <path id="_163599440" class="fil4" d="M23.4891 19.9448c-0.1763,0.2822 -0.2469,0.5997 -0.1411,0.9525 0.0706,0.3175 0.2822,0.5644 0.5998,0.7408 0.2822,0.1764 0.5997,0.2117 0.9172,0.1411 0.1411,-0.0705 0.2822,-0.1058 0.388,-0.1764l0.3528 0.1764 0.0706 0.5292 -0.1411 0.1764 0.5291 0.3175 1.1642 -2.0461 -0.4939 -0.2822 -0.1411 0.1764 -0.4586 0.1763 -0.3175 -0.1763c0,-0.1412 -0.0353,-0.2823 -0.0706,-0.4234 -0.0705,-0.3175 -0.2822,-0.5644 -0.5644,-0.7408 -0.3175,-0.1764 -0.5997,-0.2117 -0.9525,-0.1411 -0.3175,0.1058 -0.5645,0.2822 -0.7409,0.5997z"/>
   <polygon id="_163605968" class="fil4" points="47.1604,15.1823 47.1604,9.1145 50.9704,9.1145 44.5852,2.7292 38.2,9.1145 41.9747,9.1145 41.9747,15.1823 "/>
   <path id="_163605872" class="fil4" d="M22.96 17.3695l0 -13.0528 -13.0528 0 0 13.0528 13.0528 0zm-1.1995 -11.8886l0 0 0 10.6892 -10.6891 0 0 -10.6892 10.6891 0z"/>
   <path id="_163605464" class="fil3" d="M38.0589 47.8847l-13.0528 0 0 13.0528 13.0528 0 0 -13.0528zm-11.8534 1.1642l0 0 10.6892 0 0 10.6891 -10.6892 0 0 -10.6891z"/>
   <path id="_163605512" class="fil2" d="M27.4755 79.3877c-0.0352,1.7639 0.5998,3.3162 1.8697,4.5862 1.2701,1.27 2.8223,1.905 4.6214,1.905 1.7639,-0.0353 3.3161,-0.6703 4.5862,-1.905 1.2347,-1.27 1.8697,-2.8223 1.9049,-4.5862 -0.0352,-1.7991 -0.6702,-3.3513 -1.9049,-4.5861 -1.2701,-1.27 -2.8223,-1.905 -4.5862,-1.905 -1.7991,0 -3.3513,0.635 -4.6214,1.905 -1.2699,1.2348 -1.9049,2.787 -1.8697,4.5861zm2.6811 3.7748l0 0c-1.023,-1.0584 -1.5522,-2.3284 -1.5522,-3.81 0,-1.4817 0.5292,-2.7517 1.5522,-3.7747 1.0584,-1.0584 2.3284,-1.5875 3.81,-1.5875 1.4464,0 2.7164,0.5291 3.7748,1.5875 1.0583,1.023 1.5522,2.293 1.5875,3.7747 -0.0353,1.4816 -0.5292,2.7516 -1.5875,3.81 -1.0231,1.023 -2.2931,1.5522 -3.7748,1.5522 -1.4816,0 -2.7516,-0.5292 -3.81,-1.5522z"/>
   <polygon id="_163605632" class="fil1" points="42.7155,58.2916 42.7155,81.7161 48.5715,81.7161 48.5715,87.4311 49.771,87.4311 49.771,81.7161 49.2771,81.7161 49.2771,77.6944 49.771,77.6944 49.771,71.9794 48.5715,71.9794 48.5715,77.6944 46.4549,77.6944 46.4549,58.2916 "/>
   <path id="_163606304" class="fil5" d="M64.4113 73.0025l-13.0528 0 0 13.0527 13.0528 0 0 -13.0527zm-11.8886 1.1641l0 0 10.6891 0 0 10.6892 -10.6891 0 0 -10.6892z"/>
   <polygon id="_163605728" class="fil6" points="88.6824,88.56 88.6824,0.3656 0.488,0.3656 0.488,88.56 "/>
   <g>
    <path id="_163604960" class="fil5" d="M16.985 13.3478l0 -1.2088 -2.1907 0 0 -0.5692 2.3048 -3.2726 0.5068 0 0 3.2726 0.682 0 0 0.5692 -0.682 0 0 1.2088 -0.6209 0zm0 -1.778l0 -2.2766 -1.5804 2.2766 1.5804 0z"/>
   </g>
   <g>
    <path id="_163605080" class="fil5" d="M30.0825 55.5824l0.6197 -0.0823c0.0718,0.3516 0.1929,0.6044 0.3634,0.7596 0.1717,0.1553 0.3798,0.2329 0.6256,0.2329 0.2916,0 0.5386,-0.1012 0.7396,-0.3034 0.1999,-0.2023 0.3011,-0.4527 0.3011,-0.7514 0,-0.2846 -0.0929,-0.5198 -0.2787,-0.7044 -0.187,-0.1846 -0.4234,-0.2775 -0.7103,-0.2775 -0.1176,0 -0.2634,0.0235 -0.4374,0.0694l0.0694 -0.5445c0.0411,0.0047 0.074,0.0071 0.0999,0.0071 0.2634,0 0.501,-0.0694 0.7126,-0.207 0.2117,-0.1376 0.3175,-0.3504 0.3175,-0.6373 0,-0.227 -0.0776,-0.4163 -0.2316,-0.5645 -0.1541,-0.1493 -0.3528,-0.2246 -0.5962,-0.2246 -0.2411,0 -0.4422,0.0765 -0.6021,0.227 -0.1611,0.1517 -0.2646,0.3798 -0.3104,0.6832l-0.6197 -0.1106c0.0752,-0.4162 0.2481,-0.7384 0.5162,-0.9666 0.2693,-0.2281 0.6032,-0.3433 1.003,-0.3433 0.2752,0 0.5292,0.0599 0.7609,0.1775 0.2316,0.1188 0.4092,0.2799 0.5326,0.4845 0.1223,0.2046 0.1847,0.421 0.1847,0.6515 0,0.2175 -0.0588,0.4162 -0.1764,0.5962 -0.1176,0.1787 -0.2905,0.321 -0.5198,0.4268 0.2987,0.0682 0.5304,0.2117 0.6962,0.4292 0.1646,0.2164 0.2469,0.488 0.2469,0.8138 0,0.4409 -0.1599,0.8149 -0.4821,1.1218 -0.321,0.3069 -0.7279,0.4598 -1.2194,0.4598 -0.4434,0 -0.8114,-0.1317 -1.1042,-0.3963 -0.2928,-0.2634 -0.4598,-0.6056 -0.501,-1.0266z"/>
   </g>
   <g>
    <path id="_163605200" class="fil5" d="M72.9415 12.1307l0.6515 -0.0553c0.0482,0.3175 0.1599,0.5551 0.3351,0.715 0.1764,0.1599 0.388,0.2399 0.6362,0.2399 0.2987,0 0.5515,-0.1129 0.7573,-0.3375 0.2069,-0.2258 0.3104,-0.5245 0.3104,-0.8961 0,-0.3539 -0.0988,-0.6326 -0.2975,-0.8372 -0.1987,-0.2046 -0.4586,-0.3069 -0.7808,-0.3069 -0.1999,0 -0.3798,0.0458 -0.5409,0.1364 -0.1611,0.0905 -0.287,0.2081 -0.3787,0.3527l-0.5821 -0.0752 0.4892 -2.5941 2.5118 0 0 0.5927 -2.0155 0 -0.2729 1.357c0.3034,-0.2117 0.6221,-0.3175 0.9549,-0.3175 0.441,0 0.8125,0.1529 1.1159,0.4586 0.3034,0.3057 0.4551,0.6985 0.4551,1.1783 0,0.4574 -0.134,0.8525 -0.3998,1.1853 -0.3246,0.408 -0.7667,0.6126 -1.3264,0.6126 -0.4598,0 -0.8349,-0.1281 -1.1254,-0.3857 -0.2904,-0.2575 -0.4562,-0.5985 -0.4974,-1.023z"/>
   </g>
   <g>
    <path id="_163605392" class="fil5" d="M59.6664 78.2201l-0.6162 0.0482c-0.0552,-0.2434 -0.1328,-0.421 -0.234,-0.5303 -0.1681,-0.1776 -0.3751,-0.2658 -0.6209,-0.2658 -0.1975,0 -0.3704,0.0553 -0.5197,0.1658 -0.1952,0.1423 -0.3493,0.3504 -0.4622,0.6233 -0.1117,0.2728 -0.1705,0.662 -0.1752,1.1676 0.1494,-0.2269 0.3316,-0.3962 0.548,-0.5068 0.2152,-0.1093 0.4422,-0.1646 0.6785,-0.1646 0.4139,0 0.7655,0.1517 1.056,0.4563 0.2904,0.3045 0.4363,0.6973 0.4363,1.1794 0,0.3175 -0.0694,0.6115 -0.2058,0.8843 -0.1364,0.2716 -0.3246,0.4809 -0.5633,0.6256 -0.2387,0.1446 -0.5092,0.2163 -0.8126,0.2163 -0.5174,0 -0.9383,-0.1893 -1.2641,-0.5703 -0.3269,-0.3798 -0.4891,-1.0066 -0.4891,-1.8791 0,-0.976 0.1799,-1.6851 0.5409,-2.1284 0.3139,-0.3857 0.7373,-0.5797 1.2711,-0.5797 0.3963,0 0.7221,0.1117 0.9761,0.3351 0.254,0.2223 0.4056,0.5303 0.4562,0.9231zm-2.5317 2.1766c0,0.214 0.0458,0.4187 0.1364,0.6139 0.0905,0.1952 0.2175,0.3433 0.3798,0.4456 0.1634,0.1023 0.3351,0.1541 0.5139,0.1541 0.2622,0 0.4868,-0.1059 0.6749,-0.3175 0.1882,-0.2117 0.2823,-0.4986 0.2823,-0.8608 0,-0.3492 -0.0929,-0.6244 -0.2787,-0.8255 -0.1858,-0.2011 -0.4198,-0.301 -0.7021,-0.301 -0.281,0 -0.5185,0.0999 -0.7137,0.301 -0.1952,0.2011 -0.2928,0.4645 -0.2928,0.7902z"/>
   </g>
   <g>
    <path id="_163598816" class="fil5" d="M45.2555 34.585l-0.6197 0 0 -3.9511c-0.1494,0.1423 -0.3446,0.2846 -0.5868,0.4269 -0.2434,0.1423 -0.461,0.2493 -0.6538,0.3198l0 -0.5985c0.3469,-0.1635 0.6503,-0.361 0.9101,-0.5927 0.2587,-0.2328 0.4434,-0.4574 0.5515,-0.6761l0.3987 0 0 5.0717z"/>
   </g>
   <g>
    <path id="_163604648" class="fil5" d="M35.5434 81.261l0 0.5962 -3.3384 0c-0.0047,-0.1493 0.0188,-0.2928 0.0717,-0.4304 0.0847,-0.2281 0.2211,-0.4515 0.4081,-0.6726 0.1881,-0.2199 0.4586,-0.4751 0.8114,-0.7644 0.5491,-0.4503 0.9207,-0.8066 1.1136,-1.07 0.1928,-0.2623 0.2892,-0.5116 0.2892,-0.7456 0,-0.2457 -0.0882,-0.4527 -0.2634,-0.622 -0.1764,-0.1682 -0.4057,-0.2529 -0.6879,-0.2529 -0.2987,0 -0.5374,0.0894 -0.7161,0.2693 -0.1799,0.1788 -0.2705,0.4269 -0.2728,0.7432l-0.6374 -0.0647c0.0435,-0.4762 0.2082,-0.8384 0.4927,-1.0877 0.2846,-0.2493 0.668,-0.3739 1.1477,-0.3739 0.4845,0 0.8679,0.1352 1.1501,0.4033 0.2834,0.2693 0.4245,0.6021 0.4245,0.9995 0,0.2023 -0.0412,0.401 -0.1247,0.5962 -0.0823,0.1952 -0.2199,0.401 -0.4115,0.6162 -0.1917,0.2164 -0.5104,0.5127 -0.956,0.889 -0.3716,0.3128 -0.6104,0.5245 -0.7162,0.6362 -0.1058,0.1105 -0.1928,0.2222 -0.2622,0.3351l2.4776 0z"/>
   </g>
  </g>
 </g>
</svg>
