<?xml version="1.0" encoding="UTF-8"?>
<!DOCTYPE svg PUBLIC "-//W3C//DTD SVG 1.1//EN" "http://www.w3.org/Graphics/SVG/1.1/DTD/svg11.dtd">
<!-- Creator: CorelDRAW -->
<svg xmlns="http://www.w3.org/2000/svg" xml:space="preserve" width="88.8998mm" height="88.8998mm" style="shape-rendering:geometricPrecision; text-rendering:geometricPrecision; image-rendering:optimizeQuality; fill-rule:evenodd; clip-rule:evenodd"
viewBox="0 0 88.8998 88.8998"
 xmlns:xlink="http://www.w3.org/1999/xlink">
 <defs>
  <style type="text/css">
   <![CDATA[
    .fil6 {fill:none;fill-rule:nonzero}
    .fil5 {fill:black;fill-rule:nonzero}
    .fil1 {fill:silver;fill-rule:nonzero}
    .fil0 {fill:#008452;fill-rule:nonzero}
    .fil2 {fill:#4A82AF;fill-rule:nonzero}
    .fil3 {fill:#DA251D;fill-rule:nonzero}
    .fil4 {fill:#EB891B;fill-rule:nonzero}
   ]]>
  </style>
 </defs>
 <g id="__x0023_Layer_x0020_1">
  <metadata id="CorelCorpID_0Corel-Layer"/>
  <g id="_77546944">
   <g>
    <path id="_77546872" class="fil0" d="M63.8879 19.4733c-0.3175,0.1764 -0.4939,0.4233 -0.5997,0.7408 -0.0353,0.1411 -0.0353,0.2822 -0.0353,0.4234l-0.3175 0.1763 -0.4939 -0.1763 -0.1058 -0.1764 -0.5292 0.2822 1.1642 2.0461 0.5291 -0.3175 -0.1058 -0.1764 0.0706 -0.5292 0.3528 -0.1764c0.1058,0.0706 0.2116,0.1059 0.3527,0.1764 0.3528,0.0706 0.635,0.0353 0.9525,-0.1411 0.2823,-0.1764 0.4939,-0.4233 0.5645,-0.7408 0.1058,-0.3528 0.0353,-0.6703 -0.1059,-0.9525 -0.1763,-0.3175 -0.4233,-0.4939 -0.7761,-0.5997 -0.3175,-0.0706 -0.635,-0.0353 -0.9172,0.1411z"/>
    <path id="_77546776" class="fil1" d="M60.8893 19.1558c-1.2347,0.5644 -2.4695,0.9172 -3.7042,1.023 -1.905,0.1764 -3.81,-0.2116 -5.7855,-1.1288l-0.0353 0c-0.0353,-0.0353 -0.0706,-0.0353 -0.1058,-0.0706 -2.0461,-1.0936 -4.3039,-1.6228 -6.8086,-1.6228 -2.3636,0 -4.5155,0.4586 -6.4911,1.4464 -0.1058,0.0353 -0.2116,0.1058 -0.3175,0.1764 -0.1411,0.0353 -0.2822,0.1058 -0.388,0.2117 -1.905,0.8113 -3.7395,1.1641 -5.5034,0.9877 -0.8466,-0.0705 -1.658,-0.2469 -2.5047,-0.5291 -0.388,-0.1411 -0.8114,-0.3175 -1.1994,-0.4939l-0.9525 1.5875 -1.1642 2.0461 -0.9172 1.5875c1.0936,0.7761 2.0461,1.6581 2.7517,2.6811 0.6702,0.9878 1.1641,2.0461 1.4816,3.2808 0.1764,0.5645 0.2823,1.1642 0.3528,1.7639l0.1058 1.0584c0.1764,2.9986 1.1642,5.6444 2.9987,7.9375 0.388,0.4938 0.8113,0.9877 1.3052,1.4816 0.7761,0.7761 1.5875,1.4464 2.4695,2.0108 1.8697,1.27 3.175,2.7516 3.9864,4.4802 0.5644,1.1642 0.8819,2.3989 0.9525,3.7395l1.8697 0 2.3282 0 1.8697 0c0.0706,-1.3406 0.3881,-2.5753 0.9525,-3.7395 0.8114,-1.7286 2.1167,-3.2455 3.9864,-4.4802 0.8467,-0.5997 1.6581,-1.2699 2.4695,-2.0108 2.5753,-2.6105 3.9864,-5.6444 4.2686,-9.2075l0.1764 -1.27c0.2116,-1.9402 0.8466,-3.5983 1.7991,-5.0447 0.7409,-1.023 1.6581,-1.905 2.787,-2.6811l-0.9525 -1.5875 -1.1642 -2.0461 -0.9172 -1.5875zm-24.1299 8.5019l0 0c0.3528,-0.5644 0.7408,-1.0936 1.1994,-1.5875 0.0706,-0.0705 0.1411,-0.1411 0.247,-0.2116 1.6933,-1.7286 3.7747,-2.6106 6.2441,-2.6106 2.4694,0 4.5155,0.882 6.2794,2.6106 0.5292,0.5644 1.023,1.1641 1.4111,1.8344 0.7761,1.3053 1.1642,2.787 1.1642,4.4097 0,2.4695 -0.8467,4.5509 -2.5753,6.2795 -1.7639,1.7286 -3.81,2.6105 -6.2794,2.6105 -2.4694,0 -4.5508,-0.8819 -6.2441,-2.6105 -0.1059,-0.0706 -0.1764,-0.1411 -0.247,-0.2117 -1.5875,-1.6933 -2.3636,-3.7042 -2.3636,-6.0678 0,-1.6227 0.3881,-3.1044 1.1642,-4.445z"/>
    <path id="_77546680" class="fil2" d="M49.036 27.5166c-1.27,-1.27 -2.787,-1.905 -4.5861,-1.905 -1.7991,0 -3.3161,0.635 -4.5861,1.905 -1.27,1.2347 -1.905,2.787 -1.905,4.5861 0,1.7639 0.635,3.3161 1.905,4.5861 1.27,1.27 2.787,1.905 4.5861,1.905 1.7991,-0.0352 3.3161,-0.6702 4.5861,-1.905 1.27,-1.27 1.8697,-2.8222 1.905,-4.5861 -0.0353,-1.7991 -0.635,-3.3514 -1.905,-4.5861zm-8.3608 0.7761l0 0c1.0231,-1.0583 2.2931,-1.5875 3.7747,-1.5875 1.4816,0 2.7516,0.5292 3.81,1.5875 1.023,1.0231 1.5522,2.2931 1.5522,3.7748 0,1.4816 -0.5292,2.7516 -1.5522,3.8099 -1.0584,1.0584 -2.3284,1.5523 -3.81,1.5523 -1.4816,0 -2.7516,-0.4939 -3.7747,-1.5523 -1.0583,-1.0583 -1.5875,-2.3283 -1.5875,-3.8099 0,-1.4817 0.5292,-2.7517 1.5875,-3.7748z"/>
    <path id="_77546584" class="fil3" d="M26.4583 20.6375l-0.4586 0.1763 -0.3175 -0.1763c0,-0.1412 -0.0353,-0.2823 -0.0706,-0.4234 -0.0705,-0.3175 -0.2822,-0.5644 -0.5644,-0.7408 -0.3175,-0.1764 -0.5997,-0.2117 -0.9525,-0.1411 -0.3175,0.1058 -0.5645,0.2822 -0.7409,0.5997 -0.1763,0.2822 -0.2469,0.5997 -0.1411,0.9525 0.0706,0.3175 0.2822,0.5644 0.5998,0.7408 0.2822,0.1764 0.5997,0.2117 0.9172,0.1411 0.1411,-0.0705 0.2822,-0.1058 0.388,-0.1764l0.3528 0.1764 0.0706 0.5292 -0.1411 0.1764 0.5291 0.3175 1.1642 -2.0461 -0.4939 -0.2822 -0.1411 0.1764z"/>
    <path id="_77546440" class="fil4" d="M43.2858 53.4104l0.2469 0 0.3881 0.3175 0 0.3881c-0.1411,0.0705 -0.247,0.1411 -0.3528,0.2469 -0.2469,0.247 -0.3528,0.5292 -0.3528,0.8819 0,0.3176 0.1059,0.6351 0.3528,0.882 0.2469,0.2117 0.5292,0.3528 0.8819,0.3528 0.3527,0 0.635,-0.1411 0.8819,-0.3528 0.2469,-0.2469 0.3528,-0.5644 0.3528,-0.882 0,-0.3527 -0.1059,-0.6349 -0.3528,-0.8819 -0.1058,-0.1058 -0.2117,-0.1764 -0.3175,-0.2469l0 -0.3881 0.388 -0.3175 0.2117 0 0 -0.5997 -2.3282 0 0 0.5997z"/>
    <path id="_77546344" class="fil0" d="M67.6979 4.4097l0 13.0528 13.0528 0 0 -13.0528 -13.0528 0zm1.1995 1.1641l0 0 10.6891 0 0 10.6892 -10.6891 0 0 -10.6892z"/>
    <polygon id="_77546296" class="fil3" points="50.8351,9.1016 44.4499,2.7163 38.0647,9.1016 41.8394,9.1016 41.8394,15.1694 47.0251,15.1694 47.0251,9.1016 "/>
    <path id="_77546152" class="fil3" d="M9.7719 4.3038l0 13.0528 13.0528 0 0 -13.0528 -13.0528 0zm1.1642 11.8534l0 0 0 -10.6892 10.6891 0 0 10.6892 -10.6891 0z"/>
    <path id="_77546080" class="fil4" d="M24.8708 47.8718l0 13.0528 13.0528 0 0 -13.0528 -13.0528 0zm11.8886 11.8533l0 0 -10.6892 0 0 -10.6891 10.6892 0 0 10.6891z"/>
    <polygon id="_77546992" class="fil1" points="46.3196,58.2787 42.5802,58.2787 42.5802,81.7032 48.4362,81.7032 48.4362,87.4182 49.6357,87.4182 49.6357,81.7032 49.1418,81.7032 49.1418,77.6815 49.6357,77.6815 49.6357,71.9665 48.4362,71.9665 48.4362,77.6815 46.3196,77.6815 "/>
    <path id="_103246280" class="fil5" d="M51.2232 72.9896l0 13.0527 13.0528 0 0 -13.0527 -13.0528 0zm1.1642 11.8533l0 0 0 -10.6892 10.6891 0 0 10.6892 -10.6891 0z"/>
    <polygon id="_103246472" class="fil6" points="88.5471,88.5471 88.5471,0.3527 0.3527,0.3527 0.3527,88.5471 "/>
   </g>
   <g>
    <path id="_103246664" class="fil5" d="M16.8497 13.3349l0 -1.2088 -2.1907 0 0 -0.5692 2.3048 -3.2726 0.5068 0 0 3.2726 0.682 0 0 0.5692 -0.682 0 0 1.2088 -0.6209 0zm0 -1.778l0 -2.2766 -1.5804 2.2766 1.5804 0z"/>
   </g>
   <g>
    <path id="_103246880" class="fil5" d="M29.9472 55.5695l0.6197 -0.0823c0.0718,0.3516 0.1929,0.6044 0.3634,0.7596 0.1717,0.1553 0.3798,0.2329 0.6256,0.2329 0.2916,0 0.5386,-0.1012 0.7396,-0.3034 0.1999,-0.2023 0.3011,-0.4527 0.3011,-0.7514 0,-0.2846 -0.0929,-0.5198 -0.2787,-0.7044 -0.187,-0.1846 -0.4234,-0.2775 -0.7103,-0.2775 -0.1176,0 -0.2634,0.0235 -0.4374,0.0694l0.0694 -0.5445c0.0411,0.0047 0.074,0.0071 0.0999,0.0071 0.2634,0 0.501,-0.0694 0.7126,-0.207 0.2117,-0.1376 0.3175,-0.3504 0.3175,-0.6373 0,-0.227 -0.0776,-0.4163 -0.2316,-0.5645 -0.1541,-0.1493 -0.3528,-0.2246 -0.5962,-0.2246 -0.2411,0 -0.4422,0.0765 -0.6021,0.227 -0.1611,0.1517 -0.2646,0.3798 -0.3104,0.6832l-0.6197 -0.1106c0.0752,-0.4162 0.2481,-0.7384 0.5162,-0.9666 0.2693,-0.2281 0.6032,-0.3433 1.003,-0.3433 0.2752,0 0.5292,0.0599 0.7609,0.1775 0.2316,0.1188 0.4092,0.2799 0.5326,0.4845 0.1223,0.2046 0.1847,0.421 0.1847,0.6515 0,0.2175 -0.0588,0.4162 -0.1764,0.5962 -0.1176,0.1787 -0.2905,0.321 -0.5198,0.4268 0.2987,0.0682 0.5304,0.2117 0.6962,0.4292 0.1646,0.2164 0.2469,0.488 0.2469,0.8138 0,0.4409 -0.1599,0.8149 -0.4821,1.1218 -0.321,0.3069 -0.7279,0.4598 -1.2194,0.4598 -0.4434,0 -0.8114,-0.1317 -1.1042,-0.3963 -0.2928,-0.2634 -0.4598,-0.6056 -0.501,-1.0266z"/>
   </g>
   <g>
    <path id="_103247024" class="fil5" d="M72.8062 12.1178l0.6515 -0.0553c0.0482,0.3175 0.1599,0.5551 0.3351,0.715 0.1764,0.1599 0.388,0.2399 0.6362,0.2399 0.2987,0 0.5515,-0.1129 0.7573,-0.3375 0.2069,-0.2258 0.3104,-0.5245 0.3104,-0.8961 0,-0.3539 -0.0988,-0.6326 -0.2975,-0.8372 -0.1987,-0.2046 -0.4586,-0.3069 -0.7808,-0.3069 -0.1999,0 -0.3798,0.0458 -0.5409,0.1364 -0.1611,0.0905 -0.287,0.2081 -0.3787,0.3527l-0.5821 -0.0752 0.4892 -2.5941 2.5118 0 0 0.5927 -2.0155 0 -0.2729 1.357c0.3034,-0.2117 0.6221,-0.3175 0.9549,-0.3175 0.441,0 0.8125,0.1529 1.1159,0.4586 0.3034,0.3057 0.4551,0.6985 0.4551,1.1783 0,0.4574 -0.134,0.8525 -0.3998,1.1853 -0.3246,0.408 -0.7667,0.6126 -1.3264,0.6126 -0.4598,0 -0.8349,-0.1281 -1.1254,-0.3857 -0.2904,-0.2575 -0.4562,-0.5985 -0.4974,-1.023z"/>
   </g>
   <g>
    <path id="_103565104" class="fil5" d="M56.355 77.6322l0 -0.5962 3.269 0 0 0.4821c-0.321,0.3422 -0.6397,0.7973 -0.956,1.3641 -0.3152,0.5668 -0.5597,1.1512 -0.7314,1.7497 -0.1247,0.4234 -0.2035,0.8855 -0.2376,1.3888l-0.6373 0c0.007,-0.3975 0.0847,-0.8772 0.234,-1.4405 0.1493,-0.5621 0.3634,-1.1054 0.642,-1.6275 0.2799,-0.5221 0.5762,-0.963 0.8914,-1.3205l-2.4741 0z"/>
   </g>
   <g>
    <path id="_103565416" class="fil5" d="M45.1202 34.5721l-0.6197 0 0 -3.9511c-0.1494,0.1423 -0.3446,0.2846 -0.5868,0.4269 -0.2434,0.1423 -0.461,0.2493 -0.6538,0.3198l0 -0.5985c0.3469,-0.1635 0.6503,-0.361 0.9101,-0.5927 0.2587,-0.2328 0.4434,-0.4574 0.5515,-0.6761l0.3987 0 0 5.0717z"/>
   </g>
  </g>
 </g>
</svg>
