<?xml version="1.0" encoding="UTF-8"?>
<!DOCTYPE svg PUBLIC "-//W3C//DTD SVG 1.1//EN" "http://www.w3.org/Graphics/SVG/1.1/DTD/svg11.dtd">
<!-- Creator: CorelDRAW 2021 (64-Bit) -->
<svg xmlns="http://www.w3.org/2000/svg" xml:space="preserve" width="850px" height="850px" version="1.1" style="shape-rendering:geometricPrecision; text-rendering:geometricPrecision; image-rendering:optimizeQuality; fill-rule:evenodd; clip-rule:evenodd"
viewBox="0 0 850 850"
 xmlns:xlink="http://www.w3.org/1999/xlink"
 xmlns:xodm="http://www.corel.com/coreldraw/odm/2003">
 <defs>
  <style type="text/css">
   <![CDATA[
    .str0 {stroke:black;stroke-width:10;stroke-linecap:round;stroke-linejoin:round;stroke-miterlimit:22.9256}
    .str2 {stroke:#00E000;stroke-width:10;stroke-linecap:round;stroke-linejoin:round;stroke-miterlimit:22.9256}
    .str1 {stroke:red;stroke-width:10;stroke-linecap:round;stroke-linejoin:round;stroke-miterlimit:22.9256}
    .fil3 {fill:#00E000}
    .fil2 {fill:#999999}
    .fil4 {fill:red}
    .fil0 {fill:white}
    .fil1 {fill:black;fill-rule:nonzero}
    .fil5 {fill:white;fill-rule:nonzero}
   ]]>
  </style>
 </defs>
 <g id="Layer_x0020_1">
  <metadata id="CorelCorpID_0Corel-Layer"/>
  <circle class="fil0 str0" cx="425" cy="500.92" r="70"/>
  <path class="fil1" d="M393.05 524.05l-8.61 0 0 -34.57c0,-4.13 0.1,-7.4 0.3,-9.81 -0.57,0.57 -1.25,1.22 -2.08,1.93 -0.81,0.72 -3.55,2.95 -8.22,6.74l-4.32 -5.46 15.75 -12.38 7.18 0 0 53.55z"/>
  <polygon id="_1" class="fil1" points="435.91,470.5 416,524.05 407.87,524.05 427.82,470.5 "/>
  <path id="_2" class="fil1" d="M476.15 524.05l-36.3 0 0 -6.51 13.81 -13.89c4.07,-4.17 6.77,-7.12 8.11,-8.87 1.33,-1.75 2.3,-3.39 2.91,-4.93 0.62,-1.53 0.92,-3.18 0.92,-4.95 0,-2.41 -0.73,-4.32 -2.18,-5.71 -1.45,-1.39 -3.46,-2.09 -6.02,-2.09 -2.05,0 -4.04,0.38 -5.97,1.14 -1.91,0.75 -4.12,2.13 -6.65,4.1l-4.65 -5.67c2.99,-2.52 5.88,-4.29 8.69,-5.34 2.81,-1.05 5.8,-1.58 8.98,-1.58 4.97,0 8.97,1.3 11.97,3.9 3.01,2.6 4.51,6.1 4.51,10.49 0,2.43 -0.43,4.71 -1.3,6.89 -0.87,2.17 -2.2,4.41 -4,6.72 -1.8,2.3 -4.77,5.43 -8.96,9.35l-9.3 9.02 0 0.36 25.43 0 0 7.57z"/>
  <rect class="fil0 str1" x="108.12" y="583.6" width="90" height="90"/>
  <path class="fil1" d="M170.47 614.13c0,3.4 -0.98,6.23 -2.96,8.48 -1.99,2.26 -4.76,3.77 -8.36,4.56l0 0.29c4.3,0.54 7.52,1.87 9.67,4.01 2.15,2.14 3.23,4.99 3.23,8.53 0,5.15 -1.83,9.13 -5.46,11.92 -3.64,2.8 -8.82,4.2 -15.53,4.2 -5.94,0 -10.95,-0.96 -15.02,-2.9l0 -7.66c2.27,1.12 4.67,1.99 7.21,2.6 2.55,0.61 4.99,0.91 7.34,0.91 4.15,0 7.25,-0.77 9.3,-2.31 2.05,-1.54 3.07,-3.91 3.07,-7.14 0,-2.86 -1.12,-4.96 -3.4,-6.31 -2.27,-1.34 -5.84,-2.01 -10.7,-2.01l-4.65 0 0 -6.98 4.73 0c8.55,0 12.82,-2.95 12.82,-8.86 0,-2.3 -0.75,-4.08 -2.24,-5.33 -1.48,-1.23 -3.68,-1.86 -6.6,-1.86 -2.02,0 -3.97,0.29 -5.86,0.86 -1.87,0.58 -4.1,1.69 -6.66,3.35l-4.21 -6c4.9,-3.61 10.61,-5.41 17.1,-5.41 5.4,0 9.61,1.16 12.65,3.48 3.02,2.32 4.53,5.51 4.53,9.58z"/>
  <path class="fil2" d="M490.19 412.07l345.42 169.55 0 -179.94 -376.74 -217.33c-18.77,-10.83 -46,-10.37 -65.03,0l-379.45 206.74 0 179.93 345.42 -158.95 130.38 0z"/>
  <polygon class="fil3" points="581.33,456.8 814.41,571.21 814.41,498.09 581.33,383.68 "/>
  <polygon class="fil4" points="35.59,561.27 268.67,454.01 268.67,380.88 35.59,488.14 "/>
  <path class="fil5" d="M404.3 385.32l0 -89.14 -28.9 0 49.6 -89.14 49.6 89.14 -28.9 0 0 89.14 -41.4 0zm0 -44.57m-14.45 -44.57m10.35 -44.57m49.6 0m10.35 44.57m-14.45 44.57m-20.7 44.57"/>
  <rect class="fil0 str2" x="653.12" y="583.6" width="90" height="90"/>
  <path class="fil1" d="M719.39 643.67l-7.22 0 0 11.7 -8.39 0 0 -11.7 -24.47 0 0 -6.61 24.47 -35.39 8.39 0 0 34.88 7.22 0 0 7.12zm-15.61 -7.12l0 -13.45c0,-4.79 0.13,-8.7 0.36,-11.77l-0.28 0c-0.69,1.62 -1.76,3.58 -3.23,5.87l-13.3 19.35 16.45 0z"/>
 </g>
</svg>
