<?xml version="1.0" encoding="UTF-8"?>
<!DOCTYPE svg PUBLIC "-//W3C//DTD SVG 1.1//EN" "http://www.w3.org/Graphics/SVG/1.1/DTD/svg11.dtd">
<!-- Creator: CorelDRAW 2021 (64-Bit) -->
<svg xmlns="http://www.w3.org/2000/svg" xml:space="preserve" width="850px" height="850px" version="1.1" style="shape-rendering:geometricPrecision; text-rendering:geometricPrecision; image-rendering:optimizeQuality; fill-rule:evenodd; clip-rule:evenodd"
viewBox="0 0 850 850"
 xmlns:xlink="http://www.w3.org/1999/xlink"
 xmlns:xodm="http://www.corel.com/coreldraw/odm/2003">
 <defs>
  <style type="text/css">
   <![CDATA[
    .str0 {stroke:black;stroke-width:10;stroke-linecap:round;stroke-linejoin:round;stroke-miterlimit:22.9256}
    .str2 {stroke:#00E000;stroke-width:10;stroke-linecap:round;stroke-linejoin:round;stroke-miterlimit:22.9256}
    .str1 {stroke:red;stroke-width:10;stroke-linecap:round;stroke-linejoin:round;stroke-miterlimit:22.9256}
    .fil3 {fill:#00E000}
    .fil2 {fill:#999999}
    .fil4 {fill:red}
    .fil0 {fill:white}
    .fil1 {fill:black;fill-rule:nonzero}
    .fil5 {fill:white;fill-rule:nonzero}
   ]]>
  </style>
 </defs>
 <g id="Layer_x0020_1">
  <metadata id="CorelCorpID_0Corel-Layer"/>
  <circle class="fil0 str0" cx="425" cy="500.92" r="70"/>
  <path class="fil1" d="M393.05 524.05l-8.61 0 0 -34.57c0,-4.13 0.1,-7.4 0.3,-9.81 -0.57,0.57 -1.25,1.22 -2.08,1.93 -0.81,0.72 -3.55,2.95 -8.22,6.74l-4.32 -5.46 15.75 -12.38 7.18 0 0 53.55z"/>
  <polygon id="_1" class="fil1" points="435.91,470.5 416,524.05 407.87,524.05 427.82,470.5 "/>
  <path id="_2" class="fil1" d="M476.15 524.05l-36.3 0 0 -6.51 13.81 -13.89c4.07,-4.17 6.77,-7.12 8.11,-8.87 1.33,-1.75 2.3,-3.39 2.91,-4.93 0.62,-1.53 0.92,-3.18 0.92,-4.95 0,-2.41 -0.73,-4.32 -2.18,-5.71 -1.45,-1.39 -3.46,-2.09 -6.02,-2.09 -2.05,0 -4.04,0.38 -5.97,1.14 -1.91,0.75 -4.12,2.13 -6.65,4.1l-4.65 -5.67c2.99,-2.52 5.88,-4.29 8.69,-5.34 2.81,-1.05 5.8,-1.58 8.98,-1.58 4.97,0 8.97,1.3 11.97,3.9 3.01,2.6 4.51,6.1 4.51,10.49 0,2.43 -0.43,4.71 -1.3,6.89 -0.87,2.17 -2.2,4.41 -4,6.72 -1.8,2.3 -4.77,5.43 -8.96,9.35l-9.3 9.02 0 0.36 25.43 0 0 7.57z"/>
  <rect class="fil0 str1" x="108.12" y="583.6" width="90" height="90"/>
  <path class="fil1" d="M174.4 643.67l-7.23 0 0 11.7 -8.38 0 0 -11.7 -24.48 0 0 -6.61 24.48 -35.39 8.38 0 0 34.88 7.23 0 0 7.12zm-15.61 -7.12l0 -13.45c0,-4.79 0.12,-8.7 0.36,-11.77l-0.29 0c-0.69,1.62 -1.76,3.58 -3.22,5.87l-13.3 19.35 16.45 0z"/>
  <path class="fil2" d="M490.19 412.07l345.42 169.55 0 -179.94 -376.74 -217.33c-18.77,-10.83 -46,-10.37 -65.03,0l-379.45 206.74 0 179.93 345.42 -158.95 130.38 0z"/>
  <polygon class="fil3" points="581.33,456.8 814.41,571.21 814.41,498.09 581.33,383.68 "/>
  <polygon class="fil4" points="35.59,561.27 268.67,454.01 268.67,380.88 35.59,488.14 "/>
  <path class="fil5" d="M404.3 385.32l0 -89.14 -28.9 0 49.6 -89.14 49.6 89.14 -28.9 0 0 89.14 -41.4 0zm0 -44.57m-14.45 -44.57m10.35 -44.57m49.6 0m10.35 44.57m-14.45 44.57m-20.7 44.57"/>
  <rect class="fil0 str2" x="653.12" y="583.6" width="90" height="90"/>
  <path class="fil1" d="M699.34 621.92c5.4,0 9.68,1.43 12.83,4.29 3.15,2.86 4.72,6.76 4.72,11.7 0,5.71 -1.78,10.17 -5.36,13.39 -3.57,3.21 -8.66,4.82 -15.26,4.82 -5.98,0 -10.69,-0.96 -14.1,-2.9l0 -7.81c1.97,1.12 4.25,1.99 6.81,2.6 2.56,0.61 4.95,0.91 7.15,0.91 3.88,0 6.84,-0.86 8.86,-2.6 2.03,-1.72 3.04,-4.26 3.04,-7.61 0,-6.39 -4.07,-9.59 -12.23,-9.59 -1.16,0 -2.57,0.11 -4.26,0.35 -1.68,0.23 -3.16,0.49 -4.42,0.79l-3.85 -2.28 2.05 -26.16 27.84 0 0 7.65 -20.27 0 -1.2 13.25c0.85,-0.14 1.89,-0.31 3.13,-0.51 1.24,-0.19 2.75,-0.29 4.52,-0.29z"/>
 </g>
</svg>
