<?xml version="1.0" encoding="utf-8"?>
<!-- Generator: Adobe Illustrator 25.2.3, SVG Export Plug-In . SVG Version: 6.00 Build 0)  -->
<svg version="1.1" id="Ebene_1" xmlns="http://www.w3.org/2000/svg" xmlns:xlink="http://www.w3.org/1999/xlink" x="0px" y="0px"
	 viewBox="0 0 585.1 58" style="enable-background:new 0 0 585.1 58;" xml:space="preserve">
<style type="text/css">
	.st0{fill:#111111;}
	.st1{fill:#4CB944;}
</style>
<g>
	<path class="st0" d="M307.5,53c-3.1,0-5.5-1.5-7.5-3.6c-1.6-1.7-3-3.6-4.3-5.6c-1.8-2.7-3.3-5.5-5-8.3c-0.8-1.3-2-1.4-3-0.2
		c-4.3,5.5-8.6,11.1-12.9,16.6c-0.7,0.9-1.5,1.9-2.3,2.7c-0.9,0.9-2,1.2-3.3,1.1c-2-0.2-3-1.5-2.7-3.5c0.2-1.2,0.8-2.2,1.6-3.1
		c5.7-6.5,11.4-12.9,17.1-19.4c1.2-1.3,1.6-2.6,0.7-4.2c-1.3-2.6-2.4-5.2-3.5-7.8c-0.5-1-1.3-1.7-2.4-1.9c-0.7-0.2-1.4-0.2-2.1-0.3
		c-1.8-0.2-2.8-1.3-2.9-3.1c-0.2-3.4,3.3-5.6,6.7-4.3c2.8,1.1,4.7,3.2,6,5.9c0.8,1.7,1.5,3.4,2.4,5c1.2,2.4,2,2.5,3.8,0.5
		c4.5-4.8,8.9-9.7,13.4-14.5C312,0,317.4,2.7,319.2,8c0.3,0.9,0.3,1.9,0.2,2.9c-0.1,0.9-0.5,1.6-1.4,1.9c-0.9,0.3-1.5-0.3-2.2-0.9
		c-0.6-0.6-1.4-1.1-2.2-1.5c-1-0.4-2.2-0.3-3.1,0.4c-2.2,1.9-4.5,3.8-6.6,5.9c-2.6,2.6-5.1,5.5-7.6,8.3c-0.5,0.5-0.9,1.1-1.1,1.8
		c-0.2,0.7-0.3,1.5-0.1,2.2c2.4,5.5,5.2,10.9,9.2,15.4c0.6,0.7,1.4,1.3,2.1,1.9c1.5,1.3,3.3,1.4,4.9,0.5c1.5-0.9,2.8-2.1,4.1-3.3
		c1-1,1.8-2.2,2.8-3.3c0.3-0.3,0.7-0.4,1.1-0.6c0.1,0.4,0.4,0.8,0.3,1.2c-0.6,3.1-2.1,5.7-4.1,8c-1.8,2-4,3.5-6.8,3.9
		C308.3,52.9,307.9,52.9,307.5,53z"/>
	<path class="st0" d="M230,31.5c-0.3,0.5-0.6,1-1,1.4c-5.1,5.7-10.2,11.4-15.3,17c-0.8,0.9-1.8,1.8-2.8,2.6
		c-1.4,1.1-2.6,0.6-2.5-1.2c0.1-2.7,0.3-5.3,0.6-7.9c0.3-2.6,0.6-5.2,0.9-7.8c0-0.4,0.1-0.8,0-1.2c0-0.3-0.2-0.6-0.4-0.7
		c-0.2-0.1-0.6,0.1-0.8,0.3c-1,1.1-2,2.1-3,3.2c-4.2,4.7-8.4,9.5-12.7,14.2c-0.5,0.5-1,1.1-1.6,1.4c-1.1,0.7-2.2,0.4-2.7-0.7
		c-0.4-0.9-0.7-1.9-0.7-2.8c0.2-2.4,0.6-4.8,1-7.2c0.7-3.6,1.5-7.1,3.1-10.4c0.4-0.7,0.9-1.4,1.4-1.9c0.8-0.8,2-0.9,2.9-0.5
		c0.9,0.5,1.4,1.5,1.2,2.7c-0.1,0.7-0.5,1.3-0.7,1.9c-0.5,1.1-1.1,2.2-1.4,3.3c-0.4,1.3-0.7,2.7-0.9,4.1c-0.1,0.3,0.1,0.7,0.2,1
		c0.3-0.2,0.7-0.2,1-0.5c3.2-3.3,6.4-6.7,9.7-10c2.1-2.1,4.2-4.2,6.3-6.3c0.6-0.6,1.3-1.1,2-1.5c1.8-0.9,3.5-0.1,3.7,1.9
		c0.1,1.6-0.1,3.2-0.4,4.7c-0.6,3.3-1.4,6.5-2.1,9.7c0,0.2-0.1,0.4-0.1,0.5c0,0.4,0.1,0.9,0.1,1.3c0.5-0.2,1.1-0.3,1.4-0.6
		c3.5-3.8,6.9-7.6,10.3-11.4c3.2-3.5,6.5-7,9.8-10.5c0.3-0.3,0.7-0.6,1.1-0.9c0.9-0.6,1.8-0.8,2.7-0.2c1.1,0.7,1.6,1.7,1.6,3
		c0,0.3-0.2,0.6-0.4,0.8c-4.2,3.6-5.8,8.4-7,13.5c-0.7,2.7-1.2,5.5-1,8.3c0.2,2.8,2,3.9,4.6,2.9c2.5-1,4.5-2.6,6.5-4.3
		c3.7-3.1,7-6.6,9.9-10.4c0.4-0.5,0.8-1.3,1.6-0.9c0.8,0.4,0.4,1.3,0.1,1.8c-1.7,2.6-3.3,5.2-5.2,7.7c-3.1,4.1-6.8,7.7-11.4,10
		c-1.4,0.7-3,1.3-4.6,1.6c-2.3,0.5-4.1-0.6-5.4-2.6c-1.4-2.3-1.7-4.9-1.3-7.5c0.3-2.6,1-5.2,1.6-7.8c0.2-1.1,0.5-2.1,0.7-3.2
		C230.4,31.8,230.2,31.6,230,31.5z"/>
	<path class="st0" d="M337.1,16.8c0.7,0,1.3,0,1.9,0c0,8.9,0,17.7,0,26.6c-0.6,0-1.2,0-1.9,0C337.1,34.6,337.1,25.7,337.1,16.8z"/>
	<path class="st1" d="M265.6,14.7c1.4,0.1,2.9,1,2.9,2.6s-0.9,2.8-5.1,6.6s-4.2,4-5.2,4S260.5,14.3,265.6,14.7z"/>
	<path class="st0" d="M359.9,33.9l-2.1,6.4H355l6.9-20.3h3.2l6.9,20.3h-2.8l-2.2-6.4H359.9z M366.5,31.8l-2-5.8
		c-0.5-1.3-0.8-2.5-1.1-3.7h-0.1c-0.3,1.2-0.6,2.4-1,3.7l-2,5.9H366.5z"/>
	<path class="st0" d="M379.1,20v20.3h-2.6V20H379.1z"/>
	<path class="st0" d="M383.8,20.3c1.3-0.3,3.2-0.4,5-0.4c2.8,0,4.6,0.5,5.9,1.7c1,0.9,1.6,2.3,1.6,3.9c0,2.7-1.7,4.5-3.8,5.2v0.1
		c1.6,0.5,2.5,2,3,4.1c0.7,2.8,1.1,4.8,1.6,5.6h-2.7c-0.3-0.6-0.8-2.3-1.4-4.8c-0.6-2.8-1.7-3.9-4.1-3.9h-2.5v8.8h-2.6V20.3z
		 M386.4,29.5h2.7c2.8,0,4.6-1.5,4.6-3.9c0-2.6-1.9-3.8-4.7-3.8c-1.3,0-2.2,0.1-2.6,0.2V29.5z"/>
</g>
</svg>
