<?xml version="1.0" encoding="UTF-8"?>
<!DOCTYPE svg PUBLIC "-//W3C//DTD SVG 1.1//EN" "http://www.w3.org/Graphics/SVG/1.1/DTD/svg11.dtd">
<!-- Creator: CorelDRAW -->
<svg xmlns="http://www.w3.org/2000/svg" xml:space="preserve" width="206.423mm" height="20.4459mm" style="shape-rendering:geometricPrecision; text-rendering:geometricPrecision; image-rendering:optimizeQuality; fill-rule:evenodd; clip-rule:evenodd"
viewBox="0 0 205.349 20.3395"
 xmlns:xlink="http://www.w3.org/1999/xlink">
 <defs>
  <style type="text/css">
   <![CDATA[
    .fil0 {fill:white;fill-rule:nonzero}
   ]]>
  </style>
 </defs>
 <g id="Layer_x0020_1">
  <metadata id="CorelCorpID_0Corel-Layer"/>
  <path class="fil0" d="M11.2702 0.188216l5.63503 0 0.125245 0.12037 -11.3954 20.0309 -5.63503 0c0.397123,-0.888652 4.15557,-7.60582 11.2702,-20.1513zm21.5623 -0.0626722c2.09634,0 3.46577,0.527939 4.10891,1.58919 0.161854,0.297842 0.240343,0.62712 0.240343,0.98276l0 0.120072c0,0.961969 -0.794545,2.69749 -2.38891,5.21164 -3.9203,7.06197 -6.24663,11.1657 -6.98348,12.3103l-5.69283 0 0 -0.0625727 7.34976 -12.9846c0.203834,-0.387076 0.303015,-0.758234 0.303015,-1.10313l0 -0.182943c0,-0.533112 -0.386678,-0.799817 -1.16013,-0.799817l-6.68086 0c-5.64547,9.97881 -8.54113,15.0234 -8.69781,15.1331l-5.57246 0c0,-0.12037 1.89738,-3.49174 5.6977,-10.1095l5.81807 -10.1045 13.6587 0zm14.2288 0l8.51526 0c1.97069,0 3.25647,0.731972 3.85772,2.20596l0.0629707 0.486058c0,0.951623 -0.98276,2.99533 -2.94311,6.12666 -1.93926,3.49164 -4.10334,7.25018 -6.49225,11.2749l-0.245615 0.0577977 -5.20647 0 -0.12037 -0.12037 2.69232 -4.72011 0 -0.183043 -8.75601 0c-0.156681,0.156681 -1.11318,1.82963 -2.88014,5.02353l-0.308188 0.0625727 -5.26914 0 -0.0577977 -0.0625727 -0.0625727 0c5.57246,-9.82213 8.59893,-15.0705 9.06419,-15.7395 2.43039,-2.94311 5.14867,-4.41193 8.14918,-4.41193zm-5.81807 10.23l7.71545 0c0.857615,0 1.28617,-0.146335 1.28617,-0.428559 1.30696,-1.91857 1.95995,-3.08427 1.95995,-3.49214l0 -0.491231c-0.224426,-0.491529 -0.815236,-0.737145 -1.77173,-0.737145l-3.49174 0c-2.34195,0 -4.23963,1.7199 -5.6981,5.14907zm13.9674 -10.2926c2.19034,0 3.60176,0.653482 4.22371,1.95995l0.125543 0.737244 0 0.182943c0,0.867563 -0.779026,2.5616 -2.33151,5.0861 -4.56343,7.9925 -6.93125,12.0751 -7.10385,12.2477l-5.63503 0 2.75489 -5.02353 -8.69821 0c-0.161854,0.167126 -1.12392,1.83998 -2.88014,5.02353l-0.0573998 0.0625727 -5.76067 0 0 -0.0625727c5.59325,-9.84839 8.65633,-15.1594 9.18944,-15.9277 1.56322,-1.71473 2.80712,-2.75489 3.73765,-3.12048 1.17098,-0.643136 2.39935,-1.0143 3.67478,-1.10323l8.76078 -0.0625727zm-13.8469 10.2296l8.69821 0c1.46872,-2.28415 2.20596,-3.57023 2.20596,-3.85772l0 -0.245615c0,-0.653482 -0.695363,-0.98276 -2.08042,-0.98276l-2.88053 0c-2.26854,0 -4.00406,1.24947 -5.20607,3.73775 -0.491629,0.788974 -0.737145,1.23872 -0.737145,1.34835zm22.0068 -9.98398l5.51476 0 0.0576982 0.0625727 0.0626722 0 -8.57824 15.0079 6.43485 0c1.80884,0 3.50248,-1.65733 5.0861,-4.96095l5.7555 -10.1095 5.26904 0 0.120072 0.12037c-5.15394,9.53951 -8.05517,14.7879 -8.69821,15.7443 -2.25262,2.77568 -5.13315,4.16631 -8.63524,4.16631l-13.7217 0c0.0625727,-0.224824 3.06318,-5.57246 9.00679,-16.0477 1.30657,-2.37856 2.08032,-3.70622 2.32594,-3.98327zm22.5451 -0.183043l22.969 0 0 0.12047 -8.26965 4.96046 -11.7614 0c-0.0888354,0 -0.700437,1.02464 -1.8347,3.06318l8.08661 0 0 0.125543 -6.80083 3.9203 -3.73735 0c-1.00902,1.93966 -2.51972,4.61606 -4.5323,8.02403l-5.6977 0 0 -0.0625727 11.5783 -20.1514zm28.5151 0l0 0.12047 -8.63554 14.95 17.5168 0 0 0.120072 -8.76078 5.02343 -17.3338 0c0,-0.12037 1.83998,-3.38728 5.51466,-9.80094l5.93844 -10.3504 0.0626722 -0.0626722 5.6976 0zm16.2466 0.0626722l5.63503 0 0.125245 0.12037 -11.3953 20.0309 -5.63513 0c0.397123,-0.888652 4.15557,-7.60582 11.2702,-20.1513zm13.5698 -0.0626722l16.8478 0 0 0.12047 -8.45259 5.02343 -9.00679 0c-1.97069,0 -3.78958,1.65693 -5.45209,4.96056 -1.13427,1.7199 -1.74587,2.92192 -1.83998,3.61728l0 0.428559c0,0.538285 0.47044,0.867961 1.41142,0.977587l6.24663 0c0.104454,-0.0103459 0.674572,-0.987933 1.71473,-2.93793l-8.51517 0 0 -0.125145 6.80043 -3.85772 9.6184 0 0.0625727 0.0625727 0.0625727 0 -6.74303 11.9443 -14.4533 0c-2.53524,0 -3.80032,-0.836425 -3.80032,-2.50898 0,-1.17615 0.899098,-3.1365 2.69719,-5.88064 2.47267,-4.52712 4.22371,-7.40209 5.26904,-8.64081 2.32633,-2.1222 4.83531,-3.18355 7.5325,-3.18355zm22.8959 0l0 0.12047 -4.53747 7.96614 2.14856 0 6.54965 0.0574993 4.65754 -8.14411 5.51466 0 0.12037 0.12047 -11.3953 20.0935 -0.0577977 0 -5.63513 -0.0625727c0,-0.141162 1.46922,-2.77568 4.40675,-7.89849l0 -0.0629707 -8.63524 0 -4.59487 8.02403 -5.63513 0c0.27715,-0.621947 1.90812,-3.54396 4.90316,-8.76078l6.55004 -11.4532 5.6402 0zm32.8744 -0.125543l5.33171 0.0629707 0 0.125245 -8.33222 5.08123 -5.38951 0c-5.66617,10.0467 -8.5463,15.0701 -8.63524,15.0701l-5.698 0 0 -0.0625727 8.63564 -15.0705 -8.20668 0 0 -0.119973 8.45219 -5.0865 13.8421 0z"/>
 </g>
</svg>
