<?xml version="1.0" encoding="utf-8"?>
<!-- Generator: Adobe Illustrator 19.1.0, SVG Export Plug-In . SVG Version: 6.00 Build 0)  -->
<svg version="1.1" id="Ebene_1" xmlns="http://www.w3.org/2000/svg" xmlns:xlink="http://www.w3.org/1999/xlink" x="0px" y="0px"
	 viewBox="187 -6.2 658.6 67.9" style="enable-background:new 187 -6.2 658.6 67.9;" xml:space="preserve">
<style type="text/css">
	.st0{fill:#FFFFFF;}
	.st1{fill:#37A8DB;}
</style>
<g>
	<path class="st0" d="M269.1-0.8h1.6c0.7,0,0.9,0.2,0.9,1v53.6c0,0.8-0.2,1-0.9,1h-1.6c-0.8,0-1-0.2-1-1V0.2
		C268-0.6,268.3-0.8,269.1-0.8z"/>
	<path class="st0" d="M324.6,0.2v53.6c0,0.8-0.2,1-0.9,1h-1.6c-0.5,0-0.8-0.1-1.1-0.6l-27.8-39.7c-2.6-3.7-4.7-7.9-6.4-10.2h-0.2
		c0,3,0.5,8,0.5,12.9v36.5c0,0.8-0.2,1-0.9,1h-1.6c-0.8,0-1-0.2-1-1V0.2c0-0.8,0.2-1,1-1h1.6c0.6,0,0.9,0.3,1.1,0.5l27,38.7
		c2.9,4.2,5.3,8.5,7.2,11.2h0.2c0-3.4-0.5-8.7-0.5-14.1V0.1c0-0.7,0.2-0.9,1-0.9h1.6C324.3-0.8,324.6-0.6,324.6,0.2z"/>
	<path class="st0" d="M380,54.8h-1.4c-1.2,0-1.6-0.2-1.7-0.9l-7-17.3h-26L337,53.9c-0.2,0.7-0.6,0.9-1.8,0.9h-1.3
		c-0.8,0-0.9-0.4-0.7-0.9l21.7-54.2c0.3-0.7,0.6-0.9,1.3-0.9h1.6c0.7,0,1.1,0.2,1.3,0.9l21.7,54.2C381,54.4,380.9,54.8,380,54.8z
		 M357,2.4h-0.2c0,0.4-0.1,1.8-0.6,3.4l-11.1,27.8H369L357.8,5.7C357.2,4.2,357,2.8,357,2.4z"/>
	<path class="st0" d="M423,0.1l-20.9,53.8c-0.2,0.7-0.6,0.9-1.3,0.9h-1.5c-0.8,0-1.1-0.2-1.3-0.9L377,0.1c-0.2-0.5-0.1-0.9,0.6-0.9
		h1.5c1.2,0,1.5,0.2,1.7,0.9l17.4,45.1c0.7,2,1.3,4.2,1.7,5.3h0.2c0.4-1,0.9-3.2,1.6-5.3L419,0.1c0.2-0.7,0.6-0.9,1.7-0.9h1.5
		C423.2-0.8,423.3-0.5,423,0.1z"/>
</g>
<path class="st1" d="M222.2,40.4c0.1,0.1,0.2,0.2,0.4,0.2c0.1,0,0.3-0.1,0.4-0.2c0.8-0.9,2.5-2.8,4.2-5.1c2.1-3,4.6-7.3,4.6-11.2
	c0-5.1-4.1-9.2-9.2-9.2c-5.1,0-9.2,4.1-9.2,9.2c0,3.9,2.5,8.2,4.6,11.2C219.7,37.7,221.4,39.5,222.2,40.4L222.2,40.4z M222.6,18.4
	c3.1,0,5.6,2.5,5.6,5.6s-2.5,5.6-5.6,5.6S217,27.1,217,24S219.5,18.4,222.6,18.4L222.6,18.4z"/>
<g>
	<g>
		<g>
			<path class="st0" d="M208.8,9.2c0-1.8-1.4-3.2-3.2-3.2s-3.2,1.4-3.2,3.2s1.4,3.2,3.2,3.2c0.4,0,0.8-0.1,1.2-0.2l6.6,6.6l1.8-1.8
				l-6.6-6.6C208.7,10.1,208.8,9.7,208.8,9.2z"/>
			<path class="st0" d="M205.5-3.2c-6.9,0-12.5,5.6-12.5,12.5s5.6,12.5,12.5,12.5c1.8,0,3.5-0.4,5-1l-2-2c-1,0.3-2,0.5-3,0.5
				c-5.5,0-9.9-4.5-9.9-9.9s4.5-9.9,9.9-9.9c5.5,0,9.9,4.5,9.9,9.9c0,1.4-0.3,2.6-0.8,3.8l1.9,1.9c0.9-1.7,1.4-3.7,1.4-5.7
				C218,2.4,212.4-3.2,205.5-3.2z"/>
		</g>
		<g>
			<path class="st0" d="M236.4,9.2c0-1.8,1.4-3.2,3.2-3.2s3.2,1.4,3.2,3.2s-1.4,3.2-3.2,3.2c-0.4,0-0.8-0.1-1.2-0.2l-6.6,6.6L230,17
				l6.6-6.6C236.5,10.1,236.4,9.7,236.4,9.2z"/>
			<path class="st0" d="M239.6-3.2c6.9,0,12.5,5.6,12.5,12.5s-5.6,12.5-12.5,12.5c-1.8,0-3.5-0.4-5-1l2-2c1,0.3,2,0.5,3,0.5
				c5.5,0,9.9-4.5,9.9-9.9s-4.4-10.1-9.9-10.1s-9.9,4.5-9.9,9.9c0,1.4,0.3,2.6,0.8,3.8l-1.9,1.9c-0.9-1.7-1.4-3.7-1.4-5.7
				C227.2,2.4,232.8-3.2,239.6-3.2z"/>
		</g>
	</g>
	<g>
		<path class="st0" d="M208.8,44.3c0,1.8-1.4,3.2-3.2,3.2s-3.2-1.4-3.2-3.2s1.4-3.2,3.2-3.2c0.4,0,0.8,0.1,1.2,0.2l6.6-6.6l1.8,1.8
			l-6.6,6.6C208.7,43.5,208.8,43.9,208.8,44.3z"/>
		<path class="st0" d="M205.5,56.8c-6.9,0-12.5-5.6-12.5-12.5s5.6-12.5,12.5-12.5c1.8,0,3.5,0.4,5,1l-2,2c-1-0.3-2-0.5-3-0.5
			c-5.5,0-9.9,4.5-9.9,9.9s4.5,9.9,9.9,9.9c5.5,0,9.9-4.5,9.9-9.9c0-1.4-0.3-2.6-0.8-3.8l1.9-1.9c0.9,1.7,1.4,3.7,1.4,5.7
			C218,51.2,212.4,56.8,205.5,56.8z"/>
	</g>
	<g>
		<path class="st0" d="M236.4,44.3c0,1.8,1.4,3.2,3.2,3.2s3.2-1.4,3.2-3.2s-1.4-3.2-3.2-3.2c-0.4,0-0.8,0.1-1.2,0.2l-6.6-6.6
			l-1.8,1.8l6.6,6.6C236.5,43.5,236.4,43.9,236.4,44.3z"/>
		<path class="st0" d="M239.6,56.8c6.9,0,12.5-5.6,12.5-12.5s-5.6-12.5-12.5-12.5c-1.8,0-3.5,0.4-5,1l2,2c1-0.3,2-0.5,3-0.5
			c5.5,0,9.9,4.5,9.9,9.9s-4.5,9.9-9.9,9.9s-9.9-4.5-9.9-9.9c0-1.4,0.3-2.6,0.8-3.8l-1.9-1.9c-0.9,1.7-1.4,3.7-1.4,5.7
			C227.2,51.2,232.8,56.8,239.6,56.8z"/>
	</g>
</g>
<path class="st1" d="M383.5,42.8"/>
</svg>
