<?xml version="1.0" encoding="UTF-8"?>
<!DOCTYPE svg PUBLIC "-//W3C//DTD SVG 1.1//EN" "http://www.w3.org/Graphics/SVG/1.1/DTD/svg11.dtd">
<!-- Creator: CorelDRAW -->
<svg xmlns="http://www.w3.org/2000/svg" xml:space="preserve" width="232.348mm" height="23.9576mm" style="shape-rendering:geometricPrecision; text-rendering:geometricPrecision; image-rendering:optimizeQuality; fill-rule:evenodd; clip-rule:evenodd"
viewBox="0 0 235.053 24.2365"
 xmlns:xlink="http://www.w3.org/1999/xlink">
 <defs>
  <style type="text/css">
   <![CDATA[
    .fil0 {fill:#B3B3B3}
    .fil2 {fill:#06235F;fill-rule:nonzero}
    .fil1 {fill:#4689C8;fill-rule:nonzero}
   ]]>
  </style>
 </defs>
 <g id="Layer_x0020_1">
  <metadata id="CorelCorpID_0Corel-Layer"/>
  <g id="_285379256">
   <path id="_280758896" class="fil0" d="M13.3485 0.214164l6.94977 0 0.608603 0.58311 -13.3344 23.4392 -7.57244 0 0.343958 -0.769252c0.301671,-0.674562 0.720187,-1.3907 1.07537,-2.04078 0.821149,-1.503 1.65636,-2.99901 2.49238,-4.49371 3.07205,-5.4922 6.17567,-10.9678 9.27989,-16.4418l0.156906 -0.276785zm12.7649 6.80268c-2.36896,4.18739 -4.73883,8.37558 -7.13571,12.547 -0.625599,1.08863 -1.25201,2.17816 -1.89207,3.2584 -0.144058,0.243097 -0.651902,1.15924 -0.87507,1.31554l-0.141124 0.0987362 -7.05913 0 0 -0.546286c0,-0.256249 0.347499,-0.831771 0.469705,-1.05717 0.39798,-0.734452 0.807694,-1.46374 1.21731,-2.19182 1.60487,-2.85222 3.23624,-5.69099 4.86923,-8.52723l6.77779 -11.7713 15.8581 0c1.83552,0 4.14125,0.328379 5.14885,2.08236 0.244817,0.426002 0.346285,0.901474 0.346285,1.3904l0 0.136774c0,0.809212 -0.42236,1.79536 -0.76298,2.51696 -0.594137,1.25879 -1.3213,2.49572 -2.03188,3.69229 -1.85606,3.12496 -3.65577,6.27855 -5.40935,9.46208 -0.532528,0.966826 -1.05969,1.93669 -1.59293,2.90311 -0.304302,0.551446 -0.613965,1.1299 -0.954787,1.65919l-0.161256 0.250584 -7.32175 0 0 -0.761564 8.43395 -14.9002c0.17117,-0.30238 0.274054,-0.636929 0.274054,-0.985946l0 -0.208196c0,-0.0572589 -0.00667683,-0.132727 -0.0404657,-0.181691 -0.111584,-0.162065 -0.566013,-0.182095 -0.733743,-0.182095l-7.28301 0zm24.7256 16.6101l-0.0534147 -0.0535158 2.15429 -3.77727 0.738802 -1.3472 -8.69607 0c-0.0587764,0.093071 -0.115732,0.192616 -0.162874,0.270513 -0.221347,0.366012 -0.435309,0.737486 -0.647956,1.10876 -0.769151,1.34326 -1.51938,2.69916 -2.26719,4.05446l-0.031462 0.0570566 -0.271929 0.296714 -7.34138 0 0 -0.761867 0.0711184 -0.125444c2.43644,-4.29442 4.86144,-8.59652 7.31346,-12.882 0.67173,-1.17391 1.34457,-2.34954 2.03633,-3.51181 0.204352,-0.343452 0.410625,-0.687107 0.624891,-1.02449 0.119778,-0.18857 0.252202,-0.401015 0.395552,-0.572184l0.00829546 -0.00991408c0.0426913,-0.0510879 0.0773906,-0.132828 0.126152,-0.194134 0.310877,-0.390089 0.664244,-0.718468 1.01255,-1.07183 0.0810325,-0.0821453 0.162672,-0.163886 0.24502,-0.244817 0.900765,-0.885085 2.02531,-1.84331 3.17777,-2.38333 0.0636322,-0.0297423 0.125747,-0.0676788 0.188266,-0.100254 1.31604,-0.683768 2.73507,-1.20092 4.23402,-1.21164l9.96892 -0.0713207c2.08327,-0.0148711 4.33013,0.497424 5.30323,2.54195l0.0325748 0.0684881 0.163178 0.958834 0 0.254327c0,1.54033 -1.95115,4.7534 -2.72921,6.066 -2.01792,3.40458 -4.00701,6.82514 -5.96545,10.2643 -0.506832,0.889941 -1.01022,1.7819 -1.51857,2.67094 -0.141832,0.248054 -0.488825,0.914726 -0.683161,1.10886l-0.15994 0.15994 -7.56101 0 0.295197 -0.538092zm6.55291 -11.9152c0.0241782,-0.00586752 0.0515937,-0.0130502 0.0772894,-0.0211433l0 -0.0174002 0.0947908 -0.139101c0.476685,-0.699651 0.951145,-1.41033 1.38443,-2.1377l0.0138595 -0.0232677c0.0584729,-0.0982304 0.116035,-0.196967 0.173395,-0.295804l0.0102176 -0.0177037c0.123623,-0.212748 0.540318,-0.950437 0.553772,-1.19283l0 -0.418718c-0.0864953,-0.127973 -0.214569,-0.210017 -0.365202,-0.266062 -0.396462,-0.147598 -0.965308,-0.165201 -1.38443,-0.165201l-3.27741 0c-2.65242,0 -4.24272,1.78585 -5.44577,3.97009 -0.134144,0.243603 -0.27203,0.484475 -0.411232,0.724841l8.57629 0zm22.1402 -11.2894l0.772388 0 -9.76072 17.0768 6.38062 0c0.135155,0 0.269906,-0.0107234 0.403341,-0.0323725 2.08499,-0.338293 3.9714,-3.68855 4.90939,-5.33631l6.70587 -11.7796 6.53965 0 0.584627 0.584627 -0.193527 0.358121c-2.27781,4.21602 -4.54935,8.4377 -6.85782,12.6369 -0.657162,1.19525 -1.31675,2.39142 -1.99637,3.57403 -0.328176,0.571071 -0.693885,1.24118 -1.08478,1.76977 -2.5112,3.39527 -6.09028,4.9621 -10.2654,4.9621l-16.3335 0 0.193628 -0.693177c0.0399598,-0.143248 0.160952,-0.348409 0.232779,-0.480732 0.166617,-0.307438 0.337787,-0.612852 0.508754,-0.917862 0.647855,-1.1562 1.30218,-2.30897 1.95469,-3.46254 2.54529,-4.49998 5.08107,-9.00492 7.60147,-13.5189 0.590697,-1.05767 1.17998,-2.11848 1.78747,-3.16664 0.243704,-0.420337 0.608806,-1.10228 0.927675,-1.46192l0.162975 -0.183815 6.7613 0 0.0654532 0.0714219zm104.765 -0.279618l7.28119 0 0 0.827826 -4.76938 8.37386 1.50856 0 7.13389 0.0626206 5.29827 -9.26431 6.81846 0 0.590596 0.591102 -1.63653 2.88561 6.01522 -3.61945 15.9069 0 6.60845 0.0777952 0 0.989385 -9.87402 6.02109 -5.96686 0c-2.36926,4.20084 -4.74005,8.40209 -7.13814,12.5865 -0.616899,1.07629 -1.2344,2.15358 -1.86557,3.22157 -0.161357,0.273042 -0.323422,0.546994 -0.491759,0.815889 -0.153162,0.244514 -0.302885,0.524233 -0.649777,0.524233l-7.02969 0 0 -0.763182 9.42981 -16.4565 -6.87127 0 -9.76558 17.2197 -0.388268 0 -6.95372 -0.0774917 0 -0.540216c0,-0.243806 0.262824,-0.692367 0.376836,-0.907847 0.30673,-0.579468 0.626509,-1.15368 0.945885,-1.72626 1.09733,-1.96714 2.21549,-3.92406 3.33568,-5.87845l-8.60745 0 -5.22836 9.13026 -7.56991 0 0.342238 -0.768544c0.158018,-0.354884 0.360448,-0.716343 0.545477,-1.05828 0.363786,-0.672741 0.736778,-1.34103 1.11058,-2.00821 1.30239,-2.32445 2.62531,-4.63838 3.94803,-6.95139l6.5435 -11.4422 -8.54817 5.08036 -10.3987 0c-0.171676,0 -0.342946,0.0138595 -0.512295,0.0419831 -2.27437,0.377646 -4.17201,3.52132 -5.21875,5.33003 -0.124128,0.214367 -0.250584,0.427722 -0.37805,0.640774l6.38133 -3.61985 11.3151 0 0.0713207 0.0714219 0.780684 0 -8.28979 14.6839 -16.7654 0c-2.28449,0 -4.87055,-0.615584 -4.87055,-3.40134 0,-0.942142 0.468795,-2.04503 0.868696,-2.88308 0.665559,-1.39485 1.48377,-2.76401 2.27822,-4.08936 1.24867,-2.08307 2.42996,-4.19669 3.64565,-6.29767 0.42145,-0.728382 0.849678,-1.4596 1.31018,-2.164 0.329492,-0.504 0.696717,-1.0338 1.11483,-1.4684 2.41671,-2.51201 5.49696,-3.78991 8.96476,-3.78991l19.3176 0zm-19.8335 17.2137c0.160649,-0.22853 0.35539,-0.592215 0.460803,-0.776738 0.277999,-0.486701 0.547905,-0.97937 0.81427,-1.47346l-8.74149 0c-0.184625,0.337686 -0.464849,0.885085 -0.464849,1.19647l0 0.487712c0,0.482958 0.711993,0.566013 1.05969,0.566013l6.87157 0zm-42.2916 -0.065352l17.4111 0c3.13609,-5.61299 6.30859,-11.2072 9.48019,-16.8001l0.156906 -0.276785 6.94977 0 0.608603 0.58311 -13.3344 23.4392 -7.57244 0 0.343958 -0.769353c0.222865,-0.498334 0.519377,-1.0164 0.779672,-1.49713 0.25807,-0.476685 0.518466,-0.952157 0.780077,-1.42692l-6.44132 3.6934 -20.4155 0 0 -0.546286c0,-0.254529 0.336573,-0.81083 0.457869,-1.03471 0.385941,-0.711993 0.783213,-1.41893 1.18018,-2.12475 1.55418,-2.7635 3.13184,-5.51496 4.70959,-8.26501l5.52801 -9.63497 -7.31194 4.38607 -13.2921 0c-0.17117,0.240265 -0.373498,0.609312 -0.491759,0.809819 -0.308753,0.523524 -0.609919,1.05261 -0.907746,1.58322l8.81736 0 0 1.00466 -8.13855 4.69169 -4.06801 0c-1.57118,2.99719 -3.29825,5.95007 -5.01754,8.86178l-0.158524 0.26849 -7.34158 0 0 -0.763486 13.4052 -23.3303 33.3091 0 0 0.829647 -9.42607 16.3187z"/>
  </g>
  <g id="_285379208">
   <path id="_285378680" class="fil1" d="M13.6668 0.760451l6.41198 0 0.142743 0.136774 -12.9668 22.793 -6.41198 0c0.452102,-1.01114 4.72871,-8.65439 12.8241,-22.9298zm24.5356 -0.0714219c2.38525,0 3.94358,0.600814 4.6752,1.80821 0.184422,0.339102 0.273649,0.713814 0.273649,1.11827l0 0.136774c0,1.09449 -0.904104,3.06922 -2.71828,5.93024 -4.46103,8.03587 -7.10799,12.7051 -7.94664,14.0077l-6.47744 0 0 -0.0714219 8.36304 -14.7749c0.231969,-0.440165 0.34497,-0.862525 0.34497,-1.25504l0 -0.208196c0,-0.606681 -0.440165,-0.910072 -1.3205,-0.910072l-7.60157 0c-6.42392,11.3549 -9.71914,17.0947 -9.89759,17.2197l-6.34066 0c0,-0.136774 2.15915,-3.97332 6.48341,-11.5036l6.62018 -11.4976 15.5422 0zm16.1907 0l9.6894 0c2.2424,0 3.70564,0.832783 4.38961,2.51008l0.0714219 0.553165c0,1.08256 -1.11827,3.40822 -3.34873,6.97112 -2.20679,3.97332 -4.66923,8.25004 -7.38751,12.83l-0.279618 0.065352 -5.92427 0 -0.136774 -0.136774 3.06325 -5.37111 0 -0.208196 -9.96295 0c-0.178454,0.178454 -1.26698,2.08186 -3.27741,5.71608l-0.350938 0.0714219 -5.99569 0 -0.065352 -0.0714219 -0.0714219 0c6.34066,-11.1764 9.78459,-17.1482 10.314,-17.9096 2.76583,-3.34873 5.85882,-5.02017 9.27301,-5.02017zm-6.62018 11.6403l8.77933 0c0.975425,0 1.46324,-0.166516 1.46324,-0.487712 1.48701,-2.18292 2.23047,-3.50938 2.23047,-3.97332l0 -0.559134c-0.255743,-0.559033 -0.927877,-0.838651 -2.0164,-0.838651l-3.97332 0c-2.66466,0 -4.82381,1.95692 -6.48331,5.85882zm15.8932 -11.7117c2.49228,0 4.09826,0.743455 4.806,2.23047l0.142743 0.838651 0 0.208196c0,0.987463 -0.886198,2.91454 -2.65283,5.7875 -5.19265,9.09455 -7.88706,13.74 -8.08342,13.9363l-6.41198 0 3.13467 -5.71608 -9.89759 0c-0.184422,0.190391 -1.27882,2.09379 -3.27741,5.71608l-0.0654532 0.0714219 -6.55473 0 0 -0.0714219c6.36444,-11.2062 9.84995,-17.2493 10.4567,-18.1237 1.77847,-1.95105 3.19405,-3.13467 4.25284,-3.55106 1.33233,-0.731619 2.73012,-1.15388 4.18152,-1.25504l9.96892 -0.0713207zm-15.7564 11.6403l9.89759 0c1.67133,-2.59931 2.51008,-4.06255 2.51008,-4.38971l0 -0.279516c0,-0.743556 -0.791103,-1.11827 -2.36734,-1.11827l-3.27741 0c-2.58141,0 -4.55623,1.42156 -5.92427,4.25284 -0.559134,0.898236 -0.838651,1.40972 -0.838651,1.53466zm25.0414 -11.3608l6.27521 0 0.0654532 0.0714219 0.0713207 0 -9.76072 17.0768 7.32206 0c2.05798,0 3.98516,-1.8855 5.7875,-5.64465l6.54876 -11.5036 5.99569 0 0.136774 0.136774c-5.86479,10.8552 -9.16598,16.8271 -9.89759,17.9156 -2.5636,3.15845 -5.84101,4.74065 -9.82617,4.74065l-15.6137 0c0.0714219,-0.255743 3.48561,-6.34066 10.2485,-18.2605 1.48701,-2.70634 2.36734,-4.21723 2.64686,-4.53246z"/>
   <path id="_285374912" class="fil2" d="M98.6051 0.689029l26.1358 0 0 0.136875 -9.40988 5.64465 -13.3831 0c-0.101164,0 -0.797072,1.16582 -2.08783,3.48561l9.20169 0 0 0.142743 -7.73845 4.46103 -4.25284 0c-1.14801,2.20669 -2.86699,5.25214 -5.15694,9.13026l-6.48341 0 0 -0.0714219 13.175 -22.9298zm32.4467 0l0 0.136875 -9.82617 17.0115 19.9319 0 0 0.136774 -9.96892 5.71608 -19.7238 0c0,-0.136774 2.09369,-3.85435 6.27521,-11.1526l6.75695 -11.7771 0.0714219 -0.0714219 6.48341 0zm18.4866 0.0714219l6.41198 0 0.142743 0.136774 -12.9668 22.793 -6.41198 0c0.452102,-1.01114 4.72871,-8.65439 12.8241,-22.9298zm15.4411 -0.0714219l19.1706 0 0 0.136875 -9.61798 5.71608 -10.2485 0c-2.2424,0 -4.31232,1.8855 -6.20389,5.64465 -1.29065,1.95692 -1.98656,3.32496 -2.09369,4.11606l0 0.487712c0,0.61265 0.535361,0.987463 1.60598,1.1123l7.10799 0c0.118969,-0.0118362 0.767229,-1.12414 1.95095,-3.34277l-9.6894 0 0 -0.142743 7.73845 -4.38971 10.9444 0 0.0713207 0.0714219 0.0714219 0 -7.673 13.5913 -16.4465 0c-2.8848,0 -4.32426,-0.951651 -4.32426,-2.85505 0,-1.3383 1.02307,-3.56887 3.06922,-6.6916 2.81348,-5.15097 4.806,-8.42242 5.99569,-9.83214 2.64686,-2.41489 5.50191,-3.62238 8.57113,-3.62238zm26.0525 0l0 0.136875 -5.16291 9.06481 2.44473 0 7.45286 0.0654532 5.29979 -9.26714 6.27521 0 0.136774 0.136875 -12.9668 22.8643 -0.0654532 0 -6.41198 -0.0714219c0,-0.160547 1.67143,-3.15834 5.0142,-8.98752l0 -0.0713207 -9.82617 0 -5.22836 9.13026 -6.41198 0c0.315227,-0.707845 2.17108,-4.03281 5.5793,-9.96892l7.45286 -13.0323 6.41795 0zm37.4075 -0.142743l6.06702 0.0714219 0 0.142743 -9.4812 5.78153 -6.13247 0c-6.4477,11.4322 -9.72511,17.1482 -9.82617,17.1482l-6.48341 0 0 -0.0714219 9.82617 -17.1482 -9.33846 0 0 -0.136774 9.61808 -5.7875 15.7504 0z"/>
  </g>
 </g>
</svg>
