<?xml version="1.0" encoding="utf-8"?>
<!-- Generator: Adobe Illustrator 25.2.3, SVG Export Plug-In . SVG Version: 6.00 Build 0)  -->
<svg version="1.1"
	 id="svg4057" xmlns:cc="http://creativecommons.org/ns#" xmlns:dc="http://purl.org/dc/elements/1.1/" xmlns:inkscape="http://www.inkscape.org/namespaces/inkscape" xmlns:rdf="http://www.w3.org/1999/02/22-rdf-syntax-ns#" xmlns:sodipodi="http://sodipodi.sourceforge.net/DTD/sodipodi-0.dtd" xmlns:svg="http://www.w3.org/2000/svg"
	 xmlns="http://www.w3.org/2000/svg" xmlns:xlink="http://www.w3.org/1999/xlink" x="0px" y="0px" viewBox="0 0 239.9 62.3"
	 style="enable-background:new 0 0 239.9 62.3;" xml:space="preserve">
<style type="text/css">
	.st0{opacity:0.2;}
	.st1{fill:#111111;}
	.st2{fill:#4CB944;}
</style>
<sodipodi:namedview  bordercolor="#666666" borderlayer="false" borderopacity="1.0" fit-margin-bottom="0" fit-margin-left="0" fit-margin-right="0" fit-margin-top="0" id="base" inkscape:current-layer="layer1" inkscape:cx="271.31351" inkscape:cy="-40.407035" inkscape:document-units="px" inkscape:pageopacity="0.0" inkscape:pageshadow="2" inkscape:showpageshadow="false" inkscape:window-height="666" inkscape:window-maximized="0" inkscape:window-width="1011" inkscape:window-x="2360" inkscape:window-y="241" inkscape:zoom="1.4" pagecolor="#ffffff" showborder="true" showgrid="true" showguides="false">
	<inkscape:grid  id="grid4093" originx="-10.04131" originy="-961.96023" type="xygrid"></inkscape:grid>
</sodipodi:namedview>
<g class="st0">
	<path class="st1" d="M136.9,56.3c-3.2,0-5.8-1.6-7.8-3.8c-1.7-1.8-3.2-3.8-4.5-5.9c-1.9-2.8-3.5-5.8-5.2-8.7
		c-0.8-1.4-2.1-1.5-3.1-0.3c-4.5,5.8-9,11.6-13.5,17.4c-0.8,1-1.6,2-2.5,2.8c-0.9,0.9-2.1,1.3-3.5,1.1c-2.1-0.3-3.1-1.6-2.9-3.6
		c0.2-1.3,0.9-2.3,1.7-3.3c6-6.8,11.9-13.6,18-20.3c1.2-1.4,1.6-2.7,0.8-4.4c-1.3-2.7-2.5-5.5-3.7-8.2c-0.5-1.1-1.3-1.7-2.5-2
		c-0.7-0.2-1.5-0.2-2.2-0.3c-1.8-0.2-2.9-1.4-3-3.2c-0.2-3.6,3.4-5.9,7-4.5c3,1.1,5,3.4,6.3,6.2c0.9,1.7,1.6,3.5,2.5,5.3
		c1.3,2.6,2.1,2.6,4,0.6c4.7-5.1,9.3-10.2,14.1-15.2c4.9-5.2,10.5-2.3,12.4,3.2c0.3,0.9,0.3,2,0.2,3c-0.1,0.9-0.5,1.7-1.5,2
		c-1,0.3-1.6-0.3-2.3-0.9c-0.7-0.6-1.5-1.2-2.3-1.5c-1.1-0.5-2.3-0.3-3.2,0.5c-2.4,2-4.8,4-7,6.2c-2.8,2.8-5.3,5.7-8,8.7
		c-0.5,0.6-1,1.2-1.2,1.9c-0.2,0.7-0.3,1.6-0.1,2.3c2.5,5.8,5.4,11.4,9.6,16.2c0.7,0.7,1.5,1.4,2.2,2c1.6,1.3,3.5,1.5,5.2,0.5
		c1.6-0.9,3-2.2,4.3-3.5c1.1-1,1.9-2.3,2.9-3.5c0.3-0.3,0.7-0.4,1.1-0.6c0.1,0.4,0.4,0.9,0.3,1.3c-0.6,3.2-2.2,6-4.4,8.4
		c-1.9,2.1-4.2,3.7-7.1,4.1C137.7,56.3,137.3,56.3,136.9,56.3z"/>
	<path class="st1" d="M55.5,33.8c-0.3,0.5-0.6,1-1,1.5c-5.3,6-10.7,11.9-16.1,17.9c-0.9,1-1.9,1.9-2.9,2.7c-1.5,1.2-2.7,0.7-2.6-1.2
		c0.1-2.8,0.3-5.6,0.6-8.3c0.3-2.7,0.7-5.5,1-8.2c0-0.4,0.1-0.8,0-1.2c0-0.3-0.2-0.7-0.4-0.8c-0.2-0.1-0.6,0.1-0.8,0.3
		c-1.1,1.1-2.1,2.2-3.1,3.4c-4.4,5-8.8,10-13.3,14.9c-0.5,0.6-1,1.1-1.7,1.5c-1.1,0.7-2.3,0.5-2.9-0.7c-0.4-0.9-0.8-2-0.7-3
		c0.2-2.5,0.6-5,1.1-7.5c0.7-3.7,1.6-7.4,3.3-10.9c0.4-0.7,0.9-1.4,1.5-2c0.9-0.9,2.1-1,3-0.5c1,0.5,1.5,1.6,1.3,2.8
		c-0.1,0.7-0.5,1.3-0.8,2c-0.5,1.2-1.1,2.3-1.5,3.5c-0.4,1.4-0.7,2.9-1,4.3c-0.1,0.3,0.1,0.7,0.2,1.1c0.3-0.2,0.8-0.3,1-0.5
		c3.4-3.5,6.7-7,10.1-10.5c2.2-2.2,4.4-4.4,6.6-6.6c0.6-0.6,1.4-1.1,2.1-1.5c1.9-1,3.7-0.1,3.8,2c0.1,1.6-0.1,3.3-0.5,4.9
		c-0.7,3.4-1.5,6.8-2.2,10.2c0,0.2-0.1,0.4-0.1,0.6c0,0.5,0.1,0.9,0.2,1.4c0.5-0.2,1.1-0.3,1.4-0.7c3.6-3.9,7.2-8,10.8-11.9
		c3.4-3.7,6.8-7.4,10.3-11c0.3-0.4,0.8-0.6,1.2-0.9c0.9-0.6,1.8-0.8,2.8-0.2c1.1,0.8,1.7,1.8,1.6,3.2c0,0.3-0.2,0.7-0.5,0.9
		c-4.4,3.7-6,8.8-7.3,14.1c-0.7,2.9-1.2,5.8-1,8.8c0.2,2.9,2.1,4.1,4.8,3c2.6-1,4.7-2.7,6.8-4.5c3.9-3.2,7.3-6.9,10.4-10.9
		c0.4-0.5,0.9-1.3,1.6-0.9c0.8,0.5,0.4,1.4,0.1,1.9c-1.7,2.7-3.4,5.5-5.4,8c-3.3,4.3-7.1,8-12,10.5c-1.5,0.8-3.2,1.3-4.9,1.7
		c-2.5,0.5-4.3-0.6-5.6-2.7c-1.4-2.4-1.7-5.1-1.4-7.8c0.4-2.8,1.1-5.5,1.7-8.2c0.2-1.1,0.5-2.2,0.8-3.3C56,34.1,55.8,33.9,55.5,33.8
		z"/>
	<path class="st1" d="M168,18.4c0.7,0,1.3,0,2,0c0,9.3,0,18.6,0,27.9c-0.7,0-1.3,0-2,0C168,37,168,27.7,168,18.4z"/>
	<path class="st2" d="M92.9,16.1c1.5,0.1,3.1,1.1,3.1,2.7c0,1.6-1,2.9-5.4,6.9s-4.5,4.2-5.5,4.2S87.6,15.8,92.9,16.1z"/>
	<path class="st1" d="M189.7,36.3l-2.2,6.7h-2.8l7.2-21.3h3.3l7.3,21.3h-2.9l-2.3-6.7H189.7z M196.7,34.1l-2.1-6.1
		c-0.5-1.4-0.8-2.7-1.1-3.9h-0.1c-0.3,1.3-0.7,2.6-1.1,3.9l-2.1,6.2H196.7z"/>
	<path class="st1" d="M209.6,21.7v21.3h-2.7V21.7H209.6z"/>
	<path class="st1" d="M214.4,22c1.4-0.3,3.4-0.4,5.3-0.4c2.9,0,4.8,0.5,6.2,1.7c1.1,0.9,1.7,2.4,1.7,4c0,2.8-1.8,4.7-4,5.4v0.1
		c1.6,0.6,2.6,2.1,3.1,4.3c0.7,3,1.2,5,1.6,5.8h-2.8c-0.3-0.6-0.8-2.4-1.4-5.1c-0.6-2.9-1.8-4-4.3-4.1h-2.6V43h-2.7V22z M217.1,31.7
		h2.8c2.9,0,4.8-1.6,4.8-4c0-2.7-2-3.9-4.9-4c-1.3,0-2.3,0.1-2.7,0.3V31.7z"/>
</g>
</svg>
