<?xml version="1.0" encoding="utf-8"?>
<!-- Generator: Adobe Illustrator 19.1.0, SVG Export Plug-In . SVG Version: 6.00 Build 0)  -->
<svg version="1.1"
	 id="svg4057" xmlns:sodipodi="http://sodipodi.sourceforge.net/DTD/sodipodi-0.dtd" xmlns:dc="http://purl.org/dc/elements/1.1/" xmlns:cc="http://creativecommons.org/ns#" xmlns:svg="http://www.w3.org/2000/svg" xmlns:inkscape="http://www.inkscape.org/namespaces/inkscape" xmlns:rdf="http://www.w3.org/1999/02/22-rdf-syntax-ns#" inkscape:version="0.91 r13725" sodipodi:docname="light-wide-1.svg"
	 xmlns="http://www.w3.org/2000/svg" xmlns:xlink="http://www.w3.org/1999/xlink" x="0px" y="0px" viewBox="-1129 69.7 239.9 62.3"
	 style="enable-background:new -1129 69.7 239.9 62.3;" xml:space="preserve">
<style type="text/css">
	.st0{opacity:0.2;}
	.st1{fill:#58585A;}
	.st2{opacity:0.2;fill:#37A8DB;}
</style>
<sodipodi:namedview  id="base" borderlayer="false" inkscape:cx="271.31351" inkscape:zoom="1.4" showguides="false" showborder="true" fit-margin-top="0" borderopacity="1.0" pagecolor="#ffffff" inkscape:cy="-40.407035" showgrid="true" bordercolor="#666666" fit-margin-left="0" inkscape:window-maximized="0" inkscape:window-y="241" inkscape:window-x="2360" fit-margin-bottom="0" inkscape:current-layer="layer1" inkscape:pageopacity="0.0" fit-margin-right="0" inkscape:window-height="666" inkscape:document-units="px" inkscape:pageshadow="2" inkscape:window-width="1011" inkscape:showpageshadow="false">
	<inkscape:grid  type="xygrid" id="grid4093" originx="-10.04131" originy="-961.96023"></inkscape:grid>
</sodipodi:namedview>
<g class="st0">
	<path class="st1" d="M-1044.8,75.5h1.5c0.7,0,0.9,0.2,0.9,1v50.3c0,0.7-0.2,1-0.9,1h-1.5c-0.7,0-1-0.2-1-1V76.4
		C-1045.8,75.7-1045.5,75.5-1044.8,75.5z"/>
	<path class="st1" d="M-992.8,76.4v50.3c0,0.7-0.2,1-0.9,1h-1.5c-0.5,0-0.7-0.1-1-0.6l-26.1-37.2c-2.4-3.5-4.4-7.4-6-9.6h-0.1
		c0,2.8,0.4,7.5,0.4,12.1v34.3c0,0.7-0.2,1-0.9,1h-1.5c-0.7,0-1-0.2-1-1V76.4c0-0.7,0.2-1,1-1h1.5c0.6,0,0.9,0.3,1,0.5l25.4,36.3
		c2.7,3.9,5,8,6.8,10.5h0.1c0-3.2-0.5-8.2-0.5-13.2V76.3c0-0.7,0.2-0.9,1-0.9h1.5C-993,75.5-992.8,75.7-992.8,76.4z"/>
	<path class="st1" d="M-940.7,127.7h-1.3c-1.1,0-1.5-0.1-1.6-0.8l-6.5-16.3h-24.4l-6.5,16.3c-0.2,0.7-0.6,0.8-1.7,0.8h-1.2
		c-0.7,0-0.9-0.4-0.7-0.9l20.4-50.8c0.3-0.7,0.6-0.9,1.2-0.9h1.5c0.7,0,1,0.2,1.2,0.9l20.4,50.8
		C-939.8,127.3-939.9,127.7-940.7,127.7z M-962.4,78.5h-0.2c0,0.4-0.1,1.7-0.6,3.2l-10.4,26.1h22.4l-10.4-26.1
		C-962.1,80.2-962.3,78.8-962.4,78.5z"/>
	<path class="st1" d="M-900.4,76.3l-19.6,50.4c-0.2,0.7-0.6,0.9-1.3,0.9h-1.4c-0.7,0-1-0.2-1.3-0.8l-19.6-50.5
		c-0.2-0.5-0.1-0.9,0.6-0.9h1.4c1.1,0,1.4,0.1,1.6,0.8l16.3,42.3c0.7,1.8,1.3,4,1.6,4.9h0.2c0.4-1,0.9-3,1.5-4.9l16.2-42.3
		c0.2-0.7,0.6-0.8,1.6-0.8h1.4C-900.3,75.5-900.2,75.8-900.4,76.3z"/>
</g>
<path class="st2" d="M-1088.8,114.2c0.1,0.1,0.2,0.2,0.4,0.2c0.1,0,0.3-0.1,0.4-0.2c0.8-0.8,2.4-2.6,3.9-4.8c2-2.8,4.3-6.9,4.3-10.5
	c0-4.8-3.9-8.6-8.6-8.6c-4.8,0-8.6,3.9-8.6,8.6c0,3.6,2.4,7.7,4.3,10.5C-1091.1,111.6-1089.6,113.3-1088.8,114.2L-1088.8,114.2z
	 M-1088.4,93.5c2.9,0,5.3,2.4,5.3,5.3c0,2.9-2.4,5.3-5.3,5.3c-2.9,0-5.3-2.4-5.3-5.3C-1093.7,95.9-1091.3,93.5-1088.4,93.5
	L-1088.4,93.5z M-1088.4,93.5"/>
<g class="st0">
	<g>
		<g>
			<path class="st1" d="M-1101.4,84.9c0-1.7-1.4-3-3-3c-1.7,0-3,1.4-3,3c0,1.7,1.4,3,3,3c0.4,0,0.8-0.1,1.1-0.2l6.2,6.2l1.7-1.7
				l-6.2-6.2C-1101.5,85.7-1101.4,85.3-1101.4,84.9z"/>
			<path class="st1" d="M-1104.4,73.2c-6.5,0-11.7,5.2-11.7,11.7s5.2,11.7,11.7,11.7c1.7,0,3.2-0.4,4.7-1l-1.8-1.8
				c-0.9,0.3-1.8,0.4-2.8,0.4c-5.1,0-9.3-4.2-9.3-9.3s4.2-9.3,9.3-9.3c5.1,0,9.3,4.2,9.3,9.3c0,1.3-0.3,2.5-0.7,3.6l1.8,1.8
				c0.8-1.6,1.3-3.4,1.3-5.4C-1092.7,78.5-1097.9,73.2-1104.4,73.2z"/>
		</g>
		<g>
			<path class="st1" d="M-1075.4,84.9c0-1.7,1.4-3,3-3c1.7,0,3,1.4,3,3c0,1.7-1.4,3-3,3c-0.4,0-0.8-0.1-1.1-0.2l-6.2,6.2l-1.7-1.7
				l6.2-6.2C-1075.4,85.7-1075.4,85.3-1075.4,84.9z"/>
			<path class="st1" d="M-1072.4,73.2c6.5,0,11.7,5.2,11.7,11.7s-5.2,11.7-11.7,11.7c-1.7,0-3.2-0.4-4.7-1l1.8-1.8
				c0.9,0.3,1.8,0.4,2.8,0.4c5.1,0,9.3-4.2,9.3-9.3s-4.2-9.3-9.3-9.3c-5.1,0-9.3,4.2-9.3,9.3c0,1.3,0.3,2.5,0.7,3.6l-1.8,1.8
				c-0.8-1.6-1.3-3.4-1.3-5.4C-1084.1,78.5-1078.9,73.2-1072.4,73.2z"/>
		</g>
	</g>
	<g>
		<path class="st1" d="M-1101.4,117.8c0,1.7-1.4,3-3,3c-1.7,0-3-1.4-3-3c0-1.7,1.4-3,3-3c0.4,0,0.8,0.1,1.1,0.2l6.2-6.2l1.7,1.7
			l-6.2,6.2C-1101.5,117.1-1101.4,117.5-1101.4,117.8z"/>
		<path class="st1" d="M-1104.4,129.5c-6.5,0-11.7-5.2-11.7-11.7s5.2-11.7,11.7-11.7c1.7,0,3.2,0.4,4.7,1l-1.8,1.8
			c-0.9-0.3-1.8-0.4-2.8-0.4c-5.1,0-9.3,4.2-9.3,9.3c0,5.1,4.2,9.3,9.3,9.3c5.1,0,9.3-4.2,9.3-9.3c0-1.3-0.3-2.5-0.7-3.6l1.8-1.8
			c0.8,1.6,1.3,3.4,1.3,5.4C-1092.7,124.3-1097.9,129.5-1104.4,129.5z"/>
	</g>
	<g>
		<path class="st1" d="M-1075.4,117.8c0,1.7,1.4,3,3,3c1.7,0,3-1.4,3-3c0-1.7-1.4-3-3-3c-0.4,0-0.8,0.1-1.1,0.2l-6.2-6.2l-1.7,1.7
			l6.2,6.2C-1075.4,117.1-1075.4,117.5-1075.4,117.8z"/>
		<path class="st1" d="M-1072.4,129.5c6.5,0,11.7-5.2,11.7-11.7s-5.2-11.7-11.7-11.7c-1.7,0-3.2,0.4-4.7,1l1.8,1.8
			c0.9-0.3,1.8-0.4,2.8-0.4c5.1,0,9.3,4.2,9.3,9.3c0,5.1-4.2,9.3-9.3,9.3c-5.1,0-9.3-4.2-9.3-9.3c0-1.3,0.3-2.5,0.7-3.6l-1.8-1.8
			c-0.8,1.6-1.3,3.4-1.3,5.4C-1084.1,124.3-1078.9,129.5-1072.4,129.5z"/>
	</g>
</g>
<path class="st2" d="M-937.4,116.4"/>
</svg>
