<?xml version="1.0" encoding="utf-8"?>
<!-- Generator: Adobe Illustrator 19.1.0, SVG Export Plug-In . SVG Version: 6.00 Build 0)  -->
<svg version="1.1" id="Ebene_1" xmlns="http://www.w3.org/2000/svg" xmlns:xlink="http://www.w3.org/1999/xlink" x="0px" y="0px"
	 viewBox="187 -6.2 658.6 67.9" style="enable-background:new 187 -6.2 658.6 67.9;" xml:space="preserve">
<style type="text/css">
	.st0{fill:#FFFFFF;}
	.st1{fill:#37A8DB;}
</style>
<g>
	<path class="st0" d="M267.8-1.1h1.6c0.7,0,0.9,0.2,0.9,1v53.6c0,0.8-0.2,1-0.9,1h-1.6c-0.8,0-1-0.2-1-1V-0.1
		C266.7-0.9,267-1.1,267.8-1.1z"/>
	<path class="st0" d="M323.3-0.1v53.6c0,0.8-0.2,1-0.9,1h-1.6c-0.5,0-0.8-0.1-1.1-0.6l-27.8-39.7c-2.6-3.7-4.7-7.9-6.4-10.2h-0.2
		c0,3,0.5,8,0.5,12.9v36.5c0,0.8-0.2,1-0.9,1h-1.6c-0.8,0-1-0.2-1-1V-0.1c0-0.8,0.2-1,1-1h1.6c0.6,0,0.9,0.3,1.1,0.5l27,38.7
		c2.9,4.2,5.3,8.5,7.2,11.2h0.2c0-3.4-0.5-8.7-0.5-14.1V-0.2c0-0.7,0.2-0.9,1-0.9h1.6C323-1.1,323.3-0.9,323.3-0.1z"/>
	<path class="st0" d="M378.7,54.5h-1.4c-1.2,0-1.6-0.2-1.7-0.9l-7-17.3h-26l-6.9,17.3c-0.2,0.7-0.6,0.9-1.8,0.9h-1.3
		c-0.8,0-0.9-0.4-0.7-0.9l21.7-54.2c0.3-0.7,0.6-0.9,1.3-0.9h1.6c0.7,0,1.1,0.2,1.3,0.9l21.7,54.2C379.7,54.1,379.6,54.5,378.7,54.5
		z M355.7,2.1h-0.2c0,0.4-0.1,1.8-0.6,3.4l-11.1,27.8h23.9L356.5,5.4C355.9,3.9,355.7,2.5,355.7,2.1z"/>
	<path class="st0" d="M421.7-0.2l-20.9,53.8c-0.2,0.7-0.6,0.9-1.3,0.9H398c-0.8,0-1.1-0.2-1.3-0.9L375.7-0.2
		c-0.2-0.5-0.1-0.9,0.6-0.9h1.5c1.2,0,1.5,0.2,1.7,0.9l17.4,45.1c0.7,2,1.3,4.2,1.7,5.3h0.2c0.4-1,0.9-3.2,1.6-5.3l17.3-45.1
		c0.2-0.7,0.6-0.9,1.7-0.9h1.5C421.9-1.1,422-0.8,421.7-0.2z"/>
</g>
<path class="st1" d="M220.9,40.1c0.1,0.1,0.2,0.2,0.4,0.2c0.1,0,0.3-0.1,0.4-0.2c0.8-0.9,2.5-2.8,4.2-5.1c2.1-3,4.6-7.3,4.6-11.2
	c0-5.1-4.1-9.2-9.2-9.2c-5.1,0-9.2,4.1-9.2,9.2c0,3.9,2.5,8.2,4.6,11.2C218.4,37.4,220.1,39.2,220.9,40.1L220.9,40.1z M221.3,18.1
	c3.1,0,5.6,2.5,5.6,5.6c0,3.1-2.5,5.6-5.6,5.6c-3.1,0-5.6-2.5-5.6-5.6C215.7,20.6,218.2,18.1,221.3,18.1L221.3,18.1z M221.3,18.1"/>
<g>
	<g>
		<g>
			<path class="st0" d="M207.5,8.9c0-1.8-1.4-3.2-3.2-3.2c-1.8,0-3.2,1.4-3.2,3.2c0,1.8,1.4,3.2,3.2,3.2c0.4,0,0.8-0.1,1.2-0.2
				l6.6,6.6l1.8-1.8l-6.6-6.6C207.4,9.8,207.5,9.4,207.5,8.9z"/>
			<path class="st0" d="M204.2-3.5c-6.9,0-12.5,5.6-12.5,12.5s5.6,12.5,12.5,12.5c1.8,0,3.5-0.4,5-1l-2-2c-1,0.3-2,0.5-3,0.5
				c-5.5,0-9.9-4.5-9.9-9.9s4.5-9.9,9.9-9.9c5.5,0,9.9,4.5,9.9,9.9c0,1.4-0.3,2.6-0.8,3.8l1.9,1.9c0.9-1.7,1.4-3.7,1.4-5.7
				C216.7,2.1,211.1-3.5,204.2-3.5z"/>
		</g>
		<g>
			<path class="st0" d="M235.1,8.9c0-1.8,1.4-3.2,3.2-3.2c1.8,0,3.2,1.4,3.2,3.2c0,1.8-1.4,3.2-3.2,3.2c-0.4,0-0.8-0.1-1.2-0.2
				l-6.6,6.6l-1.8-1.8l6.6-6.6C235.2,9.8,235.1,9.4,235.1,8.9z"/>
			<path class="st0" d="M238.3-3.5c6.9,0,12.5,5.6,12.5,12.5s-5.6,12.5-12.5,12.5c-1.8,0-3.5-0.4-5-1l2-2c1,0.3,2,0.5,3,0.5
				c5.5,0,9.9-4.5,9.9-9.9S243.8-1,238.3-1s-9.9,4.5-9.9,9.9c0,1.4,0.3,2.6,0.8,3.8l-1.9,1.9c-0.9-1.7-1.4-3.7-1.4-5.7
				C225.9,2.1,231.5-3.5,238.3-3.5z"/>
		</g>
	</g>
	<g>
		<path class="st0" d="M207.5,44c0,1.8-1.4,3.2-3.2,3.2c-1.8,0-3.2-1.4-3.2-3.2c0-1.8,1.4-3.2,3.2-3.2c0.4,0,0.8,0.1,1.2,0.2
			l6.6-6.6l1.8,1.8l-6.6,6.6C207.4,43.2,207.5,43.6,207.5,44z"/>
		<path class="st0" d="M204.2,56.5c-6.9,0-12.5-5.6-12.5-12.5s5.6-12.5,12.5-12.5c1.8,0,3.5,0.4,5,1l-2,2c-1-0.3-2-0.5-3-0.5
			c-5.5,0-9.9,4.5-9.9,9.9s4.5,9.9,9.9,9.9c5.5,0,9.9-4.5,9.9-9.9c0-1.4-0.3-2.6-0.8-3.8l1.9-1.9c0.9,1.7,1.4,3.7,1.4,5.7
			C216.7,50.9,211.1,56.5,204.2,56.5z"/>
	</g>
	<g>
		<path class="st0" d="M235.1,44c0,1.8,1.4,3.2,3.2,3.2c1.8,0,3.2-1.4,3.2-3.2c0-1.8-1.4-3.2-3.2-3.2c-0.4,0-0.8,0.1-1.2,0.2
			l-6.6-6.6l-1.8,1.8l6.6,6.6C235.2,43.2,235.1,43.6,235.1,44z"/>
		<path class="st0" d="M238.3,56.5c6.9,0,12.5-5.6,12.5-12.5s-5.6-12.5-12.5-12.5c-1.8,0-3.5,0.4-5,1l2,2c1-0.3,2-0.5,3-0.5
			c5.5,0,9.9,4.5,9.9,9.9s-4.5,9.9-9.9,9.9s-9.9-4.5-9.9-9.9c0-1.4,0.3-2.6,0.8-3.8l-1.9-1.9c-0.9,1.7-1.4,3.7-1.4,5.7
			C225.9,50.9,231.5,56.5,238.3,56.5z"/>
	</g>
</g>
<path class="st1" d="M382.2,42.5"/>
</svg>
