<?xml version="1.0" encoding="utf-8"?>
<!-- Generator: Adobe Illustrator 25.2.3, SVG Export Plug-In . SVG Version: 6.00 Build 0)  -->
<svg version="1.1" id="Ebene_1" xmlns="http://www.w3.org/2000/svg" xmlns:xlink="http://www.w3.org/1999/xlink" x="0px" y="0px"
	 viewBox="0 0 658.6 67.9" style="enable-background:new 0 0 658.6 67.9;" xml:space="preserve">
<style type="text/css">
	.st0{fill:#FFFFFF;}
	.st1{fill:#4CB944;}
</style>
<g>
	<path class="st0" d="M143.9,61.6c-3.5,0-6.3-1.7-8.6-4.2c-1.8-2-3.5-4.2-4.9-6.5c-2-3.1-3.8-6.4-5.7-9.6c-0.9-1.5-2.3-1.7-3.4-0.3
		c-4.9,6.4-9.9,12.8-14.8,19.1c-0.8,1.1-1.7,2.2-2.7,3.1c-1,1-2.3,1.4-3.8,1.3c-2.3-0.3-3.4-1.7-3.1-4c0.2-1.4,0.9-2.5,1.9-3.6
		c6.6-7.4,13.1-14.9,19.7-22.3c1.3-1.5,1.8-2.9,0.9-4.8c-1.4-3-2.7-6-4.1-9c-0.5-1.2-1.5-1.9-2.7-2.2c-0.8-0.2-1.6-0.3-2.5-0.4
		c-2-0.2-3.2-1.5-3.3-3.5c-0.2-3.9,3.7-6.5,7.7-5c3.3,1.3,5.4,3.7,6.9,6.8c0.9,1.9,1.8,3.9,2.7,5.8c1.4,2.8,2.3,2.9,4.4,0.6
		c5.1-5.6,10.2-11.2,15.4-16.7c5.4-5.7,11.6-2.5,13.6,3.6c0.3,1,0.3,2.2,0.2,3.3c-0.1,1-0.6,1.9-1.6,2.2c-1.1,0.3-1.8-0.4-2.5-1
		c-0.7-0.7-1.6-1.3-2.5-1.7c-1.2-0.5-2.5-0.4-3.5,0.5c-2.6,2.2-5.2,4.4-7.6,6.8c-3,3-5.9,6.3-8.7,9.5c-0.5,0.6-1.1,1.3-1.3,2.1
		c-0.2,0.8-0.4,1.8-0.1,2.5c2.7,6.4,6,12.5,10.6,17.8c0.7,0.8,1.6,1.5,2.4,2.2c1.8,1.5,3.8,1.7,5.7,0.5c1.7-1,3.3-2.4,4.7-3.8
		c1.2-1.1,2.1-2.6,3.2-3.8c0.3-0.3,0.8-0.5,1.2-0.7c0.1,0.5,0.4,1,0.4,1.4c-0.6,3.6-2.4,6.6-4.8,9.2c-2.1,2.4-4.6,4.1-7.8,4.5
		C144.8,61.5,144.3,61.5,143.9,61.6z"/>
	<path class="st0" d="M54.7,36.8c-0.4,0.5-0.7,1.1-1.1,1.6C47.7,45,41.8,51.5,36,58c-1,1.1-2,2.1-3.2,2.9c-1.7,1.3-2.9,0.7-2.9-1.4
		c0.1-3.1,0.4-6.1,0.7-9.1c0.3-3,0.7-6,1.1-9c0.1-0.4,0.1-0.9,0-1.3c-0.1-0.3-0.2-0.7-0.5-0.8c-0.2-0.1-0.7,0.1-0.9,0.3
		c-1.2,1.2-2.3,2.4-3.4,3.7c-4.9,5.5-9.7,10.9-14.6,16.4c-0.5,0.6-1.1,1.2-1.8,1.7c-1.2,0.8-2.5,0.5-3.1-0.8c-0.5-1-0.9-2.2-0.8-3.3
		c0.2-2.8,0.6-5.5,1.2-8.3c0.8-4.1,1.7-8.2,3.6-11.9c0.4-0.8,1-1.6,1.6-2.2c0.9-0.9,2.3-1.1,3.3-0.5c1.1,0.6,1.7,1.7,1.4,3.1
		c-0.1,0.8-0.5,1.5-0.8,2.2c-0.5,1.3-1.2,2.5-1.7,3.8c-0.5,1.5-0.8,3.1-1,4.7c-0.1,0.4,0.1,0.8,0.2,1.2c0.4-0.2,0.8-0.3,1.1-0.6
		c3.7-3.8,7.4-7.7,11.1-11.5c2.4-2.4,4.8-4.8,7.3-7.2c0.7-0.7,1.5-1.2,2.3-1.7c2.1-1.1,4.1-0.1,4.2,2.2c0.1,1.8-0.2,3.6-0.5,5.4
		c-0.7,3.7-1.6,7.5-2.5,11.2c0,0.2-0.1,0.4-0.1,0.6c0,0.5,0.1,1,0.2,1.5c0.5-0.2,1.2-0.4,1.6-0.7c4-4.3,7.9-8.7,11.9-13.1
		c3.7-4.1,7.5-8.1,11.3-12.1c0.4-0.4,0.8-0.7,1.3-1c1-0.7,2-0.9,3.1-0.2c1.2,0.8,1.9,2,1.8,3.5c0,0.3-0.3,0.7-0.5,1
		c-4.8,4.1-6.6,9.7-8,15.5c-0.8,3.1-1.4,6.3-1.1,9.6c0.3,3.2,2.3,4.5,5.3,3.3c2.8-1.1,5.2-3,7.5-4.9c4.2-3.6,8-7.6,11.4-11.9
		c0.5-0.6,0.9-1.5,1.8-1c0.9,0.5,0.5,1.5,0.1,2.1c-1.9,3-3.8,6-5.9,8.8c-3.6,4.7-7.8,8.8-13.2,11.6c-1.7,0.8-3.5,1.5-5.3,1.8
		c-2.7,0.5-4.8-0.6-6.2-3c-1.6-2.7-1.9-5.6-1.5-8.6c0.4-3,1.2-6,1.8-9c0.3-1.2,0.6-2.4,0.8-3.7C55.1,37.1,54.9,37,54.7,36.8z"/>
	<path class="st0" d="M178,19.9c0.8,0,1.4,0,2.2,0c0,10.2,0,20.4,0,30.6c-0.7,0-1.4,0-2.2,0C178,40.4,178,30.2,178,19.9z"/>
	<path class="st1" d="M95.7,17.5c1.6,0.1,3.4,1.2,3.4,3S98,23.6,93.2,28c-4.8,4.4-4.9,4.6-6,4.6C86,32.6,89.8,17.1,95.7,17.5z"/>
	<path class="st0" d="M201.9,39.6l-2.4,7.3h-3.1l7.9-23.3h3.6l8,23.3h-3.2l-2.5-7.3H201.9z M209.5,37.2l-2.3-6.7
		c-0.5-1.5-0.9-2.9-1.2-4.3H206c-0.3,1.4-0.7,2.8-1.2,4.2l-2.3,6.8H209.5z"/>
	<path class="st0" d="M223.7,23.5v23.3h-3V23.5H223.7z"/>
	<path class="st0" d="M228.9,23.9c1.5-0.3,3.7-0.5,5.8-0.5c3.2,0,5.3,0.6,6.8,1.9c1.2,1,1.8,2.6,1.8,4.4c0,3.1-1.9,5.1-4.4,6v0.1
		c1.8,0.6,2.9,2.3,3.4,4.7c0.8,3.3,1.3,5.5,1.8,6.4H241c-0.4-0.7-0.9-2.7-1.6-5.6c-0.7-3.2-1.9-4.4-4.7-4.5h-2.8V47h-3V23.9z
		 M231.9,34.6h3.1c3.2,0,5.3-1.8,5.3-4.4c0-3-2.2-4.3-5.4-4.4c-1.5,0-2.5,0.1-3,0.3V34.6z"/>
</g>
</svg>
