<?xml version="1.0" encoding="utf-8"?>
<!-- Generator: Adobe Illustrator 19.1.0, SVG Export Plug-In . SVG Version: 6.00 Build 0)  -->
<svg version="1.1" id="Ebene_1" xmlns="http://www.w3.org/2000/svg" xmlns:xlink="http://www.w3.org/1999/xlink" x="0px" y="0px"
	 viewBox="0 0 2500 1530.8" style="enable-background:new 0 0 2500 1530.8;" xml:space="preserve">
<style type="text/css">
	.st0{opacity:0.3;}
	.st1{fill:none;stroke:#BCBEC0;stroke-width:3;stroke-miterlimit:10;}
	.st2{fill:none;stroke:#BCBEC0;stroke-width:10;stroke-miterlimit:10;}
	.st3{fill:#BCBEC0;}
</style>
<g class="st0">
	<path class="st1" d="M-15.3,342.3c0,0,18.6,64.3,0,148.5"/>
	<path class="st1" d="M-15.3,611.3c0,0,17.6,93.6,20.7,103.6c3.1,10,11.7,73.9,7.5,85.5s-19-7.5-28.2-14.1"/>
	<path class="st1" d="M-15.3,805.8c0,0,17.3,23.4,21.7,31.8c4.4,8.4,22.8,42.4,34,35.9s-2.2-37.8-2.2-39.9s-12.2-68.3-13.7-74.3
		c-1.6-5.9-18.7-87.7-19-93.9s-8.4-67.1-9.1-73s-2.2-57.1,1.6-88.9S8.9,427.8,7,411s-0.6-46.8-10-73s-12.3-25-12.3-25"/>
	<path class="st1" d="M-15.3,269.9c0,0,26.6,48.7,30.1,76.1c3.4,27.5,5.6,71.5,0,101.7c-5.6,30.3-2.2,73.3-3.4,85.8
		s-1,103.9,6.9,137.6c7.8,33.7,24,119.8,26.6,123c2.7,3.1,23,88.6,23.6,99.6c0.6,10.9,4.7,45.9-4.4,60.2s-20.9-7.5-23.4-11.5
		c-2.5-4.1-26.2-54.9-30-60.2c-3.7-5.3-26-40.3-26-40.3"/>
	<path class="st2" d="M-15.3,866.6c0,0,37,69.5,39.1,78.6c2.1,9.2,18.3,58.7,22.9,64.1s15.8,21.2,23.3,0c7.5-21.2,7.5-53.3,9.2-62.8
		s10.8-60.8,5.4-79.9s-5.4-28.3-12.9-54.5c-7.5-26.2-21.6-72.8-24.1-78.2s-17.4-62.8-20.2-87.4c-2.7-24.5-6.1-96.5-3.1-114.8
		c2.9-18.3-0.4-69.1,3.1-80.7c3.5-11.7,0.6-93.2-1.9-108.6C23,326.9,7.7,262-15.3,232.9"/>
	<path class="st1" d="M-15.3,207.5c0,0,29.2,42.8,34.2,58.7s15.1,46.2,16.6,63.4c1.5,17.2,3.7,74.6,4.3,79.6c0.6,5,1.9,91.1,0,101.4
		c-1.9,10.3-5.3,77.1-1.6,97.7c3.7,20.6-1.2,50.2,4.1,70.8c5.3,20.6,17.2,75.2,31.2,102c14,26.8,29.6,68.3,30.6,94.6
		c0.9,26.2,0.3,43.4-4.1,58c-4.4,14.7-8.1,31.2-9.4,46.2c-1.2,15-19.7,85.2-25.3,95.8c-5.6,10.6-20.3,36.5-31.5,14
		s-9.7-51.8-9.7-53.7s-8.1-57.7-19-87.1c-10.9-29.3-20.4-44.9-20.4-44.9"/>
	<path class="st1" d="M-15.3,934.6c0,0,8.6,17.8,8.9,29.3c0.3,11.5,3.4,15.9,5,18.7c1.6,2.8,6.6,17.5,6.2,22.5
		c-0.3,5,1.9,15.9,4.1,25.6s6.2,24.7,8.4,30.3s0,4.1,0,12.2c0,8.1,1.3,6.2,1,14.4c-0.3,8.1,1.7,20.9,0.1,31.2
		c-1.7,10.3-4.2,19,0.7,27.8c4.9,8.7,10,15,16.5,8.4c6.5-6.6,11.5-5.9,18.4-19s17.5-41.5,22.5-47.7c5-6.2,23.7-62.6,25.6-70.6
		c1.9-8,15.3-55.8,15.9-64.2c0.6-8.4,5.9-43.4,5.6-55.9c-0.3-12.5-1.9-56.8-14.4-86.8c-12.5-30-29.3-71.5-32.8-80.2
		c-3.4-8.7-13.7-28.1-20-64.6c-6.2-36.5-6.9-62.7-8.4-86.8c-1.6-24,3.7-65.2,4.1-76.1c0.3-10.9,0.5-44,2.1-57.7
		c1.6-13.7-2.1-69.6-3.1-79c-0.9-9.4-10-69-10.9-71.2c-0.9-2.2-9.7-44-25.3-65.5s-30.1-52.4-30.1-52.4"/>
	<path class="st1" d="M-15.3,976.5c0,0,9.2,26.7,11.1,41.1s6.9,69.4,4.7,87.5s-8,65.5-7.6,69.6c0.4,4.1-4.9,29-8.1,37.8"/>
	<path class="st1" d="M-15.3,1236.4c0,0,11.4,4.4,19.5-6.9s32.5-51.2,36.5-56.8c4.1-5.6,30.3-41.2,39-50.6s32.1-47.4,37.8-57.4
		s20.3-48.7,25.9-95.2c5.6-46.5-7.8-76.4-8.7-95.3c-0.9-18.9-21.5-86.7-25.9-99.4c-4.4-12.8-29.3-77.4-36.2-114.5
		c-6.9-37.1-10-84.6-5.9-117.7s4.1-33.1,4.1-33.1s8.7-84.9,6.2-103.6c-2.5-18.7-5.6-83.6-17.2-119.8s-35-82.7-44.9-100.2
		s-30.1-46.8-30.1-46.8"/>
	<path class="st1" d="M-15.3,90.5c0,0,17.9,38.7,21.4,44.3c3.4,5.6,20.9,42.4,27.2,50.2s18.1,33.9,23.1,47.9s22.2,70.1,24.3,99.8
		c2.2,29.6,10,51.8,11.5,65.5s1.9,48.1,2.2,55.5c0.3,7.5-2.2,54-6.6,70.2c-4.4,16.2-0.9,32.5-3.7,45.6c-2.8,13.1-1.9,40.9-0.6,64
		c1.2,23.1,16.2,78.3,22.8,95.5c6.6,17.2,28.7,83.6,33.1,97.4c4.4,13.7,16.9,62.7,19.3,95.2c2.5,32.5,0.9,84.3-6.6,109.8
		c-7.5,25.6-12.2,48.1-56.2,103.3s-44.9,48.7-49.3,54.9c-4.4,6.2-35,38.1-47.7,59.6c-12.8,21.5-14.2,24-14.2,24"/>
	<path class="st2" d="M-15.3,1296c0,0,33.2-49,40.4-56.2s44.9-47.4,59.3-64s40.9-48.4,50.9-66.2s30.9-56.2,35.6-82.1
		c4.7-25.9,9.1-77.1,0-127.3c-9.1-50.2-18.7-87.1-23.7-102c-5-15-39-98-41.2-107c-2.2-9.1-14.4-54.3-11.9-85.5s7-82.1,10.4-98
		c3.4-15.9,6.8-74.9,5.2-95.2c-1.6-20.3-12.8-101.4-18.4-127.6S71,204.1,51.4,163.2S14.8,85.8,11.1,60.9c0,0-11.9-28.1-2.5-60.9"/>
	<path class="st1" d="M-15.3,1333.9c0,0,17.8-39.1,44.9-67c27-27.9,80.3-83.2,86.1-89.5c5.8-6.2,41.2-43.3,51.6-71.6
		c10.4-28.3,21.6-59.9,24.1-97c2.5-37,0-67-6.7-103.2s-19.1-107.4-28.7-126.5c-9.6-19.1-37.4-113.1-42-131.2
		c-4.6-18.2-10.8-32.7-4.6-108c6.2-75.3,17.9-86.1,24.5-111.9c6.7-25.8,13.3-66.2,12.5-88.2c-0.8-22.1,10-83.6,50.3-95.7
		s79.1,36.6,85.3,41.2s31.2,30,40.8,67.4c9.6,37.4,20.8,40.4,24.5,62.4c3.7,22.1,22.5,39.5,30,50.8c7.5,11.2,48.3,64.9,52.4,75.7
		s10,32,7.1,52.8c-2.9,20.8-10.8,74.5-12.9,87.4c-2.1,12.9-5.4,54.1-0.4,62.8c5,8.7,20,11.7,30-10.8c10-22.5,41.2-72,52.4-85.7
		s38.7-51.2,77-26.2s70.7,67,79.1,77.8c8.3,10.8,70.7,74.9,77.4,81.6c6.7,6.7,41.6,40.4,52,41.6c10.4,1.2,11.2-16.6,11.7-27.9
		c0.4-11.2,2.5-120.7,15.8-153.1c13.3-32.5,12.9-110.7,12.9-114.4s-2.5-54.5,8.3-96.1s25.8-52.8,52.8-78.2s43.3-30.8,52.4-61.2
		c9.2-30.4-20.4-43.7-42-53.3c-21.6-9.6-40.4-30.8-31.6-70.3c8.7-39.5,35.4-73.6,55.8-93.2c20.4-19.6,37.9-58.5,26.6-75.2"/>
	<path class="st1" d="M-15.3,1376.2c0,0,17-30.9,20.1-38.7s15-28.4,26.5-43.1c11.5-14.7,35.9-46.5,45.6-53.4
		c9.7-6.9,59.8-63.4,67.8-73.3c8-10,43.9-54.9,54.8-97.7s5.6-101.4-1.9-148.9c-7.5-47.4-22.5-137.6-39.6-173.5
		c-17.2-35.9-40.2-108-34.6-147.3c5.6-39.3-1.6-61.2,18.7-126.7s35-105.2,74.9-129.5s67.7-30.3,88.9,5.3
		c21.2,35.6,17.8,54.9,29.3,75.5c11.5,20.6,29.6,57.7,41.5,79c11.9,21.2,38.7,57.4,35,83.9s-10.3,93.9-9.7,106.7
		s-4.1,58.4,14.4,98.9c18.4,40.6,33.4,49.6,45.6,25.6c12.2-24,24.7-67.7,25.9-81.1c1.2-13.4,9.6-82.6,47.1-102
		c37.6-19.5,70.8,19.3,78.3,32.8c7.5,13.4,39.9,57.1,58.7,74.3c18.7,17.2,32.1,27.2,45.3,54.3s41.5,67.7,62.7,86.1
		c21.2,18.4,49.6,41.5,66.8,24c17.2-17.5,30-102,30-102s28.1-137,27.2-170.1c-0.9-33.1,6.9-22.5,8.1-52.4c1.2-30,5.6-92.1,6.6-112
		s0.9-74.9,23.4-96.1c22.5-21.2,54.6-32.8,61.8-44.9c7.2-12.2,28.7-46.8,7.8-61.2c-20.9-14.4-53.4-15.3-70.5-42.8
		c-17.2-27.5-21.8-84.3-0.6-123.3c21.2-39,41.5-41.2,47.1-46.8c5.6-5.6,22.8-35.3,16.2-55.9"/>
	<path class="st2" d="M461.9,611.8c-3,17.8-5.6,29.4-0.4,36.3c7.9,10.4,22.1,0.4,33.7-11.2c11.7-11.7,50.8-61.2,100.7-22.1
		c49.9,39.1,70.3,74.9,89.9,87c19.6,12.1,52.8,22.5,54.5-10c1.7-32.5,9.6-73.2,13.7-84.5s8.7-58.3,7.1-78.2s-1.2-68.2,8.7-91.1
		c10-22.9,32-47,44.5-62c12.5-15,41.2-50.8,28.3-87s-40.4-44.9-27.5-89.5s30-64.9,58.7-94.9C902.6,74.8,925.5,42.5,908,0"/>
	<path class="st2" d="M83.3,0c0,0-3.7,9.1,2.9,19s31.6,45.4,46.6,77s40.4,54.9,53.3,71.2c12.9,16.2,66.6,68.7,77.8,77.8
		c11.2,9.2,58.7,57.8,64.5,72.4s34.1,74.9,40.4,89s35.8,60.3,47.4,72.8c10.4,11.1,43.1,53.1,48.7,88"/>
	<path class="st1" d="M149,0c0,0-6.2,24,0,36.5s21.8,51.2,27.1,56.8s92.1,118,103.3,129.2c11.2,11.2,47.4,60.5,59.9,79.9
		c12.5,19.3,39.3,68,46.8,89.9s36.2,58.7,57.4,75.5s64.9,45.6,68,75.5s3.7,51.8,31.2,43.1c27.5-8.7,49.9,5.6,64.9,19.3
		c15,13.7,60.5,42.4,68.7,14.4c8.1-28.1-0.6-71.8,7.5-101.7c8.1-30,25-118.6,47.4-151.7c22.5-33.1,47.4-64.9,33.1-98
		s-29.6-73,4.2-118c33.8-44.9,76.9-59.9,91.3-93C874.3,24.7,874.3,0,874.3,0"/>
	<path class="st1" d="M195.8,0c0,0,5.6,17.8,9.4,29.9c3.7,12.1,5,12.5,17.1,29.1s30.4,35,41.2,45.4c10.8,10.4,35.8,44.5,44.1,79.9
		s26.2,67.8,30.8,81.1c4.6,13.3,33.3,63.7,42,79.5s42.4,69.5,72.4,96.1c30,26.6,62,54.1,76.6,62.4s21.2,18.3,32.5,23.3
		s25.8,17.1,44.1-5c18.3-22.1,18.7-48.7,24.5-67c5.8-18.3,16.6-65.7,15.4-122.7s-5.4-104.9,10.8-136.5
		c16.2-31.6,22.9-47.4,52.4-69.5c29.5-22.1,81.1-62.8,92.8-82c11.7-19.1,6.7-40.2,2.9-44"/>
	<path class="st1" d="M229.8,0c0,0-0.8,17,28.7,42.3c29.5,25.4,42,53.3,44.1,74.9c2.1,21.6,14.6,65.7,24.1,87.4
		c9.6,21.6,27,46.2,33.7,72.4c6.7,26.2,43.3,79.1,48.7,86.1c5.4,7.1,35,49.1,72.8,76.6c37.9,27.5,46.2,25,62.4,41.6
		c16.2,16.6,31.2,23.7,43.3-2.9c12.1-26.6,18.7-56.6,22.5-65.7c3.7-9.2,12.5-50.8,9.6-68.2c-2.9-17.5-13.7-59.2-9.6-96.4
		c4.2-37.2,8.7-82.6,41.2-110s62.4-52.8,69.9-75.7s5.8-51,2.1-62.3"/>
	<path class="st1" d="M263.5,0c0,0,10.4,29.4,24.5,46.1c14.1,16.6,30,39.5,37,58.7s40.4,89,45.8,99.9c5.4,10.8,21.2,44.9,30,56.2
		c8.7,11.2,18.7,30.8,22.1,35c3.3,4.2,19.1,27,25.8,44.1c6.7,17.1,22.1,35.8,36.6,47.4c14.6,11.7,32.5,23.3,39.9,38.3
		c7.5,15,32.9,37,41.6,22.5c8.7-14.6,5-41.6,6.7-56.6c1.7-15,9.2-60.2,10.8-75.5s16.2-97.2,18.7-110.1c2.5-12.9,14.6-67,37.9-92.8
		s37.9-48.3,40.4-74.9S678.7,0,678.7,0"/>
	<path class="st2" d="M507.3,346.3c1.2,1.9,2.2,3.7,2.9,5.2c7.4,15,22.4,29.5,32.4,23.7c10-5.8,14.1-22.5,14.1-22.5
		s19.1-62.8,19.6-73.2c0.4-10.4,15-95.3,24.1-118.6s25-64.5,35.8-76.1c10.8-11.7,16.2-35.6,6.7-84.8"/>
	<path class="st2" d="M296.7,0c0,0,0.8,17.8,15.4,43.2s31.2,46.6,40.8,58.7c9.6,12.1,36.6,48.3,44.9,62.8
		c8.3,14.6,23.3,41.9,28.7,61.7c5.4,19.8,31.2,49.4,38.3,60.6c2.5,4,8.1,11.4,14.5,20"/>
	<path class="st1" d="M339.2,0c0,0,6.2,43.2,22.1,65.2s32,46.6,37,53.7c5,7.1,25.4,38.3,38.3,65.7c12.9,27.5,37,63.2,44.9,76.1
		s31.6,34.1,39.5,38.3c7.9,4.2,16.2,2.5,20.4-15c4.2-17.5,34.5-92.4,36.2-99s17.9-64.1,26.6-81.6c8.7-17.5,17.5-55.3,17.5-69.1
		S619.6,0,619.6,0"/>
	<path class="st1" d="M384.1,0c0,0,4.2,20.3,8.7,31.9s17.1,43.7,22.1,52.8c5,9.2,12.5,32.5,20,48.7c7.5,16.2,22.1,31.6,33.3,39.9
		c11.2,8.3,13.3,13.3,19.1,23.7c5.8,10.4,32,44.1,45.4,17.9s29.5-67.4,33.3-76.6c3.7-9.2,22.9-51.2,28.3-69.5s10.4-54.7,5.8-69"/>
	<path class="st1" d="M432.8,0c0,0,10.8,39.8,13.3,54.8s6.2,45.2,18.3,57.6s31.9,16.9,38.2,24c6.3,7.1,13.4,12.5,19.6-2.1
		s3.7-1.2,12.5-45.4s17.5-36.6,19.6-47.9S563,0,563,0"/>
	<path class="st1" d="M227,338.4c0,0-4.1-11.5-8.9-17.7"/>
	<path class="st1" d="M184.2,250c0,0-9.8-14.6-14.8-19.4"/>
	<path class="st1" d="M1037.8,0c0,0,4.4,20-10.9,39.6c-15.3,19.7-39,64.6-45.3,74.9s-25,61.8-5.6,89.6s27.2,28.1,37.4,35.9
		c10.3,7.8,35,33.4,27.5,63.7c-7.5,30.3-37.1,53.4-48.1,60.2c-10.9,6.9-33.1,46.5-40.6,83.3s-10.6,124.2-10.6,155.4
		s-11.2,162.3-16.2,186.6s-35,104.2-35,125.5c0,21.2,1.2,52.4-26.8,39.3c-28.1-13.1-26.2-15-46.2-18.1c-20-3.1-37.4-25.6-53.1-43.7
		c-15.6-18.1-59.3-89.3-61.8-93.6c-2.5-4.4-32.5-44.9-46.8-61.8c-14.4-16.9-35-36.2-45.6-51.8c-10.6-15.6-61.9-66.9-90.5-18
		s-19.3,69.9-25,81.7c-5.6,11.9-15,104.2-16.9,113c-1.9,8.7-7.5,54.9-50.6-3.7c-43.1-58.7-40.6-102.4-40.6-133.6s6.9-94.2,7.5-118
		c0.6-23.7-18.1-89.3-44.3-118.6c-26.2-29.3-30-28.7-34.3-53.1c-4.4-24.3-27.5-113.4-79.3-77.9s-66.2,93.5-69.9,101
		c-3.7,7.5-25.6,86.1-30.6,97.4c-5,11.2,4,67.4,8.9,86.8c4.9,19.3,35.5,106.1,40.4,133.6c5,27.5,26.8,86.1,31.2,178.5
		c4.4,92.4,6.2,134.8-40.3,194.7c-46.5,59.9-92.2,124.8-122.1,157.9c-29.9,33.1-80.6,136.1-53.1,201c27.5,64.9,64.5,71.8,79.4,86.8
		c14.9,15,101.7,111.1,125.4,162.3c23.7,51.2,62.4,113.6,63.7,127.9c1.2,14.4,13.1,43.1-18.1,24.3c-31.2-18.7-16.9-21.2-39.3-32.5
		s-46.2-15-56.8-37.4c-10.6-22.5-60.5-94.9-77.4-116.7s-62.1-81.1-93.1-99.9"/>
	<path class="st1" d="M-15.3,1522.8c0,0,28.2,32.9,36.1,39.9c7.9,7.1,45.4,47.9,55.8,56.2c10.4,8.3,35.8,34.5,43.3,43.7
		c7.5,9.2,39.9,49.5,46.6,71.2c6.7,21.6,10.4,29.1,5.4,37.9s-15.8,9.6-37.9-15.8c-22.1-25.4-77.4-85.7-92.8-99
		c-15.4-13.3-41.1-36.2-56.5-47.9"/>
	<path class="st1" d="M-15.3,1547.3c0,0,28.2,30,36.6,37.4c8.3,7.5,24.5,22.5,23.3,30.8c-1.2,8.3-0.7,10,0.1,14.6s-3.4,7.9-19.6-4.2
		s-20.3-22.5-40.3-29.1"/>
	<path class="st1" d="M-15.3,1636.5c0,0,29.5,29,37,39.6s24,32.8,30.3,40.6s36.5,44,41.5,57.7c5,13.7,29,54.9,32.8,66.5
		c3.7,11.5,12.2,24.3,26.2,32.5c14,8.1,30.6,17.8,39.6,30.9c9.1,13.1,17.8,20.3,36.5,30.3c18.7,10,34,20,46.2,44.3
		c12.2,24.3,19.7,30.3,25.3,38.7c5.6,8.4,10.3,16.4,10.3,16.4"/>
	<path class="st2" d="M-15.3,1648c0,0,8.9,12.8,17.3,20.3s28.1,29,34.6,36.2s16.9,24.7,25,44.9c8.1,20.3,23.7,48.1,27.2,59.3
		c3.4,11.2,12.2,43.7,17.8,52.4c5.6,8.7,15.6,22.8,31.2,30.9c15.6,8.1,28.4,16.9,37.8,33.1s31.2,35.9,37.8,40.6s35.6,23.4,52.7,47.7
		s13.4,20.4,13.4,20.4"/>
	<path class="st1" d="M-15.3,1663.6c0,0,28.5,17.8,35.4,32.1s21.4,42.8,24.6,51.5c3.2,8.7,14.4,38.1,17.5,48.4
		c3.1,10.3,2.5,14.7,10.3,25.3c7.8,10.6,21.2,32.5,9.7,47.1c-11.5,14.7-17.8,34-8.7,39.3s29.3,22.2,43.7,21.8
		c14.4-0.3,30.6,2.8,37.8,16.2c7.2,13.4,15,19,23.4,26.8s37.4,34.6,41.5,41.5c4.1,6.9,18.4,20.3,18.4,20.3"/>
	<path class="st1" d="M-15.3,1678c0,0,10.1,4.1,18.9,22.5s18.4,37.8,19.3,46.8c0.9,9.1,6.9,23.1,6.9,37.1c0,14,4.1,30.3,12.5,39.6
		s25.3,33.1,11.9,48.7c-13.4,15.6-18.7,25.6-9.7,33.4s30.3,20,35,24.3c4.6,4.4,22.4,11.5,33.7,17.2c11.2,5.6,35,15.6,40.9,28.1
		s20.3,29,29.6,35.3c9.4,6.2,31.8,23.2,31.8,23.2"/>
	<path class="st1" d="M-15.3,1691.4c0,0,26.8,21.5,30,66.8s5.4,45.6,12,59.3s27.5,32.1,6.2,55.9s4.1,45.9,11.2,52.1
		c7.2,6.2,27.2,9.7,31.8,21.2c4.7,11.5,19,17.2,30.6,19.3c11.5,2.2,24.3,0.3,43.7,24.7s24.3,29.6,31.2,33.4s15.6,10,15.6,10"/>
	<path class="st1" d="M-15.3,1706.7c0,0,6.7,18.1,12.9,32.8c6.2,14.7,9.4,33.4,8.1,49.6s-0.6,42.5,4.1,52s14.7,22.6,5.9,37.9
		s2.8,44.6,12.8,53.1c10,8.4,25.9,20.3,31.8,33.4c5.9,13.1,20,19.3,32.5,21.5c12.5,2.2,57.1,24.2,75.5,47.2"/>
	<path class="st2" d="M-15.3,1735.7c0,0,7.9,27.2,9.8,32.1c1.9,5,3.4,22.5,0,39s-7.2,52.7-3.9,68c3.3,15.3,15.8,49.6,22.3,61.5
		s30.6,44,38.4,52.7c7.8,8.7,33.7,17.2,46.8,22.2c13.1,5,33.1,10.4,38.4,22.8"/>
	<path class="st1" d="M-15.3,1928.3c0,0,18.9,43.1,50.1,68s51.8,37.8,51.8,37.8"/>
	<path class="st1" d="M-15.3,1978.2c0,0,16.4,27.3,55.1,55.9"/>
	<path class="st1" d="M-15.3,2006.2c0,0,17.6,22.1,24.2,28"/>
	<path class="st1" d="M350.4,2033.9c0,0-11.2-31.8-19.1-45.9c-7.9-14.1-23.3-74.9-27.9-84.5c-4.6-9.6-30.4-74.1-32-80.3
		c-1.7-6.2-47-101.9-80.7-137.3c-33.7-35.4-105.7-108.2-121.1-129c-15.4-20.8-54.1-59.5-52.8-121.9s61.2-140.6,72.8-150.6
		s92.8-101.1,119.4-161s25-153.1,19.6-177.7c-5.4-24.5-21.6-169.8-38.7-208.9c-17.1-39.1-42.9-148.5-39.5-175.6s17.5-79.5,42-118.6
		s35.8-48.3,40.8-55.3c5-7.1,33.7-18.7,50.8,20.4c17.1,39.1,23.3,56.6,36.6,68.2c13.3,11.7,52,77,58.7,99.9
		c6.7,22.9,14.6,47.4,0,109.8c-14.6,62.4-9.2,146,13.9,166.6s52.4,49.3,60.5,62.4c8.1,13.1,33.7,59.3,35,7.5s5.6-129.2,18.1-159.8
		c12.5-30.6,22.5-39.9,25-58.7c2.5-18.7,26.2-50.6,55.5-23.1c29.3,27.5,46.2,41.8,59.3,56.8c13.1,15,41.8,63,49.9,76.1
		c8.1,13.1,35,60.5,41.8,78s17.6,57.5,74.9,61.2c57.3,3.7,71.2,14.4,86.1,31.8s38.7,38.1,45.6,17.5c6.9-20.6-13.1-69.3,0-99.9
		s33.1-91.1,22.5-126.1c-10.6-35-6.5-116.7,3-147.9c9.5-31.2,17.6-143.6,22.6-165.4c5-21.8,18.1-96.7,43.1-121.7
		c25-25,39-76.8,6.4-124.8c-32.6-48.1-41.3-98-8.9-133.6c32.5-35.6,51.8-70.5,48.7-82.7"/>
	<path class="st2" d="M368.9,641.3c-0.5,36.9-5.1,70.9-8.6,80.5c-4.7,12.8-9.1,95.2,14.7,125.5c23.7,30.3,37.4,41.5,50.2,51.5
		c12.8,10,39.6,41.5,47.7,61.2c8.1,19.7,23.1,62.1,31.8,59.9c8.7-2.2,7.2-23.4,7.2-24.3c0-0.9-0.7-110.5,0.1-122
		c0.8-11.5,2.7-81.1,13.3-109.8c10.6-28.7,14-40.9,19.3-50.1s27.5-34.8,52.1-10.5s37.8,36.5,45.6,47.4s31.8,46.8,35.9,57.7
		c4.1,10.9,38.4,69.9,46.2,90.2c7.8,20.3,13.7,80.2,57.4,70.2c43.7-10,84.3-10,108,18.4c23.7,28.4,50.2,70.8,59,81.1
		c8.7,10.3,43.4,44.6,51.2,14.7c7.8-30,9.1-77.7,4.7-95.2c-4.4-17.5-0.9-71.8,0-87.1c0.9-15.3,4.7-98.6,0.9-114.5
		c-3.7-15.9-6.4-100.2,1.6-136.4c8-36.2,33.1-189.2,66.8-273.2c33.7-84,8.7-160.3,4.3-197.7s3.1-98,29.3-153.5
		c0,0,6.6-17.2,28.1-25.3"/>
	<path class="st2" d="M367.9,2033.9c0,0-37-97.7-42-118.8c-5-21.1-18.7-67.7-27.5-92.7s-23.3-74.9-42.9-98.6s-92-110.3-114.4-129.4
		c-22.5-19.1-87-97.4-94-139c-7.1-41.6-2.9-80.4,34.8-126.9c37.8-46.5,92.4-124.2,99.9-135.8c7.5-11.5,52.4-81.5,55.2-149.5
		c2.8-68-1.2-125.8-8.1-153.9c-6.9-28.1-24.3-140.7-26.8-154.2c-2.5-13.4-23.8-94.2-25.9-106.7c-2.2-12.5-17.4-83.6,14.1-147.9
		s68-71.5,85.2-41.8c17.2,29.6,27.2,48.7,38.1,59.9c10.2,10.5,45.6,50.9,53.2,95.9"/>
	<path class="st1" d="M386.2,2033.9c0,0-19.1-61.7-24.5-76.3c-5.4-14.6-25.4-47-27.5-77s-17.5-86.1-26.6-109.4
		c-9.2-23.3-40.8-54.9-51.2-75.3c-10.4-20.4-79.5-105.3-94.9-117.3s-90.3-72.8-94.9-134c-4.6-61.2,14.1-101.5,38.3-131.1
		c24.1-29.5,79.1-98.2,94.5-128.2c15.4-30,37-58.3,47.9-148.5c10.8-90.3-15-216.8-20.4-238.4s-31.6-140-33.7-145.3
		c-2.1-5.3-24-78.3-2.1-143.5s66.2-50.8,79.1-37.9s35,28.3,42,37.4c7.1,9.2,40.8,56.6,43.7,72c2.9,15.4,16.6,64.1-0.8,102.4
		c-17.5,38.3-3.7,128.2,3.3,151c7.1,22.9,27,54.9,52.4,69.9c25.4,15,66.6,75.7,70.3,98.6c3.7,22.9,24.5,92.4,35,101.1
		c10.4,8.7,15.4,12.1,22.5-21.2c7.1-33.3-3.7-92-7.9-110.3c-4.2-18.3-3.3-107.8-3.7-118.6c-0.4-10.8-2.9-72.4,17.9-104.9
		c20.8-32.5,35.4-49.5,68.2-18.3c32.9,31.2,60.7,88.6,67,105.3c6.2,16.6,33.7,111.9,38.7,121.3s17.5,57.2,56.6,37.7
		c39.1-19.6,83.6-39.1,109.8,11.2c26.2,50.3,20.8,84.1,27,100.3s27.5,48.3,67,32.5s42.4-10.4,37.4-40.8c-5-30.4,0-53.7,7.1-64.9
		c7.1-11.2,26.2-73.6,20.8-116.5s-14.6-142.7-18.3-154.4c-3.7-11.7,0-65.7,4.2-85.3c4.2-19.6,24.5-138.6,29.1-148.1
		s20.8-54.9,30-70.3c9.2-15.4,37-98.6,36.6-151c-0.4-52.4-10.4-141.1-8.7-163.9c1.7-22.9,2.9-112.3,84.5-83.6s105.7,44.5,115.3,51.6
		s71.2,42.4,94.9,77s23.3,41.6,31.6,47.9s18.3,0.8,28.7-19.6c10.4-20.4,46.6-84.1,77.8-110.7c31.2-26.6,63.7-88.8,77.8-106.4"/>
	<path class="st2" d="M1157.2,0c0,0,37.9,16.1,51.2,27.4s37,25,52.8,30s79.1,41.6,90.7,54.9c11.7,13.3,30,26.6,35.8,34.1
		c5.8,7.5,27.5,29.1,36.2,44.5c8.7,15.4,18.3,20.4,32.5,3.7s42.9-54.9,49.1-62c6.2-7.1,22.9-36.6,31.2-47.9s38.3-52,43.3-60.7
		c5-8.7,16.6-24,16.6-24"/>
	<path class="st1" d="M1199.7,0c0,0,33.7,24.9,44.1,32.8c10.4,7.9,34.5,21.6,56.2,30s64.1,34.1,80.7,57s48.3,75.7,62.8,64.1
		c14.6-11.7,29.5-35,37.4-44.5c7.9-9.6,22.5-41.6,28.7-54.1c6.2-12.5,25-39.1,32-51.2s24.5-34,24.5-34"/>
	<path class="st1" d="M1223.4,0c0,0,34.5,38.6,76.1,50.7c41.6,12.1,81.6,29.1,92.4,49.1s26.2,59.5,36.6,60.3
		c10.4,0.8,18.3,4.2,27.9-12.5s40.8-75.7,45.8-82.4c5-6.7,34.5-65.2,34.5-65.2"/>
	<path class="st1" d="M1247.5,0c0,0,21.2,24.9,63.7,41.5s80.7,27.6,91.1,51.2c10.4,23.7,18.3,41.1,27.5,39.1
		c9.2-2.1,14.1-14.1,20-22.9s27-44.5,33.7-55.8c6.7-11.2,27.9-45.6,28.7-53.2"/>
	<path class="st1" d="M1262.9,0c0,0,36.6,34.4,72.4,38.6s67.4,26.6,74.9,46.2c7.5,19.6,17.5,37.4,31.6,11.7
		c14.1-25.8,21.2-38.7,25-43.7c3.7-5,20.8-41.4,22.9-52.7"/>
	<path class="st2" d="M1292.5,0c0,0,28.7,21.1,56.6,27.4c27.9,6.2,39.9,20.4,52,31.6s33.3,27.9,46.6,0c13.3-27.9,10.8-51,18.3-59"/>
	<path class="st1" d="M1324.9,0c0,0,43.7,21.9,51.4,26.1s37.2,28.3,53.9,13.7s7.9-39.8,7.9-39.8"/>
	<path class="st1" d="M1376.3,0c0,0,25.6,22.8,37.2,17.8c11.7-5,8.7-13.1,10.4-17.8"/>
	<path class="st1" d="M401.5,2034.1c0,0-11.2-25.3-15.9-40.9c-4.7-15.6-15.3-56.1-18.7-78.1s-17.8-69.8-26.5-96.3
		s-19.3-61.5-24-72.1c-4.7-10.6-24-48.7-32.8-55.2s-34-34.6-47.4-52.1c-13.4-17.5-49.6-64.6-75.8-83.9c-26.2-19.3-59-61.5-66.2-80.8
		c-7.2-19.3-16.2-55.5-8.4-84.9c7.8-29.3,32.8-69.9,49.3-89.3c16.5-19.3,56.8-68,62.7-81.5c5.9-13.4,44.3-92.7,49.3-124.2
		s10.6-87.4,8.4-122.6c-2.2-35.3-8.1-122.6-11.5-132.9c-3.4-10.3-20-92.4-24-107.4c-4.1-15-15.9-65.5-18.4-74.3
		c-2.5-8.7-20-55.9-8.7-105.2s17.8-58.7,32.5-71.8s39-5.6,51.8,20s32.1,52.7,39.6,60.2c7.5,7.5,34.3,37.1,32.5,74
		c-1.9,36.8-6.9,58.7-11.2,77.4s-1.2,71.5,4.1,98.9c5.3,27.5,18.1,76.5,45.3,93.3c27.2,16.9,47.7,40.3,53.7,48.1
		c5.9,7.8,32.8,53.1,38.1,78.3c5.3,25.3,20,76.1,23.7,94.2c3.7,18.1,11.2,52.4,18.7,60.9s15,5.6,22.8-11.5
		c7.8-17.2,7.2-56.5,9.4-67.4s0.9-56.5,1.6-66.2s-3.1-89.9-5.5-102.4c-2.3-12.5-8.9-76.1-7-94.9c1.9-18.7-0.3-57.4,14.4-83.9
		c14.7-26.5,44.6-37.1,64.9-12.2s33.7,53.4,37.8,67.1c4.1,13.7,11.2,51.5,16.5,64s18.4,47.4,20,66.2c1.6,18.7,8.4,54,14.7,61.5
		s19,24.5,46.8,11.5c27.8-13,78-43.9,102.4-11.5s34.3,74,33.7,85.5c-0.6,11.5,0.3,47.7,8.4,62.7c8.1,15,18.1,31.2,45.9,21.8
		c27.8-9.4,51.2-13.7,61.5-12.5c10.3,1.2,28.7-0.6,27.2-36.5c-1.6-35.9-8.4-49.9,8.1-79.9c16.5-30,23.4-79.6,23.7-100.2
		c0.3-20.6-3.1-96.4-3.7-113.3s-3.1-69.6-2.5-80.5s1.6-40.9,1.9-56.5c0.3-15.6,1-32.8,4.4-51.5c3.4-18.7,1.3-61.8,14-88.3
		s32.8-92.1,37.1-105.2s25-67.7,26.8-77.7c1.9-10,14.7-67.7,18.7-80.2c4.1-12.5,6.2-62.1,2.2-86.1s-18.4-55.9-15.6-68
		c2.8-12.2,12.8-50.8,68.3-47.1c55.5,3.7,67.8,22,85.3,28.2s71.6,32.5,99.9,77.4c28.3,44.9,46.6,80.7,65.7,64.5s37.9-50.3,41.2-55.8
		c3.3-5.4,57-92,64.5-100.7c7.5-8.7,59.1-62.4,68.2-76.6C1654,15.7,1663.6,0,1663.6,0"/>
	<path class="st1" d="M424.1,2033.9c0,0-11.2-19.7-16.2-35.3c-5-15.6-18.9-61-21.4-73.6c-2.5-12.7-13.3-57.4-14.4-74.3
		c-1-16.9-1.9-52-13.3-79.1c-11.4-27-31.8-43.5-36.2-60.7c-4.4-17.3-10-30.7-19.1-60.9c-9.2-30.2-52-73.9-85.3-92.2
		c-33.3-18.3-119-67.8-121.9-105.3c-2.9-37.4,1.7-79.1,32.9-124.4c31.2-45.4,64.5-82.8,79.5-111.9c15-29.1,37.5-70.3,51.2-130.2
		c13.7-59.9,10.8-129.4,8.3-176.8c-2.5-47.4-25.4-136.5-33.3-166c-7.9-29.5-30.4-109.8-32.9-136.5c-2.5-26.6-11.3-67.1,20-105.7
		c31.2-38.5,47.9,14.6,52,20.4c4.2,5.8,17.9,30.8,29.1,42.4c11.2,11.7,37,44.5,34.1,86.1c-2.9,41.6-5.4,59.9-8.3,76.1
		c-2.9,16.2-0.8,102.4,7.1,125.2c7.9,22.9,30.8,51.6,52.8,64.5c22.1,12.9,64.5,66.2,71.2,87c6.7,20.8,19.6,81.1,20,87.4
		c0.4,6.2,14.1,69.5,14.6,82s7.1,42.4,19.1,61.6c12.1,19.1,36.2,52.8,81.1,28.7s12.5-95.3,10.8-105.7c-1.7-10.4-30-79.5-36.6-118.6
		s-6.7-121.1-9.2-128.6c-2.5-7.5-2.9-87.4-1.2-98.6c1.7-11.2,2.1-45.8,19.1-57.4c17.1-11.7,37.4-7.5,47.9,7.5
		c10.4,15,22.9,40.4,25,52.4s12.5,59.9,15.4,72.8c2.9,12.9,7.1,44.9,7.5,60.7c0.4,15.8,6.7,50.3,27.9,72.4s53.3,43.7,78.6,27.5
		c25.4-16.2,58.7-34.5,77.4,18.3c18.7,52.8,12.5,94.9,26.2,114.8c13.7,20,19.6,32.9,61.2,20.4c41.6-12.5,41.2-19.1,74.1-15
		c32.9,4.2,57.4-6.2,52-33.7s-6.2-42.9,6.2-68.7s35.8-54.1,32.9-97.4c-2.9-43.3-36.2-142.7-33.3-205.5
		c2.9-62.8,19.1-119.8,24.5-143.1c5.4-23.3,25.8-124.4,32-142.3c6.2-17.9,28.3-84.9,38.3-103.2c10-18.3,26.6-89,32.5-136.9
		c5.8-47.9,3.7-71.2,5-93.6s11.7-49.9,60.3-30.8c48.7,19.1,82,38.7,92.8,47.9c10.8,9.2,50.3,45.4,62.4,105.7s15,82.4,22.9,99.4
		c7.9,17.1,20.4,32.5,36.6-3.7s37.4-85.7,39.5-105.7c2.1-20,17.5-50,29.5-68.7s45.4-81.8,70.3-112.3c25-30.4,72-78.3,147.7-83.7
		c75.7-5.4,60.8,76.6,54.1,90.3s-44.5,141.1-45.8,148.1c-1.2,7.1-13.7,77.4-17.1,87c-3.3,9.6-21.2,59.9-47.9,82.4
		c-26.6,22.5-55.8,59.9-69.5,69.5s-32.5,41.6-35.8,62c-3.3,20.4-5.8,37.9-14.1,52c-8.3,14.1-12.5,38.7-10.4,60.7
		c2.1,22.1,1.2,51.6-2.5,65.3s-12.9,65.7-18.7,77.8c-5.8,12.1-5.4,44.5,10,64.9c15.4,20.4,28.7,42.4,33.3,65.7
		c4.6,23.3,16.2,77.8,51.6,62.4c35.4-15.4,44.1-7.1,59.5-22.9c15.4-15.8,48.7-35.8,100.3-4.6c51.6,31.2,93.2,77.8,119,100.3
		c25.8,22.5,50.3,52.4,59.5,57.8c9.2,5.4,25.4,7.5,35-13.3c9.6-20.8,30.8-37,67-36.6c36.2,0.4,78.2,6.2,101.9,23.7
		c23.7,17.5,58.7,52.4,77.4,62.4c18.7,10,92.8,49.5,104.4,63.2s17.9,42.4,34.1,45.8c16.2,3.3,18.7-21.6,10.8-46.2
		c-7.9-24.5-19.1-29.1-27-44.5s-44.5-41.2-29.5-67.4c15-26.2-8.3-58.3-33.7-86.5c-25.4-28.3-61.4-51.4-85.7-65.1
		c-24.3-13.7-134.8-52.4-159.8-61.2c-25-8.7-130.4-67.4-150.4-80.5c-20-13.1-144.8-76.8-111.7-128.6c33.1-51.8,88-89.3,88-89.3
		s126.1-75.5,152.3-102.4s81.1-79.3,90.5-91.7s95.5-104.9,102.4-114.8c6.9-10,60.5-70.5,93.6-130.4c33.1-59.9,91.1-144.8,94.2-164.5
		"/>
	<path class="st1" d="M444,2034.1c0,0-19.6-35.3-25-54.5c-5.4-19.1-13.3-31.2-13.7-42c-0.4-10.8-10.4-64.9-14.1-73.2
		s-10.8-69.5-9.2-82c1.7-12.5-0.8-23.7-22.1-54.5c-21.2-30.8-27-84.9-27-86.5s-22.1-64.9-82-96.9s-56.2-34.1-82.4-43.3
		s-53.3-35.4-58.3-58.3c-5-22.9-3.7-57.4,21.6-95.3s66.2-89.5,77.4-104.9s34.1-67.8,48.3-109.4c14.1-41.6,22.9-101.5,20.8-128.2
		c-2.1-26.6,4.2-101.1,0.4-130.9s-10-76.8-24.1-106.7c-14.1-30-26.6-89.8-31.6-100.6s-21.7-88-13.7-124c8-36.1,34.5-49.9,52-23.3
		c17.5,26.6,23.7,36.2,30.8,42.9c7.1,6.7,22.5,39.5,27.9,56.2c5.4,16.6,19.6,59.5,1.7,103.6c-17.9,44.1,0.4,131.1,12.9,147.3
		c12.5,16.2,42.9,57.4,59.9,70.7s55.3,63.7,67,118.6c11.7,54.9,20.8,102.4,24.1,119.8c3.3,17.5,18.3,72.6,24.1,91.2
		c5.8,18.6,25.8,78.9,64.9,82.3c39.1,3.3,90.7-55.3,84.1-127.3c-6.7-72-24.1-85.7-35.8-113.6s-44.5-88.6-49.1-131.5
		c-4.6-42.9-11.7-79.1-10-111.1c1.7-32-7-89.8,19.6-104.9c26.6-15,41.6,4.2,52,26.2s16.6,78.6,17.5,92.8
		c0.8,14.1,6.7,77.4,16.6,99.4c10,22.1,23.7,106.1,84.5,113.6c60.7,7.5,59.9,0.4,77.8,22.1c17.9,21.6,17.1,48.3,21.2,63.2
		s15.4,57,54.1,45.8s64.1-13.7,88.6-12.9c24.5,0.8,66.4-5,86.7-5.4c20.3-0.4,51.9,2.5,56.1-38.3c4.2-40.8,16.6-48.7,30.8-59.9
		c14.1-11.2,63.2-45.4,44.9-83.2s-71.6-94.9-84.1-116.1c-12.5-21.2-23.7-74.1-23.3-111.9s7.5-97.3,20.4-132.3
		c12.9-35,30.8-130.7,41.6-156.9c10.8-26.2,22.1-91.1,38.3-136.1c16.2-44.9,27.4-101.5,33.5-118.2s48.9-88.3,113.8-50.8
		c64.9,37.5,76.6,181.5,79.9,195.6c3.3,14.1,12.1,89.5,47,53.7s63.7-126.1,92-157.7c28.3-31.6,61.6-92.4,79.1-120.2
		c17.5-27.9,49.9-71.9,67.8-83.6c17.9-11.7,51.2-17,62.4,0c11.2,17,5.4,62.4-4.2,77.3c-9.6,15-22.1,75.7-21.2,101.5
		c0.8,25.8,2.9,47-16.2,73.6c-19.1,26.6-26.6,57.4-48.7,77c-22.1,19.6-66.2,64.9-75.3,76.6c-9.2,11.7-23.7,29.1-25.8,61.6
		c-2.1,32.5-15.8,46.6-20.8,57c-5,10.4-13.3,27.5-4.2,61.6c9.2,34.1-12.9,85.7-22.9,106.9s-18.3,50.8,7.9,88.2
		c26.2,37.4,39.5,68.7,45.8,87.8c6.2,19.1,26.2,76.6,45.8,65.3c19.6-11.2,31.2-12.5,44.1-5c12.9,7.5,39.9,5.8,61.2-8.3
		s99.4-16.2,147.3,33.7c47.9,49.9,69.5,69.9,82.8,85.3c13.3,15.4,41.2,49.9,52.4,28.3c11.2-21.6,64.1-64.9,131.5-28.3
		c67.4,36.6,43.3,30,84.5,47s74.5,44.9,88.6,66.6c14.1,21.6,44.1,53.7,45.8,91.1c1.7,37.4,3.7,62.4,19.6,60.3
		c15.8-2.1,12.9-13.7,16.2-17.1c3.3-3.3,30.8-58.3,33.5-90.7c2.7-32.5,10.6-70.3-5.6-100.3s-37.9-42.4-38.3-76.1
		c-0.4-33.7-29.5-75.3-55.3-99c-25.8-23.7-75.3-55.8-116.1-78.2c-40.8-22.5-106.5-37.4-132.7-46.2c-26.2-8.7-104-50.8-140.2-70.3
		s-93.2-62-106.5-79.1c-13.3-17.1-15.4-59.1,25.8-87.8c41.2-28.7,67.8-50.3,100.3-66.2c32.5-15.8,103.6-65.7,119.8-79.5
		c16.2-13.7,66.6-74.9,88.6-103.6s102.4-117.8,116.9-132.7c14.6-15,80.7-118.6,91.1-135.6c10.4-17.1,56.6-96.5,63.2-107.8
		S2477.9,0,2477.9,0"/>
	<path class="st2" d="M1927.3,778.6c-15.3-11.1-28.2-21.6-34.9-29.3c-22.1-25.4-32.9-40.8-8.7-73.6c24.1-32.9,64.9-45.8,77.4-54.1
		c12.5-8.3,74.5-39.5,102.4-63.2c27.9-23.7,57.4-49.1,77.4-77c20-27.9,90.7-108.6,92-109.8c1.2-1.2,73.2-82.8,79.5-90.7
		c6.2-7.9,69.5-103.2,74.9-112.3s45.4-77.4,51.2-84.1c5.8-6.7,36.2-57,39.5-62.4c3.3-5.4,16.9-21.9,16.9-21.9"/>
	<path class="st2" d="M1870.6,1062c2.9,1.9,5.7,4,8.5,6.4c39.9,34.1,61.6,53.3,69.5,60.7c7.9,7.5,48.3,46.6,56.2,59.1
		s10.4,25,20.4,22.1c10-2.9,13.3-9.6,17.5-17.9c4.2-8.3,32.5-55.3,88.6-26.6c56.2,28.7,48.3,46.6,83.2,50.8
		c35,4.2,78.6,15,103.2,59.5c24.5,44.5,32.9,53.7,37.9,65.3c5,11.7,19.6,65.7,12.1,82.8c-7.5,17.1-5.4,28.3-8.3,45.4
		s-2.9,41.2,3.3,52.4s16.6,8.7,25.4-5.4c8.7-14.1,22.5-42.4,27-52.8c4.6-10.4,10-26.2,21.2-38.7s29.5-49.1,35-67
		c5.4-17.9,30-69.9,22.1-112.8c-7.9-42.9-27.9-73.2-39.1-88.6c-11.2-15.4-27.9-69.1-42-91.5c-14.1-22.5-46.2-63.7-104.9-102.4
		c-58.7-38.7-94.9-56.6-130.7-67.8c-35.8-11.2-131.9-52.8-151.9-58.3c-6.1-1.7-18.9-8.1-34.2-17"/>
	<path class="st2" d="M1229.8,408.2c8.7-34.5,17.6-69.9,22.3-79.6c8.7-18.3,45.4-87.8,95.3-62.4c49.9,25.4,58.7,79.5,62.8,89.9
		c4.2,10.4,5,73.6,8.3,80.7c3.3,7.1,23.7,76.1,54.1,59.9c30.4-16.2,44.5-37.9,54.1-57.8c9.6-20,39.9-67,51.6-81.6
		c11.7-14.6,28.3-44.9,37.9-57.8c9.6-12.9,24.1-51.2,69.9-58.7s74.9,33.3,57.4,66.2c-17.5,32.9-36.2,73.2-63.7,101.5
		c-27.5,28.3-56.6,63.7-62.8,70.3c-6.2,6.7-28.7,37.9-35,56.6c-6.2,18.7-1.2,46.2-17.5,65.3c-16.2,19.1-19.6,44.1-15,65.3
		c4.6,21.2,3.7,67.4-15.4,94.5s-47.9,75.7-23.3,94.9c24.5,19.1,40.4,37,42.9,57.4c2.5,20.4,32.9,60.7,37.4,77
		c4.6,16.2,19.6,52,20.4,64.9c0.8,12.9,14.1,16.2,26.2,6.2c12.1-10,25.8-28.3,58.7-9.6c32.9,18.7,52,17.5,70.3,8.3
		c3-1.5,6.9-3.2,11.6-4.8"/>
	<path class="st2" d="M632.1,1092.3c-15.5-29.5-37.9-72.3-44.1-107.5c-7.9-44.5-13.3-72.4-17.1-106.9s-6.7-47,6.2-75.7
		c12.9-28.7,39.5-28.3,50.3-7.1c10.8,21.2,19.6,86.1,21.6,98.2c2.1,12.1,2.9,65.3,12.5,89.5s29.8,83.6,34,99s18,62.4,47.1,72.4
		c29.1,10,77.8,11.7,84.1,48.7c6.2,37,9.6,76.1,44.5,61.6c35-14.6,76.1-35.8,121.9-31.2s127.7-6.7,138.6-10
		c10.8-3.3,61.2-0.4,62.4-28.3c1.2-27.9,2.5-31.2,21.6-51.2c19.1-20,49.8-47.9,56.9-58.3c7.1-10.4,30.9-68.2-17-100.7
		c-47.9-32.5-99.5-62-115.3-122.7c-15.8-60.7,1.2-121.1,5.4-141.5c4.2-20.4,20-81.1,28.7-102.8s25.8-115.3,35.4-138.6
		c0.8-2.1,1.8-4.8,2.8-8.1"/>
	<path class="st2" d="M460.3,2034.1c0,0-25.8-41.2-31.6-63.6c-5.8-22.5-12.5-71.6-15.4-81.1c-2.9-9.6-7.1-56.6-10.4-69.5
		s-10.8-25.8-7.1-47.9s8.7-35.8-11.2-54.1c-20-18.3-25.4-66.6-25.8-74.9s-23.7-67.8-89-110.7c-65.3-42.9-101.1-30.4-127.7-63.7
		c-26.6-33.3-23.3-54.1-7.5-95.3c15.8-41.2,66.6-94.5,76.6-113.2c10-18.7,49.5-84.1,61.2-125.7c11.7-41.6,24.1-87.8,24.1-120.7
		c0-32.9,3.7-83.2,4.6-99.9c0.8-16.6,12.5-39.9,37-15.8s33.7,44.5,51.2,55.8c17.5,11.2,48.7,56.6,57.4,85.3s22.3,84.5,24.7,103.2
		c2.4,18.7,17.8,82.4,16.5,92.8c-1.2,10.4,18.7,87.4,23.3,98.6c4.6,11.2,12.1,77,50.8,78.2s43.3-14.6,53.3-28.3
		c10-13.7,33.3-38.3,47.4-49.9c14.1-11.7,44.1-46.2,29.1-104c-8.2-31.5-18.2-55.6-27.7-75.3"/>
	<path class="st2" d="M321.3,666.3c0.1,4.4,0,7.9-0.3,10c-1.2,9.4-6.9,36.2-9.1,47.4c-2.2,11.2-11.5,22.8-23.1,24.3
		c-11.5,1.6-34-22.8-41.8-34.5c-7.8-11.7-10.3-32.6-18.6-48.5c-8.3-15.9-15.1-67.7-16.1-79c-0.9-11.2-1.9-25.9,5.9-43.1
		s26.8-12.2,26.8-12.2c8.1,0.6,12.2,8.4,21.4,19.3c7.1,8.4,19.7,23.2,31.1,40.4c0,0,13.3,28.5,15,33.5"/>
	<path class="st1" d="M228.6,570.5c0,0-13.1,17.8-10.3,31.8c2.8,14,4.7,37.8,10.3,48.7c5.6,10.9,17.5,39.9,22.5,48.1
		c5,8.1,21.8,26.2,33.4,23.4c11.5-2.8,16.5-15.9,20-30.9c3.4-15,6.6-44.6,0-67.7c-6.6-23.1-22.5-44.9-31.2-53.4
		C264.5,562,238.6,558.9,228.6,570.5z"/>
	<line class="st1" x1="288.8" y1="748" x2="288.8" y2="762.1"/>
	<line class="st1" x1="241.9" y1="563.6" x2="239.5" y2="552.7"/>
	<line class="st1" x1="286.6" y1="721.8" x2="286.6" y2="732.7"/>
	<line class="st1" x1="235.8" y1="530.3" x2="239.5" y2="518.3"/>
	<path class="st1" d="M485.8,2034.1c0,0-15-8.8-23.1-34.4c-8.1-25.6-17.8-51.2-21.2-64c-3.4-12.8-17.5-65.5-18.4-69.6
		c-0.9-4.1-8.1-45.9-7.8-61.8s7.5-55.5,2.8-69c-4.7-13.4-15-14-21.8-28.7c-6.9-14.7-9.7-35-10.9-52.4c-1.2-17.5-2.2-32.1-17.8-57.4
		c-15.6-25.3-43.4-60.9-58.4-72.7c-15-11.9-32.1-32.7-98-42.1c-65.8-9.4-67.7-28.7-68-60.5c-0.3-31.8,29.3-75.2,36.2-83
		c6.9-7.8,48.1-62.4,53.4-74c5.3-11.5,35.9-68,49.9-110.5c14-42.4,19.7-96.1,23.1-122c3.4-25.9,3.7-59.6,6.6-70.5
		s14.7-25.9,42.4-9.1c27.8,16.9,51.5,38.1,58.7,46.8c7.2,8.7,25,50.6,28.4,62.1c3.4,11.5,17.8,70.5,20.3,91.1
		c2.5,20.6,17.8,91.1,20.3,102.4s7.5,67.1,14,84.9c6.6,17.8,18.7,64.6,22.8,75.8c4.1,11.2,15,52.4,35.3,61.2s43.4,11.2,64.9-11.2
		c21.5-22.5,39.9-54.3,47.7-68.7c7.8-14.4,35.6-42.9,42.1-62.9c6.6-20.1,14.4-38.5,19.3-63.5c5-25,3.7-60.9,21.5-75.2
		c17.8-14.4,46.8-9.4,55.9,22.8c9,32.1,26.5,83.6,51.2,85.2s49-15.9,57.1-23.4c8.1-7.5,44.6-24,74.3-21.5
		c29.6,2.5,87.7-1.6,95.8-2.2c8.1-0.6,49.9-13.1,73-16.2c23.1-3.1,40.9-8.7,64.3-5.9c23.4,2.8,43.1,7.8,44.9-10.9
		c1.9-18.7-4.4-55.9,18.7-76.5c23.1-20.6,47.7-65.5,51.8-78.3c4.1-12.8,11.5-48.7,7.5-78.3c-4.1-29.6-2.5-62.7-59.9-84.3
		c-57.4-21.5-89.6-20.9-105.2-70.8c-15.6-49.9-15.6-77.4-0.6-120.5c15-43.1,40.9-124.8,42.8-156.3c1.9-31.5,12.4-73.5,15.7-87.1
		c3.3-13.5,23.5-63.5,29.3-76.1s24.7-32.7,41.9-41c17.2-8.3,28.4-6.2,40.9,13.1c12.5,19.3,18.7,21.4,21.6,34.1
		c2.9,12.7,6.9,57.6,6.2,63.7s2.7,52.2,13.3,65.1c10.6,12.9,30.6,25,35.6,35.6c5,10.6,16.9,32.2,37.7,25.2
		c20.8-7.1,31-18.9,37.2-31.2c6.2-12.3,39.5-61.2,44.1-66.8c4.6-5.6,35.8-57.8,41.6-69.5c5.8-11.7,26.6-54.1,29.8-64.5
		c3.1-10.4,19.3-37.7,21.6-46s21.8-26.8,40.6-24.5c18.7,2.3,47.4,17.3,32.7,50.6c-14.8,33.3-22.7,41.4-30.6,48.1
		c-7.9,6.7-42.6,44.7-48.5,51.2c-5.8,6.4-30.8,27.5-36,35.8s-15,24.3-20.6,38.5c-5.6,14.1-10.5,30.6-13.3,38.2
		c-2.8,7.6-17.2,35.4-19.3,44c-2.2,8.6-9.5,22.6-12.8,30.3c-3.3,7.6-5.8,26.2-5.3,32.5s-1.4,30.7-4.8,45.7c-3.4,15-8.7,56.5-19.3,74
		s-26.5,55.2-31.2,69.6s-11.9,42.8,18.4,50.9s49,27.8,55.9,49.6c6.9,21.8,14,38.1,20.9,54c6.9,15.9,9.1,35.9,10.9,50.9
		c1.9,15,10.9,54.6,38.4,40.6c27.5-14,59.6-24.7,83-6.2c23.4,18.4,37.4,30.3,69.6,8.7c32.1-21.5,89.6-22.2,128.9,8.7
		s35,39.3,46.2,49.3c11.2,10,42.8,44.9,47.1,54.9c4.4,10,10.9,28.1,15,38.4s18.4,22.8,25.9,7.2c7.5-15.6,15.9-50.2,35.3-57.1
		c19.3-6.9,35.6-8.7,59.6,11.5c24,20.3,44.6,29,75.8,33.7s76.1,26.8,94.2,49c18.1,22.2,35,48.1,41.5,58.4c6.6,10.3,19,35.6,16.5,63
		s-5.9,81.8-5.9,93.3c0,11.5,0.3,47.4,2.5,59.6c2.2,12.2,12.2,64,20,79.6c7.8,15.6,18.4,46.2,33.7,44.3c15.3-1.9,13.1-13.4,14.4-34
		s0.3-86.1,0-93.6c-0.3-7.5-0.6-65.8,11.5-80.2s29.3-36.2,36.5-51.5c7.2-15.3,26.8-64.3,31.5-79.3c4.7-15,20-88.3,20.6-102.7
		c0.6-14.4-0.3-40.3-10.6-65.8c-10.3-25.6-35.9-76.1-52.4-93.9c-16.5-17.8-59.6-64.9-71.5-74.6c-11.9-9.7-60.5-59.6-74.6-68.3
		c-14-8.7-72.7-45.6-95.2-54s-95.2-37.4-113.9-42.8s-93.3-44.6-136.7-70.5c-43.4-25.9-64.3-47.7-63-72.4
		c1.2-24.7,38.4-45.6,45.3-49.3c6.9-3.7,92.4-59.9,105.5-66.5c13.1-6.6,70.5-56.5,79.6-65.8c9.1-9.4,72.1-75.8,78.3-85.5
		s81.5-92.7,86.8-99.9s61.2-79.9,67.4-89.6c6.2-9.7,46.5-77.4,54.3-90.8c7.8-13.4,25.6-51.2,33.4-64.6s29.6-44,38.1-57.7
		C2496.7,21.5,2512,0,2512,0"/>
	<path class="st1" d="M522.3,2033.9c0,0-30.8-22.2-39.9-43c-9.2-20.8-41.6-87.4-41.6-125.2s-4.6-67.4-7.5-77.8
		c-2.9-10.4,12.5-51.2-4.2-70.7c-16.6-19.6-25-37.9-23.7-57c1.2-19.1-3.7-48.3-26.6-77c-22.9-28.7-39.5-52.4-60.3-69.5
		c-20.8-17.1-39.9-34.5-84.9-43.3s-62.8-3.7-71.2-31.6c-8.3-27.9,4.7-47.4,13.8-59.9s61.9-76.6,70.7-90.7
		c8.7-14.1,33.7-64.9,45.8-103.2c12.1-38.3,16.6-86.1,17.1-114c0.4-27.9,10.7-65.7,31.3-78.6c20.7-12.9,47.7-5.8,68.1,22.9
		c20.4,28.7,28.7,55.3,30.4,72.4s10,57.8,12.9,74.5c2.9,16.6,19,97.8,18.8,111.5c-0.1,13.7,10.3,69.1,9.4,87
		c-0.8,17.9,12.1,69.1,17.9,86.1s19.1,72,45.4,73.6c26.2,1.7,44.9-8.3,60.3-15c15.4-6.7,57.4-33.3,72.8-53.7
		c15.4-20.4,42.4-64.1,47.9-84.1c5.4-20,20.8-41.6,25.8-72.8c5-31.2,11.7-46.2,23.3-51.6c11.7-5.4,12.9,15,15.4,24.5
		c2.5,9.6,17.9,56.2,54.1,66.2c36.2,10,54.1-12.1,62-19.6c7.9-7.5,47.4-31.2,77.8-35c30.4-3.7,83.2-5.4,101.9-9.2
		c18.7-3.7,71.2-11.6,88.6-15c17.5-3.3,35.8,0,52.4,1.2c16.6,1.2,50.3,5.4,64.1-5.4c13.7-10.8,9.2-21.2,20.8-32.9s15.8-27,27.5-41.2
		c11.7-14.1,29.5-51.6,34.5-62c5-10.4,21.2-46.6,25.4-78.2c4.2-31.6,7.1-72.8,8.7-87.8c1.7-15,2.9-54.1-22.9-76.6
		c-25.8-22.5-53.7-22.5-99-30.4c-45.4-7.9-79.9-13.3-89.9-50.8c-10-37.4-3.3-47.4,7.5-70.7c10.8-23.3,33.3-40.4,39.9-76.1
		c6.7-35.8,2.1-59.1,2.5-74.5c0.4-15.4,14.1-60.7,17.5-69.9c3.3-9.2,19.6-41.6,37.4-47.9s37.4,0,37.9,25s10,64.5,22.5,75.3
		c12.5,10.8,30.8,23.3,31.6,45.8c0.8,22.5,6.2,46.2,30.4,43.3c24.1-2.9,59.5,0.4,73.2,42.4c13.7,42-10.4,82-17.1,94.5
		s-29.5,54.9-33.7,63.2s-33.3,57.8,4.6,72.4s69.1,1.7,76.6,33.3c7.5,31.6,6.7,57.3,12.1,70.2c5.4,13,17.5,53.3,22.9,66.2
		s11.2,43.3,46.2,28.7c35-14.6,67-10,83.2,1.2c16.2,11.2,44.1,29.5,69.9,11.7s83.2-38.7,124.4-3.7s59.5,61.2,79.5,79.9
		c20,18.7,33.3,49.1,35.4,68.2c2.1,19.1,11.7,50.8,27.9,24.1c16.2-26.6,24.6-63.2,49.9-57.4c25.4,5.8,51.2,14.1,67.8,19.1
		c16.6,5,80.7,22.9,99.4,28.3c18.7,5.4,49.5,25.4,59.1,43.3s25.4,30.8,31.2,62.4s3.7,59.1-3.3,77.8c-7.1,18.7-10.8,84.1-11.2,88.6
		c-0.4,4.6-8.7,79.1,10.4,115.3s35.4,67,29.1,99c-6.2,32-9.6,47.4-6.2,60.3c3.3,12.9,15.8,44.1,43.3,34.1s20.8-23.7,34.5-28.3
		c13.7-4.6,25.4-12.9,16.2-34.5c-9.2-21.6-2.1-40.4,2.3-62c4.4-21.6,8.9-79.9,8.1-100.3c-0.8-20.4-11.2-55.3-11.2-84.9
		s10.8-62,20.8-78.2c10-16.2,29.5-57.4,36.6-67.8c7.1-10.4,22.4-47,22.4-47"/>
	<path class="st1" d="M629.3,2034.1c0,0-2.2-12.2-23.7-11.3c-21.5,0.9-66.8,2.8-88.6-14.4c-21.8-17.2-34.3-44.6-40.9-65.8
		c-6.6-21.2-19-85.2-19.7-96.1c-0.6-10.9-11.2-46.5-6.9-65.8c4.4-19.3,0.6-62.1-8.1-81.1c-8.7-19-17.8-42.4-22.8-60.5
		c-5-18.1-11.2-42.8-28.7-60.5c-17.5-17.8-43.1-50.2-57.4-70.2c-14.4-20-42.8-40.9-81.5-50.6s-72.4-7.8-69.3-28.4s10-34.3,17.8-45.9
		s35.9-54,42.8-63s29.6-35.3,37.4-47.1s24.3-51.2,28.4-60.9c4.1-9.7,15.9-35.3,18.1-53.4c2.2-18.1,5.6-54,6.2-64.3
		c0.6-10.3,0.9-40.9,9.4-56.2c8.4-15.3,34-30.3,53.7-6.6c19.7,23.7,34.6,66.2,36.5,74c1.9,7.8,13.1,63.4,15.3,69.6
		c2.2,6.2,9.4,56.8,9.1,74.6s4.7,85.2,7.8,96.4s12.8,60.5,15,74.9s7.2,40.3,11.2,57.7c4.1,17.5,16.9,44.3,39,55.9
		c22.2,11.5,43.1,17.5,65.5,9.1c22.5-8.4,40.9-21.8,59.3-35.6s42.8-43.7,54.3-59.9c11.5-16.2,31.8-51.2,37.1-76.5
		c5.3-25.3,14.4-46.5,19-60.2s25.3-5.9,31.5,10.3s9.4,5.9,18.4,21.8c9.1,15.9,22.2,24.7,38.1,20.3c15.9-4.4,46.5-21.8,57.4-27.8
		c10.9-5.9,52.7-24,62.7-28.7c10-4.7,25.3-8.7,44-9.7c18.7-0.9,71.2-10.3,80.8-10.9c9.7-0.6,61.5-5.3,76.5-9.7s31.2-6.9,46.2-5.3
		c15,1.6,59.6,0,74.3-0.6c14.7-0.6,35.3,10,38.7-14c3.4-24,11.2-47.1,26.2-61.5s27.5-27.5,34.6-48.1c7.2-20.6,11.5-48.1,14.7-67.4
		s13.7-67.4,19.3-79.6c5.6-12.2,26.2-37.8,52.1-38.4c25.9-0.6,28.1,15.3,30.9,22.8s26.2,79,30.3,90.2s10.9,70.2,51.5,62.1
		c40.6-8.1,72.7-15,97.4,3.1c24.7,18.1,51.2,34.6,92.4,24.3c41.2-10.3,89.3-29,133.3,18.1c44,47.1,46.2,74,51.8,93.9
		c5.6,20,5.6,84.9,29,75.8c23.4-9.1,31.5-29.6,35.3-31.8c3.7-2.2,48.4-57.4,84.3-49.9c35.9,7.5,75.2,25.6,93.3,32.5
		c18.1,6.9,54.3,16.2,65.5,25c11.2,8.7,50.2,34.6,40.9,96.4s-10,103-11.5,118.3s4.7,63,3.1,81.5c-1.6,18.4-5.3,47.1,1.6,65.8
		c6.9,18.7,25.9,35.9,26.8,51.2s-8.1,58.7-8.1,72.4c0,13.7,1.6,29.6,15.9,48.4c14.4,18.7,27.8,64.9,43.4,56.8
		c15.6-8.1,25.6-3.4,28.7-19.7c3.1-16.2-5.3-24,14.7-37.8s41.8-28.7,40.3-49c-1.6-20.3-11.2-44.9-6.2-73.3s6.7-88.6,6.3-110.2
		c-0.4-21.5-5.1-76.5,2.4-111.7s27.5-85.5,40.6-103c13.1-17.5,13.1-24,13.1-24"/>
	<path class="st1" d="M649.2,2034.1c0,0,18.3-17.4-12.5-23.7c-30.8-6.2-74.1-3.3-101.1-22.9c-27-19.6-51.6-55.8-56.2-97.8
		c-4.6-42-19.1-84.5-18.3-115.7c0.8-31.2,3.7-69.9-2.5-86.5s-2.9-44.5-10.4-65.3c-7.5-20.8-28.7-47.9-56.6-70.7
		c-27.9-22.9-53.3-66.2-88.6-85.7s-87.8-28.7-87.4-55.8c0.4-27,19.1-45.8,23.3-52.8c4.2-7.1,50.8-70.3,57.8-87.4s28.3-69.9,35.4-89
		c7.1-19.1,18.7-59.5,22.1-81.1c3.3-21.6,9.2-48.7,22.1-52.4c12.9-3.7,26.2,9.2,30,36.6c3.7,27.5,21.6,79.1,21.6,90.7
		s15,80.3,15.4,90.7c0.4,10.4,6.2,58.7,10,74.5s15.8,74.1,20.4,94c4.6,20,12.9,50.7,17.1,64.7c4.2,14,9.6,52.7,32.9,63.1
		c23.3,10.4,52,8.3,91.5-3.7s74.9-49.9,85.7-68.7c10.8-18.7,39.1-64.9,48.3-97.4c9.2-32.5,22.9-51.6,39.1-37.9
		c16.2,13.7,52,45.4,78.6,36.2c26.6-9.2,41.2-36.2,65.3-46.2c24.1-10,37.4-28.3,107.4-34.1c69.9-5.8,103.2-7.9,119.8-13.3
		s66.6-5.8,81.3-5.4c14.8,0.4,67.2-5,81.8-2.1c14.6,2.9,40.4,8.7,43.3-19.1c2.9-27.9,14.6-55.3,35.8-74.1
		c21.2-18.7,23.3-40.4,28.7-64.1s4.6-68.7,17.1-92.4c12.5-23.7,34.1-39.1,51.2,0c17.1,39.1,12.1,79.9,47.4,111.1
		c35.4,31.2,35.8,23.3,66.6,16.2c30.8-7.1,38.7-20.4,70.3,5.4c31.6,25.8,54.9,42,84.9,30.8c30-11.2,88.6-29.5,109.4-12.5
		s48.7,29.5,59.5,51.6c10.8,22.1,23.3,59.9,25.4,100.7c2.1,40.8,15,60.3,39.9,38.7c25-21.6,39.5-42.4,46.6-52.8
		c7.1-10.4,44.1-53.3,90.3-24.1s40.8,32.9,80.3,38.7c39.5,5.8,70.3,5.8,76.1,51.6c5.8,45.8-4.2,73.2-4.6,97.4s8.3,104.9,0.8,123.6
		c-7.5,18.7-15.4,84.9,2.5,106.1c17.9,21.2,24.5,55.8,11.7,80.3c-12.9,24.5-7.4,49.1,6.7,61.6c14.1,12.5,36.6,30.8,39.1,56.2
		c2.5,25.4,16.2,66.6,31.2,75.7c15,9.2,20.4-2.9,26.6-16.2c6.2-13.3,5.8-28.3,12.5-43.3c6.7-15,19.6-21.2,23.3-42
		c3.7-20.8,16.2-35.8,23.3-49.5c7.1-13.7,22.5-20.4,15-45.4s-9.1-53.7-5.4-78.2c3.7-24.5,4.8-77.8,7.4-95.7
		c2.6-17.9,1.7-57.4,3-77.8s11.2-67.4,20.4-87c9.2-19.6,18.3-44.5,18.3-44.5"/>
	<line class="st1" x1="605.9" y1="779.8" x2="605.9" y2="765.1"/>
	<path class="st1" d="M596.3,794.6c0,0-20,14.6-19.1,36.2c0.8,21.6,0.4,57.8,5.8,68.7c5.4,10.8,7.1,53.7,13.3,71.2
		s14.1,51.4,33.7,46.9s19.6-28.2,19.6-46.1c0-17.9-9.2-45.8-10-72.8c-0.8-27-5-44.1-9.2-66.2S618.4,787.6,596.3,794.6z"/>
	<line class="st1" x1="632.3" y1="1017" x2="640.4" y2="1031.4"/>
	<path class="st2" d="M418.9,1213.7c3.2,13.7,5.8,24.5,6.8,28.2c3.3,11.7,12.9,46.6,12.9,66.6c0,20,4.6,33.7,7.9,50.3
		c3.3,16.6,14.7,54.9,19.2,73.2c4.5,18.3,14.1,41.1,16.6,66.3c2.5,25.2,11.7,60.2,27.9,72.6c16.2,12.5,31.1,31.6,79.8,21.6
		c48.8-10,60.8-27,77-40.4c16.2-13.3,39.5-35.4,55.3-59.1s32.5-40.8,42-65.3s35.4-35.4,57-26.6c21.6,8.7,59.5,30.4,81.6,11.7
		c22.1-18.7,23.7-37.9,42.4-57.8c18.7-20,32.5-27.9,71.2-35.4c38.7-7.5,117.8-10.4,135.6-11.7c17.9-1.2,86.1-5.8,99-8.3
		c12.9-2.5,52.8,0.8,68.7,3.7c15.8,2.9,47.9,24.5,58.7-2.1c10.8-26.6,14.6-40.4,35.8-64.9c21.2-24.5,30.4-29.1,32.5-65.3
		s-3.7-64.9,6.2-80.7s39.1-22.1,49.1,11.7s31.2,116.5,87.8,89.9c56.6-26.6,77.4,9.2,79.5,10.8c2.1,1.7,30.4,49.1,92.4,33.3
		s91.5-36.2,134.8-3.3c43.3,32.9,49.5,62.4,52,85.7c2.5,23.3,2.5,143.1,27.5,126.9c25-16.2,39.5-32.9,50.8-51.2
		c11.2-18.3,32-66.2,53.7-68.7c21.6-2.5,34.1,4.2,50.8,17.5c16.6,13.3,49.9,30,74.9,30.8s54.1,3.3,63.2,36.2s7.1,90.3,2.9,107.8
		c-4.2,17.5-7.5,52.8-9.2,75.3s6.7,108.6,12.7,133.1c6,24.5,1,91.5-6.9,117.8s-10.4,55.3,14.6,43.7s46.2-0.8,44.9,20
		c-1.2,20.8,1.7,42.9,12.5,66.2c10.8,23.3,24.1,42.4,16.6,60.3"/>
	<path class="st2" d="M491.5,1880.6c-4.1-19.4-4.4-35.3-5.4-45.4c-2.1-19.5-10-69.8-9.6-90.6s10.8-66.8,0-108.1
		c-10.8-41.3-22.5-59.6-49.9-75.4c-27.5-15.8-57.4-45-72.8-62.7c-15.4-17.7-34.5-36.8-57.4-48.9c-22.9-12.1-59.5-39.1-40.8-81.6
		s45.8-77.4,58.3-103.2c12.5-25.8,25-67,29.5-79.1s17.1-57.4,23.3-64.9c6.2-7.5,25-15,31.2,6.2c2.1,7.3,5.7,21.7,9.6,37.9"/>
	<path class="st2" d="M668.3,2034.1c0,0,20-19.1,10-32.4c-10-13.3-33.7-9.6-50.3-11.7c-16.6-2.1-83.2-0.8-111.9-47.9
		c-2.4-3.9-4.6-7.8-6.6-11.6"/>
	<path class="st1" d="M1882.9,0c0,0-8.1,7.8-15.6,27.8c-7.5,20-17.5,54.6-21.8,74.7c-4.4,20.1-11.9,71.3-20.6,94.4
		s-22.5,73.6-30,94.9c-7.5,21.2-20.6,68.7-37.4,89.9c-16.9,21.2-33.1,48.7-64.9,74.9c-31.8,26.2-58.7,68-68,101.1
		c-9.4,33.1-10,75.5-15,101.7c-5,26.2-13.7,84.9-13.1,106.1c0.6,21.2,0.6,64.3,6.9,92.4c6.2,28.1,16,76.1,24.5,98.6
		c8.5,22.5,13.1,41.2,35.8,10.6s8.3-54.9,39.5-63.7c31.2-8.7,44.3,8.7,70.5,17.5c26.2,8.7,88.6,51.2,105.5,66.2
		c16.9,15,71.2,57.4,86.1,83s33.7,40.6,41.8,15.6s39.3-30,55.5-35c16.2-5,31.8-11.2,47.4-18.1c15.6-6.9,69.9-15.6,95.5,18.7
		c25.6,34.3,46.2,47.4,66.2,68s39.9,54.3,63,51.2c23.1-3.1,16.2-15.6,4.4-29.3s-28.1-35.6-8.7-45.6s18.7-14.4,3.1-35.6
		c-15.6-21.2-43.1-55.5-75.5-73c-32.5-17.5-84.9-39.9-111.7-48.7c-26.8-8.7-78-26.8-104.2-37.4c-26.2-10.6-93-51.2-124.8-73
		c-31.8-21.8-82.4-57.4-96.7-83c-14.4-25.6-28.1-59.9,3.7-97.4c31.8-37.4,80.5-59.3,94.2-70.5c13.7-11.2,123.6-81.1,149.2-106.1
		c25.6-25,111.7-106.7,133.6-131.1c21.8-24.3,81.1-86.1,102.4-118c21.2-31.8,50.6-81.1,61.2-94.2s53.7-99.2,64.9-127.6"/>
	<path class="st1" d="M1899.7,0c0,0-10.6,54-11.9,69.6s-14.4,57.8-30.6,91.3c-16.2,33.5-31.8,94-33.7,102.2
		c-1.9,8.1-28.7,96.1-58,131.7c-29.3,35.6-63,79.9-84.9,101.1c-21.8,21.2-52.6,66.8-52.9,118s15.4,109.2,14.2,131.7
		s-1.2,107.4,1.2,118.6s-8.7,53.7,32.5,26.8s91.7-6.2,141.1,25.6s83,59.3,99.9,68c16.9,8.7,47.4,25,56.2,44.9
		c8.7,20,21.8,32.5,43.1,16.2c21.2-16.2,38.7-14.4,50.6-15.6s20.6-3.7,42.4-13.1c21.8-9.4,41.2-13.8,63.7-7.5
		c22.5,6.2,57.6,10.9,54.3-14.4c-3.3-25.2-51.8-18.7-68-20.6c-16.2-1.9-81.1-16.2-108-36.2c-26.8-20-68.7-55.5-98.6-69.3
		c-30-13.7-60.5-49.3-86.1-63c-25.6-13.7-62.4-44.3-75.5-94.9s15.6-73.6,36.2-91.7s139.8-87.1,147.3-92.9
		c7.5-5.8,89.9-71.9,101.1-85.6c11.2-13.7,123-125.5,131.7-134.8c8.7-9.4,79.3-91.1,91.1-111.7s51.8-82.4,56.2-89.3
		s48.7-92.4,53.7-105.2"/>
	<path class="st2" d="M1678.6,789.9c2.6,11.5,4.8,22.4,5.2,33.7c0.6,19.3-3.7,31.2,25.6,28.7c29.3-2.5,71.2,11.2,100.5,30
		c29.3,18.7,64.9,43.1,90.5,63c25.6,20,50.6,30,64.9,39.9c14.4,10,22.5,29.3,44.9,25c22.5-4.4,31.2,0.6,36.8,0.6
		c5.6,0,31.2-13.1,5-28.1c-26.2-15-43.7-20-48.1-45.6c-4.4-25.6-33.1-38.7-56.8-59.9c-23.7-21.2-36.2-23.7-68-41.8
		c-31.8-18.1-65.5-51.2-81.1-73c-15.6-21.8-35-49.3-23.1-88.6c11.9-39.3,36.8-64.9,61.2-81.1c24.3-16.2,96.1-59.6,104.2-66
		c8.1-6.4,76.8-58.2,84.9-67.5c8.1-9.4,75.5-78,92.4-100.5c16.9-22.5,85.5-102.4,101.7-121.7c16.2-19.3,54.3-65.5,68.7-84.9
		c14.4-19.3,48.7-69.3,63.7-93s32.5-59,32.5-59"/>
	<path class="st2" d="M1919.1,0c0,0-10.6,25.3-3.1,52.7s4.4,84.9-19.3,108c-23.7,23.1-30.6,59.9-39.3,86.8
		c-8.7,26.8-12.5,51.8-27.5,79.9s-54.9,89.9-70.5,104.2c-15.6,14.4-70.5,92.4-81.1,111.1c-10.6,18.7-23.1,55.5-18.1,92.4
		c5,36.8,6.4,40.6,3.5,60.5c-1.5,10,0,21.4,2.3,33.1"/>
	<path class="st1" d="M1944.7,0c0,0-6.9,18.2-2.3,42.3c4.6,24.1,10.2,80.7-1.6,100.7c-11.7,20-36.7,68.7-42.9,82
		c-6.2,13.3-23.3,72.4-27.9,87c-4.6,14.6-20.4,57.4-53.3,82c-32.9,24.5-79.1,88.6-92.8,105.7c-13.7,17.1-35.4,78.6-35.4,117.3
		s12.9,98.2,19.1,119c6.2,20.8,21.2,69.1,25,78.2s10.4,9.6,23.7,11.2c13.3,1.7,32.9,16.6,39.9,22.5c7.1,5.8,30.4,19.1,47.9,27
		c17.5,7.9,16.2,13.3,30,15.4s18.3-1.7,22.5-10.8c4.2-9.2,0.4-26.2-13.7-33.7c-14.1-7.5-52.8-29.5-67.8-39.5c-15-10-32-48.7-42-71.6
		c-10-22.9-22.9-62.8-9.2-91.1c13.7-28.3,35.8-42.4,50.8-51.2s84.1-55.3,100.7-62.4s62.8-49.9,76.1-60.7
		c13.3-10.8,42.9-50.8,52.8-64.5c10-13.7,52.8-73.6,64.1-85.7c11.2-12.1,98.6-130.7,112.3-147.7c13.7-17.1,81.6-94.5,99.4-121.9
		S2349.8,0,2349.8,0"/>
	<path class="st1" d="M1969.9,0c0,0-0.4,23.6,6.2,54.8s13.3,50.8-9.6,94.9s-41.2,64.1-57,108.2c-15.8,44.1-10.8,106.9-45.8,134.8
		c-35,27.9-96.5,79.5-105.3,87.8c-8.7,8.3-49.5,61.3-45.8,104.9c3.7,43.6,0,34.9-4.2,49c-4.2,14.1,4.6,69.9,16.6,93.2
		c12.1,23.3,28.7,47,41.6,42c12.9-5,5.8-20-2.5-34.5s-30-58.3-21.2-79.9c8.7-21.6,18.7-46.6,40.8-59.5
		c22.1-12.9,65.3-39.5,86.1-50.3s90.7-59.9,103.6-72.8c12.9-12.9,60.3-71.2,73.6-95.3c13.3-24.1,51.2-94.5,59.1-115.7
		s61.2-91.5,74.9-110.3c13.7-18.7,54.9-57.8,69.1-71.6c14.1-13.7,51.6-57.4,56.6-66.6S2316,0,2316,0"/>
	<path class="st1" d="M2291.9,0c0,0-15.8,27.4-30.4,39.8c-14.6,12.5-54.1,44.5-69.5,57c-15.4,12.5-51.6,43.3-72.8,87.8
		c-21.2,44.5-51.6,114-58.7,130.7c-7.1,16.6-34.8,67-42.8,82.8c-8,15.8-24.6,34.5-31.3,43.3c-6.7,8.7-46.2,45.8-62,55.3
		c-15.8,9.6-69.9,44.5-86.5,51.2s-51.2,30.8-60.8,40.8c-9.6,10-34.5,27.9-41.2,12.5c-6.7-15.4-1.7-59.5,20.4-77.8
		c22.1-18.3,63.2-62.4,79.9-75.7c16.6-13.3,57.8-51.6,67.4-69.9s30.8-95.3,40.4-120.3s32.9-99,42.9-119.8
		c10-20.8,13.7-62.4,12.9-80.3c-0.8-17.9-7.9-57.3-7.9-57.3"/>
	<path class="st1" d="M2008.1,0c0,0-2.9,20.3,0,50.7s8.3,55.3-5,87.8c-13.3,32.5-12.1,55.3-18.7,69.9c-6.7,14.6-30.8,85.3-35.8,97.4
		c-5,12.1-30.8,101.1-36.6,111.1s-26.6,30-33.7,46.2s-22.1,25.8-32.5,35.8c-10.4,10-16.2,20.8-18.7,30.8c-2.5,10,7.1,14.1,17.1,7.5
		c10-6.7,40.4-22.5,48.7-27c8.3-4.6,45.8-28.3,59.1-41.6c13.3-13.3,24.1-34.5,34.1-51.6c10-17.1,21.8-52.8,26.9-58.7
		s40.9-91.5,47.1-103.6c6.2-12.1,23.7-58.7,30.8-71.6c7.1-12.9,8.7-25,25.4-45.8s36.2-46.6,42.4-54.1c6.2-7.5,48.3-49.9,59.1-59.9
		c10.8-10,19.6-23.2,19.6-23.2"/>
	<path class="st2" d="M2023.5,0c0,0-2.4,24-2,38.2s11.2,61.2,2,78.6c-9.2,17.5-15.4,44.1-17.1,58.7c-1.7,14.6-2.1,34.5-5.8,49.1
		c-3.7,14.6-12.9,46.2-17.5,58.7s-19.1,51.6-17.1,69.5c2.1,17.9,23.4,18.7,30.4,7.9s27-47,35.5-62.4c8.5-15.4,31.4-70.3,36.4-90.3
		s16.6-48.7,27.9-68.2c11.2-19.6,25.8-49.1,41.2-66.6c15.4-17.5,60.3-67.2,64.1-73.1"/>
	<path class="st1" d="M2044.3,0c0,0,7.1,6.1,5,25.3c-2.1,19.1-6.7,67.4-7.1,76.1c-0.4,8.7-5.8,36.2,0,62s15,19.6,21.6,9.2
		s16.2-40.4,27.5-53.7c11.2-13.3,29.1-50.8,36.6-59.5c7.5-8.7,13.7-30.8,25.4-38.7S2171.7,0,2171.7,0"/>
	<path class="st1" d="M2060.1,0c0,0-3.7,30.3,9.6,36.1c13.3,5.8,25.4-4.2,31.6-13.7c6.2-9.6,14.1-22.4,14.1-22.4"/>
	<path class="st1" d="M354.2,1196.6c0,0,7.1-12.1,10-18.7c2.9-6.7,16.6-19.1,25.8,0c9.2,19.1,14.6,43.7,21.2,57.4
		c6.7,13.7,18.3,59.1,19.6,67.8c1.2,8.7,6.7,46.2,7.1,54.1c0.4,7.9,12.5,48.3,17.5,58.7c5,10.4,10.8,32.5,13.3,41.2
		c2.5,8.7,2.9,31.6,5.4,46.2c2.5,14.6-12.5,31.2-18.7,39.1c-6.2,7.9-15.8,9.6-29.5,0s-61.2-47.9-67.4-57.4s-37.9-41.6-47.9-52
		c-10-10.4-34.1-36.6-30.8-62c3.3-25.4,20.4-49.1,24.5-66.2c4.2-17.1,23.7-55.1,30-67.5C340.4,1224.9,354.2,1196.6,354.2,1196.6z"/>
	<path class="st1" d="M356.7,1234.4c0,0-20.8,20-33.7,52.8c-12.9,32.9-8.7,61.2-2.5,91.5c6.2,30.4,29.5,61.6,36.2,74.1
		c6.7,12.5,35.8,43.3,49.1,51.6c13.3,8.3,43,15.4,54.5-2.5c11.5-17.9,4.6-41.6-2.5-50.8c-7.1-9.2-22.1-39.5-23.3-65.7
		c-1.2-26.2-9.6-51.6-12.1-68.7s-8.7-33.7-10.4-43.3S403.3,1203.7,356.7,1234.4z"/>
	<path class="st1" d="M363.7,1251.9c0,0-11.2,9.6-17.1,26.6s-12.1,53.7-11.7,68.2c0.4,14.6-0.4,42.4,14.3,62
		c14.8,19.6,42.7,49.9,50.1,59.9s27,22.5,38.7,12.5c11.7-10,6.7-25,3.3-36.2c-3.3-11.2-14.6-33.3-22.5-63.2
		c-7.9-30-14.6-61.2-17.5-77.4c-2.9-16.2-1.7-43.3-15.8-52.4S367.6,1248,363.7,1251.9z"/>
	<path class="st1" d="M374.1,1302.7c0,0-13.3-6.2-19.1,5c-5.8,11.2,0,46.9,2.9,58.2c2.9,11.3,25.4,62.9,36.2,75.4
		c10.8,12.5,22.5,16.2,28.3,1.7c5.8-14.6-5.4-49.5-10.8-59.1c-5.4-9.6-11.2-28.7-18.3-49.9C386.2,1312.7,386.2,1310.6,374.1,1302.7z
		"/>
	<path class="st1" d="M686.6,2034.1c0,0,19.6-23.3,20.4-33.2s-10.4-25-66.2-28.3c-55.8-3.3-93.6-12.9-116.5-42.9
		c-22.9-30-21.2-75.7-22.9-90.3c-1.7-14.6-6.2-23.3-6.7-51.2c-0.4-27.9-1.2-74.9,2.5-90.7c3.7-15.8,5.4-47.4,56.2-63.7
		s75.3,4.6,106.1-27.5c30.8-32,56.6-71.4,66.6-81.7c10-10.3,55.3-53.1,65.7-68.5c10.4-15.4,41.6-37,87.4-12.1
		c45.8,25,48.7,28.3,57.4,20.8c8.7-7.5,11.2-28.3,11.2-42s-2.9-64.5,36.6-81.6c39.5-17.1,81.8-11.7,97.9-9.6
		c16.1,2.1,67.7,4.6,102.7,2.1c35-2.5,53.3-12.9,75.7-17.5c22.5-4.6,73.2,2.9,90.7,18.7c17.5,15.8,42,37.9,50.3,15.4
		s14.6-48.3,29.5-66.2c15-17.9,29.1-48.7,37.4-69.9s7.1-34.1,21.6-34.1c14.6,0,26.6,19.6,34.1,24.5c7.5,5,34.1,37.4,65.3,27
		c31.2-10.4,47-12.5,76.1,4.6s43.7,39.1,62,40.8c18.3,1.7,40.8-10.4,57-22.5c16.2-12.1,56.6-26.6,83.6-4.6
		c27,22.1,56.6,54.5,65.3,83.2c8.7,28.7,12.1,71.6,10.8,92c-1.2,20.4-1.7,64.1,12.5,64.5c14.1,0.4,23.3-15.4,29.1-25.4
		c5.8-10,25-22.5,42.4-31.2s19.6-12.9,24.1-26.2s15-56.2,47-49.5c32,6.7,41.2,28.3,56.6,30.8c15.4,2.5,69.5-0.8,90.3,36.6
		s18.7,72.4,13.3,85.7c-5.4,13.3-13.7,77.8-19.6,91.1c-5.8,13.3-5,39.1,3.3,62.4c8.3,23.3,12.5,73.2,10,94.5s-5.8,91.1-7.9,104
		c-2.1,12.9-12.9,69.9-13.3,79.9s3.7,31.6,20.4,6.2c16.6-25.4,31.2-52.8,47-45.4c15.8,7.5,11.7,25.4,11.7,40.8s7.1,44.9,12.9,57.4
		s13.3,32.4,13.3,32.4"/>
	<path class="st1" d="M704.8,2034.1c0,0,10-16,18.7-24.7c8.7-8.7,16.5-22.2-4.1-34s-68.7-16.9-77.7-18.7c-9-1.9-78.3-11.9-92.2-24.7
		c-13.9-12.8-28.2-30.6-29.8-52.1s-7.2-74.6-6.2-88.6c0.9-14,3.1-70.2,4.7-80.5c1.6-10.3,7.5-54,35.9-60.2
		c28.4-6.2,54.3-5,77.4-11.5c23.1-6.6,43.4-35.9,55.9-45.6s47.7-55.2,54.9-60.9c7.2-5.6,64.9-56.2,74.6-62.7
		c9.7-6.6,44.6-30,80.8-6.2c36.2,23.7,44.3,26.5,55.9,14.4c11.5-12.2,8.1-31.8,11.5-43.7c3.4-11.9,3.1-35.3,8.1-49.3
		c5-14,18.7-36.8,64.3-39.6c45.6-2.8,94.2-1.2,113.3,2.2c19,3.4,42.4,3.7,65.2-5.6s68.3-28.7,118.3,0s64.3,40.6,75.8,26.2
		c11.5-14.4,15.3-31.1,21.5-41.3c6.2-10.2,25.6-41.4,49.3-64.2s54.6-30.6,74.3-15c19.7,15.6,37.8,26.2,58.7,14.7
		c20.9-11.5,53.4-13.7,79.3,13.4c25.9,27.2,48.7,39.9,83.6,15.6s45.3-44.6,77.4-23.1c32.1,21.5,42.8,35.9,54.6,52.4
		c11.9,16.5,18.4,59.3,19.7,78.6c1.2,19.3,9.1,71.5,13.7,93s11.9,43.7,26.8,35.3c15-8.4,13.7-28.1,22.2-44.6
		c8.4-16.5,10-25.3,36.5-37.4c26.5-12.2,32.5-20.3,42.4-39.6c10-19.3,25-34,46.8-10.3c21.8,23.7,34.3,29.6,57.7,25.9
		s60.9,11.5,67.7,39.3s-6.2,90.5-10.6,106.7c-4.4,16.2-11.9,48.4-5.6,86.4c6.2,38.1,24.7,98.3,9.1,137s-17.8,95.2-20.3,112
		c-2.5,16.9-12.8,95.8-8.7,112.3c4.1,16.5,25,22.2,32.1,10c7.2-12.2,7.2-29.3,15.3-46.5c8.1-17.2,15.6-46.5,30-47.1
		s11.9,15.6,13.4,35.3c1.6,19.7,15.6,56.5,17.5,60.5c1.9,4.1,3.4,6.6,3.4,6.6"/>
	<path class="st1" d="M723.4,2034.1c0,0,21.6-21.8,27.5-33.7c5.8-11.9,5.6-21.8-13.7-28.5c-19.3-6.7-48.3-22.1-62-23.3
		s-87.8-12.1-103-26c-15.2-13.9-39.3-31.8-40.9-85.8c-1.6-54,4.1-101.1,15.9-118.6s37.4-33.1,62.7-46.8s62.4-34.6,74.9-53.4
		c12.5-18.7,60.9-56.2,71.5-63.7c10.6-7.5,55.2-49.3,75.2-57.7c20-8.4,42.1-11.5,71.2,1.7c29,13.2,58.7,6.1,69.6-19.5
		c10.9-25.6,12.2-53.7,17.5-71.5s29-45.6,72.4-39.3c43.4,6.2,108.9,2.8,132.9,2.5c24-0.3,79.3-24,133.9-6.9s54.9,51.8,76.5,48.1
		c21.5-3.7,25-30.9,35.3-48.4c10.3-17.5,31.5-62.1,51.5-69.9s34.3-3.7,57.7,9.7c23.4,13.4,34.6,6.6,59-0.3
		c24.3-6.9,47.4-4.7,67.4,8.1c20,12.8,68.7,36.5,104.9,20.6c36.2-15.9,63.7-37.1,97.4,1.6c33.7,38.7,26.5,102.4,29.6,116.4
		c3.1,14,2.8,42.4,10.6,60.9c7.8,18.4,26.8,42.1,32.8,53.7c5.9,11.5,15.9,20.9,26.5,4.7c10.6-16.2,20.9-54,44-65.2
		s29.6-9.1,44.9-36.2s11.5-43.1,28.4-46.2c16.9-3.1,27.1,3.4,34.3,13.7c7.2,10.3,18.7,9.4,37.1,10s45.9,11.9,44,48.7
		c-1.9,36.8-6.2,69.9-10,90.8s-7.5,58.4,4.1,83c11.5,24.7,18.9,64.6,6,121.1c-12.9,56.5-33.8,141.7-34.4,152.6
		c-0.6,10.9-12.2,57.7-11.2,69.6s1.6,23.2,1.6,23.2"/>
	<path class="st1" d="M737.6,2034.1c0,0,12.5-19.4,25.6-28.1c13.1-8.7,26.5-19,12.2-28.4c-14.4-9.4-39.6-7.8-59-21.2
		c-19.3-13.4-41.8-9.1-62.7-20.6c-20.9-11.5-69.3-20.3-82.4-42.1s-23.1-34.6-21.7-77.7c1.4-43.1,12-72.1,37.6-97.7
		s46.5-20.9,70.2-47.4c23.7-26.5,69-59.9,76.8-69.3c7.8-9.4,77.7-53.7,91.7-60.9c14-7.2,41.5-19.3,87.4-20.3
		c45.9-0.9,63-0.6,70.2-32.5c7.2-31.8,11.2-58.7,26.2-77.7c15-19,36.5-25,72.7-25.3c36.2-0.3,100.8,4.7,109.5,2.8
		c8.7-1.9,72.7,4.4,88.9,7.2c16.2,2.8,68.1,7.8,93.5,31.2c25.4,23.4,38.5,14.7,48.5-0.9c10-15.6,40.3-59.6,64.6-79.3
		s44.6-34.6,67.4-32.1c22.8,2.5,40.6,9.4,59,14.7c18.4,5.3,52.4,10.9,68.7,12.8s34,8.7,45.6,14c11.5,5.3,39.3,7.5,61.5,5.3
		c22.2-2.2,64.6-0.3,83.3,43.7c18.7,44,18.1,71.8,21.5,92.4c3.4,20.6,11.9,38.1,23.7,49.9s30.3,39,28.1,51.2
		c-2.2,12.2,0.6,35.6,8.4,46.2s14,2.2,24.7-10.9c10.6-13.1,27.5-54,37.1-67.1s15-31.9,36.2-41.2c21.2-9.4,26.2-20.3,34.3-32.8
		c8.1-12.5,36.8-38.4,71.8-16.9s35.3,56.8,25.3,89.9c-10,33.1-24,84.3-17.5,103.6c6.6,19.3,21.8,41.5,28.7,61.8
		c6.9,20.3-2.2,79.6-13.1,102.7s-37.4,76.5-41.5,92.7s-18.7,48.7-18.1,74.6c0.6,25.9,4.1,33.8,4.1,33.8"/>
	<path class="st2" d="M880.6,1544c3.7-1.2,7.2-2.2,10.5-3c35.6-8.4,61.2-4.4,82.1-7.8c20.9-3.4,28.4-8.4,29.6-29
		s-3.4-44.9,17.5-65.2c20.9-20.3,60.2-21.5,92.7-21.2c32.5,0.3,86.8-1.2,98.3-2.2c11.5-0.9,73.3-3.1,108.6,3.7
		c35.3,6.9,41.3,14,54.5,30c13.2,15.9,37.9,29,50.4,8.7s25-45.9,43.1-62.1c18.1-16.2,49.9-35.6,103.9-42.8
		c54-7.2,83.6,3.4,109.2,13.1s49.6,35.9,75.2,35.6c25.6-0.3,72.7,9.4,90.2,44.3c17.5,35,22.2,50.6,24.7,66.8
		c2.5,16.2,7.8,28.1,21.2,44.3c13.4,16.2,48.4,61.2,48.4,92.7s-1.6,50.6,14.4,37.8c15.9-12.8,27.5-25.6,32.1-35.6
		c4.7-10,34.3-53.7,42.8-66.8s35.9-54,82.1-47.7c46.2,6.2,50.9,30.6,44,57.4s-18.1,71.8-12.5,87.1c5.6,15.3,12.5,30.9,24.3,39.3
		s22.2,34.3,10.9,63.7c-11.2,29.3-31.8,81.5-36.5,91.7c-4.7,10.3-35,61.5-39.9,73.6c-5,12.2-17.8,41.2-23.1,55.9
		c-5.3,14.7-3.7,27.8-3.7,27.8"/>
	<path class="st2" d="M758.8,2034.1c0,0,15.3-22.8,32.8-32.8s16.9-17.5,3.1-29c-13.7-11.5-32.1-14.7-53.1-23.1
		c-20.9-8.4-59.6-18.1-74.3-23.1c-14.7-5-62.1-19.3-75.5-34.6s-37.1-32.8-24.3-74.9s35.6-40.9,46.5-52.1
		c10.9-11.2,33.4-31.5,41.8-49c8.4-17.5,39.6-48.5,45.6-53.6s66.5-57.2,76.5-65.9c3.9-3.4,16.8-11.4,33.2-20.3"/>
	<path class="st1" d="M775.7,2034.1c0,0,7.5-14.1,28.4-26.9c20.9-12.8,20.6-20.6,9.4-33.7c-11.2-13.1-37.4-28.4-59.3-39.6
		c-21.8-11.2-64-21.2-84.9-28.4s-66.5-31.2-77.7-42.8c-11.2-11.5-13.1-40.6,6.6-58c19.7-17.5,40.9-18.7,55.5-38.7
		c14.7-20,41.8-51.2,44.9-61.5c3.1-10.3,26.8-31.3,37.1-42.7c10.3-11.3,53.4-50.3,72.1-63.4c18.7-13.1,54.9-34.8,98.9-42.5
		s55.2-10.2,80.5-3.7c25.3,6.6,42.8-1.9,40.6-27.5s-15-54.9,7.8-67.1c22.8-12.2,50.9-22.5,91.4-20.6c40.6,1.9,95.8,3.4,118.9,1.2
		c23.1-2.2,63-4.1,88.3,5.3c25.3,9.4,46.5,30.9,57.1,41.8c10.6,10.9,23.7,16.9,35.9-2.5c12.2-19.3,33.1-50.6,45.9-65.5
		c12.8-15,40.9-29.6,93.9-38.4c53.1-8.7,83.6,4.4,107.4,14s61.5,29.6,73.6,37.8c12.2,8.1,41.2,25.3,54.6,33.1
		c13.4,7.8,34.3,23.1,38.1,49c3.7,25.9,12.5,62.1,33.4,80.8c20.9,18.7,46.8,44.9,51.2,58.4c4.4,13.4-0.3,49-3.7,64.6
		c-3.4,15.6-2.2,37.1,10.6,32.1c12.8-5,17.8-22.8,22.8-30c5-7.2,37.8-62.7,49.6-75.8c11.9-13.1,30.9-44.3,35.6-54
		c4.7-9.7,34.6-41.7,59.9-33.2c25.3,8.5,26.8,28.5,24.3,50s-12.8,70.1-9.1,86.5c3.7,16.4,7.8,20.8,18.4,29.2s38.4,32.8,30.6,58.4
		s-23.7,58.4-24.7,63.4c-0.9,5-37.4,69-40.6,74c-3.1,5-39.3,69.6-41.5,74.6c-2.2,5-18.4,33.8-20.3,42.2"/>
	<path class="st1" d="M796.3,2034.1c0,0,14.7-16,30-24.7c15.3-8.7,31.5-20.3,15-37.8c-16.5-17.5-44.6-36.5-63.4-47.4
		c-18.7-10.9-56.8-26.2-77.7-31.2c-20.9-5-58.7-6.6-81.1-32.5c-22.5-25.9-14.4-38.1,0-51.8s50.9-25.9,63.4-46.2
		c12.5-20.3,23.1-38.1,29.6-53.1s20-37.3,40.3-47.7s55.9-36,68-47.5c12.2-11.5,61.2-36.2,71.8-39.3c10.6-3.1,59.3-13.7,93.3-7.8
		c34,5.9,51.2,0.9,53.1-20.6c1.9-21.5-2.8-32.5,5.9-57.7c8.7-25.3,15-42.8,54.3-42.8s69.9,1.9,88,4.1c18.1,2.2,44,4.7,64.9,0.3
		c20.9-4.4,53.1,0.9,77.1,10.3c24,9.4,40.6,19.3,57.1,39.3c16.5,20,37.8,22.2,46.8,7.8s24-45.9,43.4-65.2
		c19.3-19.3,24-40.3,87.1-39.9c63,0.3,95.8,20.3,114.8,26.2s71.8,33.1,84.9,39.6s37.1,27.5,41.5,43.7c4.4,16.2,15,35,24.3,66.8
		c9.4,31.8,8.1,32.8,25,39.9s58.4,27.8,60.2,57.4c1.9,29.6-4.7,40.6-8.4,54.6c-3.7,14,1.2,20.9,2.8,31.5
		c1.6,10.6,10.3,21.5,20.6,6.9c10.3-14.7,27.8-38.1,35-45.9s28.4-44.9,45.3-60.2c16.9-15.3,33.4-39.9,41.2-51.2
		c7.8-11.2,52.7-28.1,54.9,4.1c2.2,32.1-14.4,95.8-1.6,115.8s35,23.7,39.9,37.8c5,14,6.6,42.8-5.9,62.4
		c-12.5,19.7-41.5,70.5-44.6,77.1s-36.2,52.1-46.5,67.7c-10.3,15.6-19,32.8-22.2,41.8s-7.5,15.4-7.5,15.4"/>
	<path class="st1" d="M826.8,2034.1c0,0,13.9-14.7,24.8-18.7c10.8-4,26.4-15.6,23.9-28.3c-2.5-12.7-5.6-17.3-17.9-26.8
		s-61.6-46.2-72.4-50.1c-10.8-4-52.2-23.9-64.5-27s-54.3-15.4-67-18.7c-12.7-3.3-29.1-18.5-20-38.7s30.2-19.6,41.6-34.3
		c11.4-14.8,35.6-39.9,41-50.1c5.4-10.2,36.2-47.6,46-54.5s67.8-56.2,79.7-62.6c11.9-6.4,33.5-23.5,72.8-29.8
		c39.3-6.2,88,6.9,109.8,0c21.8-6.9,35.6-39.3,34.3-59.3s-0.6-73.6,43.1-64.9c43.7,8.7,94.2,13.7,125.5,9.4
		c31.2-4.4,99.9-4.4,134.2,28.7c34.3,33.1,41.2,48.7,61.8,26.8c20.6-21.8,40.6-53.1,54.3-65.9s61.2-57.7,132.9-39.6
		c71.8,18.1,119.8,73,134.8,90.5c15,17.5,54.3,86.8,63,101.7c8.7,15,22.5,23.7,41.2,35c18.7,11.2,54.9,47.4,41.2,86.8
		c-13.7,39.3-18.9,78.6,3,76.1c21.9-2.5,56.9-32.5,71.2-47.4s31.8-41.2,41.2-58s6.9-21.2,25.6-35s41.8-30.6,39.9,6.9
		s-2.5,66.8,10,77.4c12.5,10.6,46.8,41.2,24.3,74.9s-8.7,37.4-29.3,54.9c-20.6,17.5-23.7,41.8-43.7,56.8s-31.8,33.1-39.3,51.2
		c-7.5,18.1-12.5,32.8-12.5,32.8"/>
	<path class="st1" d="M861.4,2034.1c0,0,29.5-19.5,36.2-31.6c6.7-12.1-0.8-20.8-11.7-34.5s-41.6-44.5-62.8-57.8
		c-21.2-13.3-50.8-30.4-76.1-37.4c-25.4-7.1-57.8-15.4-63.7-33.7c-5.8-18.3,0.4-29.5,8.7-40.8c8.3-11.2,21.6-34.1,31.6-44.1
		c10-10,48.3-52.6,57-61.7c8.7-9,51.6-48.2,96.9-60.6c45.4-12.5,84.5-15.8,114.8-15.8s48.7,1.2,64.9-25.4
		c16.2-26.6,10.8-41.8,30-65.9c19.1-24,40.8-26.1,72.8-28.2c32-2.1,64.1,5.4,91.5,3.7s64.7,11.2,78.8,16.2c14,5,43.6,15,52.7,34.5
		s25.4,32.5,43.7,13.3c18.3-19.1,47-55.3,55.3-62.8c8.3-7.5,37.9-48.7,87-47c49.1,1.7,83.2,9.6,109.4,30.8
		c26.2,21.2,45.4,40.4,54.5,67c9.2,26.6,44.5,87.4,57.4,101.9c12.9,14.6,22.5,24.1,40.8,32.5c18.3,8.3,44.9,27,39.1,62.8
		c-5.8,35.8-10.8,61.2-17.9,75.7c-7.1,14.6-3.4,38.3,18.7,32.9s62.4-22.9,82-37.4c19.6-14.6,54.5-53.7,76.6-54.1
		c22.1-0.4,60.3,35,39.5,78.6c-20.8,43.7-62.8,99-67,112.3c-4.2,13.3-33.7,57.4-35.8,64.5c-2.1,7.1-5,12-5,12"/>
	<path class="st2" d="M927,1645.5c15.3-3,32.1-5.1,49.2-5c44.5,0.4,62,1.2,84.5-22.1c22.5-23.3,20-32,27.5-46.2
		c7.5-14.1,30-36.4,57.8-47.6c27.9-11.1,90.3-7.8,116.5-2s64.1,10.8,87.8,23.3c23.7,12.5,32,27.5,37.4,37
		c5.4,9.6,13.4,28.7,27.9,18.7c14.5-10,28.7-37,34.1-46s44.1-52.2,64.9-63.5c20.8-11.2,61.2-37.4,119.4-13.7
		c58.3,23.7,69.1,67.8,83.2,87.8s35.4,81.1,41.2,93.6s17.9,31.6,37.4,38.7c19.6,7.1,62.4,39.9,58.3,64.5
		c-4.2,24.5-3.7,26.2-4.6,31.2c-0.8,5-8.3,26.2-12.9,42.4c-4.6,16.2-16.6,45.4,7.9,42c24.5-3.3,72.8-12.5,84.1-14.6
		c11.2-2.1,79.5-24.1,83.6,5.4s-10.4,55.8-24.1,75.7c-13.7,20-30,44.9-37.4,62.4c-7.5,17.5-10.8,26.2-10.8,26.2"/>
	<path class="st2" d="M885.1,2034.1c0,0,34.1-17.4,36.6-26.6c2.5-9.2,1.2-19.1-13.7-42.9c-15-23.7-46.6-49.5-72.8-67.8
		c-26.2-18.3-79.1-41.2-94-50.3c-15-9.2-28.7-15-14.6-54.9c14.1-39.9,50.3-56.4,64.1-73.2s62.4-49.8,80.3-56.6
		c1.5-0.5,3.1-1.2,4.9-1.8"/>
	<path class="st1" d="M917.3,2033.9c0,0,24.5-14.1,25.8-24.3s2.7-20.6-8.5-37c-11.2-16.4-37-42.4-46.6-49.1s-53.1-45.8-59.5-49.3
		s-41.6-31.8-50.1-45.4c-8.5-13.5-16-27.5-5.2-54.9c10.8-27.5,35.8-44.1,44.9-52.6s53.3-40.2,104-59.4
		c50.8-19.2,69.9-11.7,85.3-11.3c15.4,0.4,49.5,5,70.3-29.1c20.8-34.1,27.9-58.6,52.4-65.5c24.5-6.9,67-15.2,80.7-16.5
		c13.7-1.2,66.2-0.8,86.1,0c20,0.8,53.7,19.1,64.9,35.8c11.2,16.6,28.3,59.1,41.6,52c13.3-7.1,29.1-21.2,41.6-40.4
		c12.5-19.1,38.7-47.9,56.2-58.7c17.5-10.8,33.3-26.7,67-29.8c33.7-3.1,64.9-8.9,88.2,23.5c23.3,32.5,29.5,28.7,43.7,67
		c14.1,38.3,29.1,64.9,37.4,82.4c8.3,17.5,27.5,42,49.1,53.7c21.6,11.7,52.4,26.2,38.7,62.4c-13.7,36.2-20.8,37.4-21.2,58.7
		c-0.4,21.2,2.5,27-2.5,42c-5,15,1.7,24.5,17.9,17.1c16.2-7.5,46.6-20.4,87.4-11.2c40.8,9.2,60.8,25.4,41.2,62
		c-19.6,36.6-31.6,58.3-34.1,63.2c-2.5,5-4.6,14.9-4.6,14.9"/>
	<path class="st1" d="M942.3,2033.9c0,0,24.3-15.7,17.8-37.9s-23.4-44.9-30.3-60.2c-6.9-15.3-27.5-32.5-46.8-48.7
		s-52.7-36.5-65.5-54.3c-12.8-17.8-32-37.1-17.5-72.7c14.5-35.6,40.6-49.3,75.2-64c34.6-14.7,81.8-22.2,95.5-27.8s43.4-5,55.5-3.7
		c12.2,1.2,47.7-2.2,63-24c15.3-21.8,28.4-49.6,40.3-61.8c11.9-12.2,33.4-17.8,67.1-19.3c33.7-1.6,40.6-3.4,54.6-6.6
		c14-3.1,62.7,1.2,88,33.7c25.3,32.5,41.2,51.2,48.4,56.5c7.2,5.3,16.2,10.6,33.7-6.2c17.5-16.9,38.4-35.9,43.4-48.1
		c5-12.2,47.1-48.1,64-59.3c16.9-11.2,50.6-26.5,85.2-17.5c34.6,9.1,48.7,28.4,55.2,47.7c6.6,19.3,30.9,79.3,35.6,91.1
		s29,54,36.5,65.8c7.5,11.9,19.7,24,34.3,30s41.2,16.9,32.8,46.8c-8.4,30-15.9,40.3-16.2,50.9c-0.3,10.6,3.1,40.3-4.7,53.7
		c-7.8,13.4-7.8,35.6,11.5,27.2c19.3-8.4,30.3-12.8,51.5-11.9c21.2,0.9,25.6,1.9,41.8,1.2s31.8,5.9,40.9,18.1
		c9.1,12.2,4.7,22.5-7.5,40.6c-12.2,18.1-29,52.9-30.3,60.9"/>
	<path class="st1" d="M972.6,2034.1c0,0,24-6.6,16.2-27.2c-7.8-20.6-28.4-50.9-33.7-60.5c-5.3-9.7-19-27.2-39.6-45.9
		c-20.6-18.7-42.1-40.6-54.3-52.4s-36.2-30.6-37.8-53.4c-1.6-22.8,6.9-43.1,32.8-66.5c25.9-23.4,68.7-36.2,107-41.8
		c38.4-5.6,79.6-9.4,91.4-9.7c11.9-0.3,37.8-5.9,51.8-25s26.8-42.8,42.4-54.6c15.6-11.9,45.9-22.5,73-24s83.6-6.6,107,22.8
		c23.4,29.3,41.6,52.4,49.2,59.9c7.6,7.5,16.6,17.2,37.5,2.2s39.1-27.8,46.2-35.6s59.6-50.2,72.7-58.7s44-30,81.5-16.5
		c37.4,13.4,51.5,62.7,56.2,83.6c4.7,20.9,19.3,74,40.3,92.1c20.9,18.1,55.9,36.5,61.8,52.4s4.7,31.5,1.9,46.5s-9.7,81.1-10.9,99.9
		c-1.2,18.7,10.9,25.6,35.6,22.8c24.7-2.8,53.4-5,66.8-5.3c13.4-0.3,42.4-4.7,35,36.8c-7.5,41.5-18.1,44.9-20,50.6
		c-1.9,5.6-2.2,7.6-2.2,7.6"/>
	<path class="st1" d="M1029.7,2034.1c0,0,8.5-6-3.7-23.7c-12.3-17.7-40.6-42.2-53.1-63.5c-12.5-21.2-18.4-16.2-29.3-30.6
		c-10.9-14.4-34-41.5-50.2-54.3c-16.2-12.8-46.2-35.6-50.6-61.8s20.6-56.5,35.3-66.5c14.7-10,40.6-31.2,105.5-34
		s106.1-4.7,124.8-19.3c18.7-14.7,49-40.9,58.4-52.1s48.7-43.7,102.7-26.8c54,16.9,82.4,47.6,95.5,60.3s30.6,28,54,9
		c23.4-19,58.7-37.4,73-47.7c14.4-10.3,51.2-35.6,62.1-41.8c10.9-6.2,45.3-22.8,69.9-4.4c24.7,18.4,25.6,38.1,30.6,59.9
		c5,21.8,6.2,52.1,27.2,75.5s37.4,34.6,55.5,50.6c18.1,15.9,25,30.9,20.9,56.5s-14.7,80.5-13.7,95.2c0.9,14.7-8.7,44.6,34.3,51.5
		c43.1,6.9,72.4-5.9,86.1,10.6c13.7,16.5,6.6,31.2,2.2,40.3c-4.4,9.1-5,17.2-5,17.2"/>
	<path class="st2" d="M969.2,1713.1c5.6-0.8,11.4-1.5,17.5-2c39.6-3.4,79.3-4.7,93-5.9s44.6-7.2,56.2-19.7
		c11.5-12.5,38.7-51.5,62.1-60.2c23.4-8.7,69.9-9.3,104.2,11.6c34.3,20.9,52.1,41.5,64.3,53c12.2,11.5,30.9,10.2,47.1,2.6
		c16.2-7.6,53.4-29.1,69.9-39.7c16.5-10.6,48.7-33.1,59.3-42.4c10.6-9.4,47.1-18.1,67.1,0c20,18.1,25.6,40.9,29,49.9
		c3.4,9,10.9,40.6,30,60.5c19,20,44.3,38.8,56.2,67.8s7.8,63,1.9,85.1c-5.9,22.2-14.7,72.7-2.8,88.6c11.9,15.9,33.4,18.4,49,22.2
		c15.6,3.7,59.9,1.6,66.5,18.4c6.6,16.9,1.6,31.3,1.6,31.3"/>
	<path class="st2" d="M1060.9,2034.1c0,0-14.4-23.8-30-39.4s-42.1-54.9-51.2-63c-9.1-8.1-49.9-49.3-61.5-59
		c-11.5-9.7-39.1-32.1-45.1-62.1c-6-30,4.6-59.9,24.2-73c4.9-3.3,10.5-6.4,16.7-9.2"/>
	<path class="st1" d="M1083.7,2034.1c0,0-27.8-42.5-36.5-51.2c-8.7-8.7-55.5-64.6-64.9-75.2c-9.4-10.6-33.4-35.6-54.9-54.9
		c-21.5-19.3-30-36.1-27.8-64.2s21.5-47.2,55.2-57.2c33.7-10,54.6-9.1,78-6.9c23.4,2.2,75.8,7.5,93.3-1.4
		c17.5-8.9,25.9-17.9,43.4-43.8c17.5-25.9,27.5-38.7,57.4-44c30-5.3,53.4,9.4,63.7,15.6c10.3,6.2,53.4,42.4,61.8,52.4
		s31.5,25.3,58.4,13.7c26.8-11.5,40.9-24,62.7-35c21.8-10.9,49.6-35.9,62.7-45.2s44.3-30.3,65.8,4c21.5,34.3,39.9,75.5,56.2,90.5
		s45.9,41.5,45.9,62.4s-0.6,66.8,0,79.3s1.9,68,4.4,79.6c2.5,11.5,9.4,42.4,32.1,50.2c22.8,7.8,64.6,11.9,69.3,22.2
		c4.7,10.3,6.6,9.1,6.6,9.1"/>
	<path class="st1" d="M1102.4,2033.9c0,0-30.3-45.1-37.4-53.8s-36.5-44.3-46.8-54.6c-10.3-10.3-45.9-51.8-52.4-60.5
		c-6.6-8.7-29.3-28.1-35.3-44.9s-20-39.9,7.8-63s55.5-22.2,82.1-20.9s62.4,10,89.3,5.3s35.9-12.8,51.8-29
		c15.9-16.2,34.3-36.5,51.5-48.7c17.2-12.2,53.4-20.9,87.4,5.9c34,26.8,42.4,44,52.4,54.9c10,10.9,33.4,29,58,14.7
		c24.7-14.4,57.7-31.8,68.7-37.4c10.9-5.6,23.4-14.3,36.5-27.9s28.4-33.9,47.1-30.8c18.7,3.1,24,7.8,36.2,27.8
		c12.2,20,27.5,46.8,36.8,56.8c9.4,10,27.5,40.6,31.8,46.5c4.4,5.9,23.1,29.3,19.7,62.1s-2.2,87.4-2.8,103.9
		c-0.6,16.5,5,52.7,27.8,63.7s62.1,23.3,70.8,30.4"/>
	<path class="st1" d="M1135.8,2034.2c0,0-35.2-42.4-48.5-55.3c-13.3-12.9-60.3-76.1-77.4-89.9c-17.1-13.7-32.9-50-38.3-72
		c-5.4-22-0.4-49.7,29.5-51.9c30-2.2,90.3,7.4,101.5,3.3s33.3-2.1,65.3-32.5c32-30.4,47.4-40.4,63.7-50.8
		c16.2-10.4,49-20.6,73.4,7.4c24.4,28,38.9,63.4,77.2,67.1c38.3,3.7,72.4-20,85.3-25.4c12.9-5.4,48.7-25,60.3-37.9
		s22.1-32.9,43.7-24.5c21.6,8.3,27,22.5,37.4,42c10.4,19.6,27,40.4,34.1,55.8c7.1,15.4,26.6,40.1,22.5,82.4
		c-4.2,42.4,2.5,89.8,2.5,106s2.9,52.4,13.3,61.6c10.4,9.2,17.9,14.6,17.9,14.6"/>
	<path class="st1" d="M1169.3,2034.2c0,0-44.5-37.9-55.8-48.7s-33.3-40.4-48.7-55.3c-15.4-15-38.7-48.7-47.9-67
		c-9.2-18.3-25-38.7-5.8-57c19.1-18.3,39.5-12.1,54.5-11.7c15,0.4,51.6-0.8,85.3-27.5c33.7-26.6,41.2-38.9,57-48.6
		s73.4-38.4,100.6,7.4c27.2,45.8,22.6,60.3,71.3,58.3c48.7-2.1,84.9-19.6,91.5-24.5c6.7-5,25.4-6.2,52.4-37.4
		c27-31.2,69.9-9.2,83.6,17.5s18.3,38.3,25.4,45.8c7.1,7.5,20.4,19.1,20.4,55.8c0,36.6,1.7,62.8,0,78.6c-1.7,15.8,0.8,43.3,2.9,65.3
		c2.1,22.1,7.5,49.1,7.5,49.1"/>
	<path class="st2" d="M1165.8,1786.7c6.8-4,13.1-8.2,18.5-12.6c25.4-20.4,48.3-45.1,73.6-44.4c25.4,0.7,38.4,5,50.6,35.3
		c12.2,30.3,39.7,47.4,78.8,41.5c39.1-5.8,91.5-25.4,104.9-31.2s46.2-20.5,55.8-23.8c9.6-3.3,42.4-14,58.7,13.4
		c16.2,27.4,30.8,76.1,32,95.6s5.4,70.7,5,84.1c-0.4,13.3-0.8,78.2,2.1,89.5"/>
	<path class="st2" d="M1217.1,2034.2c0,0-59.5-26.2-76.6-40.8c-17.1-14.6-17.1-6.2-35-31.6c-17.9-25.4-45.4-50.8-54.5-69.1
		c-9.2-18.3-28.3-39.1-11.7-61.2c16.6-22.1,35-15.8,54.9-17.5c3.7-0.3,8.3-1.2,13.4-2.5"/>
	<path class="st1" d="M1270.8,2034.2c0,0-31.2-13.7-49.1-21.2c-17.9-7.5-49.5-29.1-79.9-48.3s-52.8-49.1-55.3-72.4
		c-2.5-23.3-0.8-52.4,43.7-67.4s56.2-22.5,77.4-44.9c21.2-22.5,39.9-42.9,61.2-33.7c21.2,9.2,25,22.6,33.7,42.3
		c8.7,19.7,25.8,50.5,79.9,41.7c54.1-8.7,72.4-16.6,90.3-24.1c17.9-7.5,69.5-24.5,85.3-29.5c15.8-5,50.3-3.3,49.9,30
		c-0.4,33.3-0.8,61.2,5.4,78.2c6.2,17.1,10.8,50.8,8.3,72c-2.5,21.2,0.8,60.3,6.2,77.4"/>
	<path class="st1" d="M1308.6,2034.2c0,0-4.5-17.1-44.8-27.9s-62.4-22.5-108.6-62c-46.2-39.5-39.1-40.2-42.9-62.3
		c-3.7-22.1,24.1-31.7,40.8-40c16.6-8.3,42.8-25,57.2-44.1c14.4-19.1,51.8-46.6,67.6-20c15.8,26.6,19,51.6,52.6,64.5
		c33.6,12.9,80.2,9.3,111.8-3.9c31.6-13.2,75.3-30.4,88.6-37.2s62-18.9,62.4,17.3c0.4,36.2-10,65.3,0,90.3s12.1,34.5,10.4,64.9
		c-1.7,30.4,3.7,60.3,3.7,60.3"/>
	<path class="st1" d="M1334.6,2034.2c0,0,2.8-19.1-31.7-35.8s-88.2-33.7-103.6-43.3c-15.4-9.6-45.8-30.4-57-49.9
		c-11.2-19.6-11.7-39.8,20.4-53.2c32-13.4,42-26.4,49.1-35c7.1-8.7,36.6-31.2,57.8-7c21.2,24.1,63.7,63,126.9,57.5
		s80.7-9.7,98.2-20.1c17.5-10.4,55.8-34.1,69.5,12.5s-1.2,31.2,14.1,68.2c15.4,37,9.6,59.9,10,70.3c0.4,10.4,2.9,35.8,2.9,35.8"/>
	<path class="st1" d="M1376.1,2034.2c0,0,14.8-24.1-45.7-44.9c-60.5-20.8-86.7-26.6-111.6-45.4c-25-18.7-53.7-38.6-49.1-61.9
		s37-49.2,73.2-45.8c36.2,3.3,65,38.4,96.4,45.8c31.4,7.4,65.5,7.8,85.9,2.8c20.4-5,86.1-12.2,109,4.3
		c22.9,16.5,30.4,44.8,28.7,65.2s8.3,70.7,10.8,79.9"/>
	<path class="st2" d="M1261.7,1941.8c-2.9-1.2-5.8-2.5-8.7-3.8c-35.8-15.8-47-29.3-46.2-49c0.8-19.7,20.8-38.6,69.1-21.7
		c48.3,17,41.2,25.3,108.6,36.1c67.4,10.8,80.3,4.6,92.8,0.8s57-1.1,59.5,30.6s4.6,92.9,5.8,99.2"/>
	<path class="st2" d="M1410.2,2034.2c0,0-3.6-32.9-48.4-52.8c-17.8-7.9-33-13.9-47.1-19.2"/>
	<path class="st1" d="M1431.8,2034.2c0,0-3.1-43.7-65-73.6c-61.9-30-93.5-33.7-105.2-47.9c-11.7-14.1-2.9-27.7,6.2-30.7
		c9.2-3,34.5,4.1,51.6,16.2c17.1,12.1,63.7,21.2,87.4,23.3c23.7,2.1,62.8-5.8,87.4,17.5c24.5,23.3,21.2,41.6,18.3,62
		s6.2,26.2,6.7,33.3"/>
	<path class="st1" d="M1461.8,1941.8c0,0-21.6,4.6-22.9,28.7s13.3,37.9,28.3,33.3s30.4-29.5,19.6-49.9S1465.1,1940.7,1461.8,1941.8z
		"/>
	<line class="st1" x1="1423.1" y1="1947.5" x2="1442" y2="1957.7"/>
	<line class="st1" x1="1475.4" y1="1999.3" x2="1481.4" y2="2018.4"/>
	<path class="st1" d="M2527,1498.4c0,0-13.1,58.5-16.8,83.5s-8.1,97.4-11.9,126.1c-3.7,28.7-2.5,67.4,5,83
		c7.5,15.6,11.2,27.5-3.7,43.1c-15,15.6-36.8,61.2-31.2,80.5s6.9,27.5-18.1,35c-25,7.5-30,33.7-33.7,46.8
		c-3.7,13.1-4.4,37.8-4.4,37.8"/>
	<path class="st1" d="M2424.6,2034.1c0,0,10-55.9,44.9-74.6c35-18.7,25-17.5,25.3-41.2c0.3-23.7,4.7-53.1,15.9-66.2
		c11.2-13.1,16.2-25,16.2-25"/>
	<path class="st1" d="M2527,1624.3c0,0-12.5,72.4-11.8,88.6c0.6,16.2-11.9,57.4,0,66.8c11.8,9.4,11.8,18.1,11.8,18.1"/>
	<path class="st1" d="M2447.5,2033.9c0,0,27.9-27.6,33.7-38.8c5.8-11.2,16.2-16.2,24.1-19.6c7.9-3.3,25.8-8.7,17.9-35
		c-7.9-26.2-13-34.1,3.7-89"/>
	<path class="st1" d="M2471.7,2033.9c0,0,33.2-41.3,55.3-53"/>
	<path class="st1" d="M2487.3,2033.9c0,0,21-31.3,39.7-37.6"/>
	<path class="st1" d="M2509.9,2034.1c0,0,12-14.1,17-15.8"/>
	<path class="st1" d="M2527,5.9c0,0-21.2,27.5-29.3,46.8c-8.1,19.3-37.7,52-44.3,60.3s-21.2,33.3-29.1,47.9
		c-7.9,14.6-29.5,59.1-33.7,69.1c-4.2,10-54.5,74.9-60.3,84.5c-5.8,9.6-52,60.7-59.9,70.7s-50.8,52.5-55.8,62.4s-58.3,76.1-67,88.2
		c-8.7,12.1-71.6,69.9-97.4,85.3c-25.8,15.4-72.4,42.4-87,48.3c-14.6,5.8-43.7,14.1-44.1,36.2s29.1,40.4,38.3,48.3
		c9.2,7.9,108.6,59.9,119.4,63.7c10.8,3.7,88.6,40.8,105.3,44.1c16.6,3.3,54.1,19,69.5,29.3c15.4,10.3,72.8,50.2,79.1,55.2
		s77,55.4,91.1,69.3c14.1,13.9,46.2,43.9,56.2,49.7c10,5.8,37.8,17.9,49.1,45.8"/>
	<path class="st1" d="M2527,1085.1c0,0-8.7-22.1-29.5-38.3s-55.3-53.3-75.7-64.1c-20.4-10.8-66.2-49.9-89-62
		c-22.9-12.1-69.1-37.4-83.2-45.8c-14.1-8.3-54.9-28.7-87-45.4c-32-16.6-42-27.5-68.7-34.1s-69.5-35.8-89.5-44.1
		c-20-8.3-39.5-35.4-33.7-51.2s43.3-30,53.7-36.6c10.4-6.7,71.2-49.9,89.5-68.7c18.3-18.7,51.6-53.7,69.1-78.2
		c17.5-24.5,61.6-73.6,79.5-94s64.1-74.9,70.7-83.6c6.7-8.7,77.4-86.1,86.5-97.4s28.3-45.4,40.8-63.7c12.5-18.3,36.6-62.8,44.9-82.4
		c8.3-19.6,21.6-47.9,21.6-47.9"/>
	<path class="st1" d="M2527,1056c0,0-11.8-20-21.8-30.3c-10-10.3-57.7-61.2-78.6-74.9c-20.9-13.7-71.5-43.1-98-56.5
		c-26.5-13.4-79-41.2-101.1-51.5c-22.2-10.3-75.2-40.6-101.7-57.4c-26.5-16.9-66.2-34.3-88-49.3c-21.8-15-15-36.8-5.6-51.2
		c9.4-14.4,64.3-50.6,68.3-56.2c4.1-5.6,59-54,78.6-71.8s50.9-67.4,81.8-103c30.9-35.6,62.7-74.7,74.3-86.3
		c11.5-11.6,90.2-87.5,98.3-98.4c8.1-10.9,51.2-56.2,61.5-71.8s32.1-62.7,32.1-62.7"/>
	<path class="st2" d="M2162.8,795.7c7.6,5,13.9,8.9,17.5,11c14.7,8.4,61.5,33.1,82.1,38.4s93.9,34.6,116.4,50.2
		c22.5,15.6,71.2,52.1,80.8,56.2c9.7,4.1,48.7,48.1,53.7,58c5,10,13.7,22.8,13.7,22.8"/>
	<path class="st2" d="M2527,187.2c0,0-19,39.9-34.6,58s-39.6,47.4-60.2,63c-20.6,15.6-44.9,45.3-56.2,54.6
		c-11.2,9.4-32.5,33.7-39.6,38.1c-7.2,4.4-33.1,31.8-42.8,44.4c-9.7,12.7-41.5,50.4-50.2,65.4c-8.7,15-27.5,43.7-42.1,59.3
		c-14.7,15.6-52.7,53.1-62.1,63.4c-9.4,10.3-40.6,35.9-54.6,58c-14,22.2-10.6,47.4,5.9,57.1c2.9,1.7,7.2,4.4,12.3,7.6"/>
	<path class="st1" d="M2527,1004.2c0,0-20.3-29.6-35.5-46.5c-15.3-16.9-35-35.9-74.9-60.5c-39.9-24.7-64.3-35.6-89.9-45.6
		c-25.6-10-71.8-27.8-86.1-34s-64-29-82.7-43.7c-18.7-14.7-43.4-33.4-34-70.2c9.4-36.8,27.8-43.1,41.2-57.1
		c13.4-14,54-54.9,68.3-74.9c14.4-20,46.5-65.2,53.1-74.9s63.4-78,69.3-84.3c5.9-6.2,42.1-45.3,59.3-58.4s55.2-48.7,64.3-57.7
		s47.7-45.3,47.7-45.3"/>
	<path class="st1" d="M2527,284.3c0,0-18.1,22.5-40.8,35.3c-22.8,12.8-60.2,41.8-76.5,57.1c-16.2,15.3-54.3,54.5-63,68.8
		c-8.7,14.2-48.1,71.3-56.5,84.4c-8.4,13.1-33.7,49-44.6,61.5c-10.9,12.5-59.9,77.7-69.3,89.6c-9.4,11.9-28.4,36.5-16.5,58
		s33.4,51.8,78.6,61.2c45.2,9.4,100.8,37.4,114.8,44.6c14,7.2,67.1,37.4,80.8,48.1c13.7,10.6,62.7,48.7,75.8,72.1
		c13.1,23.4,17.1,23.7,17.1,23.7"/>
	<path class="st1" d="M2527,962.7c0,0-25.2-24.9-45.2-41.8c-20-16.9-57.4-46.5-88.3-67.7s-59.3-31.5-83.6-44
		c-24.3-12.5-55.9-20-69-26.5s-48.7-22.8-54.3-38.7c-5.6-15.9-13.7-20.9,3.7-52.1c17.5-31.2,34.6-40.6,50.6-65.8
		s18.1-25.1,27.1-40.6c9.1-15.5,26.8-39,38.1-54.6c11.2-15.6,43.7-63,49-72.1s44-53.4,57.1-66.2s53.7-49.3,71.8-58s43-35.9,43-35.9"
		/>
	<path class="st1" d="M2527,314.9c0,0-27.1,27.2-44.6,40.3c-17.5,13.1-86.1,76.5-94.6,88c-8.4,11.5-45.9,59-53.4,68
		c-7.5,9.1-29.3,43.7-44.6,69s-48.4,80.5-55.5,93.3c-7.2,12.8-23.1,45.3-9.7,67.4c13.4,22.2,38.4,31.2,57.4,39.3
		c19,8.1,76.1,30,99.9,48.4s61.2,49.9,78,60.9c16.9,10.9,34.6,29.3,46.2,39.3s20.9,19.7,20.9,19.7"/>
	<path class="st2" d="M2266.5,754.5c-3.1-2.5-5.6-5-7.2-7.7c-9.7-15.6-16.6-26.5-10.9-53.7c5.6-27.2,26.2-65.2,35-78
		s38.7-62.8,46.8-74.8c8.1-12,83.6-97.5,90.5-104.7c6.9-7.2,53.7-49.3,63.4-59s41.1-39.3,43-41.8"/>
	<path class="st2" d="M2527,928.1c0,0-27.1-13.4-38-24.7c-10.9-11.2-39.9-30-53.7-44c-13.7-14-37.8-30.9-56.5-48.1
		c-14.9-13.7-33.3-18.7-46.9-23.9"/>
	<path class="st1" d="M2527,350.8c0,0-44.9,45.9-51.8,52.7c-6.9,6.9-48.4,48.7-52.7,55.2s-65.5,74.3-70.5,84.3
		c-5,10-35.6,39-40.3,49.3c-4.7,10.3-23.7,53.1-33.4,67.1c-9.7,14-17.8,37.1-15.9,56.2s8.7,33.7,43.1,47.7s70.8,33.7,99.6,61.5
		c28.7,27.8,57.7,47.4,64.6,54s37.4,30.3,57.4,36.8"/>
	<path class="st1" d="M2527,813.3c0,0-9,18.1-13.4,27.2c-4.4,9.1-10.9,19.7-24.7,26.5c-13.7,6.9-25-1.2-33.1-11.2
		c-8.1-10-33.1-33.7-52.1-51.5c-19-17.8-44-30.9-69.6-40.6c-25.6-9.7-50.2-23.7-47.4-45.6c2.8-21.8,5-36.2,20.9-59
		c15.9-22.8,33.1-56.5,44.3-69.9c11.2-13.4,34-55.9,42.6-64.6c8.6-8.7,37.6-50.6,45.4-64.9c7.8-14.4,21.3-30,38-43.7
		c16.6-13.7,49.1-41.2,49.1-41.2"/>
	<path class="st1" d="M2527,408.8c0,0-50.2,48.7-58.3,56.2c-8.1,7.5-40.9,49.6-52.1,65.2c-11.2,15.6-42.8,71.5-49.3,82.1
		s-35.3,51.5-46.8,65.2s-17.8,33.7-13.4,48.7s25.3,26.5,54.9,25.3s49,14,61.2,33.4c12.2,19.3,42.8,59.3,59.9,54s30.9-33.4,33.4-47.4
		s5.9-46.8,10.6-58.7"/>
	<path class="st1" d="M2527,679.4c0,0-10,18.1-14,36.2s-16.2,46.2-28.7,61.5c-12.5,15.3-32.8,11.9-41.8-1.6s-27.8-36.2-50.2-37.8
		s-54.6-4.4-46.2-38.4c8.4-34,28.4-54,35.3-62.9c6.9-8.9,45.2-53.8,53.1-65.1c7.8-11.2,41.2-72.1,54.6-88.9
		c13.4-16.9,38-49.6,38-49.6"/>
	<path class="st2" d="M2450.3,608.5c-2,11.5-3.1,25.5,4.7,35c11.9,14.4,34,7.5,50.9-7c16.9-14.5,22.2-26.7,22.2-26.7"/>
	<path class="st2" d="M2527,463.7c0,0-30.2,51.8-37.1,59.3c-4,4.4-15.3,23.9-24.4,41.5"/>
	<line class="st1" x1="2461.3" y1="648.8" x2="2450.2" y2="662.2"/>
	<path class="st2" d="M376.8,1353.4c0,0-5,26.8,6.6,38.1c11.5,11.2,15.9-11.5,12.2-19C391.8,1365,377.7,1345.6,376.8,1353.4z"/>
</g>
<g class="st0">
	<circle class="st3" cx="266.6" cy="639.1" r="7.1"/>
	<circle class="st3" cx="613.4" cy="912.8" r="7.1"/>
	<g>
		<path class="st3" d="M1805.2,1057.7c0-1.7,1-2.8,2.5-3.5v-0.1c-1.4-0.7-2-1.8-2-3.1c0-2.4,2.1-3.9,4.9-3.9c3.3,0,4.6,1.9,4.6,3.6
			c0,1.2-0.6,2.4-2,3.1v0.1c1.4,0.5,2.6,1.7,2.6,3.5c0,2.5-2.1,4.2-5.4,4.2C1806.9,1061.6,1805.2,1059.6,1805.2,1057.7z
			 M1812.5,1057.6c0-1.2-0.9-2-2.2-2.3c-1.1,0.3-1.7,1.1-1.7,2.1c0,1,0.8,2,2,2C1811.7,1059.3,1812.5,1058.6,1812.5,1057.6z
			 M1808.8,1050.9c0,0.9,0.9,1.6,2,1.9c0.8-0.2,1.4-0.9,1.4-1.8c0-0.9-0.5-1.7-1.7-1.7C1809.4,1049.3,1808.8,1050.1,1808.8,1050.9z"
			/>
		<path class="st3" d="M1827.8,1054.3c0,4.3-1.7,7.3-5.3,7.3c-3.6,0-5.2-3.3-5.2-7.2c0-4.1,1.7-7.3,5.3-7.3
			C1826.3,1047.1,1827.8,1050.4,1827.8,1054.3z M1820.5,1054.4c0,3.2,0.8,4.7,2,4.7c1.3,0,2-1.6,2-4.8c0-3.1-0.7-4.7-2-4.7
			C1821.3,1049.6,1820.5,1051.1,1820.5,1054.4z"/>
		<path class="st3" d="M1839.7,1054.3c0,4.3-1.7,7.3-5.3,7.3c-3.6,0-5.2-3.3-5.2-7.2c0-4.1,1.7-7.3,5.3-7.3
			C1838.3,1047.1,1839.7,1050.4,1839.7,1054.3z M1832.5,1054.4c0,3.2,0.8,4.7,2,4.7c1.3,0,2-1.6,2-4.8c0-3.1-0.7-4.7-2-4.7
			C1833.3,1049.6,1832.5,1051.1,1832.5,1054.4z"/>
	</g>
	<g>
		<path class="st3" d="M1674.7,749l-2.1,0.3l-12.9-3.8l-0.6-3.5l12.2,3.9l0,0l-1-6.4l2.7-0.4L1674.7,749z"/>
		<path class="st3" d="M1673.9,760.7l-0.9-5.4l-2.2,0c0.1,0.3,0.1,0.6,0.2,0.9c0.2,1.3,0.1,2.7-0.4,3.8c-0.5,1.2-1.6,2-3.2,2.3
			c-2.6,0.4-5.3-1.4-5.9-5.2c-0.3-1.7-0.1-3.2,0.2-4l2.6,0.2c-0.2,0.7-0.4,2-0.2,3.3c0.2,1.4,1.1,2.7,2.6,2.5
			c1.4-0.2,2.1-1.5,1.7-4.3c-0.1-0.8-0.3-1.3-0.4-1.9l7.5-0.3l1.3,7.7L1673.9,760.7z"/>
		<path class="st3" d="M1671.7,774.3c-4.3,0.7-7.6-0.6-8.2-4.1c-0.6-3.6,2.4-5.7,6.4-6.4c4.1-0.7,7.5,0.5,8.1,4.2
			C1678.7,771.7,1675.6,773.7,1671.7,774.3z M1670.5,767c-3.2,0.5-4.6,1.5-4.4,2.8c0.2,1.3,1.9,1.7,5.1,1.2c3.1-0.5,4.6-1.4,4.4-2.8
			C1675.4,767.1,1673.7,766.5,1670.5,767z"/>
	</g>
	<g>
		<path class="st3" d="M1943.6,790.7c0.9-1.4,2.4-1.9,4.1-1.6l0-0.1c-0.8-1.3-0.7-2.7,0-3.7c1.3-2,4-2.1,6.4-0.6
			c2.8,1.8,2.9,4.2,1.9,5.6c-0.7,1-1.9,1.7-3.4,1.5l0,0.1c0.9,1.2,1.2,2.9,0.2,4.4c-1.4,2.2-4.2,2.4-6.9,0.6
			C1942.8,794.9,1942.5,792.3,1943.6,790.7z M1949.8,794.6c0.7-1,0.3-2.2-0.6-3.2c-1.1-0.3-2,0-2.6,0.8c-0.6,0.8-0.5,2.1,0.6,2.8
			C1948.2,795.7,1949.2,795.5,1949.8,794.6z M1950.4,787c-0.5,0.8-0.1,1.8,0.6,2.7c0.8,0.2,1.7,0,2.2-0.7c0.5-0.7,0.5-1.7-0.5-2.4
			C1951.8,785.9,1950.9,786.2,1950.4,787z"/>
		<path class="st3" d="M1964.5,800.4c-2.4,3.7-5.6,5.2-8.6,3.2c-3.1-2-2.6-5.7-0.4-9c2.3-3.4,5.5-5.2,8.6-3.2
			C1967.3,793.5,1966.7,797.1,1964.5,800.4z M1958.3,796.4c-1.8,2.7-2,4.4-0.9,5.1c1.1,0.7,2.5-0.3,4.3-3c1.7-2.6,2.1-4.4,1-5.1
			C1961.7,792.8,1960.1,793.6,1958.3,796.4z"/>
		<path class="st3" d="M1974.6,807c-2.4,3.7-5.6,5.2-8.6,3.2c-3.1-2-2.6-5.7-0.4-9c2.3-3.4,5.5-5.2,8.6-3.2
			C1977.4,800.1,1976.8,803.8,1974.6,807z M1968.5,803.1c-1.8,2.7-2,4.4-0.9,5.1c1.1,0.7,2.5-0.3,4.3-3c1.7-2.6,2.1-4.4,1-5.1
			C1971.8,799.5,1970.3,800.3,1968.5,803.1z"/>
	</g>
	<g>
		<path class="st3" d="M2118.8,770c0.9-1.4,2.4-1.9,4-1.6l0-0.1c-0.8-1.3-0.7-2.7-0.1-3.7c1.3-2,4-2.2,6.4-0.7
			c2.8,1.8,2.9,4.1,2,5.6c-0.7,1-1.9,1.7-3.4,1.5l0,0.1c0.9,1.2,1.3,2.8,0.3,4.4c-1.4,2.2-4.1,2.5-6.9,0.7
			C2118.1,774.2,2117.8,771.6,2118.8,770z M2125.1,773.8c0.7-1.1,0.3-2.2-0.6-3.2c-1.1-0.3-2,0-2.6,0.9c-0.6,0.9-0.4,2.1,0.6,2.8
			C2123.5,774.9,2124.5,774.7,2125.1,773.8z M2125.5,766.1c-0.5,0.8-0.1,1.8,0.7,2.7c0.8,0.2,1.7,0,2.2-0.8c0.5-0.7,0.5-1.7-0.5-2.4
			C2126.9,765.1,2126,765.4,2125.5,766.1z"/>
		<path class="st3" d="M2141.4,775.1l-4.6-3l-1.4,1.7c0.3,0.1,0.5,0.3,0.8,0.5c1.1,0.7,2.1,1.7,2.6,2.9c0.5,1.2,0.4,2.5-0.5,3.9
			c-1.4,2.2-4.6,3-7.8,0.9c-1.5-0.9-2.5-2-2.9-2.8l1.8-1.8c0.4,0.6,1.2,1.6,2.3,2.3c1.2,0.7,2.7,1,3.6-0.3c0.8-1.2,0.3-2.6-2.1-4.1
			c-0.7-0.4-1.1-0.7-1.7-0.9l4.8-5.8l6.6,4.2L2141.4,775.1z"/>
		<path class="st3" d="M2150.1,785.8c-2.4,3.7-5.5,5.3-8.5,3.4c-3.1-2-2.7-5.6-0.5-9c2.2-3.5,5.4-5.3,8.5-3.3
			C2152.8,778.9,2152.2,782.5,2150.1,785.8z M2143.9,781.9c-1.8,2.7-1.9,4.5-0.9,5.2c1.1,0.7,2.5-0.3,4.3-3c1.7-2.7,2-4.4,0.9-5.1
			C2147.2,778.3,2145.6,779.1,2143.9,781.9z"/>
	</g>
	<g>
		<path class="st3" d="M2286.1,769.8c0.3,0.2,0.7,0.4,1.3,0.7c0.9,0.4,1.9,0.7,2.9,0.6c1.1-0.1,2.1-0.6,2.8-1.4l0-0.1
			c-0.9,0.3-1.9,0.2-3-0.5c-2.1-1.1-3.1-3.6-1.7-6c1.3-2.4,4.4-3.4,7.1-1.9c3.2,1.7,3.4,5,1.8,7.9c-1.4,2.6-3.3,4-5.3,4.5
			c-1.8,0.4-3.7,0.1-5.7-0.9c-0.5-0.2-1-0.5-1.3-0.7L2286.1,769.8z M2291.3,764.5c-0.6,1.1-0.5,2.3,0.7,3c0.8,0.4,1.6,0.3,2.1,0.1
			c0.2-0.1,0.4-0.3,0.6-0.6c0.7-1.3,0.9-2.9-0.4-3.6C2293.2,762.7,2292,763.2,2291.3,764.5z"/>
		<path class="st3" d="M2307.3,775.9c-2.1,3.9-5.1,5.7-8.3,3.9c-3.2-1.8-3.1-5.4-1.1-9c2-3.6,5.1-5.6,8.3-3.9
			C2309.5,768.8,2309.1,772.5,2307.3,775.9z M2300.8,772.5c-1.6,2.8-1.6,4.6-0.5,5.2c1.1,0.6,2.5-0.5,4.1-3.3
			c1.5-2.8,1.7-4.5,0.5-5.2C2303.8,768.6,2302.3,769.5,2300.8,772.5z"/>
		<path class="st3" d="M2317.9,781.7c-2.1,3.9-5.1,5.7-8.3,3.9c-3.2-1.8-3.1-5.4-1.1-9c2-3.6,5.1-5.6,8.3-3.9
			C2320.1,774.6,2319.8,778.3,2317.9,781.7z M2311.4,778.3c-1.6,2.8-1.6,4.6-0.5,5.2c1.1,0.6,2.5-0.5,4.1-3.3
			c1.5-2.8,1.7-4.5,0.5-5.2C2314.4,774.4,2313,775.4,2311.4,778.3z"/>
	</g>
	<g>
		<path class="st3" d="M1221.4,456c-1.6-0.5-2.4-1.8-2.6-3.5l-0.1,0c-1.1,1.1-2.4,1.4-3.6,1c-2.3-0.8-3.1-3.3-2.2-6
			c1.1-3.1,3.3-3.8,5-3.3c1.2,0.4,2.1,1.4,2.3,2.9l0.1,0c0.9-1.1,2.4-1.9,4.2-1.3c2.4,0.8,3.4,3.4,2.3,6.5
			C1225.7,455.6,1223.2,456.6,1221.4,456z M1216.1,450.4c0.9,0.3,1.8-0.3,2.5-1.3c0-0.8-0.4-1.7-1.3-1.9c-0.8-0.3-1.8-0.1-2.2,1.1
			C1214.7,449.3,1215.2,450.1,1216.1,450.4z M1223.6,449c-1.2-0.4-2.2,0.2-2.9,1.4c-0.1,1.1,0.5,2,1.5,2.3c1,0.3,2.1-0.1,2.5-1.3
			C1225.1,450.3,1224.6,449.3,1223.6,449z"/>
		<path class="st3" d="M1225.4,433.2c4.2,1.4,6.5,4,5.3,7.5c-1.2,3.5-4.8,4-8.6,2.7c-3.9-1.3-6.4-4-5.3-7.5
			C1218,432.3,1221.7,432,1225.4,433.2z M1223.1,440.2c3.1,1.1,4.8,0.8,5.2-0.4c0.4-1.2-0.9-2.4-4-3.4c-3-1-4.8-0.9-5.2,0.4
			C1218.8,437.9,1220,439.2,1223.1,440.2z"/>
		<path class="st3" d="M1229.2,421.8c4.2,1.4,6.5,4,5.3,7.5c-1.2,3.5-4.8,4-8.6,2.7c-3.9-1.3-6.4-4-5.3-7.5
			C1221.9,420.9,1225.5,420.5,1229.2,421.8z M1227,428.8c3.1,1.1,4.8,0.8,5.2-0.4c0.4-1.2-0.9-2.4-4-3.4c-3-1-4.8-0.9-5.2,0.4
			C1222.6,426.5,1223.8,427.7,1227,428.8z"/>
	</g>
	<g>
		<path class="st3" d="M2457.5,569c-0.2,0.4-0.3,0.7-0.4,1.4c-0.2,1-0.3,2,0,2.9c0.3,1.1,1,1.9,2,2.5l0-0.1c-0.4-0.8-0.5-1.8-0.1-3
			c0.7-2.3,2.9-3.7,5.6-2.9c2.6,0.8,4.2,3.7,3.3,6.6c-1.1,3.5-4.3,4.3-7.5,3.3c-2.8-0.9-4.6-2.4-5.5-4.3c-0.8-1.7-0.8-3.6-0.3-5.8
			c0.1-0.6,0.3-1.1,0.5-1.4L2457.5,569z M2463.7,573.1c-1.2-0.4-2.4-0.1-2.8,1.2c-0.3,0.9,0,1.6,0.3,2c0.2,0.2,0.3,0.3,0.7,0.4
			c1.4,0.5,3,0.4,3.5-1.1C2465.8,574.6,2465.1,573.5,2463.7,573.1z"/>
		<path class="st3" d="M2459.9,591.3l1.7-5.2l-2-1c-0.1,0.3-0.1,0.6-0.2,0.9c-0.4,1.3-1.1,2.5-2.1,3.2c-1,0.8-2.3,1.1-3.9,0.6
			c-2.5-0.8-4.1-3.7-2.9-7.3c0.5-1.6,1.3-2.9,2-3.5l2.2,1.3c-0.5,0.5-1.2,1.6-1.6,2.8c-0.4,1.3-0.2,2.9,1.2,3.4
			c1.4,0.4,2.6-0.4,3.5-3.1c0.2-0.7,0.4-1.3,0.5-1.9l6.8,3.1l-2.4,7.4L2459.9,591.3z"/>
		<path class="st3" d="M2451.9,602.5c-4.2-1.3-6.5-3.9-5.4-7.4c1.1-3.5,4.7-4,8.6-2.8c3.9,1.2,6.5,3.9,5.4,7.4
			C2459.2,603.3,2455.6,603.7,2451.9,602.5z M2454,595.5c-3.1-1-4.8-0.7-5.2,0.5c-0.4,1.2,0.9,2.4,4,3.4c3,0.9,4.8,0.8,5.2-0.5
			C2458.4,597.7,2457.1,596.5,2454,595.5z"/>
	</g>
	<g>
		<path class="st3" d="M380.3,1369.3c0.3,0,0.6,0,1.2,0c0.8-0.1,1.7-0.3,2.3-0.7c0.8-0.5,1.3-1.3,1.5-2.2l-0.1,0
			c-0.5,0.5-1.3,0.8-2.4,0.8c-2,0-3.6-1.4-3.6-3.7c0-2.3,1.8-4.2,4.4-4.2c3,0,4.4,2.3,4.4,5c0,2.4-0.8,4.2-2.1,5.4
			c-1.1,1-2.7,1.6-4.5,1.6c-0.5,0-0.9,0-1.2,0V1369.3z M382,1363.4c0,1,0.5,1.9,1.7,1.9c0.7,0,1.3-0.4,1.5-0.8
			c0.1-0.2,0.1-0.3,0.1-0.7c0-1.2-0.5-2.5-1.7-2.5C382.7,1361.4,382,1362.2,382,1363.4z"/>
		<path class="st3" d="M398.1,1365.4c0,3.6-1.5,6.1-4.5,6.1c-3,0-4.4-2.7-4.4-6c0-3.4,1.4-6.1,4.5-6.1
			C396.9,1359.4,398.1,1362.2,398.1,1365.4z M392.1,1365.5c0,2.7,0.6,4,1.7,4c1.1,0,1.6-1.3,1.6-4c0-2.6-0.6-4-1.7-4
			C392.7,1361.4,392,1362.7,392.1,1365.5z"/>
		<path class="st3" d="M404.3,1371.3v-2.8h-5.2v-1.8l4.4-7.1h3.4v6.9h1.4v2.1h-1.4v2.8H404.3z M404.3,1366.4v-2.6
			c0-0.7,0-1.4,0.1-2.2h-0.1c-0.4,0.8-0.7,1.4-1.1,2.2l-1.6,2.6v0H404.3z"/>
		<path class="st3" d="M409.1,1373.4c0.6-1.6,1-3.5,1.3-5.1l2.8-0.2c-0.6,1.8-1.4,3.7-2.3,5.1L409.1,1373.4z"/>
		<path class="st3" d="M418,1362L418,1362l-2.3,1.1l-0.5-2.1l3.1-1.4h2.3v11.7H418V1362z"/>
	</g>
	<g>
		<path class="st3" d="M244.5,624.3c0-1.4,0.8-2.4,2.1-2.9v-0.1c-1.1-0.6-1.7-1.5-1.7-2.6c0-2,1.8-3.3,4.1-3.3c2.7,0,3.9,1.6,3.9,3
			c0,1-0.5,2-1.7,2.6v0.1c1.1,0.4,2.1,1.4,2.1,2.9c0,2.1-1.8,3.6-4.5,3.6C245.8,627.5,244.5,625.8,244.5,624.3z M250.5,624.2
			c0-1-0.8-1.6-1.8-1.9c-0.9,0.3-1.4,0.9-1.4,1.7c0,0.8,0.6,1.6,1.7,1.6C249.9,625.6,250.5,625,250.5,624.2z M247.5,618.6
			c0,0.8,0.7,1.3,1.7,1.6c0.6-0.2,1.2-0.8,1.2-1.5c0-0.7-0.4-1.4-1.4-1.4C247.9,617.3,247.5,617.9,247.5,618.6z"/>
		<path class="st3" d="M258.2,618L258.2,618l-2.3,1.1l-0.5-2.1l3.1-1.4h2.3v11.7h-2.7V618z"/>
		<path class="st3" d="M273.1,615.6v1.7l-4.8,10h-2.9l4.8-9.4v0h-5.4v-2.3H273.1z"/>
		<path class="st3" d="M274.2,629.5c0.6-1.6,1-3.5,1.3-5.1l2.8-0.2c-0.6,1.8-1.4,3.7-2.3,5.1L274.2,629.5z"/>
		<path class="st3" d="M280.2,624.6c0.5,0.3,1.6,0.7,2.7,0.7c1.4,0,2.1-0.7,2.1-1.6c0-1.2-1.2-1.7-2.4-1.7h-1.1v-2h1.1
			c0.9,0,2.1-0.4,2.1-1.4c0-0.7-0.6-1.2-1.7-1.2c-1,0-2,0.4-2.5,0.7l-0.6-2c0.7-0.5,2.1-0.9,3.6-0.9c2.5,0,3.9,1.3,3.9,2.9
			c0,1.2-0.7,2.2-2.1,2.7v0c1.4,0.3,2.5,1.3,2.5,2.8c0,2.1-1.8,3.6-4.8,3.6c-1.5,0-2.8-0.4-3.5-0.8L280.2,624.6z"/>
	</g>
	<g>
		<path class="st3" d="M593.4,932c0-1.4,0.8-2.4,2.1-2.9V929c-1.1-0.6-1.7-1.5-1.7-2.6c0-2,1.8-3.3,4.1-3.3c2.7,0,3.9,1.6,3.9,3
			c0,1-0.5,2-1.7,2.6v0.1c1.1,0.4,2.1,1.4,2.1,2.9c0,2.1-1.8,3.6-4.5,3.6C594.7,935.2,593.4,933.5,593.4,932z M599.4,931.9
			c0-1-0.8-1.6-1.8-1.9c-0.9,0.3-1.4,0.9-1.4,1.7c0,0.8,0.6,1.6,1.7,1.6C598.8,933.3,599.4,932.7,599.4,931.9z M596.3,926.3
			c0,0.8,0.7,1.3,1.7,1.6c0.6-0.2,1.2-0.8,1.2-1.5c0-0.7-0.4-1.4-1.4-1.4C596.8,925,596.3,925.6,596.3,926.3z"/>
		<path class="st3" d="M607.1,925.7L607.1,925.7l-2.3,1.1l-0.5-2.1l3.1-1.4h2.3V935h-2.7V925.7z"/>
		<path class="st3" d="M622.2,929.1c0,3.6-1.5,6.1-4.5,6.1c-3,0-4.4-2.7-4.4-6c0-3.4,1.4-6.1,4.5-6.1
			C621,923.1,622.2,925.9,622.2,929.1z M616.1,929.2c0,2.7,0.6,4,1.7,4c1.1,0,1.6-1.3,1.6-4c0-2.6-0.6-4-1.7-4
			C616.8,925.2,616.1,926.5,616.1,929.2z"/>
		<path class="st3" d="M623.1,937.2c0.6-1.6,1-3.5,1.3-5.1l2.8-0.2c-0.6,1.8-1.4,3.7-2.3,5.1L623.1,937.2z"/>
		<path class="st3" d="M629.5,933c0.3,0,0.6,0,1.2,0c0.8-0.1,1.7-0.3,2.3-0.7c0.8-0.5,1.3-1.3,1.5-2.2l-0.1,0
			c-0.5,0.5-1.3,0.8-2.4,0.8c-2,0-3.6-1.4-3.6-3.7c0-2.3,1.8-4.2,4.4-4.2c3,0,4.4,2.3,4.4,5c0,2.4-0.8,4.2-2.1,5.4
			c-1.1,1-2.7,1.6-4.5,1.6c-0.5,0-0.9,0-1.2,0V933z M631.1,927.2c0,1,0.5,1.9,1.7,1.9c0.7,0,1.3-0.4,1.5-0.8
			c0.1-0.2,0.1-0.3,0.1-0.7c0-1.2-0.5-2.5-1.7-2.5C631.8,925.1,631.1,925.9,631.1,927.2z"/>
	</g>
	<g>
		<path class="st3" d="M1434.1,1984.6L1434.1,1984.6l-2.7,1.3l-0.5-2.5l3.8-1.7h2.7v14.2h-3.2V1984.6z"/>
		<path class="st3" d="M1452.4,1988.7c0,4.4-1.8,7.4-5.4,7.4c-3.7,0-5.3-3.3-5.3-7.3c0-4.1,1.7-7.4,5.4-7.4
			C1450.9,1981.5,1452.4,1984.8,1452.4,1988.7z M1445.1,1988.8c0,3.3,0.8,4.8,2.1,4.8c1.3,0,2-1.6,2-4.8c0-3.1-0.7-4.8-2-4.8
			C1445.9,1984,1445.1,1985.5,1445.1,1988.8z"/>
		<path class="st3" d="M1458.3,1984.6L1458.3,1984.6l-2.7,1.3l-0.5-2.5l3.8-1.7h2.7v14.2h-3.2V1984.6z"/>
		<path class="st3" d="M1475.6,1984.4h-5.5l-0.3,2.2c0.3,0,0.6,0,0.9,0c1.4,0,2.7,0.3,3.7,1c1.1,0.7,1.7,1.9,1.7,3.6
			c0,2.6-2.3,5-6.1,5c-1.7,0-3.2-0.4-3.9-0.8l0.6-2.5c0.6,0.3,1.9,0.7,3.2,0.7c1.4,0,2.8-0.7,2.8-2.2c0-1.5-1.2-2.4-4-2.4
			c-0.8,0-1.3,0-1.9,0.1l0.9-7.4h7.8V1984.4z"/>
		<path class="st3" d="M1477.8,1998.5c0.7-1.9,1.3-4.2,1.6-6.2l3.4-0.2c-0.7,2.2-1.7,4.5-2.7,6.2L1477.8,1998.5z"/>
		<path class="st3" d="M1494.5,1981.7v2.1l-5.8,12.1h-3.5l5.8-11.4v0h-6.5v-2.7H1494.5z"/>
	</g>
	<g>
		<g>
			<path class="st3" d="M311.6,629.6c1.7-0.2,3,0.6,3.9,2l0.1,0c0.5-1.5,1.6-2.3,2.8-2.5c2.4-0.3,4.3,1.6,4.7,4.4
				c0.5,3.3-1.3,4.9-3,5.2c-1.2,0.2-2.5-0.3-3.4-1.6l-0.1,0c-0.3,1.4-1.3,2.8-3.1,3.1c-2.6,0.4-4.6-1.5-5-4.8
				C307.9,631.8,309.7,629.9,311.6,629.6z M312.7,636.9c1.2-0.2,1.8-1.2,2-2.5c-0.5-1-1.3-1.6-2.3-1.4c-1,0.1-1.9,1-1.7,2.3
				C310.9,636.3,311.7,637,312.7,636.9z M318.9,632.2c-1,0.1-1.4,1.1-1.6,2.3c0.3,0.7,1.1,1.3,2,1.2c0.9-0.1,1.7-0.7,1.5-2
				C320.6,632.6,319.7,632.1,318.9,632.2z"/>
			<path class="st3" d="M318.2,651.7c-4.3,0.6-7.6-0.7-8.1-4.3c-0.5-3.6,2.5-5.7,6.5-6.3c4.1-0.6,7.5,0.7,8,4.3
				C325.2,649.3,322,651.2,318.2,651.7z M317.1,644.5c-3.2,0.4-4.7,1.4-4.5,2.7c0.2,1.3,1.9,1.7,5.1,1.3c3.1-0.4,4.7-1.3,4.5-2.7
				C322,644.6,320.3,644,317.1,644.5z"/>
			<path class="st3" d="M319.8,663.7c-4.3,0.6-7.6-0.7-8.1-4.3c-0.5-3.6,2.5-5.7,6.5-6.3c4.1-0.6,7.5,0.7,8,4.3
				C326.8,661.3,323.7,663.2,319.8,663.7z M318.7,656.5c-3.2,0.4-4.7,1.4-4.5,2.7c0.2,1.3,1.9,1.7,5.1,1.3c3.1-0.4,4.7-1.3,4.5-2.7
				C323.7,656.6,322,656,318.7,656.5z"/>
		</g>
	</g>
	<g>
		<g>
			<path class="st3" d="M378.3,610l-2.1,0.3l-12.8-4l-0.5-3.5L375,607l0,0l-1-6.4l2.7-0.4L378.3,610z"/>
			<path class="st3" d="M377.3,621.7l-0.8-5.4l-2.2,0c0.1,0.3,0.1,0.6,0.2,0.9c0.2,1.3,0.1,2.7-0.5,3.8c-0.6,1.2-1.6,2-3.3,2.2
				c-2.6,0.4-5.3-1.5-5.8-5.3c-0.3-1.7-0.1-3.2,0.2-4l2.6,0.2c-0.2,0.7-0.4,2-0.2,3.3c0.2,1.4,1.1,2.7,2.6,2.5
				c1.4-0.2,2.2-1.5,1.7-4.3c-0.1-0.8-0.2-1.3-0.4-1.9l7.5-0.2l1.2,7.7L377.3,621.7z"/>
			<path class="st3" d="M375.1,635.4c-4.3,0.7-7.6-0.6-8.1-4.2c-0.6-3.6,2.5-5.7,6.4-6.4c4.1-0.6,7.5,0.6,8.1,4.2
				C382,632.8,378.9,634.8,375.1,635.4z M373.9,628.1c-3.2,0.5-4.6,1.5-4.4,2.8c0.2,1.3,1.9,1.7,5.1,1.2c3.1-0.5,4.6-1.4,4.4-2.7
				C378.8,628.2,377.1,627.6,373.9,628.1z"/>
		</g>
	</g>
	<g>
		<g>
			<path class="st3" d="M470.2,581.2l-2.1,0.1l-12.4-5.3l-0.2-3.5l11.7,5.3l0,0l-0.3-6.5l2.7-0.1L470.2,581.2z"/>
			<path class="st3" d="M463.8,593.9c-4.4,0.2-7.5-1.4-7.7-5c-0.2-3.7,3-5.4,7.1-5.6c4.1-0.2,7.4,1.4,7.6,5.1
				C471,592.1,467.6,593.8,463.8,593.9z M463.3,586.6c-3.3,0.1-4.8,1-4.7,2.3c0.1,1.3,1.7,1.9,4.9,1.8c3.1-0.1,4.8-0.9,4.7-2.2
				C468.2,587.2,466.6,586.4,463.3,586.6z"/>
			<path class="st3" d="M464.3,606c-4.4,0.2-7.5-1.4-7.7-5c-0.2-3.7,3-5.4,7.1-5.6c4.1-0.2,7.4,1.4,7.6,5.1
				C471.5,604.2,468.2,605.9,464.3,606z M463.9,598.7c-3.3,0.1-4.8,1-4.7,2.3c0.1,1.3,1.7,1.9,4.9,1.8c3.1-0.1,4.8-0.9,4.7-2.2
				C468.8,599.3,467.2,598.5,463.9,598.7z"/>
		</g>
	</g>
	<g>
		<g>
			<path class="st3" d="M493.5,317c-0.2-0.3-0.5-0.6-0.8-1c-1.9-2.2-3.9-2.4-5.5-1.7l0,0.1c1,0.1,1.9,0.7,2.7,1.7
				c1.4,1.9,1.3,4.5-1.1,6.3c-2.3,1.7-5.4,1.3-7.2-1.2c-2.2-3-1.1-6.2,1.6-8.2c2.1-1.6,4.5-2.1,6.6-1.7c1.9,0.4,3.5,1.4,4.9,3.2
				c0.4,0.5,0.6,0.8,0.8,1.1L493.5,317z M486.7,319.7c1.1-0.8,1.6-2,0.7-3.2c-0.5-0.7-1.4-1-2.2-0.8c-0.2,0-0.4,0.2-0.7,0.4
				c-1.2,0.9-1.8,2.3-0.9,3.5C484.3,320.6,485.6,320.6,486.7,319.7z"/>
			<path class="st3" d="M500.7,327.3l-3.3-4.4l-1.9,1.1c0.2,0.2,0.4,0.4,0.6,0.7c0.8,1.1,1.4,2.4,1.4,3.6c0.1,1.3-0.5,2.5-1.8,3.5
				c-2.1,1.6-5.4,1.1-7.6-1.9c-1-1.4-1.6-2.8-1.7-3.7l2.4-1c0.1,0.7,0.6,2,1.3,3c0.8,1.1,2.2,1.9,3.4,1c1.2-0.9,1.2-2.3-0.5-4.6
				c-0.5-0.6-0.8-1-1.2-1.5l6.5-3.7l4.6,6.3L500.7,327.3z"/>
			<path class="st3" d="M505,340.4c-3.5,2.6-7,3-9.2,0.1c-2.2-2.9-0.5-6.2,2.7-8.6c3.3-2.4,7-3,9.1,0C510,334.8,508.1,338,505,340.4
				z M500.6,334.5c-2.6,1.9-3.4,3.5-2.6,4.5c0.8,1,2.5,0.6,5.1-1.3c2.5-1.9,3.5-3.4,2.7-4.5C505,332.3,503.2,332.5,500.6,334.5z"/>
		</g>
	</g>
	<g>
		<g>
			<path class="st3" d="M640,1108.7c1.5-0.7,3-0.3,4.3,0.8l0.1,0c0-1.5,0.8-2.6,1.9-3.2c2.2-1,4.5,0.3,5.7,2.8
				c1.4,3,0.3,5.1-1.3,5.8c-1.1,0.5-2.5,0.4-3.7-0.5l-0.1,0c0.1,1.5-0.4,3.1-2.1,3.9c-2.3,1.1-4.8-0.1-6.2-3.1
				C637.1,1111.9,638.3,1109.6,640,1108.7z M643.2,1115.3c1.1-0.5,1.4-1.7,1.2-3c-0.7-0.9-1.7-1.1-2.7-0.7c-0.9,0.4-1.5,1.5-0.9,2.7
				C641.3,1115.4,642.3,1115.8,643.2,1115.3z M647.7,1109.1c-0.9,0.4-1.1,1.5-0.9,2.6c0.5,0.6,1.4,0.9,2.3,0.5
				c0.8-0.4,1.4-1.2,0.8-2.3C649.5,1108.9,648.6,1108.7,647.7,1109.1z"/>
			<path class="st3" d="M652.8,1127.9c-4,1.9-7.5,1.5-9-1.7c-1.6-3.3,0.7-6.2,4.4-7.9c3.7-1.7,7.4-1.5,9,1.8
				C658.8,1123.5,656.4,1126.3,652.8,1127.9z M649.6,1121.3c-3,1.4-4,2.7-3.5,3.9c0.5,1.2,2.3,1.1,5.2-0.3c2.8-1.3,4.1-2.7,3.5-3.9
				C654.4,1120,652.6,1119.9,649.6,1121.3z"/>
			<path class="st3" d="M658,1138.9c-4,1.9-7.5,1.5-9-1.7c-1.6-3.3,0.7-6.2,4.4-7.9c3.7-1.7,7.4-1.5,9,1.8
				C664,1134.5,661.5,1137.3,658,1138.9z M654.8,1132.3c-3,1.4-4,2.7-3.5,3.9c0.5,1.2,2.3,1.1,5.2-0.3c2.8-1.3,4.1-2.7,3.5-3.9
				C659.5,1131,657.8,1130.9,654.8,1132.3z"/>
		</g>
	</g>
	<g>
		<g>
			<path class="st3" d="M405.3,1174.8c1.7-0.4,3,0.4,4,1.7l0.1,0c0.4-1.5,1.4-2.4,2.6-2.6c2.4-0.5,4.4,1.3,4.9,4.1
				c0.7,3.2-0.9,5-2.6,5.3c-1.2,0.3-2.5-0.1-3.5-1.4l-0.1,0c-0.2,1.5-1.1,2.9-2.9,3.3c-2.5,0.5-4.7-1.2-5.3-4.5
				C401.7,1177.2,403.4,1175.1,405.3,1174.8z M406.9,1181.9c1.2-0.3,1.8-1.3,1.8-2.7c-0.5-1-1.4-1.5-2.4-1.3c-1,0.2-1.8,1.2-1.5,2.4
				C405,1181.5,405.9,1182.1,406.9,1181.9z M412.7,1176.9c-0.9,0.2-1.4,1.2-1.5,2.4c0.4,0.7,1.2,1.2,2.1,1c0.9-0.2,1.6-0.9,1.4-2
				C414.4,1177.1,413.6,1176.7,412.7,1176.9z"/>
			<path class="st3" d="M417.3,1194.5l-1.1-5.4l-2.2,0.1c0.1,0.3,0.2,0.5,0.2,0.9c0.3,1.3,0.3,2.7-0.2,3.9c-0.5,1.2-1.5,2.1-3.1,2.4
				c-2.6,0.5-5.3-1.2-6.1-4.9c-0.4-1.7-0.3-3.2,0-4l2.6,0.1c-0.2,0.7-0.3,2,0,3.3c0.3,1.3,1.2,2.6,2.7,2.3c1.4-0.3,2.1-1.6,1.5-4.4
				c-0.2-0.8-0.3-1.3-0.5-1.9l7.5-0.6l1.6,7.7L417.3,1194.5z"/>
			<path class="st3" d="M415.8,1208.2c-4.3,0.9-7.6-0.2-8.4-3.8c-0.8-3.6,2.1-5.9,6.1-6.7c4-0.8,7.6,0.2,8.3,3.8
				C422.7,1205.3,419.6,1207.4,415.8,1208.2z M414.2,1201.1c-3.2,0.6-4.5,1.7-4.3,3s2,1.6,5.2,0.9c3.1-0.6,4.6-1.7,4.3-3
				C419.2,1200.9,417.5,1200.4,414.2,1201.1z"/>
		</g>
	</g>
	<g>
		<g>
			<path class="st3" d="M487.9,1890.7c0.1,0.4,0.2,0.8,0.4,1.4c0.4,0.9,0.9,1.8,1.7,2.4c0.9,0.7,1.9,1,3,0.9l0-0.1
				c-0.8-0.4-1.4-1.2-1.8-2.4c-0.7-2.3,0.3-4.7,2.9-5.5c2.6-0.8,5.5,0.6,6.5,3.6c1.1,3.5-1,6-4.2,7c-2.8,0.9-5.2,0.6-7-0.4
				c-1.6-0.9-2.8-2.5-3.5-4.6c-0.2-0.5-0.4-1.1-0.5-1.4L487.9,1890.7z M495.3,1890.5c-1.2,0.4-2,1.3-1.6,2.6
				c0.3,0.9,0.9,1.3,1.4,1.5c0.2,0,0.4,0,0.8-0.1c1.4-0.5,2.7-1.4,2.2-2.9C498,1890.5,496.8,1890,495.3,1890.5z"/>
			<path class="st3" d="M499,1909.8c-4.2,1.3-7.6,0.5-8.7-2.9c-1.1-3.5,1.6-6,5.4-7.3c3.9-1.2,7.5-0.6,8.7,2.9
				C505.5,1906.2,502.7,1908.6,499,1909.8z M496.7,1902.8c-3.1,1-4.4,2.2-4,3.4c0.4,1.2,2.1,1.4,5.2,0.4c3-0.9,4.4-2.1,4-3.4
				C501.6,1902.1,499.8,1901.8,496.7,1902.8z"/>
			<path class="st3" d="M502.6,1921.4c-4.2,1.3-7.6,0.5-8.7-2.9c-1.1-3.5,1.6-6,5.4-7.3c3.9-1.2,7.5-0.6,8.7,2.9
				C509.1,1917.8,506.3,1920.2,502.6,1921.4z M500.3,1914.4c-3.1,1-4.4,2.2-4,3.4c0.4,1.2,2.1,1.4,5.2,0.4c3-0.9,4.4-2.1,4-3.4
				C505.2,1913.7,503.5,1913.4,500.3,1914.4z"/>
		</g>
	</g>
	<g>
		<path class="st3" d="M831.4,1568.5c-0.7-1.6-0.3-3,0.9-4.3l0-0.1c-1.5-0.1-2.6-0.9-3.1-2c-1-2.2,0.4-4.5,2.9-5.7
			c3-1.3,5.1-0.2,5.8,1.4c0.5,1.1,0.4,2.5-0.6,3.7l0,0.1c1.5-0.1,3.1,0.5,3.8,2.2c1,2.4-0.2,4.8-3.2,6.2
			C834.5,1571.4,832.2,1570.2,831.4,1568.5z M831.9,1560.8c0.4,0.9,1.4,1.1,2.6,0.9c0.6-0.5,0.9-1.4,0.6-2.2
			c-0.4-0.8-1.2-1.4-2.3-0.9C831.8,1559,831.6,1559.9,831.9,1560.8z M838.1,1565.4c-0.5-1.1-1.6-1.4-3-1.2c-0.9,0.7-1.1,1.7-0.7,2.6
			c0.4,0.9,1.5,1.5,2.6,1C838.1,1567.3,838.5,1566.3,838.1,1565.4z"/>
		<path class="st3" d="M850.9,1556.1c1.8,4,1.4,7.5-1.9,9c-3.4,1.5-6.2-0.9-7.8-4.5c-1.7-3.8-1.4-7.4,2-8.9
			C846.6,1550,849.3,1552.5,850.9,1556.1z M844.2,1559.1c1.3,3,2.7,4.1,3.8,3.6s1.2-2.3-0.2-5.2c-1.3-2.9-2.6-4.1-3.8-3.6
			C843,1554.4,842.8,1556.1,844.2,1559.1z"/>
		<path class="st3" d="M862,1551.1c1.8,4,1.4,7.5-1.9,9c-3.4,1.5-6.2-0.9-7.8-4.5c-1.7-3.8-1.4-7.4,2-8.9
			C857.6,1545.1,860.4,1547.6,862,1551.1z M855.3,1554.2c1.3,3,2.7,4.1,3.8,3.6s1.2-2.3-0.2-5.2c-1.3-2.9-2.6-4.1-3.8-3.6
			C854,1549.4,853.9,1551.2,855.3,1554.2z"/>
	</g>
	<g>
		<path class="st3" d="M887.5,1658.1c-0.4-1.7,0.3-3,1.6-4.1l0-0.1c-1.5-0.3-2.4-1.3-2.7-2.5c-0.6-2.3,1.1-4.4,3.9-5.1
			c3.2-0.8,5,0.7,5.4,2.4c0.3,1.2-0.1,2.5-1.2,3.5l0,0.1c1.5,0.2,2.9,1,3.4,2.8c0.6,2.5-1.1,4.7-4.3,5.5
			C890.1,1661.5,888,1660,887.5,1658.1z M889.4,1650.6c0.2,0.9,1.2,1.3,2.4,1.4c0.7-0.4,1.2-1.2,1-2.1c-0.2-0.8-0.9-1.6-2.1-1.3
			C889.6,1648.9,889.2,1649.7,889.4,1650.6z M894.7,1656.2c-0.3-1.2-1.4-1.7-2.7-1.7c-1,0.6-1.4,1.5-1.2,2.5c0.2,1,1.2,1.7,2.4,1.5
			C894.3,1658.1,894.9,1657.2,894.7,1656.2z"/>
		<path class="st3" d="M906.9,1645.3l-5.3,1.3l0.2,2.2c0.3-0.1,0.5-0.2,0.9-0.3c1.3-0.3,2.7-0.4,3.9,0.1c1.2,0.4,2.1,1.4,2.5,3
			c0.6,2.6-1,5.4-4.7,6.3c-1.7,0.4-3.2,0.4-4,0.2l0-2.6c0.7,0.1,2,0.2,3.3-0.1c1.3-0.3,2.6-1.3,2.2-2.8c-0.3-1.4-1.7-2-4.4-1.3
			c-0.8,0.2-1.3,0.4-1.8,0.6l-0.9-7.5l7.6-1.9L906.9,1645.3z"/>
		<path class="st3" d="M920.7,1646.4c1,4.3,0,7.6-3.5,8.5c-3.6,0.9-5.9-1.9-6.9-5.8c-1-4-0.1-7.6,3.5-8.4
			C917.5,1639.7,919.7,1642.6,920.7,1646.4z M913.5,1648.2c0.8,3.2,1.9,4.5,3.1,4.2c1.3-0.3,1.5-2,0.8-5.2c-0.8-3.1-1.8-4.5-3.1-4.2
			C913.2,1643.3,912.7,1645,913.5,1648.2z"/>
	</g>
	<g>
		<path class="st3" d="M928.4,1729.4c0.4-0.1,0.8-0.1,1.4-0.3c1-0.3,1.9-0.8,2.5-1.5c0.7-0.8,1.1-1.9,1.1-3l-0.1,0
			c-0.5,0.8-1.3,1.4-2.5,1.7c-2.3,0.6-4.7-0.6-5.3-3.3c-0.7-2.7,0.9-5.5,4-6.2c3.5-0.9,5.9,1.4,6.7,4.7c0.7,2.9,0.3,5.2-0.9,6.9
			c-1,1.5-2.7,2.6-4.8,3.2c-0.5,0.2-1.1,0.3-1.5,0.4L928.4,1729.4z M928.6,1722c0.3,1.2,1.2,2.1,2.5,1.7c0.9-0.2,1.4-0.8,1.6-1.4
			c0.1-0.2,0.1-0.4,0-0.8c-0.4-1.5-1.3-2.8-2.7-2.4C928.8,1719.4,928.3,1720.5,928.6,1722z"/>
		<path class="st3" d="M948.2,1719.6c1,4.3,0,7.6-3.5,8.5c-3.6,0.9-5.9-1.9-6.9-5.8c-1-4-0.1-7.6,3.5-8.4
			C945,1712.9,947.3,1715.8,948.2,1719.6z M941.1,1721.4c0.8,3.2,1.9,4.5,3.1,4.2c1.3-0.3,1.5-2,0.8-5.2c-0.8-3.1-1.8-4.5-3.1-4.2
			C940.7,1716.5,940.2,1718.2,941.1,1721.4z"/>
		<path class="st3" d="M960,1716.7c1,4.3,0,7.6-3.5,8.5c-3.6,0.9-5.9-1.9-6.9-5.8c-1-4-0.1-7.6,3.5-8.4
			C956.8,1710,959,1712.9,960,1716.7z M952.8,1718.6c0.8,3.2,1.9,4.5,3.1,4.2c1.3-0.3,1.5-2,0.8-5.2c-0.8-3.1-1.8-4.5-3.1-4.2
			C952.5,1713.7,952,1715.4,952.8,1718.6z"/>
	</g>
	<g>
		<path class="st3" d="M1125.2,1812.7c0.4-0.2,0.7-0.3,1.3-0.7c0.9-0.5,1.6-1.3,2.1-2.1c0.5-1,0.6-2.1,0.4-3.2l-0.1,0
			c-0.3,0.9-0.9,1.6-2.1,2.2c-2.1,1.1-4.7,0.6-6-1.9c-1.3-2.5-0.4-5.6,2.4-7c3.2-1.7,6.1,0,7.6,2.9c1.4,2.6,1.6,5,0.8,6.9
			c-0.6,1.7-2,3.2-3.9,4.3c-0.5,0.3-1,0.5-1.3,0.7L1125.2,1812.7z M1123.7,1805.5c0.6,1.1,1.6,1.7,2.8,1.1c0.8-0.4,1.1-1.1,1.2-1.7
			c0-0.2,0-0.4-0.2-0.8c-0.7-1.3-1.9-2.4-3.2-1.7C1123.2,1802.9,1122.9,1804.2,1123.7,1805.5z"/>
		<path class="st3" d="M1139.2,1795.1l-4.9,2.6l0.7,2.1c0.3-0.2,0.5-0.3,0.8-0.5c1.2-0.6,2.6-1,3.8-0.8c1.3,0.1,2.4,0.9,3.2,2.3
			c1.2,2.3,0.3,5.5-3.1,7.2c-1.5,0.8-3,1.1-3.9,1.1l-0.6-2.5c0.7,0,2-0.3,3.2-0.9c1.2-0.6,2.2-1.9,1.5-3.2c-0.7-1.3-2.1-1.5-4.6-0.2
			c-0.7,0.4-1.2,0.7-1.6,1l-2.6-7l6.9-3.6L1139.2,1795.1z"/>
		<path class="st3" d="M1152.8,1792.8c2,3.9,1.9,7.4-1.3,9.1c-3.2,1.7-6.2-0.5-8.1-4c-1.9-3.6-1.9-7.3,1.4-9
			C1148.1,1787,1151,1789.3,1152.8,1792.8z M1146.3,1796.3c1.5,2.9,2.9,3.9,4.1,3.3c1.1-0.6,1-2.4-0.5-5.2c-1.5-2.8-2.8-3.9-4-3.3
			C1144.8,1791.6,1144.7,1793.4,1146.3,1796.3z"/>
	</g>
	<g>
		<path class="st3" d="M1270.7,1940.5L1270.7,1940.5l-3,0.2l0.4-2.5l4.1-0.3l2.6,1l-5,13.3l-3-1.1L1270.7,1940.5z"/>
		<path class="st3" d="M1286.5,1950.8c-1.5,4.1-4.2,6.3-7.6,5.1c-3.4-1.3-3.8-4.9-2.4-8.7c1.4-3.8,4.2-6.3,7.6-5
			C1287.6,1943.4,1287.8,1947.1,1286.5,1950.8z M1279.5,1948.3c-1.2,3-1,4.8,0.2,5.2c1.2,0.4,2.4-0.8,3.6-3.9c1.1-2.9,1-4.7-0.2-5.2
			C1282,1944,1280.7,1945.2,1279.5,1948.3z"/>
		<path class="st3" d="M1297.8,1955c-1.5,4.1-4.2,6.3-7.6,5.1c-3.4-1.3-3.8-4.9-2.4-8.7c1.4-3.8,4.2-6.3,7.6-5
			C1299,1947.7,1299.2,1951.4,1297.8,1955z M1290.9,1952.5c-1.2,3-1,4.8,0.2,5.2c1.2,0.4,2.4-0.8,3.6-3.9c1.1-2.9,1-4.7-0.2-5.2
			C1293.4,1948.3,1292,1949.4,1290.9,1952.5z"/>
		<path class="st3" d="M1309.2,1959.2c-1.5,4.1-4.2,6.3-7.6,5.1c-3.4-1.3-3.8-4.9-2.4-8.7c1.4-3.8,4.2-6.3,7.6-5
			C1310.3,1951.9,1310.6,1955.6,1309.2,1959.2z M1302.3,1956.8c-1.2,3-1,4.8,0.2,5.2c1.2,0.4,2.4-0.8,3.6-3.9c1.1-2.9,1-4.7-0.2-5.2
			C1304.7,1952.5,1303.4,1953.7,1302.3,1956.8z"/>
	</g>
</g>
</svg>
