<?xml version="1.0" encoding="utf-8"?>
<!-- Generator: Adobe Illustrator 19.1.0, SVG Export Plug-In . SVG Version: 6.00 Build 0)  -->
<svg version="1.1" id="Ebene_1" xmlns="http://www.w3.org/2000/svg" xmlns:xlink="http://www.w3.org/1999/xlink" x="0px" y="0px"
	 viewBox="-1117 53.9 264.9 95.1" style="enable-background:new -1117 53.9 264.9 95.1;" xml:space="preserve">
<style type="text/css">
	.st0{fill:none;}
	.st1{enable-background:new    ;}
	.st2{fill:#37A8DB;}
	
		.st3{fill:none;stroke:#37A8DB;stroke-width:2;stroke-linecap:round;stroke-linejoin:round;stroke-miterlimit:10;stroke-dasharray:8,8;}
	.st4{fill:none;stroke:#1B171B;stroke-miterlimit:10;}
</style>
<g>
	<rect x="-917.6" y="102.4" class="st0" width="67.5" height="13.5"/>
	<g class="st1">
		<path d="M-916.2,113v-10h1.2v8.9h4.4v1.1H-916.2z"/>
		<path d="M-904.5,113l-0.2-1.1h-0.1c-0.4,0.5-0.7,0.8-1.1,1c-0.4,0.2-0.8,0.2-1.4,0.2c-0.7,0-1.3-0.2-1.7-0.6s-0.6-0.9-0.6-1.6
			c0-1.5,1.2-2.3,3.6-2.4h1.3V108c0-0.6-0.1-1-0.4-1.3c-0.3-0.3-0.7-0.4-1.2-0.4c-0.6,0-1.3,0.2-2.1,0.6l-0.3-0.9
			c0.4-0.2,0.8-0.4,1.2-0.5s0.9-0.2,1.3-0.2c0.9,0,1.6,0.2,2,0.6c0.4,0.4,0.6,1,0.6,1.9v5.1L-904.5,113L-904.5,113z M-907.1,112.2
			c0.7,0,1.3-0.2,1.7-0.6c0.4-0.4,0.6-0.9,0.6-1.6v-0.7h-1.1c-0.9,0-1.6,0.2-2,0.4c-0.4,0.2-0.6,0.6-0.6,1.2c0,0.4,0.1,0.7,0.4,0.9
			C-907.8,112.1-907.5,112.2-907.1,112.2z"/>
		<path d="M-896.2,113v-4.8c0-0.6-0.1-1.1-0.4-1.4c-0.3-0.3-0.7-0.5-1.3-0.5c-0.8,0-1.4,0.2-1.7,0.6c-0.4,0.4-0.5,1.1-0.5,2.1v3.9
			h-1.2v-7.5h0.9l0.2,1h0.1c0.2-0.4,0.6-0.7,1-0.9c0.4-0.2,0.9-0.3,1.4-0.3c0.9,0,1.6,0.2,2,0.7c0.5,0.4,0.7,1.1,0.7,2.1v4.9
			L-896.2,113L-896.2,113z"/>
		<path d="M-887.6,112L-887.6,112c-0.6,0.8-1.4,1.1-2.4,1.1s-1.7-0.3-2.3-1c-0.5-0.7-0.8-1.6-0.8-2.9s0.3-2.2,0.8-2.9s1.3-1,2.3-1
			s1.8,0.4,2.3,1.1h0.1v-0.5v-0.5v-3h1.1V113h-0.9L-887.6,112z M-889.9,112.2c0.8,0,1.3-0.2,1.7-0.6c0.3-0.4,0.5-1.1,0.5-2v-0.2
			c0-1.1-0.2-1.8-0.5-2.3c-0.4-0.5-0.9-0.7-1.7-0.7c-0.7,0-1.2,0.3-1.5,0.8c-0.4,0.5-0.5,1.2-0.5,2.2s0.2,1.7,0.5,2.2
			C-891.1,112-890.6,112.2-889.9,112.2z"/>
	</g>
	<g>
		<path class="st2" d="M-921.2,133.5L-921.2,133.5c0.2-0.2,0.3-0.4,0.3-0.7c0-0.6-0.5-1-1-1c-0.3,0-0.6,0.1-0.7,0.3l0,0l-3,3.3
			l-3-3.3l0,0c-0.2-0.2-0.5-0.3-0.7-0.3c-0.6,0-1,0.5-1,1c0,0.3,0.1,0.5,0.3,0.7l0,0l3.7,4.1c0.2,0.2,0.5,0.3,0.8,0.3
			s0.6-0.1,0.8-0.3L-921.2,133.5z"/>
		<line class="st3" x1="-925.7" y1="92.9" x2="-925.7" y2="130.9"/>
	</g>
	<line class="st4" x1="-1112.1" y1="142.2" x2="-857.1" y2="142.2"/>
	<path class="st2" d="M-922.1,86.5h9.7c0.5,0,0.9-0.2,1.3-0.5c0.4-0.3,0.6-0.8,0.6-1.4v-3.8h7.2h11.2c0,0.1,0.1,0.1,0.1,0.2
		c0,0.1,0.1,0.1,0.1,0.2c0,0,0,0,0,0c0,0,0.1,0.1,0.1,0.1c0,0,0.1,0,0.1,0.1c0.1,0,0.1,0.1,0.2,0.1c0.1,0,0.1,0.1,0.2,0.1
		c0.1,0,0.1,0,0.2,0.1c0.1,0,0.1,0,0.2,0c0,0,0,0,0,0c0.1,0,0.1,0,0.2,0c0.1,0,0.1,0,0.2,0h9.6c1,0,1.9-0.8,1.9-1.9v-0.6v-0.4v-0.9
		c0-1-0.8-1.9-1.9-1.9h-1.3l-0.4-0.4v-0.2h0.3v-0.5h-0.3v-0.7h-1.4l0,0v-3h25.7l0,0h0l-2.8-2.3h-18.5l-1.5,0.8h-0.9
		c0-0.8-0.7-1.5-1.5-1.5h0v-0.9h-0.5c0-1.5-0.7-2.7-1.5-2.7c0,0-0.1,0-0.1,0c-0.7,0.1-1.3,1.3-1.4,2.7h-0.5v0.9h0
		c-0.8,0-1.5,0.7-1.5,1.5h-0.9l-1.5-0.8h-18.5l-2.8,2.3h25.7v3h-1.9v0.7h-0.2v0.5h0.2v0.6h-1.5c-0.7,0-1.2,0.3-1.6,0.8l-16.7-1.6
		l-14-1.4l-2.8-0.3l0,0l0,0l0,0l0,0l-4.1,0.4l-5.2,0.5l-23.4,2.3l-0.7,0.1h0c-0.3-0.5-0.9-0.8-1.6-0.8h-1.5v-0.6h0.2v-0.5h-0.2v-0.7
		h-1.9v-3h-1.4h-0.2l0,0h0.3l0,0l0,0h27.1l-2.8-2.3h-18.5l-1.5,0.8h-0.9c0-0.8-0.7-1.5-1.5-1.5h0v-0.9h-0.5c0-1.4-0.6-2.6-1.4-2.7
		c0,0-0.1,0-0.1,0c-0.8,0-1.5,1.2-1.5,2.7h-0.5v0.9h0c-0.8,0-1.5,0.7-1.5,1.5h-0.9l-1.5-0.8h-18.5l-2.8,2.3h0l0,0h25.7v3h-1.5v0.7
		h-0.3v0.5h0.3v0.6h-1.7c-1,0-1.9,0.8-1.9,1.9v0.9v0.9c0,1,0.8,1.9,1.9,1.9h9.6c0.6,0,1.2-0.3,1.5-0.8h4.6h13.8v3.8
		c0,0.1,0,0.1,0,0.2c0,0,0,0.1,0,0.1c0,0,0,0.1,0,0.1c0,0,0,0.1,0,0.1c0,0,0,0,0,0c0,0.1,0,0.1,0.1,0.2c0,0,0,0,0,0
		c0,0.1,0.1,0.1,0.1,0.2l0,0c0.1,0.2,0.2,0.3,0.3,0.4c0.3,0.3,0.8,0.5,1.3,0.5h11.1"/>
</g>
<path class="st2" d="M-1101.5,121c-4.7,0-8.5,3.8-8.5,8.5c0,4.7,5.2,8.6,8.5,11.6c2.7-2.7,8.5-7,8.5-11.6
	C-1093,124.8-1096.8,121-1101.5,121z M-1098.2,132.6h-1.9v-2.2h-2.9v2.2h-1.9v-6.2h1.9v2.2h2.9v-2.2h1.9V132.6z"/>
</svg>
