<?xml version="1.0" encoding="utf-8"?>
<!-- Generator: Adobe Illustrator 19.1.0, SVG Export Plug-In . SVG Version: 6.00 Build 0)  -->
<svg version="1.1" id="Ebene_1" xmlns="http://www.w3.org/2000/svg" xmlns:xlink="http://www.w3.org/1999/xlink" x="0px" y="0px"
	 viewBox="-1117 53.9 264.9 95.1" style="enable-background:new -1117 53.9 264.9 95.1;" xml:space="preserve">
<style type="text/css">
	.st0{fill:#37A8DB;}
	.st1{fill:none;}
	.st2{enable-background:new    ;}
	.st3{fill:none;stroke:#37A8DB;stroke-width:2;stroke-linecap:round;stroke-linejoin:round;}
	.st4{fill:none;stroke:#37A8DB;stroke-width:2;stroke-linecap:round;stroke-linejoin:round;stroke-dasharray:7.4103,7.4103;}
	.st5{fill:none;stroke:#37A8DB;stroke-width:2;stroke-linecap:round;stroke-linejoin:round;stroke-dasharray:7.7778,7.7778;}
	.st6{fill:none;stroke:#1B171B;stroke-miterlimit:10;}
</style>
<g>
	<path class="st0" d="M-1098.1,114.5L-1098.1,114.5c0.2-0.2,0.3-0.4,0.3-0.7c0-0.6-0.5-1-1-1c-0.3,0-0.6,0.1-0.7,0.3l0,0l-3,3.3
		l-3-3.3l0,0c-0.2-0.2-0.5-0.3-0.7-0.3c-0.6,0-1,0.5-1,1c0,0.3,0.1,0.5,0.3,0.7l0,0l3.7,4.1c0.2,0.2,0.5,0.3,0.8,0.3
		s0.6-0.1,0.8-0.3L-1098.1,114.5z"/>
	<rect x="-1076.2" y="96.4" class="st1" width="86.5" height="32.1"/>
	<g class="st2">
		<path d="M-1073.8,102.9v4.2h-1.2v-10h2.7c1.2,0,2.1,0.2,2.7,0.7s0.9,1.2,0.9,2.1c0,1.3-0.7,2.2-2,2.7l2.7,4.5h-1.4l-2.4-4.2
			L-1073.8,102.9L-1073.8,102.9z M-1073.8,101.9h1.6c0.8,0,1.4-0.2,1.8-0.5s0.6-0.8,0.6-1.5s-0.2-1.1-0.6-1.4s-1-0.4-1.9-0.4h-1.5
			V101.9z"/>
		<path d="M-1063.2,107.2c-1.1,0-2-0.3-2.6-1s-1-1.6-1-2.8c0-1.2,0.3-2.2,0.9-2.9c0.6-0.7,1.4-1.1,2.4-1.1c0.9,0,1.7,0.3,2.2,0.9
			s0.8,1.4,0.8,2.4v0.7h-5.2c0,0.9,0.2,1.5,0.7,2s1,0.7,1.8,0.7s1.6-0.2,2.4-0.5v1c-0.4,0.2-0.8,0.3-1.1,0.4
			C-1062.3,107.2-1062.8,107.2-1063.2,107.2z M-1063.6,100.4c-0.6,0-1.1,0.2-1.4,0.6s-0.6,0.9-0.6,1.6h3.9c0-0.7-0.2-1.3-0.5-1.6
			C-1062.6,100.6-1062.9,100.4-1063.6,100.4z"/>
		<path d="M-1056.2,106.3c0.2,0,0.4,0,0.6,0s0.3-0.1,0.4-0.1v0.9c-0.1,0.1-0.3,0.1-0.5,0.1s-0.5,0.1-0.6,0.1c-1.4,0-2.2-0.8-2.2-2.3
			v-4.5h-1.1V100l1.1-0.5l0.5-1.6h0.7v1.7h2.2v0.9h-2.2v4.4c0,0.5,0.1,0.8,0.3,1C-1056.8,106.1-1056.6,106.3-1056.2,106.3z"/>
		<path d="M-1052.6,99.6v4.9c0,0.6,0.1,1.1,0.4,1.4s0.7,0.5,1.3,0.5c0.8,0,1.4-0.2,1.7-0.6c0.3-0.4,0.5-1.1,0.5-2.1v-3.9h1.1v7.5
			h-0.9l-0.2-1h-0.1c-0.2,0.4-0.6,0.7-1,0.8s-0.9,0.3-1.4,0.3c-0.9,0-1.6-0.2-2-0.6s-0.7-1.1-0.7-2.1v-4.9h1.3
			C-1052.6,99.8-1052.6,99.6-1052.6,99.6z"/>
		<path d="M-1041.7,99.4c0.3,0,0.6,0,0.9,0.1l-0.2,1.1c-0.3-0.1-0.6-0.1-0.8-0.1c-0.6,0-1.1,0.2-1.6,0.7s-0.6,1.1-0.6,1.8v4h-1.1
			v-7.5h0.9l0.1,1.4h0.1c0.3-0.5,0.6-0.9,1-1.1C-1042.6,99.6-1042.1,99.4-1041.7,99.4z"/>
		<path d="M-1034.2,107.1v-4.8c0-0.6-0.1-1.1-0.4-1.4s-0.7-0.5-1.3-0.5c-0.8,0-1.4,0.2-1.7,0.6c-0.3,0.4-0.5,1.1-0.5,2.1v3.9h-1.1
			v-7.5h0.9l0.2,1h0.1c0.2-0.4,0.6-0.7,1-0.9c0.4-0.2,0.9-0.3,1.4-0.3c0.9,0,1.6,0.2,2,0.7c0.5,0.4,0.7,1.1,0.7,2.1v4.9
			L-1034.2,107.1L-1034.2,107.1z"/>
		<path d="M-1024.7,106.3c0.2,0,0.4,0,0.6,0s0.3-0.1,0.4-0.1v0.9c-0.1,0.1-0.3,0.1-0.5,0.1c-0.2,0-0.5,0.1-0.6,0.1
			c-1.4,0-2.2-0.8-2.2-2.3v-4.5h-1.1V100l1.1-0.5l0.5-1.6h0.7v1.7h2.2v0.9h-2.2v4.4c0,0.5,0.1,0.8,0.3,1
			C-1025.2,106.1-1025.1,106.3-1024.7,106.3z"/>
		<path d="M-1015.7,103.3c0,1.2-0.3,2.2-0.9,2.9c-0.6,0.7-1.5,1-2.5,1c-0.7,0-1.3-0.2-1.8-0.5s-0.9-0.8-1.2-1.4s-0.4-1.3-0.4-2.1
			c0-1.2,0.3-2.2,0.9-2.9c0.6-0.7,1.5-1,2.5-1s1.9,0.3,2.5,1C-1016,101-1015.7,102.1-1015.7,103.3z M-1021.3,103.3
			c0,1,0.2,1.7,0.6,2.2s0.9,0.8,1.7,0.8s1.3-0.2,1.7-0.7s0.6-1.2,0.6-2.2s-0.2-1.7-0.6-2.2c-0.4-0.5-1-0.7-1.7-0.7s-1.3,0.2-1.7,0.7
			S-1021.3,102.3-1021.3,103.3z"/>
	</g>
	<g class="st2">
		<path d="M-1067.3,123.9h-1.2v-4.7h-5.3v4.7h-1.2v-10h1.2v4.3h5.3v-4.3h1.2V123.9z"/>
		<path d="M-1058.2,120.1c0,1.2-0.3,2.2-0.9,2.9c-0.6,0.7-1.5,1-2.5,1c-0.7,0-1.3-0.2-1.8-0.5s-0.9-0.8-1.2-1.4
			c-0.3-0.6-0.4-1.3-0.4-2.1c0-1.2,0.3-2.2,0.9-2.9c0.6-0.7,1.5-1,2.5-1s1.9,0.3,2.5,1S-1058.2,118.9-1058.2,120.1z M-1063.9,120.1
			c0,1,0.2,1.7,0.6,2.2s0.9,0.8,1.7,0.8c0.8,0,1.3-0.2,1.7-0.7c0.4-0.5,0.6-1.2,0.6-2.2s-0.2-1.7-0.6-2.2s-1-0.7-1.7-0.7
			s-1.3,0.2-1.7,0.7S-1063.9,119.1-1063.9,120.1z"/>
		<path d="M-1046.8,123.9V119c0-0.6-0.1-1-0.4-1.3s-0.7-0.4-1.2-0.4c-0.7,0-1.2,0.2-1.6,0.6s-0.5,1-0.5,1.9v4.2h-1.1v-4.9
			c0-0.6-0.1-1-0.4-1.3s-0.7-0.4-1.2-0.4c-0.7,0-1.2,0.2-1.6,0.6c-0.3,0.4-0.5,1.1-0.5,2.1v3.9h-1.1v-7.5h0.9l0.2,1h0.1
			c0.2-0.4,0.5-0.6,0.9-0.9s0.8-0.3,1.3-0.3c1.2,0,1.9,0.4,2.3,1.3h0.1c0.2-0.4,0.5-0.7,1-0.9s0.9-0.3,1.4-0.3
			c0.8,0,1.5,0.2,1.9,0.7c0.4,0.4,0.6,1.1,0.6,2.1v4.9h-1.1L-1046.8,123.9L-1046.8,123.9z"/>
		<path d="M-1040.1,124c-1.1,0-2-0.3-2.6-1s-1-1.6-1-2.8c0-1.2,0.3-2.2,0.9-2.9s1.4-1.1,2.4-1.1c0.9,0,1.7,0.3,2.2,0.9
			s0.8,1.4,0.8,2.4v0.7h-5.2c0,0.9,0.2,1.5,0.7,2s1,0.7,1.8,0.7s1.6-0.2,2.4-0.5v1c-0.4,0.2-0.8,0.3-1.1,0.4
			C-1039.2,124-1039.6,124-1040.1,124z M-1040.3,117.2c-0.6,0-1.1,0.2-1.4,0.6s-0.6,0.9-0.6,1.6h3.9c0-0.7-0.2-1.3-0.5-1.6
			C-1039.3,117.4-1039.8,117.2-1040.3,117.2z"/>
	</g>
	<g>
		<g>
			<line class="st3" x1="-998.2" y1="79.4" x2="-1002.2" y2="79.4"/>
			<line class="st4" x1="-1009.5" y1="79.4" x2="-1094.8" y2="79.4"/>
			<polyline class="st3" points="-1098.6,79.4 -1102.6,79.4 -1102.6,83.4 			"/>
			<line class="st5" x1="-1102.6" y1="91.2" x2="-1102.6" y2="102.8"/>
			<line class="st3" x1="-1102.6" y1="106.7" x2="-1102.6" y2="110.7"/>
		</g>
	</g>
	<line class="st6" x1="-1113.1" y1="142.2" x2="-858" y2="142.2"/>
	<path class="st0" d="M-1102.4,120.8c-4.7,0-8.5,3.8-8.5,8.5s5.2,8.6,8.5,11.6c2.7-2.7,8.5-7,8.5-11.6
		C-1093.9,124.6-1097.8,120.8-1102.4,120.8z M-1099.2,132.4h-1.9v-2.2h-2.9v2.2h-1.9v-6.2h1.9v2.2h2.9v-2.2h1.9V132.4z"/>
	<path class="st0" d="M-923.2,89.6h9.7c0.5,0,0.9-0.2,1.3-0.5c0.4-0.3,0.6-0.8,0.6-1.4v-3.8h7.2h11.2c0,0.1,0.1,0.1,0.1,0.2
		c0,0.1,0.1,0.1,0.1,0.2c0,0,0,0,0,0c0,0,0.1,0.1,0.1,0.1c0,0,0.1,0,0.1,0.1c0.1,0,0.1,0.1,0.2,0.1c0.1,0,0.1,0.1,0.2,0.1
		c0.1,0,0.1,0,0.2,0.1c0.1,0,0.1,0,0.2,0c0,0,0,0,0,0c0.1,0,0.1,0,0.2,0c0.1,0,0.1,0,0.2,0h9.6c1,0,1.9-0.8,1.9-1.9v-0.6V82v-0.9
		c0-1-0.8-1.9-1.9-1.9h-1.3l-0.4-0.4v-0.2h0.3V78h-0.3v-0.7h-1.4l0,0v-3h25.7l0,0h0l-2.8-2.3H-881l-1.5,0.8h-0.9
		c0-0.8-0.7-1.5-1.5-1.5h0v-0.9h-0.5c0-1.5-0.7-2.7-1.5-2.7c0,0-0.1,0-0.1,0c-0.7,0.1-1.3,1.3-1.4,2.7h-0.5v0.9h0
		c-0.8,0-1.5,0.7-1.5,1.5h-0.9l-1.5-0.8h-18.5l-2.8,2.3h25.7v3h-1.9V78h-0.2v0.5h0.2v0.6h-1.5c-0.7,0-1.2,0.3-1.6,0.8l-16.7-1.6
		l-14-1.4l-2.8-0.3l0,0l0,0l0,0l0,0l-4.1,0.4l-5.2,0.5l-23.4,2.3l-0.7,0.1h0c-0.3-0.5-0.9-0.8-1.6-0.8h-1.5v-0.6h0.2V78h-0.2v-0.7
		h-1.9v-3h-1.4h-0.2l0,0h0.3l0,0l0,0h27.1l-2.8-2.3h-18.5l-1.5,0.8h-0.9c0-0.8-0.7-1.5-1.5-1.5h0v-0.9h-0.5c0-1.4-0.6-2.6-1.4-2.7
		c0,0-0.1,0-0.1,0c-0.8,0-1.5,1.2-1.5,2.7h-0.5v0.9h0c-0.8,0-1.5,0.7-1.5,1.5h-0.9l-1.5-0.8h-18.5l-2.8,2.3h0l0,0h25.7v3h-1.5V78
		h-0.3v0.5h0.3v0.6h-1.7c-1,0-1.9,0.8-1.9,1.9V82v0.9c0,1,0.8,1.9,1.9,1.9h9.6c0.6,0,1.2-0.3,1.5-0.8h4.6h13.8v3.8
		c0,0.1,0,0.1,0,0.2c0,0,0,0.1,0,0.1c0,0,0,0.1,0,0.1c0,0,0,0.1,0,0.1c0,0,0,0,0,0c0,0.1,0,0.1,0.1,0.2c0,0,0,0,0,0
		c0,0.1,0.1,0.1,0.1,0.2l0,0c0.1,0.2,0.2,0.3,0.3,0.4c0.3,0.3,0.8,0.5,1.3,0.5h11.1"/>
</g>
</svg>
