<?xml version="1.0" encoding="utf-8"?>
<!-- Generator: Adobe Illustrator 19.1.0, SVG Export Plug-In . SVG Version: 6.00 Build 0)  -->
<svg version="1.1" id="Ebene_1" xmlns="http://www.w3.org/2000/svg" xmlns:xlink="http://www.w3.org/1999/xlink" x="0px" y="0px"
	 viewBox="-1117 53.9 264.9 95.1" style="enable-background:new -1117 53.9 264.9 95.1;" xml:space="preserve">
<style type="text/css">
	.st0{fill:#37A8DB;}
	.st1{fill:none;}
	.st2{enable-background:new    ;}
	.st3{fill:none;stroke:#1B171B;stroke-miterlimit:10;}
</style>
<g>
	<path class="st0" d="M-1101.4,118.4c-4.7,0-8.5,3.8-8.5,8.5c0,4.7,5.2,8.6,8.5,11.6c2.7-2.7,8.5-7,8.5-11.6
		C-1092.9,122.2-1096.8,118.4-1101.4,118.4z M-1098.2,130h-1.9v-2.2h-2.9v2.2h-1.9v-6.2h1.9v2.2h2.9v-2.2h1.9V130z"/>
	<g>
		<rect x="-927.5" y="82.1" class="st1" width="67.5" height="13.5"/>
		<g class="st2">
			<path d="M-918.2,87.6c0,1.6-0.4,2.9-1.3,3.8c-0.9,0.9-2.2,1.3-3.9,1.3h-2.8v-10h3.1c1.6,0,2.8,0.4,3.6,1.3
				S-918.2,86.1-918.2,87.6z M-919.3,87.7c0-1.3-0.3-2.3-1-2.9c-0.7-0.7-1.6-1-2.9-1h-1.7v8h1.4c1.4,0,2.4-0.3,3.1-1
				C-919.8,90-919.3,89-919.3,87.7z"/>
			<path d="M-912.7,85.1c0.3,0,0.6,0,0.9,0.1l-0.2,1.1c-0.3-0.1-0.6-0.1-0.8-0.1c-0.6,0-1.1,0.2-1.6,0.7s-0.6,1.1-0.6,1.8v4h-1.1
				v-7.5h0.9l0.1,1.4h0.1c0.3-0.5,0.6-0.9,1-1.1C-913.5,85.2-913.2,85.1-912.7,85.1z"/>
			<path d="M-904,89c0,1.2-0.3,2.2-0.9,2.9c-0.6,0.7-1.5,1-2.5,1c-0.7,0-1.3-0.2-1.8-0.5s-0.9-0.8-1.2-1.4c-0.3-0.6-0.4-1.3-0.4-2.1
				c0-1.2,0.3-2.2,0.9-2.9c0.6-0.7,1.5-1,2.5-1s1.9,0.3,2.5,1C-904.2,86.8-904,87.8-904,89z M-909.7,89c0,1,0.2,1.7,0.6,2.2
				c0.4,0.5,0.9,0.8,1.7,0.8c0.7,0,1.3-0.2,1.7-0.7c0.4-0.5,0.6-1.2,0.6-2.2s-0.2-1.7-0.6-2.2c-0.4-0.5-1-0.7-1.7-0.7
				c-0.7,0-1.3,0.2-1.7,0.7C-909.5,87.3-909.7,88-909.7,89z"/>
			<path d="M-898.5,92.9c-0.5,0-0.9-0.1-1.3-0.3c-0.4-0.2-0.7-0.5-1-0.8h-0.1c0.1,0.4,0.1,0.9,0.1,1.2v3.1h-1.1V85.2h0.9l0.2,1h0.1
				c0.3-0.4,0.6-0.7,1-0.9c0.4-0.2,0.8-0.3,1.3-0.3c1,0,1.8,0.3,2.3,1s0.8,1.6,0.8,2.9c0,1.2-0.3,2.2-0.8,2.9
				C-896.8,92.5-897.5,92.9-898.5,92.9z M-898.7,86.1c-0.8,0-1.3,0.2-1.7,0.6c-0.4,0.4-0.5,1.1-0.5,2V89c0,1.1,0.2,1.8,0.5,2.3
				c0.4,0.5,0.9,0.7,1.7,0.7c0.6,0,1.2-0.3,1.5-0.8c0.4-0.5,0.5-1.2,0.5-2.2c0-0.9-0.2-1.7-0.5-2.1C-897.5,86.3-898,86.1-898.7,86.1
				z"/>
		</g>
		<line class="st3" x1="-1112.1" y1="141.4" x2="-857" y2="141.4"/>
		<polygon points="-865.5,132.7 -878.8,136.3 -869.5,111.3 -890.8,140 -920.8,135.3 -901.5,141.3 -874.2,141.3 		"/>
		<path class="st0" d="M-933.2,131l9.1,3.3c0.5,0.2,0.9,0.1,1.4,0c0.5-0.2,0.8-0.6,1-1.1l1.3-3.6l6.8,2.5l10.5,3.8
			c0,0.1,0,0.1,0.1,0.2c0,0.1,0.1,0.1,0.1,0.2c0,0,0,0,0,0c0,0.1,0.1,0.1,0.1,0.1c0,0,0,0.1,0.1,0.1c0,0.1,0.1,0.1,0.1,0.2
			c0,0,0.1,0.1,0.1,0.1c0,0,0.1,0.1,0.1,0.1c0,0,0.1,0.1,0.1,0.1c0,0,0,0,0,0c0,0,0.1,0.1,0.1,0.1c0.1,0,0.1,0.1,0.2,0.1l9,3.3
			c1,0.3,2-0.2,2.4-1.1l0.2-0.5l0.1-0.3l0.3-0.9c0.3-1-0.2-2-1.1-2.4l-1.2-0.4l-0.3-0.6l0.1-0.2l0.3,0.1l0.2-0.5l-0.3-0.1l0.2-0.7
			l-1.3-0.5l0,0l1-2.8l24.2,8.7l0,0l0,0l-1.9-3.1l-17.4-6.3l-1.7,0.2l-0.9-0.3c0.3-0.8-0.1-1.6-0.9-1.9l0,0l0.3-0.8l-0.5-0.2
			c0.5-1.4,0.3-2.8-0.5-3.1c0,0-0.1,0-0.1,0c-0.7-0.1-1.7,0.7-2.2,2.1l-0.5-0.2l-0.3,0.8l0,0c-0.8-0.3-1.6,0.1-1.9,0.9l-0.9-0.3
			l-1.1-1.2l-17.4-6.3l-3.4,1.2l24.2,8.7l-1,2.8l-1.8-0.7l-0.2,0.7l-0.2-0.1l-0.2,0.5l0.2,0.1l-0.2,0.6l-1.4-0.5
			c-0.6-0.2-1.3-0.1-1.8,0.3l-15.1-7.2l-12.7-6l-2.5-1.2l0,0l0,0l0,0l0,0l-4-1l-5.1-1.3l-22.8-5.8l-0.7-0.2l0,0
			c-0.1-0.6-0.6-1.1-1.2-1.3l-1.4-0.5l0.2-0.6l0.2,0.1l0.2-0.5l-0.2-0.1l0.2-0.7l-1.8-0.7l1-2.8l-1.3-0.5l-0.2-0.1l0,0l0.2,0.1l0,0
			l0,0l25.5,9.2l-1.9-3.1l-17.4-6.3l-1.7,0.2l-0.9-0.3c0.3-0.8-0.1-1.6-0.9-1.9l0,0l0.3-0.8l-0.5-0.2c0.5-1.4,0.3-2.7-0.4-3
			c0,0-0.1,0-0.1-0.1c-0.8-0.3-1.8,0.6-2.3,2.1l-0.5-0.2l-0.3,0.8l0,0c-0.8-0.3-1.6,0.1-1.9,0.9l-0.9-0.3l-1.1-1.2l-17.4-6.3
			l-3.4,1.2l0,0l0,0l24.2,8.7l-1,2.8l-1.4-0.5l-0.2,0.7l-0.3-0.1l-0.2,0.5l0.3,0.1l-0.2,0.6l-1.6-0.6c-1-0.3-2,0.2-2.4,1.1l-0.3,0.9
			l-0.3,0.9c-0.3,1,0.2,2,1.1,2.4l9,3.3c0.6,0.2,1.3,0.1,1.7-0.3l4.3,1.6l13,4.7l-1.3,3.6c0,0.1,0,0.1-0.1,0.2c0,0,0,0.1,0,0.1
			c0,0,0,0.1,0,0.1c0,0,0,0.1,0,0.1c0,0,0,0,0,0c0,0.1,0,0.1,0,0.2c0,0,0,0,0,0c0,0.1,0,0.1,0,0.2l0,0c0,0.2,0.1,0.4,0.2,0.5
			c0.2,0.4,0.6,0.7,1,0.9l10.4,3.8"/>
	</g>
</g>
</svg>
