<?xml version="1.0" encoding="utf-8"?>
<!-- Generator: Adobe Illustrator 19.1.0, SVG Export Plug-In . SVG Version: 6.00 Build 0)  -->
<svg version="1.1" id="Ebene_1" xmlns="http://www.w3.org/2000/svg" xmlns:xlink="http://www.w3.org/1999/xlink" x="0px" y="0px"
	 viewBox="-1117 53.9 264.9 95.1" style="enable-background:new -1117 53.9 264.9 95.1;" xml:space="preserve">
<style type="text/css">
	.st0{fill:none;}
	.st1{enable-background:new    ;}
	.st2{fill:#37A8DB;}
	.st3{fill:none;stroke:#37A8DB;stroke-width:2;stroke-linecap:round;stroke-miterlimit:10;}
	.st4{fill:none;stroke:#1B171B;stroke-miterlimit:10;}
</style>
<g>
	<g>
		<rect x="-919.6" y="102.4" class="st0" width="67.5" height="13.5"/>
		<g class="st1">
			<path d="M-910.6,113h-1.2v-4.7h-5.3v4.7h-1.2v-10h1.2v4.3h5.3V103h1.2V113z"/>
			<path d="M-901.6,109.2c0,1.2-0.3,2.2-0.9,2.9c-0.6,0.7-1.5,1-2.5,1c-0.7,0-1.3-0.2-1.8-0.5s-0.9-0.8-1.2-1.4s-0.4-1.3-0.4-2.1
				c0-1.2,0.3-2.2,0.9-2.9c0.6-0.7,1.5-1,2.5-1s1.9,0.3,2.5,1C-901.9,107.1-901.6,108.1-901.6,109.2z M-907.3,109.2
				c0,1,0.2,1.7,0.6,2.2c0.4,0.5,0.9,0.8,1.7,0.8c0.7,0,1.3-0.2,1.7-0.8c0.4-0.5,0.6-1.2,0.6-2.2s-0.2-1.7-0.6-2.2
				c-0.4-0.5-1-0.7-1.7-0.7s-1.3,0.2-1.7,0.7C-907.1,107.6-907.3,108.3-907.3,109.2z"/>
			<path d="M-897.9,113l-2.8-7.5h1.2l1.6,4.4c0.4,1,0.6,1.7,0.6,2l0,0c0.1-0.2,0.2-0.7,0.5-1.5s0.9-2.4,1.8-5h1.2l-2.8,7.5h-1.3V113
				z"/>
			<path d="M-889.4,113.1c-1.1,0-2-0.3-2.6-1s-1-1.6-1-2.8c0-1.2,0.3-2.2,0.9-2.9c0.6-0.7,1.4-1.1,2.4-1.1c0.9,0,1.7,0.3,2.2,0.9
				s0.8,1.4,0.8,2.4v0.7h-5.2c0,0.9,0.2,1.5,0.7,2c0.4,0.5,1,0.7,1.8,0.7c0.8,0,1.6-0.2,2.4-0.5v1c-0.4,0.2-0.8,0.3-1.1,0.4
				C-888.5,113.1-888.9,113.1-889.4,113.1z M-889.7,106.3c-0.6,0-1.1,0.2-1.4,0.6c-0.4,0.4-0.6,0.9-0.6,1.6h3.9
				c0-0.7-0.2-1.3-0.5-1.6C-888.7,106.5-889.1,106.3-889.7,106.3z"/>
			<path d="M-881.3,105.4c0.3,0,0.6,0,0.9,0.1l-0.2,1.1c-0.3-0.1-0.6-0.1-0.8-0.1c-0.6,0-1.1,0.2-1.6,0.7s-0.6,1.1-0.6,1.8v4h-1.1
				v-7.5h0.9l0.1,1.4h0.1c0.3-0.5,0.6-0.9,1-1.1C-882.2,105.5-881.8,105.4-881.3,105.4z"/>
		</g>
		<g>
			<path class="st2" d="M-923.2,133.4L-923.2,133.4c0.2-0.2,0.3-0.4,0.3-0.7c0-0.6-0.5-1-1-1c-0.3,0-0.6,0.1-0.7,0.3l0,0l-3,3.3
				l-3-3.3l0,0c-0.2-0.2-0.5-0.3-0.7-0.3c-0.6,0-1,0.5-1,1c0,0.3,0.1,0.5,0.3,0.7l0,0l3.7,4.1c0.2,0.2,0.5,0.3,0.8,0.3
				s0.6-0.1,0.8-0.3L-923.2,133.4z"/>
			<path class="st2" d="M-932.1,90.1L-932.1,90.1c-0.2,0.2-0.3,0.4-0.3,0.7c0,0.6,0.5,1,1,1c0.3,0,0.6-0.1,0.7-0.3l0,0l3-3.3l3,3.3
				l0,0c0.2,0.2,0.5,0.3,0.7,0.3c0.6,0,1-0.5,1-1c0-0.3-0.1-0.5-0.3-0.7l0,0L-927,86c-0.2-0.2-0.5-0.3-0.8-0.3s-0.6,0.1-0.8,0.3
				L-932.1,90.1z"/>
			<line class="st3" x1="-927.7" y1="92.9" x2="-927.7" y2="130.9"/>
		</g>
		<line class="st4" x1="-1114.1" y1="142.1" x2="-859.1" y2="142.1"/>
		<path class="st2" d="M-925.1,82.5h9.7c0.5,0,0.9-0.2,1.3-0.5c0.4-0.3,0.6-0.8,0.6-1.4v-3.8h7.2h11.2c0,0.1,0.1,0.1,0.1,0.2
			c0,0.1,0.1,0.1,0.1,0.2c0,0,0,0,0,0c0,0,0.1,0.1,0.1,0.1c0,0,0.1,0,0.1,0.1c0.1,0,0.1,0.1,0.2,0.1c0.1,0,0.1,0.1,0.2,0.1
			c0.1,0,0.1,0,0.2,0.1c0.1,0,0.1,0,0.2,0c0,0,0,0,0,0c0.1,0,0.1,0,0.2,0c0.1,0,0.1,0,0.2,0h9.6c1,0,1.9-0.8,1.9-1.9v-0.6v-0.4v-0.9
			c0-1-0.8-1.9-1.9-1.9h-1.3l-0.4-0.4v-0.2h0.3v-0.5h-0.3v-0.7h-1.4l0,0v-3h25.7l0,0h0l-2.8-2.3h-18.5l-1.5,0.8h-0.9
			c0-0.8-0.7-1.5-1.5-1.5h0v-0.9h-0.5c0-1.5-0.7-2.7-1.5-2.7c0,0-0.1,0-0.1,0c-0.7,0.1-1.3,1.3-1.4,2.7h-0.5v0.9h0
			c-0.8,0-1.5,0.7-1.5,1.5h-0.9l-1.5-0.8h-18.5l-2.8,2.3h25.7v3h-1.9v0.7h-0.2v0.5h0.2v0.6h-1.5c-0.7,0-1.2,0.3-1.6,0.8l-16.7-1.6
			l-14-1.4l-2.8-0.3l0,0l0,0l0,0l0,0l-4.1,0.4l-5.2,0.5l-23.4,2.3l-0.7,0.1h0c-0.3-0.5-0.9-0.8-1.6-0.8h-1.5v-0.6h0.2v-0.5h-0.2
			v-0.7h-1.9v-3h-1.4h-0.2l0,0h0.3l0,0l0,0h27.1l-2.8-2.3h-18.5l-1.5,0.8h-0.9c0-0.8-0.7-1.5-1.5-1.5h0v-0.9h-0.5
			c0-1.4-0.6-2.6-1.4-2.7c0,0-0.1,0-0.1,0c-0.8,0-1.5,1.2-1.5,2.7h-0.5v0.9h0c-0.8,0-1.5,0.7-1.5,1.5h-0.9l-1.5-0.8h-18.5l-2.8,2.3
			h0l0,0h25.7v3h-1.5v0.7h-0.3v0.5h0.3v0.6h-1.7c-1,0-1.9,0.8-1.9,1.9v0.9v0.9c0,1,0.8,1.9,1.9,1.9h9.6c0.6,0,1.2-0.3,1.5-0.8h4.6
			h13.8v3.8c0,0.1,0,0.1,0,0.2c0,0,0,0.1,0,0.1c0,0,0,0.1,0,0.1c0,0,0,0.1,0,0.1c0,0,0,0,0,0c0,0.1,0,0.1,0.1,0.2c0,0,0,0,0,0
			c0,0.1,0.1,0.1,0.1,0.2l0,0c0.1,0.2,0.2,0.3,0.3,0.4c0.3,0.3,0.8,0.5,1.3,0.5h11.1"/>
	</g>
	<path class="st2" d="M-1103.5,120.7c-4.7,0-8.5,3.8-8.5,8.5c0,4.7,5.2,8.6,8.5,11.6c2.7-2.7,8.5-7,8.5-11.6
		C-1095,124.5-1098.8,120.7-1103.5,120.7z M-1100.2,132.4h-1.9v-2.2h-2.9v2.2h-1.9v-6.2h1.9v2.2h2.9v-2.2h1.9V132.4z"/>
</g>
</svg>
