<?xml version="1.0" encoding="utf-8"?>
<!-- Generator: Adobe Illustrator 19.1.0, SVG Export Plug-In . SVG Version: 6.00 Build 0)  -->
<svg version="1.1" id="Ebene_1" xmlns="http://www.w3.org/2000/svg" xmlns:xlink="http://www.w3.org/1999/xlink" x="0px" y="0px"
	 viewBox="-61 62.7 76.5 76.3" style="enable-background:new -61 62.7 76.5 76.3;" xml:space="preserve">
<style type="text/css">
	.st0{fill:#FFFFFF;stroke:#ADADAD;stroke-width:5;stroke-miterlimit:10;}
	.st1{fill:#FFFFFF;}
	.st2{fill:#37A8DB;}
	.st3{fill:none;stroke:#606060;stroke-miterlimit:10;}
	.st4{fill:#606060;}
</style>
<g>
	<g>
		<circle class="st0" cx="-21.6" cy="101.1" r="33.3"/>
		<g>
			<circle class="st1" cx="-45.9" cy="78.6" r="11.4"/>
			<circle class="st2" cx="-45.9" cy="78.6" r="9.3"/>
		</g>
		<g>
			<g>
				<g>
					<path class="st1" d="M-42.1,77.3l-0.2-0.4c0.6-1.4,0.6-1.4,0.5-1.5l-0.8-0.8l-0.1-0.1h-0.1c0,0-0.2,0-1.4,0.5l-0.4-0.2
						c-0.6-1.4-0.6-1.4-0.8-1.4h-1.1c-0.2,0-0.2,0-0.8,1.4l-0.4,0.2c-0.8-0.3-1.3-0.5-1.4-0.5h-0.1l-0.8,0.8
						c-0.1,0.1-0.2,0.2,0.5,1.5l-0.2,0.4c-1.4,0.6-1.4,0.6-1.4,0.8v1.1c0,0.2,0,0.2,1.4,0.7l0.2,0.4c-0.6,1.4-0.6,1.4-0.5,1.5
						l0.8,0.8l0.1,0.1h0.1c0,0,0.2,0,1.4-0.5l0.4,0.2c0.6,1.4,0.6,1.4,0.8,1.4h1.1c0.2,0,0.2,0,0.8-1.4l0.4-0.2
						c0.8,0.3,1.3,0.5,1.4,0.5h0.1l0.8-0.8c0.1-0.1,0.2-0.2-0.5-1.5l0.2-0.4c1.4-0.6,1.4-0.6,1.4-0.8V78
						C-40.7,77.9-40.7,77.8-42.1,77.3z M-45.9,80.4c-1,0-1.8-0.8-1.8-1.8s0.8-1.8,1.8-1.8s1.8,0.8,1.8,1.8S-44.9,80.4-45.9,80.4z"/>
				</g>
			</g>
		</g>
	</g>
	<g>
		<g>
			<g>
				<path class="st3" d="M-9.4,110.7c-0.1,0-0.1-0.1-0.2-0.1c-1.6-0.7-2.8-1.3-4.2-3.6s-2.1-3.4-2.2-5.1c0.1-1.6,0.9-2.7,2.2-5
					s2.6-2.9,4.2-3.6c0.1,0,0.1-0.1,0.2-0.1c0.7-0.3,1.2-1.1,1.2-1.9c0-1.2-0.9-2.1-2.1-2.1c-0.9,0-1.7,0.6-2,1.4
					c-1.3,2.1-2.3,3-4.2,4.5s-4,2.4-5.1,2.4h-0.2c-1.1,0-3.2-0.9-5.1-2.4c-1.8-1.5-2.9-2.3-4.2-4.5c-0.3-0.8-1.1-1.4-2-1.4
					c-1.2,0-2.1,0.9-2.1,2.1c0,0.8,0.5,1.6,1.2,1.9c0.1,0,0.1,0.1,0.2,0.1c1.7,0.7,2.9,1.3,4.3,3.6c1.4,2.3,2.1,3.4,2.2,5.1
					c-0.1,1.6-0.9,2.7-2.2,5c-1.4,2.3-2.6,2.9-4.2,3.6c-0.1,0-0.1,0.1-0.2,0.1c-0.7,0.3-1.2,1.1-1.2,1.9c0,1.2,0.9,2.1,2.1,2.1
					c0.9,0,1.7-0.6,2-1.4c1.3-2.1,2.3-3,4.2-4.5c1.9-1.5,4-2.4,5.1-2.4h0.2c1.1,0,3.2,0.9,5.1,2.4c1.8,1.5,2.9,2.3,4.2,4.5
					c0.3,0.8,1.1,1.4,2,1.4c1.2,0,2.1-0.9,2.1-2.1C-8.2,111.8-8.7,111-9.4,110.7z"/>
			</g>
		</g>
		<path class="st4" d="M-32,96c-0.3,0.1-0.7,0.1-1,0.1c-2.7,0-4.8-2.2-4.8-4.8s2.2-4.8,4.8-4.8s4.8,2.2,4.8,4.8c0,0.2,0,0.4-0.1,0.7
			l0.9,0.6c0.1-0.4,0.1-0.8,0.1-1.3c0-3.2-2.6-5.8-5.8-5.8s-5.8,2.6-5.8,5.8c0,3.2,2.6,5.8,5.8,5.8c0.6,0,1.1-0.1,1.7-0.2L-32,96z"
			/>
		<path class="st4" d="M-10.2,85.5c-3.2,0-5.8,2.6-5.8,5.8c0,0.5,0.1,0.9,0.2,1.3l0.9-0.6c0-0.2-0.1-0.5-0.1-0.7
			c0-2.7,2.2-4.8,4.8-4.8s4.8,2.2,4.8,4.8c0,2.6-2.2,4.8-4.8,4.8c-0.3,0-0.6,0-1-0.1l-0.6,0.9c0.5,0.1,1,0.2,1.6,0.2
			c3.2,0,5.8-2.6,5.8-5.8C-4.4,88.1-7,85.5-10.2,85.5z"/>
		<path class="st4" d="M-32,108c-0.3-0.1-0.7-0.1-1-0.1c-2.7,0-4.8,2.2-4.8,4.8s2.2,4.8,4.8,4.8s4.8-2.2,4.8-4.8
			c0-0.2,0-0.4-0.1-0.7l0.9-0.6c0.1,0.4,0.1,0.8,0.1,1.3c0,3.2-2.6,5.8-5.8,5.8s-5.8-2.6-5.8-5.8s2.6-5.8,5.8-5.8
			c0.6,0,1.1,0.1,1.7,0.2L-32,108z"/>
		<path class="st4" d="M-10.2,118.5c-3.2,0-5.8-2.6-5.8-5.8c0-0.5,0.1-0.9,0.2-1.3l0.9,0.6c0,0.2-0.1,0.5-0.1,0.7
			c0,2.7,2.2,4.8,4.8,4.8s4.8-2.2,4.8-4.8s-2.2-4.8-4.8-4.8c-0.3,0-0.6,0-1,0.1l-0.6-0.9c0.5-0.1,1-0.2,1.6-0.2
			c3.2,0,5.8,2.6,5.8,5.8C-4.4,115.9-7,118.5-10.2,118.5z"/>
	</g>
</g>
</svg>
