<?xml version="1.0" encoding="utf-8"?>
<!-- Generator: Adobe Illustrator 19.1.0, SVG Export Plug-In . SVG Version: 6.00 Build 0)  -->
<svg version="1.1" id="Ebene_1" xmlns="http://www.w3.org/2000/svg" xmlns:xlink="http://www.w3.org/1999/xlink" x="0px" y="0px"
	 viewBox="-9 11 180 180" style="enable-background:new -9 11 180 180;" xml:space="preserve">
<style type="text/css">
	.st0{fill:#C1C1C1;}
</style>
<g>
	<path class="st0" d="M92.4,101.6l-20.8,11.2l3.3-11.1l-3.3-11.1L92.4,101.6z"/>
	<g>
		<g>
			<g>
				<path class="st0" d="M126.2,61.7c0,3.4-2.2,6.5-5.4,7.8c-6.7,4-9.5,7.4-13.8,12.5l-1.3,1.6c-5.2,6.6-8,13.5-8,16.8v0.7
					c0,3.3,2.8,10.2,8,16.9c5.1,6.5,8.1,9.8,15.1,14.1c3.2,1.2,5.4,4.4,5.4,7.8c0,4.7-3.5,8.2-8.2,8.2c-3.1,0-6.3-2-7.4-4.7
					l-0.1-0.1c-0.1-0.1-0.3-0.4-0.3-0.7c-2.5-5.6-4.5-9.3-11.9-13.8c-1.3-0.7-2.5-1.4-3.6-2c-5.4-3.2-8.7-5.1-13.1-5.3
					c-5.4,0.3-9,2.5-16.2,7l-0.7,0.4c-7.5,4.6-9.5,8.4-11.9,14.1c-0.1,0.3-0.2,0.6-0.3,0.7l-0.1,0.1c-1.2,2.7-4.3,4.7-7.4,4.7
					c-4.7,0-8.2-3.5-8.2-8.2c0-3.4,2.2-6.5,5.4-7.8c6.7-4,9.5-7.4,13.8-12.5l1.3-1.6c5.2-6.6,8-13.5,8-16.8v-0.7
					c0-3.3-2.8-10.2-8-16.9c-5.1-6.5-8.1-9.8-15.1-14.1c-3.2-1.2-5.4-4.4-5.4-7.8c0-4.7,3.5-8.2,8.2-8.2c3.1,0,6.3,2,7.4,4.7
					l0.1,0.1c0.1,0.1,0.3,0.4,0.3,0.7c2.2,5.1,4.2,9.5,11.9,13.8c1.3,0.7,2.5,1.4,3.6,2.1c5.4,3.2,8.7,5.1,13.1,5.3
					c5.4-0.3,9-2.5,16.2-7l0.7-0.4c7.4-4.5,9.4-8.2,11.9-13.8c0.1-0.3,0.2-0.5,0.3-0.7l0.1-0.1c1.1-2.6,4.1-4.7,7.3-5.1l0.1,0
					C122.7,53.5,126.2,57.1,126.2,61.7z M95.7,101.2v-0.7c0-4.4,3.5-11.8,8.4-18.1l1.3-1.6c4.4-5.3,7.3-8.9,14.4-13l0.2-0.1
					c2.4-0.9,4.2-3.4,4.2-5.9c0-3.5-2.6-6.2-6.1-6.2c-2.5,0.3-4.7,1.8-5.6,3.7c-0.1,0.3-0.2,0.5-0.3,0.7l-0.1,0.1
					c-2.6,5.8-4.8,10-12.7,14.9l-0.7,0.4C91,80,87.3,82.3,81.4,82.6l-0.1,0l-0.1,0c-4.8-0.3-8.3-2.3-14-5.6
					c-1.1-0.6-2.3-1.3-3.6-2.1c-8.3-4.7-10.5-9.6-12.8-14.9l-0.1-0.1c-0.1-0.1-0.3-0.4-0.3-0.7c-0.9-2-3.2-3.4-5.5-3.4
					c-3.5,0-6.2,2.7-6.2,6.2c0,2.6,1.7,5,4.2,5.9l0.2,0.1c7.3,4.5,10.5,8.1,15.7,14.6c5,6.3,8.4,13.7,8.4,18.1v0.7
					c0,4.4-3.5,11.8-8.4,18.1l-1.3,1.6c-4.4,5.3-7.3,8.9-14.4,13l-0.2,0.1c-2.4,0.9-4.2,3.4-4.2,5.9c0,3.5,2.7,6.2,6.2,6.2
					c2.3,0,4.6-1.4,5.5-3.4c0.1-0.3,0.2-0.5,0.3-0.7l0-0.1c2.5-6,4.7-10.3,12.7-15.2l0.7-0.4c7.5-4.6,11.3-6.9,17.2-7.2l0.1,0l0.1,0
					c4.8,0.3,8.3,2.3,14,5.6c1.1,0.6,2.3,1.3,3.6,2.1c7.9,4.8,10.2,9,12.8,14.9l0.1,0.1c0.1,0.1,0.3,0.4,0.3,0.7
					c0.9,2,3.2,3.4,5.5,3.4c3.5,0,6.2-2.7,6.2-6.2c0-2.6-1.7-5-4.2-5.9l-0.2-0.1c-7.3-4.5-10.5-8.1-15.7-14.6
					C99.2,113,95.7,105.5,95.7,101.2z"/>
			</g>
		</g>
		<path class="st0" d="M61.1,136.5c0.3,1,0.3,2.4,0.3,3.4c0,9.3-7.5,16.5-16.5,16.5c-8.9,0-16.5-7.5-16.5-16.5
			c0-8.9,7.5-16.5,16.5-16.5c0.7,0,1.4,0,2.4,0.3l2.1-3.1c-1.4-0.3-2.7-0.3-4.5-0.3c-11,0-19.9,8.9-19.9,19.9
			c0,11,8.9,19.9,19.9,19.9c11,0,19.9-8.9,19.9-19.9c0-2.1-0.3-3.8-0.7-5.8L61.1,136.5z"/>
		<path class="st0" d="M25.1,61.7c0,11,8.9,19.9,19.9,19.9c1.7,0,3.1-0.3,4.5-0.7l-2.1-3.1c-0.7,0-1.7,0.3-2.4,0.3
			c-9.3,0-16.5-7.5-16.5-16.5S36,45.3,45,45.3s16.5,7.5,16.5,16.5c0,1,0,2.1-0.3,3.4l3.1,2.1c0.3-1.7,0.7-3.4,0.7-5.5
			c0-11-8.9-19.9-19.9-19.9C34,41.9,25.1,50.8,25.1,61.7z"/>
		<path class="st0" d="M102.2,136.5c-0.3,1-0.3,2.4-0.3,3.4c0,9.3,7.5,16.5,16.5,16.5c8.9,0,16.5-7.5,16.5-16.5s-7.5-16.5-16.5-16.5
			c-0.7,0-1.4,0-2.4,0.3l-2.1-3.1c1.4-0.3,2.7-0.3,4.5-0.3c11,0,19.9,8.9,19.9,19.9c0,11-8.9,19.9-19.9,19.9
			c-11,0-19.9-8.9-19.9-19.9c0-2.1,0.3-3.8,0.7-5.8L102.2,136.5z"/>
		<path class="st0" d="M138.2,61.7c0,11-8.9,19.9-19.9,19.9c-1.7,0-3.1-0.3-4.5-0.7l2.1-3.1c0.7,0,1.7,0.3,2.4,0.3
			c9.3,0,16.5-7.5,16.5-16.5c0-8.9-7.5-16.5-16.5-16.5c-8.9,0-16.5,7.5-16.5,16.5c0,1,0,2.1,0.3,3.4l-3.1,2.1
			c-0.3-1.7-0.7-3.4-0.7-5.5c0-11,8.9-19.9,19.9-19.9C129.3,41.9,138.2,50.8,138.2,61.7z"/>
	</g>
</g>
<path class="st0" d="M157,165H5c-0.6,0-1-0.4-1-1s0.4-1,1-1h152c0.6,0,1,0.4,1,1S157.6,165,157,165z"/>
</svg>
