<?xml version="1.0" encoding="utf-8"?>
<!-- Generator: Adobe Illustrator 19.1.0, SVG Export Plug-In . SVG Version: 6.00 Build 0)  -->
<svg version="1.1" id="Ebene_1" xmlns="http://www.w3.org/2000/svg" xmlns:xlink="http://www.w3.org/1999/xlink" x="0px" y="0px"
	 viewBox="-9 11 180 180" style="enable-background:new -9 11 180 180;" xml:space="preserve">
<style type="text/css">
	.st0{fill:#C1C1C1;}
</style>
<path class="st0" d="M81.1,111.7L69.9,90.9L81,94.2l11.1-3.3L81.1,111.7z"/>
<g>
	<g>
		<g>
			<path class="st0" d="M120.9,145.5c-3.4,0-6.5-2.2-7.8-5.4c-4-6.7-7.4-9.5-12.5-13.8l-1.6-1.3c-6.6-5.2-13.5-8-16.8-8h-0.7
				c-3.3,0-10.2,2.8-16.9,8c-6.5,5.1-9.8,8.1-14.1,15.1c-1.2,3.2-4.4,5.4-7.8,5.4c-4.7,0-8.2-3.5-8.2-8.2c0-3.1,2-6.3,4.7-7.4
				l0.1-0.1c0.1-0.1,0.4-0.3,0.7-0.3c5.6-2.5,9.3-4.5,13.8-11.9c0.7-1.3,1.4-2.5,2-3.6c3.2-5.4,5.1-8.7,5.3-13.1
				c-0.3-5.4-2.5-9-7-16.2L53.9,84c-4.6-7.5-8.4-9.5-14.1-11.9c-0.3-0.1-0.6-0.2-0.7-0.3l-0.1-0.1c-2.7-1.2-4.7-4.3-4.7-7.4
				c0-4.7,3.5-8.2,8.2-8.2c3.4,0,6.5,2.2,7.8,5.4c4,6.7,7.4,9.5,12.5,13.8l1.6,1.3c6.6,5.2,13.5,8,16.8,8h0.7c3.3,0,10.2-2.8,16.9-8
				c6.5-5.1,9.8-8.1,14.1-15.1c1.2-3.2,4.4-5.4,7.8-5.4c4.7,0,8.2,3.5,8.2,8.2c0,3.1-2,6.3-4.7,7.4l-0.1,0.1
				c-0.1,0.1-0.4,0.3-0.7,0.3c-5.1,2.2-9.5,4.2-13.8,11.9c-0.7,1.3-1.4,2.5-2.1,3.6c-3.2,5.4-5.1,8.7-5.3,13.1c0.3,5.4,2.5,9,7,16.2
				l0.4,0.7c4.5,7.4,8.2,9.4,13.8,11.9c0.3,0.1,0.5,0.2,0.7,0.3l0.1,0.1c2.6,1.1,4.7,4.1,5.1,7.3l0,0.1
				C129.1,142,125.6,145.5,120.9,145.5z M81.5,115.1h0.7c4.4,0,11.8,3.5,18.1,8.4l1.6,1.3c5.3,4.4,8.9,7.3,13,14.4l0.1,0.2
				c0.9,2.4,3.4,4.2,5.9,4.2c3.5,0,6.2-2.6,6.2-6.1c-0.3-2.5-1.8-4.7-3.7-5.6c-0.3-0.1-0.5-0.2-0.7-0.3l-0.1-0.1
				c-5.8-2.6-10-4.8-14.9-12.7l-0.4-0.7c-4.6-7.5-6.9-11.3-7.2-17.2l0-0.1l0-0.1c0.3-4.8,2.3-8.3,5.6-14c0.6-1.1,1.3-2.3,2.1-3.6
				c4.7-8.3,9.6-10.5,14.9-12.8l0.1-0.1c0.1-0.1,0.4-0.3,0.7-0.3c2-0.9,3.4-3.2,3.4-5.5c0-3.5-2.7-6.2-6.2-6.2c-2.6,0-5,1.7-5.9,4.2
				l-0.1,0.2c-4.5,7.3-8.1,10.5-14.6,15.7c-6.3,5-13.7,8.4-18.1,8.4h-0.7c-4.4,0-11.8-3.5-18.1-8.4l-1.6-1.3
				c-5.3-4.4-8.9-7.3-13-14.4l-0.1-0.2c-0.9-2.4-3.4-4.2-5.9-4.2c-3.5,0-6.2,2.7-6.2,6.2c0,2.3,1.4,4.6,3.4,5.5
				c0.3,0.1,0.5,0.2,0.7,0.3l0.1,0c6,2.5,10.3,4.7,15.2,12.7l0.4,0.7c4.6,7.5,6.9,11.3,7.2,17.2l0,0.1l0,0.1
				c-0.3,4.8-2.3,8.3-5.6,14c-0.6,1.1-1.3,2.3-2.1,3.6c-4.8,7.9-9,10.2-14.9,12.8l-0.1,0.1c-0.1,0.1-0.4,0.3-0.7,0.3
				c-2,0.9-3.4,3.2-3.4,5.5c0,3.5,2.7,6.2,6.2,6.2c2.6,0,5-1.7,5.9-4.2l0.1-0.2c4.5-7.3,8.1-10.5,14.6-15.7
				C69.7,118.6,77.1,115.1,81.5,115.1z"/>
		</g>
	</g>
	<path class="st0" d="M46.2,80.4c-1,0.3-2.4,0.3-3.4,0.3c-9.3,0-16.5-7.5-16.5-16.5s7.5-16.5,16.5-16.5s16.5,7.5,16.5,16.5
		c0,0.7,0,1.4-0.3,2.4l3.1,2.1c0.3-1.4,0.3-2.7,0.3-4.5c0-11-8.9-19.9-19.9-19.9s-19.9,8.9-19.9,19.9s8.9,19.9,19.9,19.9
		c2.1,0,3.8-0.3,5.8-0.7L46.2,80.4z"/>
	<path class="st0" d="M120.9,44.4c-11,0-19.9,8.9-19.9,19.9c0,1.7,0.3,3.1,0.7,4.5l3.1-2.1c0-0.7-0.3-1.7-0.3-2.4
		c0-9.3,7.5-16.5,16.5-16.5s16.5,7.5,16.5,16.5s-7.5,16.5-16.5,16.5c-1,0-2.1,0-3.4-0.3l-2.1,3.1c1.7,0.3,3.4,0.7,5.5,0.7
		c11,0,19.9-8.9,19.9-19.9C140.8,53.3,131.9,44.4,120.9,44.4z"/>
	<path class="st0" d="M46.2,121.6c-1-0.3-2.4-0.3-3.4-0.3c-9.3,0-16.5,7.5-16.5,16.5s7.5,16.5,16.5,16.5s16.5-7.5,16.5-16.5
		c0-0.7,0-1.4-0.3-2.4l3.1-2.1c0.3,1.4,0.3,2.7,0.3,4.5c0,11-8.9,19.9-19.9,19.9s-19.9-8.9-19.9-19.9s8.9-19.9,19.9-19.9
		c2.1,0,3.8,0.3,5.8,0.7L46.2,121.6z"/>
	<path class="st0" d="M120.9,157.6c-11,0-19.9-8.9-19.9-19.9c0-1.7,0.3-3.1,0.7-4.5l3.1,2.1c0,0.7-0.3,1.7-0.3,2.4
		c0,9.3,7.5,16.5,16.5,16.5s16.5-7.5,16.5-16.5s-7.5-16.5-16.5-16.5c-1,0-2.1,0-3.4,0.3l-2.1-3.1c1.7-0.3,3.4-0.7,5.5-0.7
		c11,0,19.9,8.9,19.9,19.9C140.8,148.7,131.9,157.6,120.9,157.6z"/>
</g>
<path class="st0" d="M157,165H5c-0.6,0-1-0.4-1-1s0.4-1,1-1h152c0.6,0,1,0.4,1,1S157.6,165,157,165z"/>
</svg>
