<?xml version="1.0" encoding="UTF-8"?>
<!DOCTYPE svg PUBLIC "-//W3C//DTD SVG 1.1//EN" "http://www.w3.org/Graphics/SVG/1.1/DTD/svg11.dtd">
<!-- Creator: CorelDRAW 2021 (64-Bit) -->
<svg xmlns="http://www.w3.org/2000/svg" xml:space="preserve" width="850px" height="850px" version="1.1" style="shape-rendering:geometricPrecision; text-rendering:geometricPrecision; image-rendering:optimizeQuality; fill-rule:evenodd; clip-rule:evenodd"
viewBox="0 0 850 850"
 xmlns:xlink="http://www.w3.org/1999/xlink"
 xmlns:xodm="http://www.corel.com/coreldraw/odm/2003">
 <defs>
  <style type="text/css">
   <![CDATA[
    .fil3 {fill:#00A6FF}
    .fil1 {fill:#00E000}
    .fil0 {fill:#999999}
    .fil4 {fill:red}
    .fil2 {fill:#FF7F00}
    .fil5 {fill:white;fill-rule:nonzero}
   ]]>
  </style>
 </defs>
 <g id="Layer_x0020_1">
  <metadata id="CorelCorpID_0Corel-Layer"/>
  <path class="fil0" d="M258.88 767.6l148.41 0c5.38,21.31 11.3,33.52 17.71,33.52 6.41,0 12.33,-12.21 17.71,-33.52l148.41 0 -10 -73.61 -119.52 -25.32c6.72,-69.54 21.76,-183.85 24.95,-267.2l326.09 40.02 0 -169.86 -312.14 -60.03c0.45,-66.81 4.39,-94.22 -1.5,-129.58 -6.01,-36.11 -37.14,-74.01 -74,-74.01 -36.86,0 -67.99,37.9 -74,74.01 -5.89,35.36 -1.95,62.77 -1.5,129.58l-312.14 60.03 0 169.86 326.09 -40.02c3.19,83.35 18.23,197.66 24.95,267.2l-119.52 25.32 -10 73.61z"/>
  <polygon class="fil1" points="572.59,412.03 792.63,439.04 792.63,370 572.59,343 "/>
  <polygon class="fil2" points="272.88,767.6 577.12,767.6 571.12,718.58 278.88,718.58 "/>
  <path class="fil3" d="M425 839.54c0,0 -38.43,-227.94 0,-227.94 38.43,0 0,227.94 0,227.94z"/>
  <polygon class="fil4" points="57.37,439.04 277.41,412.03 277.41,343 57.37,370 "/>
  <path class="fil5" d="M405.45 376.22l0 -84.15 -27.27 0 46.82 -84.15 46.82 84.15 -27.27 0 0 84.15 -39.1 0zm0 -42.08m-13.64 -42.07m9.78 -42.08m46.82 0m9.77 42.08m-13.63 42.07m-19.55 42.08"/>
 </g>
</svg>
