{"asset":{"version":"2.0","generator":"THREE.GLTFExporter"},"scenes":[{"nodes":[0],"name":"AuxScene"}],"scene":0,"nodes":[{"mesh":0}],"bufferViews":[{"buffer":0,"byteOffset":0,"byteLength":381096,"target":34962,"byteStride":12},{"buffer":0,"byteOffset":381096,"byteLength":381096,"target":34962,"byteStride":12},{"buffer":0,"byteOffset":762192,"byteLength":336,"target":34963},{"buffer":0,"byteOffset":762528,"byteLength":3468,"target":34963},{"buffer":0,"byteOffset":765996,"byteLength":576,"target":34963},{"buffer":0,"byteOffset":766572,"byteLength":576,"target":34963},{"buffer":0,"byteOffset":767148,"byteLength":336,"target":34963},{"buffer":0,"byteOffset":767484,"byteLength":2112,"target":34963},{"buffer":0,"byteOffset":769596,"byteLength":34044,"target":34963},{"buffer":0,"byteOffset":803640,"byteLength":14556,"target":34963},{"buffer":0,"byteOffset":818196,"byteLength":7512,"target":34963}],"buffers":[{"byteLength":825708,"uri":"data:application/octet-stream;base64,"}],"accessors":[{"bufferView":0,"componentType":5126,"count":31758,"max":[5.106090068817139,1.2048699855804443,3.136820077896118],"min":[-5.1612701416015625,-0.3590959906578064,-3.163140058517456],"type":"VEC3"},{"bufferView":1,"componentType":5126,"count":31758,"max":[1,1,1],"min":[-1,-1,-1],"type":"VEC3"},{"bufferView":2,"componentType":5123,"count":168,"max":[167],"min":[0],"type":"SCALAR"},{"bufferView":3,"componentType":5123,"count":1734,"max":[1901],"min":[168],"type":"SCALAR"},{"bufferView":4,"componentType":5123,"count":288,"max":[2189],"min":[1902],"type":"SCALAR"},{"bufferView":5,"componentType":5123,"count":288,"max":[2477],"min":[2190],"type":"SCALAR"},{"bufferView":6,"componentType":5123,"count":168,"max":[2645],"min":[2478],"type":"SCALAR"},{"bufferView":7,"componentType":5123,"count":1056,"max":[3701],"min":[2646],"type":"SCALAR"},{"bufferView":8,"componentType":5123,"count":17022,"max":[20723],"min":[3702],"type":"SCALAR"},{"bufferView":9,"componentType":5123,"count":7278,"max":[28001],"min":[20724],"type":"SCALAR"},{"bufferView":10,"componentType":5123,"count":3756,"max":[31757],"min":[28002],"type":"SCALAR"}],"materials":[{"pbrMetallicRoughness":{"baseColorFactor":[0.0784313725490196,0.3568627450980392,0.8,1],"metallicFactor":0.5,"roughnessFactor":0.5},"doubleSided":true,"name":"Ruddervator_R"},{"pbrMetallicRoughness":{"baseColorFactor":[0.00392156862745098,0.00392156862745098,0.00392156862745098,1],"metallicFactor":0.5,"roughnessFactor":0.5},"doubleSided":true,"name":"Motors"},{"pbrMetallicRoughness":{"baseColorFactor":[0.8,0,0,1],"metallicFactor":0.5,"roughnessFactor":0.5},"doubleSided":true,"name":"Aileron_L"},{"pbrMetallicRoughness":{"baseColorFactor":[0,0.8,0,1],"metallicFactor":0.5,"roughnessFactor":0.5},"doubleSided":true,"name":"Aileron_R"},{"pbrMetallicRoughness":{"baseColorFactor":[0.8,0.2,0,1],"metallicFactor":0.5,"roughnessFactor":0.5},"doubleSided":true,"name":"Ruddervator_L"},{"pbrMetallicRoughness":{"baseColorFactor":[0.5529411764705883,0.596078431372549,0.6784313725490196,1],"metallicFactor":0.5,"roughnessFactor":0.5},"alphaMode":"BLEND","doubleSided":true,"name":"Foam"},{"pbrMetallicRoughness":{"baseColorFactor":[0.6392156862745098,0.6392156862745098,0.6392156862745098,0.5],"metallicFactor":0.5,"roughnessFactor":0.5},"alphaMode":"BLEND","doubleSided":true,"name":"Hatch"},{"pbrMetallicRoughness":{"baseColorFactor":[0.4,0.4,0.4,1],"metallicFactor":0.5,"roughnessFactor":0.5},"doubleSided":true,"name":"Prop"}],"meshes":[{"primitives":[{"mode":4,"attributes":{"POSITION":0,"NORMAL":1},"indices":2,"material":0},{"mode":4,"attributes":{"POSITION":0,"NORMAL":1},"indices":3,"material":1},{"mode":4,"attributes":{"POSITION":0,"NORMAL":1},"indices":4,"material":2},{"mode":4,"attributes":{"POSITION":0,"NORMAL":1},"indices":5,"material":3},{"mode":4,"attributes":{"POSITION":0,"NORMAL":1},"indices":6,"material":4},{"mode":4,"attributes":{"POSITION":0,"NORMAL":1},"indices":7,"material":1},{"mode":4,"attributes":{"POSITION":0,"NORMAL":1},"indices":8,"material":5},{"mode":4,"attributes":{"POSITION":0,"NORMAL":1},"indices":9,"material":6},{"mode":4,"attributes":{"POSITION":0,"NORMAL":1},"indices":10,"material":7}]}]}