{"asset":{"version":"2.0","generator":"THREE.GLTFExporter"},"scenes":[{"nodes":[0],"name":"AuxScene"}],"scene":0,"nodes":[{"mesh":0}],"bufferViews":[{"buffer":0,"byteOffset":0,"byteLength":1158624,"target":34962,"byteStride":12},{"buffer":0,"byteOffset":1158624,"byteLength":1158624,"target":34962,"byteStride":12},{"buffer":0,"byteOffset":2317248,"byteLength":227904,"target":34963},{"buffer":0,"byteOffset":2545152,"byteLength":4176,"target":34963},{"buffer":0,"byteOffset":2549328,"byteLength":11592,"target":34963},{"buffer":0,"byteOffset":2560920,"byteLength":4128,"target":34963},{"buffer":0,"byteOffset":2565048,"byteLength":3864,"target":34963},{"buffer":0,"byteOffset":2568912,"byteLength":14688,"target":34963},{"buffer":0,"byteOffset":2583600,"byteLength":7800,"target":34963},{"buffer":0,"byteOffset":2591400,"byteLength":7800,"target":34963},{"buffer":0,"byteOffset":2599200,"byteLength":78096,"target":34963},{"buffer":0,"byteOffset":2677296,"byteLength":7800,"target":34963},{"buffer":0,"byteOffset":2685096,"byteLength":7800,"target":34963},{"buffer":0,"byteOffset":2692896,"byteLength":10560,"target":34963}],"buffers":[{"byteLength":2703456,"uri":"data:application/octet-stream;base64,"}],"accessors":[{"bufferView":0,"componentType":5126,"count":96552,"max":[3.994749069213867,0.9013319611549377,4.970479488372803],"min":[-3.9774324893951416,-0.28529873490333557,-3.6179416179656982],"type":"VEC3"},{"bufferView":1,"componentType":5126,"count":96552,"max":[0.999969482421875,1,0.999969482421875],"min":[-0.999969482421875,-1,-0.999969482421875],"type":"VEC3"},{"bufferView":2,"componentType":5125,"count":56976,"max":[56975],"min":[0],"type":"SCALAR"},{"bufferView":3,"componentType":5125,"count":1044,"max":[58019],"min":[56976],"type":"SCALAR"},{"bufferView":4,"componentType":5125,"count":2898,"max":[60917],"min":[58020],"type":"SCALAR"},{"bufferView":5,"componentType":5125,"count":1032,"max":[61949],"min":[60918],"type":"SCALAR"},{"bufferView":6,"componentType":5125,"count":966,"max":[62915],"min":[61950],"type":"SCALAR"},{"bufferView":7,"componentType":5125,"count":3672,"max":[66587],"min":[62916],"type":"SCALAR"},{"bufferView":8,"componentType":5125,"count":1950,"max":[68537],"min":[66588],"type":"SCALAR"},{"bufferView":9,"componentType":5125,"count":1950,"max":[70487],"min":[68538],"type":"SCALAR"},{"bufferView":10,"componentType":5125,"count":19524,"max":[90011],"min":[70488],"type":"SCALAR"},{"bufferView":11,"componentType":5125,"count":1950,"max":[91961],"min":[90012],"type":"SCALAR"},{"bufferView":12,"componentType":5125,"count":1950,"max":[93911],"min":[91962],"type":"SCALAR"},{"bufferView":13,"componentType":5125,"count":2640,"max":[96551],"min":[93912],"type":"SCALAR"}],"materials":[{"pbrMetallicRoughness":{"baseColorFactor":[0.17647058823529413,0.17647058823529413,0.17647058823529413,1],"metallicFactor":0.5,"roughnessFactor":0.5},"name":"Material.001"},{"pbrMetallicRoughness":{"baseColorFactor":[0.4,0.4,0.4,1],"metallicFactor":0.5,"roughnessFactor":0.5},"name":"Material.003"},{"pbrMetallicRoughness":{"baseColorFactor":[0,0.4470588235294118,0.6392156862745098,1],"metallicFactor":0.5,"roughnessFactor":0.5},"name":"Material.004"},{"pbrMetallicRoughness":{"baseColorFactor":[0,1,0,1],"metallicFactor":0.5,"roughnessFactor":0.5},"name":"Material.002"},{"pbrMetallicRoughness":{"baseColorFactor":[1,0,0,1],"metallicFactor":0.5,"roughnessFactor":0.5},"name":"Material.005"}],"meshes":[{"primitives":[{"mode":4,"attributes":{"POSITION":0,"NORMAL":1},"indices":2,"material":0},{"mode":4,"attributes":{"POSITION":0,"NORMAL":1},"indices":3,"material":1},{"mode":4,"attributes":{"POSITION":0,"NORMAL":1},"indices":4,"material":2},{"mode":4,"attributes":{"POSITION":0,"NORMAL":1},"indices":5,"material":1},{"mode":4,"attributes":{"POSITION":0,"NORMAL":1},"indices":6,"material":2},{"mode":4,"attributes":{"POSITION":0,"NORMAL":1},"indices":7,"material":1},{"mode":4,"attributes":{"POSITION":0,"NORMAL":1},"indices":8,"material":3},{"mode":4,"attributes":{"POSITION":0,"NORMAL":1},"indices":9,"material":4},{"mode":4,"attributes":{"POSITION":0,"NORMAL":1},"indices":10,"material":3},{"mode":4,"attributes":{"POSITION":0,"NORMAL":1},"indices":11,"material":4},{"mode":4,"attributes":{"POSITION":0,"NORMAL":1},"indices":12,"material":3},{"mode":4,"attributes":{"POSITION":0,"NORMAL":1},"indices":13,"material":1}]}]}