{
    "asset" : {
        "generator" : "Khronos glTF Blender I/O v3.4.50",
        "version" : "2.0"
    },
    "scene" : 0,
    "scenes" : [
        {
            "name" : "Scene",
            "nodes" : [
                9
            ]
        }
    ],
    "nodes" : [
        {
            "mesh" : 0,
            "name" : "Blade_CCW_1",
            "rotation" : [
                0,
                -0.38268348574638367,
                0,
                0.9238795042037964
            ],
            "translation" : [
                0.3181980848312378,
                0,
                0.13180196285247803
            ]
        },
        {
            "mesh" : 1,
            "name" : "Blade_CCW_2",
            "rotation" : [
                0,
                -0.38268348574638367,
                0,
                0.9238795042037964
            ],
            "translation" : [
                0.3181980848312378,
                0,
                0.13180196285247803
            ]
        },
        {
            "mesh" : 2,
            "name" : "Blade_CW_1",
            "rotation" : [
                0,
                0.38268348574638367,
                0,
                0.9238795042037964
            ],
            "translation" : [
                0.3181980848312378,
                0,
                -0.13180194795131683
            ]
        },
        {
            "mesh" : 3,
            "name" : "Blade_CW_2",
            "rotation" : [
                0,
                0.38268348574638367,
                0,
                0.9238795042037964
            ],
            "translation" : [
                0.3181980848312378,
                0,
                -0.13180194795131683
            ]
        },
        {
            "mesh" : 4,
            "name" : "Boom",
            "rotation" : [
                0.70710688829422,
                0,
                0,
                0.7071066498756409
            ],
            "translation" : [
                0,
                0,
                -0.4000000059604645
            ]
        },
        {
            "mesh" : 5,
            "name" : "Front",
            "translation" : [
                0,
                0.04500000178813934,
                0.44999998807907104
            ]
        },
        {
            "mesh" : 6,
            "name" : "Head_Front",
            "rotation" : [
                0,
                -0.38268348574638367,
                0,
                0.9238795042037964
            ],
            "translation" : [
                0.3181980848312378,
                0,
                0.13180196285247803
            ]
        },
        {
            "mesh" : 7,
            "name" : "Head_Rear",
            "rotation" : [
                0,
                0.38268348574638367,
                0,
                0.9238795042037964
            ],
            "translation" : [
                0.3181980848312378,
                0,
                -0.13180194795131683
            ]
        },
        {
            "mesh" : 8,
            "name" : "Rear",
            "translation" : [
                0,
                0.04500000178813934,
                -0.44999998807907104
            ]
        },
        {
            "children" : [
                0,
                1,
                2,
                3,
                4,
                5,
                6,
                7,
                8
            ],
            "name" : "CH47_Model",
            "rotation" : [
                0,
                -1,
                0,
                4.371138828673793e-08
            ],
            "scale" : [
                7,
                7,
                7
            ]
        }
    ],
    "materials" : [
        {
            "doubleSided" : true,
            "name" : "mat_3",
            "pbrMetallicRoughness" : {
                "baseColorFactor" : [
                    0,
                    1,
                    0,
                    1
                ]
            }
        },
        {
            "doubleSided" : true,
            "name" : "mat_1",
            "pbrMetallicRoughness" : {
                "baseColorFactor" : [
                    0.6038273572921753,
                    0.6038273572921753,
                    0.6038273572921753,
                    1
                ]
            }
        },
        {
            "doubleSided" : true,
            "name" : "mat_2",
            "pbrMetallicRoughness" : {
                "baseColorFactor" : [
                    1,
                    0,
                    0,
                    1
                ]
            }
        },
        {
            "doubleSided" : true,
            "name" : "Material",
            "pbrMetallicRoughness" : {
                "baseColorFactor" : [
                    0.47698864340782166,
                    0.47698864340782166,
                    0.47698864340782166,
                    1
                ],
                "metallicFactor" : 0,
                "roughnessFactor" : 0.5
            }
        },
        {
            "doubleSided" : true,
            "name" : "mat_4",
            "pbrMetallicRoughness" : {
                "baseColorFactor" : [
                    0,
                    0.4019778072834015,
                    1,
                    1
                ]
            }
        }
    ],
    "meshes" : [
        {
            "name" : "Blade_CCW_1",
            "primitives" : [
                {
                    "attributes" : {
                        "POSITION" : 0,
                        "NORMAL" : 1
                    },
                    "indices" : 2,
                    "material" : 0
                }
            ]
        },
        {
            "name" : "Blade_CCW_2",
            "primitives" : [
                {
                    "attributes" : {
                        "POSITION" : 3,
                        "NORMAL" : 4
                    },
                    "indices" : 5,
                    "material" : 0
                },
                {
                    "attributes" : {
                        "POSITION" : 6,
                        "NORMAL" : 7
                    },
                    "indices" : 8,
                    "material" : 1
                }
            ]
        },
        {
            "name" : "Blade_CW_1",
            "primitives" : [
                {
                    "attributes" : {
                        "POSITION" : 9,
                        "NORMAL" : 10
                    },
                    "indices" : 11,
                    "material" : 2
                }
            ]
        },
        {
            "name" : "Blade_CW_2",
            "primitives" : [
                {
                    "attributes" : {
                        "POSITION" : 12,
                        "NORMAL" : 13
                    },
                    "indices" : 14,
                    "material" : 2
                }
            ]
        },
        {
            "name" : "Boom",
            "primitives" : [
                {
                    "attributes" : {
                        "POSITION" : 15,
                        "NORMAL" : 16
                    },
                    "indices" : 17,
                    "material" : 1
                }
            ]
        },
        {
            "name" : "Front",
            "primitives" : [
                {
                    "attributes" : {
                        "POSITION" : 18,
                        "NORMAL" : 19
                    },
                    "indices" : 20,
                    "material" : 3
                }
            ]
        },
        {
            "name" : "Head_Front",
            "primitives" : [
                {
                    "attributes" : {
                        "POSITION" : 21,
                        "NORMAL" : 22
                    },
                    "indices" : 23,
                    "material" : 4
                }
            ]
        },
        {
            "name" : "Head_Rear",
            "primitives" : [
                {
                    "attributes" : {
                        "POSITION" : 24,
                        "NORMAL" : 25
                    },
                    "indices" : 26,
                    "material" : 4
                }
            ]
        },
        {
            "name" : "Rear",
            "primitives" : [
                {
                    "attributes" : {
                        "POSITION" : 27,
                        "NORMAL" : 28
                    },
                    "indices" : 20,
                    "material" : 3
                }
            ]
        }
    ],
    "accessors" : [
        {
            "bufferView" : 0,
            "componentType" : 5126,
            "count" : 678,
            "max" : [
                0.010499999858438969,
                0.148499995470047,
                0.8799999952316284
            ],
            "min" : [
                -0.029500000178813934,
                0.14350000023841858,
                0.49000000953674316
            ],
            "type" : "VEC3"
        },
        {
            "bufferView" : 1,
            "componentType" : 5126,
            "count" : 678,
            "type" : "VEC3"
        },
        {
            "bufferView" : 2,
            "componentType" : 5123,
            "count" : 1758,
            "type" : "SCALAR"
        },
        {
            "bufferView" : 3,
            "componentType" : 5126,
            "count" : 388,
            "max" : [
                0.030500000342726707,
                0.148499995470047,
                0.40751001238822937
            ],
            "min" : [
                -0.009499999694526196,
                0.14350000023841858,
                0.019999999552965164
            ],
            "type" : "VEC3"
        },
        {
            "bufferView" : 4,
            "componentType" : 5126,
            "count" : 388,
            "type" : "VEC3"
        },
        {
            "bufferView" : 5,
            "componentType" : 5123,
            "count" : 795,
            "type" : "SCALAR"
        },
        {
            "bufferView" : 6,
            "componentType" : 5126,
            "count" : 258,
            "max" : [
                0.030500000342726707,
                0.148499995470047,
                0.4099999964237213
            ],
            "min" : [
                -0.009499999694526196,
                0.14350000023841858,
                0.019999999552965164
            ],
            "type" : "VEC3"
        },
        {
            "bufferView" : 7,
            "componentType" : 5126,
            "count" : 258,
            "type" : "VEC3"
        },
        {
            "bufferView" : 8,
            "componentType" : 5123,
            "count" : 918,
            "type" : "SCALAR"
        },
        {
            "bufferView" : 9,
            "componentType" : 5126,
            "count" : 664,
            "max" : [
                0.030500000342726707,
                0.148499995470047,
                -0.019999999552965164
            ],
            "min" : [
                -0.009499999694526196,
                0.14350000023841858,
                -0.4099999964237213
            ],
            "type" : "VEC3"
        },
        {
            "bufferView" : 10,
            "componentType" : 5126,
            "count" : 664,
            "type" : "VEC3"
        },
        {
            "bufferView" : 11,
            "componentType" : 5123,
            "count" : 1758,
            "type" : "SCALAR"
        },
        {
            "bufferView" : 12,
            "componentType" : 5126,
            "count" : 656,
            "max" : [
                0.010499999858438969,
                0.148499995470047,
                -0.49000000953674316
            ],
            "min" : [
                -0.029500000178813934,
                0.14350000023841858,
                -0.8799999952316284
            ],
            "type" : "VEC3"
        },
        {
            "bufferView" : 13,
            "componentType" : 5126,
            "count" : 656,
            "type" : "VEC3"
        },
        {
            "bufferView" : 14,
            "componentType" : 5123,
            "count" : 1713,
            "type" : "SCALAR"
        },
        {
            "bufferView" : 15,
            "componentType" : 5126,
            "count" : 134,
            "max" : [
                0.029999999329447746,
                0.800000011920929,
                0.029781267046928406
            ],
            "min" : [
                -0.029999999329447746,
                0,
                -0.029781267046928406
            ],
            "type" : "VEC3"
        },
        {
            "bufferView" : 16,
            "componentType" : 5126,
            "count" : 134,
            "type" : "VEC3"
        },
        {
            "bufferView" : 17,
            "componentType" : 5123,
            "count" : 300,
            "type" : "SCALAR"
        },
        {
            "bufferView" : 18,
            "componentType" : 5126,
            "count" : 1868,
            "max" : [
                0.054959557950496674,
                0.07999999821186066,
                0.1498890072107315
            ],
            "min" : [
                -0.054999999701976776,
                -0.07999999821186066,
                -0.1498890072107315
            ],
            "type" : "VEC3"
        },
        {
            "bufferView" : 19,
            "componentType" : 5126,
            "count" : 1868,
            "type" : "VEC3"
        },
        {
            "bufferView" : 20,
            "componentType" : 5123,
            "count" : 11088,
            "type" : "SCALAR"
        },
        {
            "bufferView" : 21,
            "componentType" : 5126,
            "count" : 2485,
            "max" : [
                0.00800000037997961,
                0.15394167602062225,
                0.5099999904632568
            ],
            "min" : [
                -0.00800000037997961,
                0.10000000149011612,
                0.38999998569488525
            ],
            "type" : "VEC3"
        },
        {
            "bufferView" : 22,
            "componentType" : 5126,
            "count" : 2485,
            "type" : "VEC3"
        },
        {
            "bufferView" : 23,
            "componentType" : 5123,
            "count" : 8700,
            "type" : "SCALAR"
        },
        {
            "bufferView" : 24,
            "componentType" : 5126,
            "count" : 2488,
            "max" : [
                0.00800000037997961,
                0.15394167602062225,
                -0.38999998569488525
            ],
            "min" : [
                -0.00800000037997961,
                0.10000000149011612,
                -0.5099999904632568
            ],
            "type" : "VEC3"
        },
        {
            "bufferView" : 25,
            "componentType" : 5126,
            "count" : 2488,
            "type" : "VEC3"
        },
        {
            "bufferView" : 26,
            "componentType" : 5123,
            "count" : 8700,
            "type" : "SCALAR"
        },
        {
            "bufferView" : 27,
            "componentType" : 5126,
            "count" : 1868,
            "max" : [
                0.054959557950496674,
                0.07999999821186066,
                0.1498890072107315
            ],
            "min" : [
                -0.054999999701976776,
                -0.07999999821186066,
                -0.1498890072107315
            ],
            "type" : "VEC3"
        },
        {
            "bufferView" : 28,
            "componentType" : 5126,
            "count" : 1868,
            "type" : "VEC3"
        }
    ],
    "bufferViews" : [
        {
            "buffer" : 0,
            "byteLength" : 8136,
            "byteOffset" : 0,
            "target" : 34962
        },
        {
            "buffer" : 0,
            "byteLength" : 8136,
            "byteOffset" : 8136,
            "target" : 34962
        },
        {
            "buffer" : 0,
            "byteLength" : 3516,
            "byteOffset" : 16272,
            "target" : 34963
        },
        {
            "buffer" : 0,
            "byteLength" : 4656,
            "byteOffset" : 19788,
            "target" : 34962
        },
        {
            "buffer" : 0,
            "byteLength" : 4656,
            "byteOffset" : 24444,
            "target" : 34962
        },
        {
            "buffer" : 0,
            "byteLength" : 1590,
            "byteOffset" : 29100,
            "target" : 34963
        },
        {
            "buffer" : 0,
            "byteLength" : 3096,
            "byteOffset" : 30692,
            "target" : 34962
        },
        {
            "buffer" : 0,
            "byteLength" : 3096,
            "byteOffset" : 33788,
            "target" : 34962
        },
        {
            "buffer" : 0,
            "byteLength" : 1836,
            "byteOffset" : 36884,
            "target" : 34963
        },
        {
            "buffer" : 0,
            "byteLength" : 7968,
            "byteOffset" : 38720,
            "target" : 34962
        },
        {
            "buffer" : 0,
            "byteLength" : 7968,
            "byteOffset" : 46688,
            "target" : 34962
        },
        {
            "buffer" : 0,
            "byteLength" : 3516,
            "byteOffset" : 54656,
            "target" : 34963
        },
        {
            "buffer" : 0,
            "byteLength" : 7872,
            "byteOffset" : 58172,
            "target" : 34962
        },
        {
            "buffer" : 0,
            "byteLength" : 7872,
            "byteOffset" : 66044,
            "target" : 34962
        },
        {
            "buffer" : 0,
            "byteLength" : 3426,
            "byteOffset" : 73916,
            "target" : 34963
        },
        {
            "buffer" : 0,
            "byteLength" : 1608,
            "byteOffset" : 77344,
            "target" : 34962
        },
        {
            "buffer" : 0,
            "byteLength" : 1608,
            "byteOffset" : 78952,
            "target" : 34962
        },
        {
            "buffer" : 0,
            "byteLength" : 600,
            "byteOffset" : 80560,
            "target" : 34963
        },
        {
            "buffer" : 0,
            "byteLength" : 22416,
            "byteOffset" : 81160,
            "target" : 34962
        },
        {
            "buffer" : 0,
            "byteLength" : 22416,
            "byteOffset" : 103576,
            "target" : 34962
        },
        {
            "buffer" : 0,
            "byteLength" : 22176,
            "byteOffset" : 125992,
            "target" : 34963
        },
        {
            "buffer" : 0,
            "byteLength" : 29820,
            "byteOffset" : 148168,
            "target" : 34962
        },
        {
            "buffer" : 0,
            "byteLength" : 29820,
            "byteOffset" : 177988,
            "target" : 34962
        },
        {
            "buffer" : 0,
            "byteLength" : 17400,
            "byteOffset" : 207808,
            "target" : 34963
        },
        {
            "buffer" : 0,
            "byteLength" : 29856,
            "byteOffset" : 225208,
            "target" : 34962
        },
        {
            "buffer" : 0,
            "byteLength" : 29856,
            "byteOffset" : 255064,
            "target" : 34962
        },
        {
            "buffer" : 0,
            "byteLength" : 17400,
            "byteOffset" : 284920,
            "target" : 34963
        },
        {
            "buffer" : 0,
            "byteLength" : 22416,
            "byteOffset" : 302320,
            "target" : 34962
        },
        {
            "buffer" : 0,
            "byteLength" : 22416,
            "byteOffset" : 324736,
            "target" : 34962
        }
    ],
    "buffers" : [
        {
            "byteLength" : 347152,
            "uri" : "data:application/octet-stream;base64,"
        }
    ]
}
