{
    "asset" : {
        "generator" : "Khronos glTF Blender I/O v1.6.16",
        "version" : "2.0"
    },
    "scene" : 0,
    "scenes" : [
        {
            "name" : "Scene",
            "nodes" : [
                43
            ]
        }
    ],
    "nodes" : [
        {
            "mesh" : 0,
            "name" : "Body1.009",
            "rotation" : [
                0,
                -1,
                0,
                -1.6292068494294654e-07
            ],
            "scale" : [
                10,
                10,
                10
            ]
        },
        {
            "children" : [
                0
            ],
            "name" : "Bat pad (1)"
        },
        {
            "children" : [
                1
            ],
            "name" : "Bat pad (1):1"
        },
        {
            "name" : "Bat pad"
        },
        {
            "children" : [
                3
            ],
            "name" : "Bat pad:1"
        },
        {
            "name" : "Battery"
        },
        {
            "children" : [
                5
            ],
            "name" : "Battery:1"
        },
        {
            "name" : "Beitian Label"
        },
        {
            "children" : [
                7
            ],
            "name" : "Beitian Label:1"
        },
        {
            "name" : "Component10"
        },
        {
            "children" : [
                9
            ],
            "name" : "Component10:1"
        },
        {
            "name" : "Component19"
        },
        {
            "children" : [
                11
            ],
            "name" : "Component19:1"
        },
        {
            "name" : "Component4"
        },
        {
            "children" : [
                13
            ],
            "name" : "Component4:1"
        },
        {
            "name" : "Connector"
        },
        {
            "children" : [
                15
            ],
            "name" : "Connector:1"
        },
        {
            "name" : "D2"
        },
        {
            "children" : [
                17
            ],
            "name" : "D2:1"
        },
        {
            "name" : "D3"
        },
        {
            "children" : [
                19
            ],
            "name" : "D3:1"
        },
        {
            "name" : "GPS PCB"
        },
        {
            "children" : [
                21
            ],
            "name" : "GPS PCB:1"
        },
        {
            "name" : "GPS Shield"
        },
        {
            "children" : [
                23
            ],
            "name" : "GPS Shield:1"
        },
        {
            "name" : "Pins"
        },
        {
            "children" : [
                25
            ],
            "name" : "Pins:1"
        },
        {
            "name" : "PPS (1)"
        },
        {
            "children" : [
                27
            ],
            "name" : "PPS (1):1"
        },
        {
            "name" : "PPS"
        },
        {
            "children" : [
                29
            ],
            "name" : "PPS:1"
        },
        {
            "name" : "PPSled"
        },
        {
            "children" : [
                31
            ],
            "name" : "PPSled:1"
        },
        {
            "name" : "Solder holes"
        },
        {
            "children" : [
                33
            ],
            "name" : "Solder holes:1"
        },
        {
            "name" : "TX (1)"
        },
        {
            "children" : [
                35
            ],
            "name" : "TX (1):1"
        },
        {
            "name" : "TX"
        },
        {
            "children" : [
                37
            ],
            "name" : "TX:1"
        },
        {
            "name" : "TXled"
        },
        {
            "children" : [
                39
            ],
            "name" : "TXled:1"
        },
        {
            "children" : [
                2,
                4,
                6,
                8,
                10,
                12,
                14,
                16,
                18,
                20,
                22,
                24,
                26,
                28,
                30,
                32,
                34,
                36,
                38,
                40
            ],
            "name" : "GPS Module"
        },
        {
            "children" : [
                41
            ],
            "name" : "GPS Module:1"
        },
        {
            "children" : [
                42
            ],
            "name" : "Beitian BN-880 GPS and Compas v1",
            "rotation" : [
                0.7071068286895752,
                0,
                -0.7071068286895752,
                -2.837897454810445e-07
            ]
        }
    ],
    "materials" : [
        {
            "doubleSided" : true,
            "name" : "Opaque(251,250,245)",
            "pbrMetallicRoughness" : {
                "baseColorFactor" : [
                    0.9843137264251709,
                    0.9803921580314636,
                    0.9607843160629272,
                    1
                ],
                "roughnessFactor" : 0.5527864098548889
            }
        },
        {
            "doubleSided" : true,
            "name" : "Opaque(246,246,243)",
            "pbrMetallicRoughness" : {
                "baseColorFactor" : [
                    0.9647058844566345,
                    0.9647058844566345,
                    0.9529411792755127,
                    1
                ],
                "roughnessFactor" : 0.5527864098548889
            }
        },
        {
            "doubleSided" : true,
            "name" : "Opaque(48,59,150)",
            "pbrMetallicRoughness" : {
                "baseColorFactor" : [
                    0.1882352977991104,
                    0.23137255012989044,
                    0.5882353186607361,
                    1
                ],
                "roughnessFactor" : 0.5527864098548889
            }
        },
        {
            "doubleSided" : true,
            "name" : "Opaque(196,197,196)",
            "pbrMetallicRoughness" : {
                "baseColorFactor" : [
                    0.7686274647712708,
                    0.772549033164978,
                    0.7686274647712708,
                    1
                ],
                "roughnessFactor" : 0.5527864098548889
            }
        },
        {
            "doubleSided" : true,
            "name" : "Opaque(245,245,246)",
            "pbrMetallicRoughness" : {
                "baseColorFactor" : [
                    0.9607843160629272,
                    0.9607843160629272,
                    0.9647058844566345,
                    1
                ],
                "roughnessFactor" : 0.5527864098548889
            }
        },
        {
            "doubleSided" : true,
            "name" : "Opaque(63,63,63)",
            "pbrMetallicRoughness" : {
                "baseColorFactor" : [
                    0.250980406999588,
                    0.250980406999588,
                    0.250980406999588,
                    1
                ],
                "roughnessFactor" : 0.5527864098548889
            }
        },
        {
            "doubleSided" : true,
            "name" : "Opaque(25,25,25)",
            "pbrMetallicRoughness" : {
                "baseColorFactor" : [
                    0.09803921729326248,
                    0.09803921729326248,
                    0.09803921729326248,
                    1
                ],
                "roughnessFactor" : 0.5527864098548889
            }
        },
        {
            "doubleSided" : true,
            "name" : "Opaque(232,173,35)",
            "pbrMetallicRoughness" : {
                "baseColorFactor" : [
                    0.9098039269447327,
                    0.6784313917160034,
                    0.13725490868091583,
                    1
                ],
                "roughnessFactor" : 0.5527864098548889
            }
        },
        {
            "doubleSided" : true,
            "name" : "Opaque(237,206,195)",
            "pbrMetallicRoughness" : {
                "baseColorFactor" : [
                    0.929411768913269,
                    0.8078431487083435,
                    0.7647058963775635,
                    1
                ],
                "roughnessFactor" : 0.5527864098548889
            }
        }
    ],
    "meshes" : [
        {
            "name" : "Body1.009",
            "primitives" : [
                {
                    "attributes" : {
                        "POSITION" : 0,
                        "NORMAL" : 1,
                        "TEXCOORD_0" : 2
                    },
                    "indices" : 3,
                    "material" : 0
                },
                {
                    "attributes" : {
                        "POSITION" : 4,
                        "NORMAL" : 5,
                        "TEXCOORD_0" : 6
                    },
                    "indices" : 7,
                    "material" : 1
                },
                {
                    "attributes" : {
                        "POSITION" : 8,
                        "NORMAL" : 9,
                        "TEXCOORD_0" : 10
                    },
                    "indices" : 11,
                    "material" : 2
                },
                {
                    "attributes" : {
                        "POSITION" : 12,
                        "NORMAL" : 13,
                        "TEXCOORD_0" : 14
                    },
                    "indices" : 15,
                    "material" : 3
                },
                {
                    "attributes" : {
                        "POSITION" : 16,
                        "NORMAL" : 17,
                        "TEXCOORD_0" : 18
                    },
                    "indices" : 19,
                    "material" : 4
                },
                {
                    "attributes" : {
                        "POSITION" : 20,
                        "NORMAL" : 21,
                        "TEXCOORD_0" : 22
                    },
                    "indices" : 23,
                    "material" : 5
                },
                {
                    "attributes" : {
                        "POSITION" : 24,
                        "NORMAL" : 25,
                        "TEXCOORD_0" : 26
                    },
                    "indices" : 27,
                    "material" : 6
                },
                {
                    "attributes" : {
                        "POSITION" : 28,
                        "NORMAL" : 29,
                        "TEXCOORD_0" : 30
                    },
                    "indices" : 31,
                    "material" : 7
                },
                {
                    "attributes" : {
                        "POSITION" : 32,
                        "NORMAL" : 33,
                        "TEXCOORD_0" : 34
                    },
                    "indices" : 35,
                    "material" : 8
                }
            ]
        }
    ],
    "accessors" : [
        {
            "bufferView" : 0,
            "componentType" : 5126,
            "count" : 1939,
            "max" : [
                1.3038642406463623,
                0.5240588784217834,
                1.2656210660934448
            ],
            "min" : [
                -1.30322265625,
                -0.4959412217140198,
                -0.4518789052963257
            ],
            "type" : "VEC3"
        },
        {
            "bufferView" : 1,
            "componentType" : 5126,
            "count" : 1939,
            "type" : "VEC3"
        },
        {
            "bufferView" : 2,
            "componentType" : 5126,
            "count" : 1939,
            "type" : "VEC2"
        },
        {
            "bufferView" : 3,
            "componentType" : 5123,
            "count" : 6714,
            "type" : "SCALAR"
        },
        {
            "bufferView" : 4,
            "componentType" : 5126,
            "count" : 908,
            "max" : [
                1.2542771100997925,
                0.6840589046478271,
                1.2656210660934448
            ],
            "min" : [
                -1.2632226943969727,
                -0.4359411597251892,
                -1.2518789768218994
            ],
            "type" : "VEC3"
        },
        {
            "bufferView" : 5,
            "componentType" : 5126,
            "count" : 908,
            "type" : "VEC3"
        },
        {
            "bufferView" : 6,
            "componentType" : 5126,
            "count" : 908,
            "type" : "VEC2"
        },
        {
            "bufferView" : 7,
            "componentType" : 5123,
            "count" : 2436,
            "type" : "SCALAR"
        },
        {
            "bufferView" : 8,
            "componentType" : 5126,
            "count" : 1022,
            "max" : [
                1.3967772722244263,
                0.3540588617324829,
                1.4156211614608765
            ],
            "min" : [
                -1.4032227993011475,
                -0.23594117164611816,
                -1.40437912940979
            ],
            "type" : "VEC3"
        },
        {
            "bufferView" : 9,
            "componentType" : 5126,
            "count" : 1022,
            "type" : "VEC3"
        },
        {
            "bufferView" : 10,
            "componentType" : 5126,
            "count" : 1022,
            "type" : "VEC2"
        },
        {
            "bufferView" : 11,
            "componentType" : 5123,
            "count" : 3612,
            "type" : "SCALAR"
        },
        {
            "bufferView" : 12,
            "componentType" : 5126,
            "count" : 965,
            "max" : [
                1.296777367591858,
                0.46405884623527527,
                1.2656209468841553
            ],
            "min" : [
                -1.2607228755950928,
                -0.13594114780426025,
                -1.2518789768218994
            ],
            "type" : "VEC3"
        },
        {
            "bufferView" : 13,
            "componentType" : 5126,
            "count" : 965,
            "type" : "VEC3"
        },
        {
            "bufferView" : 14,
            "componentType" : 5126,
            "count" : 965,
            "type" : "VEC2"
        },
        {
            "bufferView" : 15,
            "componentType" : 5123,
            "count" : 4356,
            "type" : "SCALAR"
        },
        {
            "bufferView" : 16,
            "componentType" : 5126,
            "count" : 912,
            "max" : [
                1.2717771530151367,
                0.6040588617324829,
                1.1431212425231934
            ],
            "min" : [
                -1.2782227993011475,
                -0.44594115018844604,
                -1.2743792533874512
            ],
            "type" : "VEC3"
        },
        {
            "bufferView" : 17,
            "componentType" : 5126,
            "count" : 912,
            "type" : "VEC3"
        },
        {
            "bufferView" : 18,
            "componentType" : 5126,
            "count" : 912,
            "type" : "VEC2"
        },
        {
            "bufferView" : 19,
            "componentType" : 5123,
            "count" : 2952,
            "type" : "SCALAR"
        },
        {
            "bufferView" : 20,
            "componentType" : 5126,
            "count" : 852,
            "max" : [
                1.2467772960662842,
                0.6140588521957397,
                1.2556209564208984
            ],
            "min" : [
                -1.2532227039337158,
                -0.44594115018844604,
                -1.2443792819976807
            ],
            "type" : "VEC3"
        },
        {
            "bufferView" : 21,
            "componentType" : 5126,
            "count" : 852,
            "type" : "VEC3"
        },
        {
            "bufferView" : 22,
            "componentType" : 5126,
            "count" : 852,
            "type" : "VEC2"
        },
        {
            "bufferView" : 23,
            "componentType" : 5123,
            "count" : 2904,
            "type" : "SCALAR"
        },
        {
            "bufferView" : 24,
            "componentType" : 5126,
            "count" : 116,
            "max" : [
                -0.8532227277755737,
                0.38505885004997253,
                1.1156210899353027
            ],
            "min" : [
                -1.30322265625,
                0.3540588617324829,
                1.0156210660934448
            ],
            "type" : "VEC3"
        },
        {
            "bufferView" : 25,
            "componentType" : 5126,
            "count" : 116,
            "type" : "VEC3"
        },
        {
            "bufferView" : 26,
            "componentType" : 5126,
            "count" : 116,
            "type" : "VEC2"
        },
        {
            "bufferView" : 27,
            "componentType" : 5123,
            "count" : 288,
            "type" : "SCALAR"
        },
        {
            "bufferView" : 28,
            "componentType" : 5126,
            "count" : 60,
            "max" : [
                -0.8932228088378906,
                0.3740588426589966,
                1.2656210660934448
            ],
            "min" : [
                -1.2632226943969727,
                0.36405885219573975,
                1.165621042251587
            ],
            "type" : "VEC3"
        },
        {
            "bufferView" : 29,
            "componentType" : 5126,
            "count" : 60,
            "type" : "VEC3"
        },
        {
            "bufferView" : 30,
            "componentType" : 5126,
            "count" : 60,
            "type" : "VEC2"
        },
        {
            "bufferView" : 31,
            "componentType" : 5123,
            "count" : 144,
            "type" : "SCALAR"
        },
        {
            "bufferView" : 32,
            "componentType" : 5126,
            "count" : 2170,
            "max" : [
                0.5667772889137268,
                0.3540588617324829,
                1.3856210708618164
            ],
            "min" : [
                -0.5732227563858032,
                0.254058837890625,
                1.2456209659576416
            ],
            "type" : "VEC3"
        },
        {
            "bufferView" : 33,
            "componentType" : 5126,
            "count" : 2170,
            "type" : "VEC3"
        },
        {
            "bufferView" : 34,
            "componentType" : 5126,
            "count" : 2170,
            "type" : "VEC2"
        },
        {
            "bufferView" : 35,
            "componentType" : 5123,
            "count" : 7428,
            "type" : "SCALAR"
        }
    ],
    "bufferViews" : [
        {
            "buffer" : 0,
            "byteLength" : 23268,
            "byteOffset" : 0
        },
        {
            "buffer" : 0,
            "byteLength" : 23268,
            "byteOffset" : 23268
        },
        {
            "buffer" : 0,
            "byteLength" : 15512,
            "byteOffset" : 46536
        },
        {
            "buffer" : 0,
            "byteLength" : 13428,
            "byteOffset" : 62048
        },
        {
            "buffer" : 0,
            "byteLength" : 10896,
            "byteOffset" : 75476
        },
        {
            "buffer" : 0,
            "byteLength" : 10896,
            "byteOffset" : 86372
        },
        {
            "buffer" : 0,
            "byteLength" : 7264,
            "byteOffset" : 97268
        },
        {
            "buffer" : 0,
            "byteLength" : 4872,
            "byteOffset" : 104532
        },
        {
            "buffer" : 0,
            "byteLength" : 12264,
            "byteOffset" : 109404
        },
        {
            "buffer" : 0,
            "byteLength" : 12264,
            "byteOffset" : 121668
        },
        {
            "buffer" : 0,
            "byteLength" : 8176,
            "byteOffset" : 133932
        },
        {
            "buffer" : 0,
            "byteLength" : 7224,
            "byteOffset" : 142108
        },
        {
            "buffer" : 0,
            "byteLength" : 11580,
            "byteOffset" : 149332
        },
        {
            "buffer" : 0,
            "byteLength" : 11580,
            "byteOffset" : 160912
        },
        {
            "buffer" : 0,
            "byteLength" : 7720,
            "byteOffset" : 172492
        },
        {
            "buffer" : 0,
            "byteLength" : 8712,
            "byteOffset" : 180212
        },
        {
            "buffer" : 0,
            "byteLength" : 10944,
            "byteOffset" : 188924
        },
        {
            "buffer" : 0,
            "byteLength" : 10944,
            "byteOffset" : 199868
        },
        {
            "buffer" : 0,
            "byteLength" : 7296,
            "byteOffset" : 210812
        },
        {
            "buffer" : 0,
            "byteLength" : 5904,
            "byteOffset" : 218108
        },
        {
            "buffer" : 0,
            "byteLength" : 10224,
            "byteOffset" : 224012
        },
        {
            "buffer" : 0,
            "byteLength" : 10224,
            "byteOffset" : 234236
        },
        {
            "buffer" : 0,
            "byteLength" : 6816,
            "byteOffset" : 244460
        },
        {
            "buffer" : 0,
            "byteLength" : 5808,
            "byteOffset" : 251276
        },
        {
            "buffer" : 0,
            "byteLength" : 1392,
            "byteOffset" : 257084
        },
        {
            "buffer" : 0,
            "byteLength" : 1392,
            "byteOffset" : 258476
        },
        {
            "buffer" : 0,
            "byteLength" : 928,
            "byteOffset" : 259868
        },
        {
            "buffer" : 0,
            "byteLength" : 576,
            "byteOffset" : 260796
        },
        {
            "buffer" : 0,
            "byteLength" : 720,
            "byteOffset" : 261372
        },
        {
            "buffer" : 0,
            "byteLength" : 720,
            "byteOffset" : 262092
        },
        {
            "buffer" : 0,
            "byteLength" : 480,
            "byteOffset" : 262812
        },
        {
            "buffer" : 0,
            "byteLength" : 288,
            "byteOffset" : 263292
        },
        {
            "buffer" : 0,
            "byteLength" : 26040,
            "byteOffset" : 263580
        },
        {
            "buffer" : 0,
            "byteLength" : 26040,
            "byteOffset" : 289620
        },
        {
            "buffer" : 0,
            "byteLength" : 17360,
            "byteOffset" : 315660
        },
        {
            "buffer" : 0,
            "byteLength" : 14856,
            "byteOffset" : 333020
        }
    ],
    "buffers" : [
        {
            "byteLength" : 347876,
            "uri" : "data:application/octet-stream;base64,"
        }
    ]
}
