{"asset":{"version":"2.0","generator":"THREE.GLTFExporter"},"scenes":[{"nodes":[0],"name":"AuxScene"}],"scene":0,"nodes":[{"mesh":0}],"bufferViews":[{"buffer":0,"byteOffset":0,"byteLength":1001952,"target":34962,"byteStride":12},{"buffer":0,"byteOffset":1001952,"byteLength":1001952,"target":34962,"byteStride":12},{"buffer":0,"byteOffset":2003904,"byteLength":15600,"target":34963},{"buffer":0,"byteOffset":2019504,"byteLength":8256,"target":34963},{"buffer":0,"byteOffset":2027760,"byteLength":1728,"target":34963},{"buffer":0,"byteOffset":2029488,"byteLength":4128,"target":34963},{"buffer":0,"byteOffset":2033616,"byteLength":1728,"target":34963},{"buffer":0,"byteOffset":2035344,"byteLength":7800,"target":34963},{"buffer":0,"byteOffset":2043144,"byteLength":3864,"target":34963},{"buffer":0,"byteOffset":2047008,"byteLength":50256,"target":34963},{"buffer":0,"byteOffset":2097264,"byteLength":5592,"target":34963},{"buffer":0,"byteOffset":2102856,"byteLength":4128,"target":34963},{"buffer":0,"byteOffset":2106984,"byteLength":1728,"target":34963},{"buffer":0,"byteOffset":2108712,"byteLength":50256,"target":34963},{"buffer":0,"byteOffset":2158968,"byteLength":3864,"target":34963},{"buffer":0,"byteOffset":2162832,"byteLength":7800,"target":34963},{"buffer":0,"byteOffset":2170632,"byteLength":4128,"target":34963},{"buffer":0,"byteOffset":2174760,"byteLength":5592,"target":34963},{"buffer":0,"byteOffset":2180352,"byteLength":78096,"target":34963},{"buffer":0,"byteOffset":2258448,"byteLength":4128,"target":34963},{"buffer":0,"byteOffset":2262576,"byteLength":5592,"target":34963},{"buffer":0,"byteOffset":2268168,"byteLength":15600,"target":34963},{"buffer":0,"byteOffset":2283768,"byteLength":3864,"target":34963},{"buffer":0,"byteOffset":2287632,"byteLength":50256,"target":34963}],"buffers":[{"byteLength":2337888,"uri":"data:application/octet-stream;base64,"}],"accessors":[{"bufferView":0,"componentType":5126,"count":83496,"max":[4.406639575958252,0.6549080610275269,4.222103595733643],"min":[-4.181912422180176,-0.08912578225135803,-4.336985111236572],"type":"VEC3"},{"bufferView":1,"componentType":5126,"count":83496,"max":[1,1,1],"min":[-1,-1,-1],"type":"VEC3"},{"bufferView":2,"componentType":5125,"count":3900,"max":[3899],"min":[0],"type":"SCALAR"},{"bufferView":3,"componentType":5125,"count":2064,"max":[5963],"min":[3900],"type":"SCALAR"},{"bufferView":4,"componentType":5125,"count":432,"max":[6395],"min":[5964],"type":"SCALAR"},{"bufferView":5,"componentType":5125,"count":1032,"max":[7427],"min":[6396],"type":"SCALAR"},{"bufferView":6,"componentType":5125,"count":432,"max":[7859],"min":[7428],"type":"SCALAR"},{"bufferView":7,"componentType":5125,"count":1950,"max":[9809],"min":[7860],"type":"SCALAR"},{"bufferView":8,"componentType":5125,"count":966,"max":[10775],"min":[9810],"type":"SCALAR"},{"bufferView":9,"componentType":5125,"count":12564,"max":[23339],"min":[10776],"type":"SCALAR"},{"bufferView":10,"componentType":5125,"count":1398,"max":[24737],"min":[23340],"type":"SCALAR"},{"bufferView":11,"componentType":5125,"count":1032,"max":[25769],"min":[24738],"type":"SCALAR"},{"bufferView":12,"componentType":5125,"count":432,"max":[26201],"min":[25770],"type":"SCALAR"},{"bufferView":13,"componentType":5125,"count":12564,"max":[38765],"min":[26202],"type":"SCALAR"},{"bufferView":14,"componentType":5125,"count":966,"max":[39731],"min":[38766],"type":"SCALAR"},{"bufferView":15,"componentType":5125,"count":1950,"max":[41681],"min":[39732],"type":"SCALAR"},{"bufferView":16,"componentType":5125,"count":1032,"max":[42713],"min":[41682],"type":"SCALAR"},{"bufferView":17,"componentType":5125,"count":1398,"max":[44111],"min":[42714],"type":"SCALAR"},{"bufferView":18,"componentType":5125,"count":19524,"max":[63635],"min":[44112],"type":"SCALAR"},{"bufferView":19,"componentType":5125,"count":1032,"max":[64667],"min":[63636],"type":"SCALAR"},{"bufferView":20,"componentType":5125,"count":1398,"max":[66065],"min":[64668],"type":"SCALAR"},{"bufferView":21,"componentType":5125,"count":3900,"max":[69965],"min":[66066],"type":"SCALAR"},{"bufferView":22,"componentType":5125,"count":966,"max":[70931],"min":[69966],"type":"SCALAR"},{"bufferView":23,"componentType":5125,"count":12564,"max":[83495],"min":[70932],"type":"SCALAR"}],"materials":[{"pbrMetallicRoughness":{"baseColorFactor":[0,1,0,1],"metallicFactor":0.5,"roughnessFactor":0.5},"name":"Material.002"},{"pbrMetallicRoughness":{"baseColorFactor":[0.4,0.4,0.4,1],"metallicFactor":0.5,"roughnessFactor":0.5},"name":"Material.003"},{"pbrMetallicRoughness":{"baseColorFactor":[0,0.4470588235294118,0.6392156862745098,1],"metallicFactor":0.5,"roughnessFactor":0.5},"name":"Material.004"},{"pbrMetallicRoughness":{"baseColorFactor":[1,0,0,1],"metallicFactor":0.5,"roughnessFactor":0.5},"name":"Material.005"},{"pbrMetallicRoughness":{"baseColorFactor":[0.17647058823529413,0.17647058823529413,0.17647058823529413,1],"metallicFactor":0.5,"roughnessFactor":0.5},"name":"Material.001"}],"meshes":[{"primitives":[{"mode":4,"attributes":{"POSITION":0,"NORMAL":1},"indices":2,"material":0},{"mode":4,"attributes":{"POSITION":0,"NORMAL":1},"indices":3,"material":1},{"mode":4,"attributes":{"POSITION":0,"NORMAL":1},"indices":4,"material":2},{"mode":4,"attributes":{"POSITION":0,"NORMAL":1},"indices":5,"material":1},{"mode":4,"attributes":{"POSITION":0,"NORMAL":1},"indices":6,"material":2},{"mode":4,"attributes":{"POSITION":0,"NORMAL":1},"indices":7,"material":3},{"mode":4,"attributes":{"POSITION":0,"NORMAL":1},"indices":8,"material":2},{"mode":4,"attributes":{"POSITION":0,"NORMAL":1},"indices":9,"material":4},{"mode":4,"attributes":{"POSITION":0,"NORMAL":1},"indices":10,"material":2},{"mode":4,"attributes":{"POSITION":0,"NORMAL":1},"indices":11,"material":1},{"mode":4,"attributes":{"POSITION":0,"NORMAL":1},"indices":12,"material":2},{"mode":4,"attributes":{"POSITION":0,"NORMAL":1},"indices":13,"material":4},{"mode":4,"attributes":{"POSITION":0,"NORMAL":1},"indices":14,"material":2},{"mode":4,"attributes":{"POSITION":0,"NORMAL":1},"indices":15,"material":0},{"mode":4,"attributes":{"POSITION":0,"NORMAL":1},"indices":16,"material":1},{"mode":4,"attributes":{"POSITION":0,"NORMAL":1},"indices":17,"material":2},{"mode":4,"attributes":{"POSITION":0,"NORMAL":1},"indices":18,"material":0},{"mode":4,"attributes":{"POSITION":0,"NORMAL":1},"indices":19,"material":1},{"mode":4,"attributes":{"POSITION":0,"NORMAL":1},"indices":20,"material":2},{"mode":4,"attributes":{"POSITION":0,"NORMAL":1},"indices":21,"material":3},{"mode":4,"attributes":{"POSITION":0,"NORMAL":1},"indices":22,"material":2},{"mode":4,"attributes":{"POSITION":0,"NORMAL":1},"indices":23,"material":4}]}]}