{
  "asset": {
    "copyright": "",
    "generator": "SharpGLTF 1.0.0",
    "version": "2.0"
  },
  "accessors": [
    {
      "name": "POSITION",
      "bufferView": 0,
      "byteOffset": 11472,
      "componentType": 5126,
      "count": 245,
      "max": [
        2.0453059673309326,
        -0.80000001192092896,
        5.4436073303222656
      ],
      "min": [
        -2.0546939373016357,
        -0.80000001192092896,
        1.3436071872711182
      ],
      "type": "VEC3"
    },
    {
      "bufferView": 1,
      "byteOffset": 7104,
      "componentType": 5123,
      "count": 876,
      "type": "SCALAR"
    },
    {
      "name": "POSITION",
      "bufferView": 0,
      "componentType": 5126,
      "count": 956,
      "max": [
        4.9953060150146484,
        0.5,
        8.0056905746459961
      ],
      "min": [
        -5.0046939849853516,
        -0.80099999904632568,
        -7.9943099021911621
      ],
      "type": "VEC3"
    },
    {
      "bufferView": 1,
      "componentType": 5123,
      "count": 3552,
      "type": "SCALAR"
    },
    {
      "name": "POSITION",
      "bufferView": 0,
      "byteOffset": 20028,
      "componentType": 5126,
      "count": 12,
      "max": [
        1.5000522136688232,
        -0.10000000149011612,
        -5.6033802032470703
      ],
      "min": [
        -0.29994779825210571,
        -0.10000000149011612,
        -7.1956877708435059
      ],
      "type": "VEC3"
    },
    {
      "bufferView": 1,
      "byteOffset": 11598,
      "componentType": 5123,
      "count": 30,
      "type": "SCALAR"
    },
    {
      "name": "POSITION",
      "bufferView": 0,
      "byteOffset": 20172,
      "componentType": 5126,
      "count": 12,
      "max": [
        1.5000522136688232,
        0.5,
        -5.6033802032470703
      ],
      "min": [
        -0.29994779825210571,
        0.5,
        -7.1956877708435059
      ],
      "type": "VEC3"
    },
    {
      "bufferView": 1,
      "byteOffset": 11658,
      "componentType": 5123,
      "count": 30,
      "type": "SCALAR"
    },
    {
      "name": "POSITION",
      "bufferView": 0,
      "byteOffset": 21132,
      "componentType": 5126,
      "count": 9,
      "max": [
        3.956756591796875,
        -0.10000000149011612,
        -3.8916456699371338
      ],
      "min": [
        2.1567566394805908,
        -0.10000000149011612,
        -5.2531838417053223
      ],
      "type": "VEC3"
    },
    {
      "bufferView": 1,
      "byteOffset": 12054,
      "componentType": 5123,
      "count": 21,
      "type": "SCALAR"
    },
    {
      "name": "POSITION",
      "bufferView": 0,
      "byteOffset": 21240,
      "componentType": 5126,
      "count": 9,
      "max": [
        3.956756591796875,
        0.5,
        -3.8916456699371338
      ],
      "min": [
        2.1567566394805908,
        0.5,
        -5.2531838417053223
      ],
      "type": "VEC3"
    },
    {
      "bufferView": 1,
      "byteOffset": 12096,
      "componentType": 5123,
      "count": 21,
      "type": "SCALAR"
    },
    {
      "name": "POSITION",
      "bufferView": 0,
      "byteOffset": 20316,
      "componentType": 5126,
      "count": 12,
      "max": [
        3.6567566394805908,
        -0.10000000149011612,
        -0.70463287830352783
      ],
      "min": [
        -3.2289743423461914,
        -0.10000000149011612,
        -7.1797943115234375
      ],
      "type": "VEC3"
    },
    {
      "bufferView": 1,
      "byteOffset": 11718,
      "componentType": 5123,
      "count": 30,
      "type": "SCALAR"
    },
    {
      "name": "POSITION",
      "bufferView": 0,
      "byteOffset": 20460,
      "componentType": 5126,
      "count": 12,
      "max": [
        3.6567566394805908,
        0.5,
        -0.70463287830352783
      ],
      "min": [
        -3.2289743423461914,
        0.5,
        -7.1797943115234375
      ],
      "type": "VEC3"
    },
    {
      "bufferView": 1,
      "byteOffset": 11778,
      "componentType": 5123,
      "count": 30,
      "type": "SCALAR"
    },
    {
      "name": "POSITION",
      "bufferView": 0,
      "byteOffset": 21420,
      "componentType": 5126,
      "count": 4,
      "max": [
        3.2300682067871094,
        -0.10000000149011612,
        -3.41383957862854
      ],
      "min": [
        2.9323132038116455,
        -0.10000000149011612,
        -4.0331988334655762
      ],
      "type": "VEC3"
    },
    {
      "bufferView": 1,
      "byteOffset": 12162,
      "componentType": 5123,
      "count": 6,
      "type": "SCALAR"
    },
    {
      "name": "POSITION",
      "bufferView": 0,
      "byteOffset": 21468,
      "componentType": 5126,
      "count": 4,
      "max": [
        3.2300682067871094,
        0.5,
        -3.41383957862854
      ],
      "min": [
        2.9323132038116455,
        0.5,
        -4.0331988334655762
      ],
      "type": "VEC3"
    },
    {
      "bufferView": 1,
      "byteOffset": 12174,
      "componentType": 5123,
      "count": 6,
      "type": "SCALAR"
    },
    {
      "name": "POSITION",
      "bufferView": 0,
      "byteOffset": 20604,
      "componentType": 5126,
      "count": 11,
      "max": [
        -2.0546939373016357,
        0,
        5.4436073303222656
      ],
      "min": [
        -2.0546939373016357,
        -0.80000001192092896,
        1.3436071872711182
      ],
      "type": "VEC3"
    },
    {
      "bufferView": 1,
      "byteOffset": 11838,
      "componentType": 5123,
      "count": 27,
      "type": "SCALAR"
    },
    {
      "name": "POSITION",
      "bufferView": 0,
      "byteOffset": 20736,
      "componentType": 5126,
      "count": 11,
      "max": [
        2.0453059673309326,
        0,
        1.3436071872711182
      ],
      "min": [
        -2.0546939373016357,
        -0.80000001192092896,
        1.3436071872711182
      ],
      "type": "VEC3"
    },
    {
      "bufferView": 1,
      "byteOffset": 11892,
      "componentType": 5123,
      "count": 27,
      "type": "SCALAR"
    },
    {
      "name": "POSITION",
      "bufferView": 0,
      "byteOffset": 20868,
      "componentType": 5126,
      "count": 11,
      "max": [
        2.0453059673309326,
        0,
        5.4436073303222656
      ],
      "min": [
        2.0453059673309326,
        -0.80000001192092896,
        1.3436071872711182
      ],
      "type": "VEC3"
    },
    {
      "bufferView": 1,
      "byteOffset": 11946,
      "componentType": 5123,
      "count": 27,
      "type": "SCALAR"
    },
    {
      "name": "POSITION",
      "bufferView": 0,
      "byteOffset": 21000,
      "componentType": 5126,
      "count": 11,
      "max": [
        2.0453059673309326,
        0,
        5.4436073303222656
      ],
      "min": [
        -2.0546939373016357,
        -0.80000001192092896,
        5.4436073303222656
      ],
      "type": "VEC3"
    },
    {
      "bufferView": 1,
      "byteOffset": 12000,
      "componentType": 5123,
      "count": 27,
      "type": "SCALAR"
    },
    {
      "name": "POSITION",
      "bufferView": 0,
      "byteOffset": 16500,
      "componentType": 5126,
      "count": 56,
      "max": [
        0.017961539328098297,
        -0.80099999904632568,
        2.8317668437957764
      ],
      "min": [
        -0.71846151351928711,
        -0.80099999904632568,
        2.4006898403167725
      ],
      "type": "VEC3"
    },
    {
      "bufferView": 1,
      "byteOffset": 9900,
      "componentType": 5123,
      "count": 168,
      "type": "SCALAR"
    },
    {
      "name": "POSITION",
      "bufferView": 0,
      "byteOffset": 17832,
      "componentType": 5126,
      "count": 29,
      "max": [
        -0.39515385031700134,
        -0.80000001192092896,
        2.7060360908508301
      ],
      "min": [
        -0.59273076057434082,
        -0.80000001192092896,
        2.5264205932617188
      ],
      "type": "VEC3"
    },
    {
      "bufferView": 1,
      "byteOffset": 10566,
      "componentType": 5123,
      "count": 81,
      "type": "SCALAR"
    },
    {
      "name": "POSITION",
      "bufferView": 0,
      "byteOffset": 19860,
      "componentType": 5126,
      "count": 14,
      "max": [
        0,
        -0.80099999904632568,
        3.3975551128387451
      ],
      "min": [
        -0.71846151351928711,
        -0.80099999904632568,
        2.9125936031341553
      ],
      "type": "VEC3"
    },
    {
      "bufferView": 1,
      "byteOffset": 11514,
      "componentType": 5123,
      "count": 42,
      "type": "SCALAR"
    },
    {
      "name": "POSITION",
      "bufferView": 0,
      "byteOffset": 21516,
      "componentType": 5126,
      "count": 3,
      "max": [
        -0.26044231653213501,
        -0.80000001192092896,
        3.2089591026306152
      ],
      "min": [
        -0.4988536536693573,
        -0.80000001192092896,
        3.0539004802703857
      ],
      "type": "VEC3"
    },
    {
      "bufferView": 1,
      "byteOffset": 12186,
      "componentType": 5123,
      "count": 3,
      "type": "SCALAR"
    },
    {
      "name": "POSITION",
      "bufferView": 0,
      "byteOffset": 17172,
      "componentType": 5126,
      "count": 55,
      "max": [
        0.017961539328098297,
        -0.80099999904632568,
        3.9184398651123047
      ],
      "min": [
        -0.71846151351928711,
        -0.80099999904632568,
        3.4873628616333008
      ],
      "type": "VEC3"
    },
    {
      "bufferView": 1,
      "byteOffset": 10236,
      "componentType": 5123,
      "count": 165,
      "type": "SCALAR"
    },
    {
      "name": "POSITION",
      "bufferView": 0,
      "byteOffset": 19224,
      "componentType": 5126,
      "count": 28,
      "max": [
        -0.10776922851800919,
        -0.80000001192092896,
        3.7927091121673584
      ],
      "min": [
        -0.30534616112709045,
        -0.80000001192092896,
        3.6130936145782471
      ],
      "type": "VEC3"
    },
    {
      "bufferView": 1,
      "byteOffset": 11214,
      "componentType": 5123,
      "count": 78,
      "type": "SCALAR"
    },
    {
      "name": "POSITION",
      "bufferView": 0,
      "byteOffset": 14412,
      "componentType": 5126,
      "count": 58,
      "max": [
        0.017961539328098297,
        -0.80099999904632568,
        4.4932088851928711
      ],
      "min": [
        -0.71846151351928711,
        -0.80099999904632568,
        4.0172281265258789
      ],
      "type": "VEC3"
    },
    {
      "bufferView": 1,
      "byteOffset": 8856,
      "componentType": 5123,
      "count": 174,
      "type": "SCALAR"
    },
    {
      "name": "POSITION",
      "bufferView": 0,
      "byteOffset": 18180,
      "componentType": 5126,
      "count": 29,
      "max": [
        -0.10776922851800919,
        -0.80000001192092896,
        4.3674783706665039
      ],
      "min": [
        -0.59273076057434082,
        -0.80000001192092896,
        4.1429591178894043
      ],
      "type": "VEC3"
    },
    {
      "bufferView": 1,
      "byteOffset": 10728,
      "componentType": 5123,
      "count": 81,
      "type": "SCALAR"
    },
    {
      "name": "POSITION",
      "bufferView": 0,
      "byteOffset": 15108,
      "componentType": 5126,
      "count": 58,
      "max": [
        1.2303953170776367,
        -0.80099999904632568,
        2.9386186599731445
      ],
      "min": [
        0.4939723014831543,
        -0.80099999904632568,
        2.4626379013061523
      ],
      "type": "VEC3"
    },
    {
      "bufferView": 1,
      "byteOffset": 9204,
      "componentType": 5123,
      "count": 174,
      "type": "SCALAR"
    },
    {
      "name": "POSITION",
      "bufferView": 0,
      "byteOffset": 18528,
      "componentType": 5126,
      "count": 29,
      "max": [
        1.1046645641326904,
        -0.80000001192092896,
        2.8128879070281982
      ],
      "min": [
        0.61970305442810059,
        -0.80000001192092896,
        2.5883686542510986
      ],
      "type": "VEC3"
    },
    {
      "bufferView": 1,
      "byteOffset": 10890,
      "componentType": 5123,
      "count": 81,
      "type": "SCALAR"
    },
    {
      "name": "POSITION",
      "bufferView": 0,
      "byteOffset": 21348,
      "componentType": 5126,
      "count": 6,
      "max": [
        1.2124338150024414,
        -0.80099999904632568,
        3.3337724208831787
      ],
      "min": [
        0.51193386316299438,
        -0.80099999904632568,
        3.0643494129180908
      ],
      "type": "VEC3"
    },
    {
      "bufferView": 1,
      "byteOffset": 12138,
      "componentType": 5123,
      "count": 12,
      "type": "SCALAR"
    },
    {
      "name": "POSITION",
      "bufferView": 0,
      "byteOffset": 15804,
      "componentType": 5126,
      "count": 58,
      "max": [
        1.2303953170776367,
        -0.80099999904632568,
        4.0342726707458496
      ],
      "min": [
        0.4939723014831543,
        -0.80099999904632568,
        3.5582916736602783
      ],
      "type": "VEC3"
    },
    {
      "bufferView": 1,
      "byteOffset": 9552,
      "componentType": 5123,
      "count": 174,
      "type": "SCALAR"
    },
    {
      "name": "POSITION",
      "bufferView": 0,
      "byteOffset": 18876,
      "componentType": 5126,
      "count": 29,
      "max": [
        1.1046645641326904,
        -0.80000001192092896,
        3.9085416793823242
      ],
      "min": [
        0.61970305442810059,
        -0.80000001192092896,
        3.6840224266052246
      ],
      "type": "VEC3"
    },
    {
      "bufferView": 1,
      "byteOffset": 11052,
      "componentType": 5123,
      "count": 81,
      "type": "SCALAR"
    },
    {
      "name": "POSITION",
      "bufferView": 0,
      "byteOffset": 19560,
      "componentType": 5126,
      "count": 25,
      "max": [
        1.2916426658630371,
        -0.80099999904632568,
        4.8460783958435059
      ],
      "min": [
        0.70874124765396118,
        -0.80099999904632568,
        4.2631773948669434
      ],
      "type": "VEC3"
    },
    {
      "bufferView": 1,
      "byteOffset": 11370,
      "componentType": 5123,
      "count": 72,
      "type": "SCALAR"
    }
  ],
  "bufferViews": [
    {
      "buffer": 0,
      "byteLength": 21552,
      "byteStride": 12,
      "target": 34962
    },
    {
      "buffer": 0,
      "byteLength": 12192,
      "byteOffset": 21552,
      "target": 34963
    }
  ],
  "buffers": [
    {
      "byteLength": 33744,
      "uri": "ist8310.bin"
    }
  ],
  "materials": [
    {
      "doubleSided": true,
      "pbrMetallicRoughness": {
        "baseColorFactor": [
          0.125490203,
          0.125490203,
          0.125490203,
          1
        ]
      }
    },
    {
      "doubleSided": true,
      "pbrMetallicRoughness": {
        "baseColorFactor": [
          0.0431372561,
          0.0431372561,
          0.647058845,
          1
        ]
      }
    },
    {
      "doubleSided": true,
      "pbrMetallicRoughness": {}
    }
  ],
  "meshes": [
    {
      "primitives": [
        {
          "attributes": {
            "POSITION": 0
          },
          "indices": 1,
          "material": 0
        },
        {
          "attributes": {
            "POSITION": 2
          },
          "indices": 3,
          "material": 1
        },
        {
          "attributes": {
            "POSITION": 4
          },
          "indices": 5,
          "material": 2
        },
        {
          "attributes": {
            "POSITION": 6
          },
          "indices": 7,
          "material": 2
        },
        {
          "attributes": {
            "POSITION": 8
          },
          "indices": 9,
          "material": 2
        },
        {
          "attributes": {
            "POSITION": 10
          },
          "indices": 11,
          "material": 2
        },
        {
          "attributes": {
            "POSITION": 12
          },
          "indices": 13,
          "material": 2
        },
        {
          "attributes": {
            "POSITION": 14
          },
          "indices": 15,
          "material": 2
        },
        {
          "attributes": {
            "POSITION": 16
          },
          "indices": 17,
          "material": 2
        },
        {
          "attributes": {
            "POSITION": 18
          },
          "indices": 19,
          "material": 2
        },
        {
          "attributes": {
            "POSITION": 20
          },
          "indices": 21,
          "material": 0
        },
        {
          "attributes": {
            "POSITION": 22
          },
          "indices": 23,
          "material": 0
        },
        {
          "attributes": {
            "POSITION": 24
          },
          "indices": 25,
          "material": 0
        },
        {
          "attributes": {
            "POSITION": 26
          },
          "indices": 27,
          "material": 0
        },
        {
          "attributes": {
            "POSITION": 28
          },
          "indices": 29,
          "material": 2
        },
        {
          "attributes": {
            "POSITION": 30
          },
          "indices": 31,
          "material": 0
        },
        {
          "attributes": {
            "POSITION": 32
          },
          "indices": 33,
          "material": 2
        },
        {
          "attributes": {
            "POSITION": 34
          },
          "indices": 35,
          "material": 0
        },
        {
          "attributes": {
            "POSITION": 36
          },
          "indices": 37,
          "material": 2
        },
        {
          "attributes": {
            "POSITION": 38
          },
          "indices": 39,
          "material": 0
        },
        {
          "attributes": {
            "POSITION": 40
          },
          "indices": 41,
          "material": 2
        },
        {
          "attributes": {
            "POSITION": 42
          },
          "indices": 43,
          "material": 0
        },
        {
          "attributes": {
            "POSITION": 44
          },
          "indices": 45,
          "material": 2
        },
        {
          "attributes": {
            "POSITION": 46
          },
          "indices": 47,
          "material": 0
        },
        {
          "attributes": {
            "POSITION": 48
          },
          "indices": 49,
          "material": 2
        },
        {
          "attributes": {
            "POSITION": 50
          },
          "indices": 51,
          "material": 2
        },
        {
          "attributes": {
            "POSITION": 52
          },
          "indices": 53,
          "material": 0
        },
        {
          "attributes": {
            "POSITION": 54
          },
          "indices": 55,
          "material": 2
        }
      ]
    }
  ],
  "nodes": [
    {
      "mesh": 0
    }
  ],
  "scene": 0,
  "scenes": [
    {
      "nodes": [
        0
      ]
    }
  ]
}