{
  "asset": {
    "copyright": "",
    "generator": "SharpGLTF 1.0.0",
    "version": "2.0"
  },
  "accessors": [
    {
      "name": "POSITION",
      "bufferView": 0,
      "componentType": 5126,
      "count": 565,
      "max": [
        4.9953060150146484,
        0.5,
        8.0056905746459961
      ],
      "min": [
        -5.0046939849853516,
        -0.80099999904632568,
        -7.9943099021911621
      ],
      "type": "VEC3"
    },
    {
      "bufferView": 1,
      "componentType": 5123,
      "count": 2190,
      "type": "SCALAR"
    },
    {
      "name": "POSITION",
      "bufferView": 0,
      "byteOffset": 9732,
      "componentType": 5126,
      "count": 28,
      "max": [
        2.0453059673309326,
        0,
        5.4436073303222656
      ],
      "min": [
        -2.0546939373016357,
        -0.80000001192092896,
        5.4436073303222656
      ],
      "type": "VEC3"
    },
    {
      "bufferView": 1,
      "byteOffset": 6072,
      "componentType": 5123,
      "count": 78,
      "type": "SCALAR"
    },
    {
      "name": "POSITION",
      "bufferView": 0,
      "byteOffset": 10068,
      "componentType": 5126,
      "count": 28,
      "max": [
        2.0453059673309326,
        0,
        1.3436071872711182
      ],
      "min": [
        -2.0546939373016357,
        -0.80000001192092896,
        1.3436071872711182
      ],
      "type": "VEC3"
    },
    {
      "bufferView": 1,
      "byteOffset": 6228,
      "componentType": 5123,
      "count": 78,
      "type": "SCALAR"
    },
    {
      "name": "POSITION",
      "bufferView": 0,
      "byteOffset": 6780,
      "componentType": 5126,
      "count": 192,
      "max": [
        2.0453059673309326,
        -0.80000001192092896,
        5.4436073303222656
      ],
      "min": [
        -2.0546939373016357,
        -0.80000001192092896,
        1.3436071872711182
      ],
      "type": "VEC3"
    },
    {
      "bufferView": 1,
      "byteOffset": 4380,
      "componentType": 5123,
      "count": 690,
      "type": "SCALAR"
    },
    {
      "name": "POSITION",
      "bufferView": 0,
      "byteOffset": 11016,
      "componentType": 5126,
      "count": 12,
      "max": [
        1.5000522136688232,
        -0.10000000149011612,
        -5.6033802032470703
      ],
      "min": [
        -0.29994779825210571,
        -0.10000000149011612,
        -7.1956877708435059
      ],
      "type": "VEC3"
    },
    {
      "bufferView": 1,
      "byteOffset": 6726,
      "componentType": 5123,
      "count": 30,
      "type": "SCALAR"
    },
    {
      "name": "POSITION",
      "bufferView": 0,
      "byteOffset": 11160,
      "componentType": 5126,
      "count": 12,
      "max": [
        1.5000522136688232,
        0.5,
        -5.6033802032470703
      ],
      "min": [
        -0.29994779825210571,
        0.5,
        -7.1956877708435059
      ],
      "type": "VEC3"
    },
    {
      "bufferView": 1,
      "byteOffset": 6786,
      "componentType": 5123,
      "count": 30,
      "type": "SCALAR"
    },
    {
      "name": "POSITION",
      "bufferView": 0,
      "byteOffset": 11964,
      "componentType": 5126,
      "count": 9,
      "max": [
        3.773174524307251,
        -0.10000000149011612,
        -3.3956716060638428
      ],
      "min": [
        1.9731744527816772,
        -0.10000000149011612,
        -4.7572102546691895
      ],
      "type": "VEC3"
    },
    {
      "bufferView": 1,
      "byteOffset": 7062,
      "componentType": 5123,
      "count": 21,
      "type": "SCALAR"
    },
    {
      "name": "POSITION",
      "bufferView": 0,
      "byteOffset": 12072,
      "componentType": 5126,
      "count": 9,
      "max": [
        3.773174524307251,
        0.5,
        -3.3956716060638428
      ],
      "min": [
        1.9731744527816772,
        0.5,
        -4.7572102546691895
      ],
      "type": "VEC3"
    },
    {
      "bufferView": 1,
      "byteOffset": 7104,
      "componentType": 5123,
      "count": 21,
      "type": "SCALAR"
    },
    {
      "name": "POSITION",
      "bufferView": 0,
      "byteOffset": 11304,
      "componentType": 5126,
      "count": 12,
      "max": [
        3.6567566394805908,
        -0.10000000149011612,
        -0.70463287830352783
      ],
      "min": [
        -3.2289743423461914,
        -0.10000000149011612,
        -7.1797943115234375
      ],
      "type": "VEC3"
    },
    {
      "bufferView": 1,
      "byteOffset": 6846,
      "componentType": 5123,
      "count": 30,
      "type": "SCALAR"
    },
    {
      "name": "POSITION",
      "bufferView": 0,
      "byteOffset": 11448,
      "componentType": 5126,
      "count": 12,
      "max": [
        3.6567566394805908,
        0.5,
        -0.70463287830352783
      ],
      "min": [
        -3.2289743423461914,
        0.5,
        -7.1797943115234375
      ],
      "type": "VEC3"
    },
    {
      "bufferView": 1,
      "byteOffset": 6906,
      "componentType": 5123,
      "count": 30,
      "type": "SCALAR"
    },
    {
      "name": "POSITION",
      "bufferView": 0,
      "byteOffset": 11724,
      "componentType": 5126,
      "count": 10,
      "max": [
        2.0453059673309326,
        0,
        5.4436073303222656
      ],
      "min": [
        2.0453059673309326,
        -0.80000001192092896,
        1.3436071872711182
      ],
      "type": "VEC3"
    },
    {
      "bufferView": 1,
      "byteOffset": 6966,
      "componentType": 5123,
      "count": 24,
      "type": "SCALAR"
    },
    {
      "name": "POSITION",
      "bufferView": 0,
      "byteOffset": 11844,
      "componentType": 5126,
      "count": 10,
      "max": [
        -2.0546939373016357,
        0,
        5.4436073303222656
      ],
      "min": [
        -2.0546939373016357,
        -0.80000001192092896,
        1.3436071872711182
      ],
      "type": "VEC3"
    },
    {
      "bufferView": 1,
      "byteOffset": 7014,
      "componentType": 5123,
      "count": 24,
      "type": "SCALAR"
    },
    {
      "name": "POSITION",
      "bufferView": 0,
      "byteOffset": 10704,
      "componentType": 5126,
      "count": 13,
      "max": [
        0.4304749071598053,
        -0.80099999904632568,
        3.1194934844970703
      ],
      "min": [
        -0.27002507448196411,
        -0.80099999904632568,
        2.3022434711456299
      ],
      "type": "VEC3"
    },
    {
      "bufferView": 1,
      "byteOffset": 6528,
      "componentType": 5123,
      "count": 33,
      "type": "SCALAR"
    },
    {
      "name": "POSITION",
      "bufferView": 0,
      "byteOffset": 11592,
      "componentType": 5126,
      "count": 11,
      "max": [
        0.4304749071598053,
        -0.80099999904632568,
        3.8514261245727539
      ],
      "min": [
        -0.27002507448196411,
        -0.80099999904632568,
        3.1688876152038574
      ],
      "type": "VEC3"
    },
    {
      "bufferView": 1,
      "byteOffset": 6594,
      "componentType": 5123,
      "count": 33,
      "type": "SCALAR"
    },
    {
      "name": "POSITION",
      "bufferView": 0,
      "byteOffset": 9084,
      "componentType": 5126,
      "count": 54,
      "max": [
        0.44843646883964539,
        -0.80099999904632568,
        4.6462240219116211
      ],
      "min": [
        -0.28798660635948181,
        -0.80099999904632568,
        3.9187817573547363
      ],
      "type": "VEC3"
    },
    {
      "bufferView": 1,
      "byteOffset": 5760,
      "componentType": 5123,
      "count": 156,
      "type": "SCALAR"
    },
    {
      "name": "POSITION",
      "bufferView": 0,
      "byteOffset": 12288,
      "componentType": 5126,
      "count": 6,
      "max": [
        1.4729211330413818,
        -0.80099999904632568,
        2.9073965549468994
      ],
      "min": [
        0.77242112159729004,
        -0.80099999904632568,
        2.5840890407562256
      ],
      "type": "VEC3"
    },
    {
      "bufferView": 1,
      "byteOffset": 7188,
      "componentType": 5123,
      "count": 12,
      "type": "SCALAR"
    },
    {
      "name": "POSITION",
      "bufferView": 0,
      "byteOffset": 12180,
      "componentType": 5126,
      "count": 9,
      "max": [
        1.4729211330413818,
        -0.80099999904632568,
        3.4866561889648438
      ],
      "min": [
        0.77242112159729004,
        -0.80099999904632568,
        2.9567909240722656
      ],
      "type": "VEC3"
    },
    {
      "bufferView": 1,
      "byteOffset": 7146,
      "componentType": 5123,
      "count": 21,
      "type": "SCALAR"
    },
    {
      "name": "POSITION",
      "bufferView": 0,
      "byteOffset": 10860,
      "componentType": 5126,
      "count": 13,
      "max": [
        1.4729211330413818,
        -0.80099999904632568,
        4.3757524490356445
      ],
      "min": [
        0.77242112159729004,
        -0.80099999904632568,
        3.5495216846466064
      ],
      "type": "VEC3"
    },
    {
      "bufferView": 1,
      "byteOffset": 6660,
      "componentType": 5123,
      "count": 33,
      "type": "SCALAR"
    },
    {
      "name": "POSITION",
      "bufferView": 0,
      "byteOffset": 10404,
      "componentType": 5126,
      "count": 25,
      "max": [
        -1.0421727895736694,
        -0.80099999904632568,
        2.3097355365753174
      ],
      "min": [
        -1.7367434501647949,
        -0.80099999904632568,
        1.6151648759841919
      ],
      "type": "VEC3"
    },
    {
      "bufferView": 1,
      "byteOffset": 6384,
      "componentType": 5123,
      "count": 72,
      "type": "SCALAR"
    },
    {
      "name": "POSITION",
      "bufferView": 0,
      "byteOffset": 12360,
      "componentType": 5126,
      "count": 4,
      "max": [
        -0.63860386610031128,
        -0.80099999904632568,
        4.4907689094543457
      ],
      "min": [
        -0.96989637613296509,
        -0.80099999904632568,
        2.3758721351623535
      ],
      "type": "VEC3"
    },
    {
      "bufferView": 1,
      "byteOffset": 7212,
      "componentType": 5123,
      "count": 6,
      "type": "SCALAR"
    },
    {
      "name": "POSITION",
      "bufferView": 0,
      "byteOffset": 12408,
      "componentType": 5126,
      "count": 4,
      "max": [
        -1.1677324771881104,
        -0.10000000149011612,
        1.3436071872711182
      ],
      "min": [
        -1.5156693458557129,
        -0.10000000149011612,
        0.79404795169830322
      ],
      "type": "VEC3"
    },
    {
      "bufferView": 1,
      "byteOffset": 7224,
      "componentType": 5123,
      "count": 6,
      "type": "SCALAR"
    },
    {
      "name": "POSITION",
      "bufferView": 0,
      "byteOffset": 12456,
      "componentType": 5126,
      "count": 4,
      "max": [
        -0.46773251891136169,
        -0.10000000149011612,
        1.3436071872711182
      ],
      "min": [
        -0.81566935777664185,
        -0.10000000149011612,
        0.79404795169830322
      ],
      "type": "VEC3"
    },
    {
      "bufferView": 1,
      "byteOffset": 7236,
      "componentType": 5123,
      "count": 6,
      "type": "SCALAR"
    },
    {
      "name": "POSITION",
      "bufferView": 0,
      "byteOffset": 12504,
      "componentType": 5126,
      "count": 4,
      "max": [
        0.23226748406887054,
        -0.10000000149011612,
        1.3436071872711182
      ],
      "min": [
        -0.11566932499408722,
        -0.10000000149011612,
        0.79404795169830322
      ],
      "type": "VEC3"
    },
    {
      "bufferView": 1,
      "byteOffset": 7248,
      "componentType": 5123,
      "count": 6,
      "type": "SCALAR"
    },
    {
      "name": "POSITION",
      "bufferView": 0,
      "byteOffset": 12552,
      "componentType": 5126,
      "count": 4,
      "max": [
        0.93226748704910278,
        -0.10000000149011612,
        1.3436071872711182
      ],
      "min": [
        0.58433067798614502,
        -0.10000000149011612,
        0.79404795169830322
      ],
      "type": "VEC3"
    },
    {
      "bufferView": 1,
      "byteOffset": 7260,
      "componentType": 5123,
      "count": 6,
      "type": "SCALAR"
    },
    {
      "name": "POSITION",
      "bufferView": 0,
      "byteOffset": 12600,
      "componentType": 5126,
      "count": 4,
      "max": [
        1.6322674751281738,
        -0.10000000149011612,
        1.3436071872711182
      ],
      "min": [
        1.2843307256698608,
        -0.10000000149011612,
        0.79404795169830322
      ],
      "type": "VEC3"
    },
    {
      "bufferView": 1,
      "byteOffset": 7272,
      "componentType": 5123,
      "count": 6,
      "type": "SCALAR"
    },
    {
      "name": "POSITION",
      "bufferView": 0,
      "byteOffset": 12648,
      "componentType": 5126,
      "count": 4,
      "max": [
        1.6322674751281738,
        -0.10000000149011612,
        5.993166446685791
      ],
      "min": [
        1.2843307256698608,
        -0.10000000149011612,
        5.4436073303222656
      ],
      "type": "VEC3"
    },
    {
      "bufferView": 1,
      "byteOffset": 7284,
      "componentType": 5123,
      "count": 6,
      "type": "SCALAR"
    },
    {
      "name": "POSITION",
      "bufferView": 0,
      "byteOffset": 12696,
      "componentType": 5126,
      "count": 4,
      "max": [
        0.93226748704910278,
        -0.10000000149011612,
        5.993166446685791
      ],
      "min": [
        0.58433067798614502,
        -0.10000000149011612,
        5.4436073303222656
      ],
      "type": "VEC3"
    },
    {
      "bufferView": 1,
      "byteOffset": 7296,
      "componentType": 5123,
      "count": 6,
      "type": "SCALAR"
    },
    {
      "name": "POSITION",
      "bufferView": 0,
      "byteOffset": 12744,
      "componentType": 5126,
      "count": 4,
      "max": [
        0.23226748406887054,
        -0.10000000149011612,
        5.993166446685791
      ],
      "min": [
        -0.11566932499408722,
        -0.10000000149011612,
        5.4436073303222656
      ],
      "type": "VEC3"
    },
    {
      "bufferView": 1,
      "byteOffset": 7308,
      "componentType": 5123,
      "count": 6,
      "type": "SCALAR"
    },
    {
      "name": "POSITION",
      "bufferView": 0,
      "byteOffset": 12792,
      "componentType": 5126,
      "count": 4,
      "max": [
        -0.46773251891136169,
        -0.10000000149011612,
        5.993166446685791
      ],
      "min": [
        -0.81566935777664185,
        -0.10000000149011612,
        5.4436073303222656
      ],
      "type": "VEC3"
    },
    {
      "bufferView": 1,
      "byteOffset": 7320,
      "componentType": 5123,
      "count": 6,
      "type": "SCALAR"
    },
    {
      "name": "POSITION",
      "bufferView": 0,
      "byteOffset": 12840,
      "componentType": 5126,
      "count": 4,
      "max": [
        -1.1677324771881104,
        -0.10000000149011612,
        5.993166446685791
      ],
      "min": [
        -1.5156693458557129,
        -0.10000000149011612,
        5.4436073303222656
      ],
      "type": "VEC3"
    },
    {
      "bufferView": 1,
      "byteOffset": 7332,
      "componentType": 5123,
      "count": 6,
      "type": "SCALAR"
    }
  ],
  "bufferViews": [
    {
      "buffer": 0,
      "byteLength": 12888,
      "byteStride": 12,
      "target": 34962
    },
    {
      "buffer": 0,
      "byteLength": 7344,
      "byteOffset": 12888,
      "target": 34963
    }
  ],
  "buffers": [
    {
      "byteLength": 20232,
      "uri": "mag3110.bin"
    }
  ],
  "materials": [
    {
      "doubleSided": true,
      "pbrMetallicRoughness": {
        "baseColorFactor": [
          0.0431372561,
          0.0431372561,
          0.647058845,
          1
        ]
      }
    },
    {
      "doubleSided": true,
      "pbrMetallicRoughness": {
        "baseColorFactor": [
          0.125490203,
          0.125490203,
          0.125490203,
          1
        ]
      }
    },
    {
      "doubleSided": true,
      "pbrMetallicRoughness": {}
    }
  ],
  "meshes": [
    {
      "primitives": [
        {
          "attributes": {
            "POSITION": 0
          },
          "indices": 1,
          "material": 0
        },
        {
          "attributes": {
            "POSITION": 2
          },
          "indices": 3,
          "material": 1
        },
        {
          "attributes": {
            "POSITION": 4
          },
          "indices": 5,
          "material": 1
        },
        {
          "attributes": {
            "POSITION": 6
          },
          "indices": 7,
          "material": 1
        },
        {
          "attributes": {
            "POSITION": 8
          },
          "indices": 9,
          "material": 2
        },
        {
          "attributes": {
            "POSITION": 10
          },
          "indices": 11,
          "material": 2
        },
        {
          "attributes": {
            "POSITION": 12
          },
          "indices": 13,
          "material": 2
        },
        {
          "attributes": {
            "POSITION": 14
          },
          "indices": 15,
          "material": 2
        },
        {
          "attributes": {
            "POSITION": 16
          },
          "indices": 17,
          "material": 2
        },
        {
          "attributes": {
            "POSITION": 18
          },
          "indices": 19,
          "material": 2
        },
        {
          "attributes": {
            "POSITION": 20
          },
          "indices": 21,
          "material": 1
        },
        {
          "attributes": {
            "POSITION": 22
          },
          "indices": 23,
          "material": 1
        },
        {
          "attributes": {
            "POSITION": 24
          },
          "indices": 25,
          "material": 2
        },
        {
          "attributes": {
            "POSITION": 26
          },
          "indices": 27,
          "material": 2
        },
        {
          "attributes": {
            "POSITION": 28
          },
          "indices": 29,
          "material": 2
        },
        {
          "attributes": {
            "POSITION": 30
          },
          "indices": 31,
          "material": 2
        },
        {
          "attributes": {
            "POSITION": 32
          },
          "indices": 33,
          "material": 2
        },
        {
          "attributes": {
            "POSITION": 34
          },
          "indices": 35,
          "material": 2
        },
        {
          "attributes": {
            "POSITION": 36
          },
          "indices": 37,
          "material": 2
        },
        {
          "attributes": {
            "POSITION": 38
          },
          "indices": 39,
          "material": 2
        },
        {
          "attributes": {
            "POSITION": 40
          },
          "indices": 41,
          "material": 2
        },
        {
          "attributes": {
            "POSITION": 42
          },
          "indices": 43,
          "material": 2
        },
        {
          "attributes": {
            "POSITION": 44
          },
          "indices": 45,
          "material": 2
        },
        {
          "attributes": {
            "POSITION": 46
          },
          "indices": 47,
          "material": 2
        },
        {
          "attributes": {
            "POSITION": 48
          },
          "indices": 49,
          "material": 2
        },
        {
          "attributes": {
            "POSITION": 50
          },
          "indices": 51,
          "material": 2
        },
        {
          "attributes": {
            "POSITION": 52
          },
          "indices": 53,
          "material": 2
        },
        {
          "attributes": {
            "POSITION": 54
          },
          "indices": 55,
          "material": 2
        },
        {
          "attributes": {
            "POSITION": 56
          },
          "indices": 57,
          "material": 2
        },
        {
          "attributes": {
            "POSITION": 58
          },
          "indices": 59,
          "material": 2
        }
      ]
    }
  ],
  "nodes": [
    {
      "mesh": 0
    }
  ],
  "scene": 0,
  "scenes": [
    {
      "nodes": [
        0
      ]
    }
  ]
}