{
  "asset": {
    "copyright": "",
    "generator": "SharpGLTF 1.0.0",
    "version": "2.0"
  },
  "accessors": [
    {
      "name": "POSITION",
      "bufferView": 0,
      "byteOffset": 18324,
      "componentType": 5126,
      "count": 586,
      "max": [
        2.0453059673309326,
        -0.80000001192092896,
        5.4436073303222656
      ],
      "min": [
        -2.0546939373016357,
        -0.80000001192092896,
        1.3436071872711182
      ],
      "type": "VEC3"
    },
    {
      "bufferView": 1,
      "byteOffset": 10014,
      "componentType": 5123,
      "count": 1992,
      "type": "SCALAR"
    },
    {
      "name": "POSITION",
      "bufferView": 0,
      "componentType": 5126,
      "count": 1527,
      "max": [
        4.9953060150146484,
        0.5,
        8.0056905746459961
      ],
      "min": [
        -5.0046939849853516,
        -0.80099999904632568,
        -7.9943099021911621
      ],
      "type": "VEC3"
    },
    {
      "bufferView": 1,
      "componentType": 5123,
      "count": 5007,
      "type": "SCALAR"
    },
    {
      "name": "POSITION",
      "bufferView": 0,
      "byteOffset": 35520,
      "componentType": 5126,
      "count": 12,
      "max": [
        1.5000522136688232,
        -0.10000000149011612,
        -5.6033802032470703
      ],
      "min": [
        -0.29994779825210571,
        -0.10000000149011612,
        -7.1956877708435059
      ],
      "type": "VEC3"
    },
    {
      "bufferView": 1,
      "byteOffset": 18996,
      "componentType": 5123,
      "count": 30,
      "type": "SCALAR"
    },
    {
      "name": "POSITION",
      "bufferView": 0,
      "byteOffset": 35664,
      "componentType": 5126,
      "count": 12,
      "max": [
        1.5000522136688232,
        0.5,
        -5.6033802032470703
      ],
      "min": [
        -0.29994779825210571,
        0.5,
        -7.1956877708435059
      ],
      "type": "VEC3"
    },
    {
      "bufferView": 1,
      "byteOffset": 19056,
      "componentType": 5123,
      "count": 30,
      "type": "SCALAR"
    },
    {
      "name": "POSITION",
      "bufferView": 0,
      "byteOffset": 36228,
      "componentType": 5126,
      "count": 9,
      "max": [
        3.773174524307251,
        -0.10000000149011612,
        -3.3956716060638428
      ],
      "min": [
        1.9731744527816772,
        -0.10000000149011612,
        -4.7572102546691895
      ],
      "type": "VEC3"
    },
    {
      "bufferView": 1,
      "byteOffset": 19236,
      "componentType": 5123,
      "count": 21,
      "type": "SCALAR"
    },
    {
      "name": "POSITION",
      "bufferView": 0,
      "byteOffset": 36336,
      "componentType": 5126,
      "count": 9,
      "max": [
        3.773174524307251,
        0.5,
        -3.3956716060638428
      ],
      "min": [
        1.9731744527816772,
        0.5,
        -4.7572102546691895
      ],
      "type": "VEC3"
    },
    {
      "bufferView": 1,
      "byteOffset": 19278,
      "componentType": 5123,
      "count": 21,
      "type": "SCALAR"
    },
    {
      "name": "POSITION",
      "bufferView": 0,
      "byteOffset": 35808,
      "componentType": 5126,
      "count": 12,
      "max": [
        3.6567566394805908,
        -0.10000000149011612,
        -0.70463287830352783
      ],
      "min": [
        -3.2289743423461914,
        -0.10000000149011612,
        -7.1797943115234375
      ],
      "type": "VEC3"
    },
    {
      "bufferView": 1,
      "byteOffset": 19116,
      "componentType": 5123,
      "count": 30,
      "type": "SCALAR"
    },
    {
      "name": "POSITION",
      "bufferView": 0,
      "byteOffset": 35952,
      "componentType": 5126,
      "count": 12,
      "max": [
        3.6567566394805908,
        0.5,
        -0.70463287830352783
      ],
      "min": [
        -3.2289743423461914,
        0.5,
        -7.1797943115234375
      ],
      "type": "VEC3"
    },
    {
      "bufferView": 1,
      "byteOffset": 19176,
      "componentType": 5123,
      "count": 30,
      "type": "SCALAR"
    },
    {
      "name": "POSITION",
      "bufferView": 0,
      "byteOffset": 36444,
      "componentType": 5126,
      "count": 9,
      "max": [
        2.0453059673309326,
        0,
        5.4436073303222656
      ],
      "min": [
        2.0453059673309326,
        -0.80000001192092896,
        1.3436071872711182
      ],
      "type": "VEC3"
    },
    {
      "bufferView": 1,
      "byteOffset": 19320,
      "componentType": 5123,
      "count": 21,
      "type": "SCALAR"
    },
    {
      "name": "POSITION",
      "bufferView": 0,
      "byteOffset": 34788,
      "componentType": 5126,
      "count": 17,
      "max": [
        2.0453059673309326,
        0,
        5.4436073303222656
      ],
      "min": [
        -2.0546939373016357,
        -0.80000001192092896,
        5.4436073303222656
      ],
      "type": "VEC3"
    },
    {
      "bufferView": 1,
      "byteOffset": 18600,
      "componentType": 5123,
      "count": 45,
      "type": "SCALAR"
    },
    {
      "name": "POSITION",
      "bufferView": 0,
      "byteOffset": 36552,
      "componentType": 5126,
      "count": 9,
      "max": [
        -2.0546939373016357,
        0,
        5.4436073303222656
      ],
      "min": [
        -2.0546939373016357,
        -0.80000001192092896,
        1.3436071872711182
      ],
      "type": "VEC3"
    },
    {
      "bufferView": 1,
      "byteOffset": 19362,
      "componentType": 5123,
      "count": 21,
      "type": "SCALAR"
    },
    {
      "name": "POSITION",
      "bufferView": 0,
      "byteOffset": 34992,
      "componentType": 5126,
      "count": 17,
      "max": [
        2.0453059673309326,
        0,
        1.3436071872711182
      ],
      "min": [
        -2.0546939373016357,
        -0.80000001192092896,
        1.3436071872711182
      ],
      "type": "VEC3"
    },
    {
      "bufferView": 1,
      "byteOffset": 18690,
      "componentType": 5123,
      "count": 45,
      "type": "SCALAR"
    },
    {
      "name": "POSITION",
      "bufferView": 0,
      "byteOffset": 25356,
      "componentType": 5126,
      "count": 99,
      "max": [
        -0.49955743551254272,
        -0.80099999904632568,
        3.0180602073669434
      ],
      "min": [
        -0.97519844770431519,
        -0.80099999904632568,
        2.2821626663208008
      ],
      "type": "VEC3"
    },
    {
      "bufferView": 1,
      "byteOffset": 13998,
      "componentType": 5123,
      "count": 303,
      "type": "SCALAR"
    },
    {
      "name": "POSITION",
      "bufferView": 0,
      "byteOffset": 32436,
      "componentType": 5126,
      "count": 29,
      "max": [
        -0.66109585762023926,
        -0.80000001192092896,
        2.8924190998077393
      ],
      "min": [
        -0.81365996599197388,
        -0.80000001192092896,
        2.7308807373046875
      ],
      "type": "VEC3"
    },
    {
      "bufferView": 1,
      "byteOffset": 17502,
      "componentType": 5123,
      "count": 81,
      "type": "SCALAR"
    },
    {
      "name": "POSITION",
      "bufferView": 0,
      "byteOffset": 33480,
      "componentType": 5126,
      "count": 28,
      "max": [
        -0.62519842386245728,
        -0.80000001192092896,
        2.6052396297454834
      ],
      "min": [
        -0.84955739974975586,
        -0.80000001192092896,
        2.4078037738800049
      ],
      "type": "VEC3"
    },
    {
      "bufferView": 1,
      "byteOffset": 17988,
      "componentType": 5123,
      "count": 78,
      "type": "SCALAR"
    },
    {
      "name": "POSITION",
      "bufferView": 0,
      "byteOffset": 31272,
      "componentType": 5126,
      "count": 52,
      "max": [
        0.020955394953489304,
        -0.80099999904632568,
        3.0001115798950195
      ],
      "min": [
        -0.44571128487586975,
        -0.80099999904632568,
        2.2821626663208008
      ],
      "type": "VEC3"
    },
    {
      "bufferView": 1,
      "byteOffset": 16944,
      "componentType": 5123,
      "count": 150,
      "type": "SCALAR"
    },
    {
      "name": "POSITION",
      "bufferView": 0,
      "byteOffset": 28560,
      "componentType": 5126,
      "count": 58,
      "max": [
        0.57736563682556152,
        -0.80099999904632568,
        3.0180602073669434
      ],
      "min": [
        0.10172462463378906,
        -0.80099999904632568,
        2.2821626663208008
      ],
      "type": "VEC3"
    },
    {
      "bufferView": 1,
      "byteOffset": 15588,
      "componentType": 5123,
      "count": 174,
      "type": "SCALAR"
    },
    {
      "name": "POSITION",
      "bufferView": 0,
      "byteOffset": 32784,
      "componentType": 5126,
      "count": 29,
      "max": [
        0.45172461867332458,
        -0.80000001192092896,
        2.8924190998077393
      ],
      "min": [
        0.22736565768718719,
        -0.80000001192092896,
        2.4078037738800049
      ],
      "type": "VEC3"
    },
    {
      "bufferView": 1,
      "byteOffset": 17664,
      "componentType": 5123,
      "count": 81,
      "type": "SCALAR"
    },
    {
      "name": "POSITION",
      "bufferView": 0,
      "byteOffset": 31896,
      "componentType": 5126,
      "count": 45,
      "max": [
        1.0978784561157227,
        -0.80099999904632568,
        3.0180602073669434
      ],
      "min": [
        0.63121181726455688,
        -0.80099999904632568,
        2.3001115322113037
      ],
      "type": "VEC3"
    },
    {
      "bufferView": 1,
      "byteOffset": 17244,
      "componentType": 5123,
      "count": 129,
      "type": "SCALAR"
    },
    {
      "name": "POSITION",
      "bufferView": 0,
      "byteOffset": 26544,
      "componentType": 5126,
      "count": 84,
      "max": [
        -0.49919843673706055,
        -0.80099999904632568,
        5.0245399475097656
      ],
      "min": [
        -0.97517919540405273,
        -0.80099999904632568,
        4.2881169319152832
      ],
      "type": "VEC3"
    },
    {
      "bufferView": 1,
      "byteOffset": 14604,
      "componentType": 5123,
      "count": 246,
      "type": "SCALAR"
    },
    {
      "name": "POSITION",
      "bufferView": 0,
      "byteOffset": 29952,
      "componentType": 5126,
      "count": 55,
      "max": [
        0.021686164662241936,
        -0.80099999904632568,
        5.0245399475097656
      ],
      "min": [
        -0.40939074754714966,
        -0.80099999904632568,
        4.2881169319152832
      ],
      "type": "VEC3"
    },
    {
      "bufferView": 1,
      "byteOffset": 16284,
      "componentType": 5123,
      "count": 165,
      "type": "SCALAR"
    },
    {
      "name": "POSITION",
      "bufferView": 0,
      "byteOffset": 33816,
      "componentType": 5126,
      "count": 28,
      "max": [
        -0.1040446013212204,
        -0.80000001192092896,
        4.8988094329833984
      ],
      "min": [
        -0.28365999460220337,
        -0.80000001192092896,
        4.7012324333190918
      ],
      "type": "VEC3"
    },
    {
      "bufferView": 1,
      "byteOffset": 18144,
      "componentType": 5123,
      "count": 78,
      "type": "SCALAR"
    },
    {
      "name": "POSITION",
      "bufferView": 0,
      "byteOffset": 27552,
      "componentType": 5126,
      "count": 84,
      "max": [
        0.57849383354187012,
        -0.80099999904632568,
        5.0245399475097656
      ],
      "min": [
        0.10251308977603912,
        -0.80099999904632568,
        4.2881169319152832
      ],
      "type": "VEC3"
    },
    {
      "bufferView": 1,
      "byteOffset": 15096,
      "componentType": 5123,
      "count": 246,
      "type": "SCALAR"
    },
    {
      "name": "POSITION",
      "bufferView": 0,
      "byteOffset": 36096,
      "componentType": 5126,
      "count": 11,
      "max": [
        1.3104265928268433,
        -0.80099999904632568,
        5.0065784454345703
      ],
      "min": [
        0.62788808345794678,
        -0.80099999904632568,
        4.3060784339904785
      ],
      "type": "VEC3"
    },
    {
      "bufferView": 1,
      "byteOffset": 18864,
      "componentType": 5123,
      "count": 33,
      "type": "SCALAR"
    },
    {
      "name": "POSITION",
      "bufferView": 0,
      "byteOffset": 36660,
      "componentType": 5126,
      "count": 3,
      "max": [
        1.074120044708252,
        -0.80000001192092896,
        4.8186841011047363
      ],
      "min": [
        0.86419457197189331,
        -0.80000001192092896,
        4.5755014419555664
      ],
      "type": "VEC3"
    },
    {
      "bufferView": 1,
      "byteOffset": 19404,
      "componentType": 5123,
      "count": 3,
      "type": "SCALAR"
    },
    {
      "name": "POSITION",
      "bufferView": 0,
      "byteOffset": 35364,
      "componentType": 5126,
      "count": 13,
      "max": [
        -0.26117733120918274,
        -0.80099999904632568,
        4.0477313995361328
      ],
      "min": [
        -1.0784273147583008,
        -0.80099999904632568,
        3.3472311496734619
      ],
      "type": "VEC3"
    },
    {
      "bufferView": 1,
      "byteOffset": 18930,
      "componentType": 5123,
      "count": 33,
      "type": "SCALAR"
    },
    {
      "name": "POSITION",
      "bufferView": 0,
      "byteOffset": 35196,
      "componentType": 5126,
      "count": 14,
      "max": [
        0.27766883373260498,
        -0.80099999904632568,
        4.0656929016113281
      ],
      "min": [
        -0.20729272067546844,
        -0.80099999904632568,
        3.3472311496734619
      ],
      "type": "VEC3"
    },
    {
      "bufferView": 1,
      "byteOffset": 18780,
      "componentType": 5123,
      "count": 42,
      "type": "SCALAR"
    },
    {
      "name": "POSITION",
      "bufferView": 0,
      "byteOffset": 36696,
      "componentType": 5126,
      "count": 3,
      "max": [
        0.089072667062282562,
        -0.80000001192092896,
        3.8460848331451416
      ],
      "min": [
        -0.065985925495624542,
        -0.80000001192092896,
        3.6076734066009521
      ],
      "type": "VEC3"
    },
    {
      "bufferView": 1,
      "byteOffset": 19410,
      "componentType": 5123,
      "count": 3,
      "type": "SCALAR"
    },
    {
      "name": "POSITION",
      "bufferView": 0,
      "byteOffset": 30612,
      "componentType": 5126,
      "count": 55,
      "max": [
        0.79855340719223022,
        -0.80099999904632568,
        4.0656929016113281
      ],
      "min": [
        0.36747652292251587,
        -0.80099999904632568,
        3.3292696475982666
      ],
      "type": "VEC3"
    },
    {
      "bufferView": 1,
      "byteOffset": 16614,
      "componentType": 5123,
      "count": 165,
      "type": "SCALAR"
    },
    {
      "name": "POSITION",
      "bufferView": 0,
      "byteOffset": 34152,
      "componentType": 5126,
      "count": 28,
      "max": [
        0.67282265424728394,
        -0.80000001192092896,
        3.9399619102478027
      ],
      "min": [
        0.49320727586746216,
        -0.80000001192092896,
        3.7423851490020752
      ],
      "type": "VEC3"
    },
    {
      "bufferView": 1,
      "byteOffset": 18300,
      "componentType": 5123,
      "count": 78,
      "type": "SCALAR"
    },
    {
      "name": "POSITION",
      "bufferView": 0,
      "byteOffset": 29256,
      "componentType": 5126,
      "count": 58,
      "max": [
        1.3553611040115356,
        -0.80099999904632568,
        4.0656929016113281
      ],
      "min": [
        0.87938034534454346,
        -0.80099999904632568,
        3.3292696475982666
      ],
      "type": "VEC3"
    },
    {
      "bufferView": 1,
      "byteOffset": 15936,
      "componentType": 5123,
      "count": 174,
      "type": "SCALAR"
    },
    {
      "name": "POSITION",
      "bufferView": 0,
      "byteOffset": 33132,
      "componentType": 5126,
      "count": 29,
      "max": [
        1.2296303510665894,
        -0.80000001192092896,
        3.9399619102478027
      ],
      "min": [
        1.0051110982894897,
        -0.80000001192092896,
        3.4550004005432129
      ],
      "type": "VEC3"
    },
    {
      "bufferView": 1,
      "byteOffset": 17826,
      "componentType": 5123,
      "count": 81,
      "type": "SCALAR"
    },
    {
      "name": "POSITION",
      "bufferView": 0,
      "byteOffset": 34488,
      "componentType": 5126,
      "count": 25,
      "max": [
        -1.000059962272644,
        -0.80099999904632568,
        2.3463943004608154
      ],
      "min": [
        -1.6946307420730591,
        -0.80099999904632568,
        1.6518235206604004
      ],
      "type": "VEC3"
    },
    {
      "bufferView": 1,
      "byteOffset": 18456,
      "componentType": 5123,
      "count": 72,
      "type": "SCALAR"
    }
  ],
  "bufferViews": [
    {
      "buffer": 0,
      "byteLength": 36732,
      "byteStride": 12,
      "target": 34962
    },
    {
      "buffer": 0,
      "byteLength": 19416,
      "byteOffset": 36732,
      "target": 34963
    }
  ],
  "buffers": [
    {
      "byteLength": 56148,
      "uri": "mlx90393.bin"
    }
  ],
  "materials": [
    {
      "doubleSided": true,
      "pbrMetallicRoughness": {
        "baseColorFactor": [
          0.125490203,
          0.125490203,
          0.125490203,
          1
        ]
      }
    },
    {
      "doubleSided": true,
      "pbrMetallicRoughness": {
        "baseColorFactor": [
          0.0431372561,
          0.0431372561,
          0.647058845,
          1
        ]
      }
    },
    {
      "doubleSided": true,
      "pbrMetallicRoughness": {}
    }
  ],
  "meshes": [
    {
      "primitives": [
        {
          "attributes": {
            "POSITION": 0
          },
          "indices": 1,
          "material": 0
        },
        {
          "attributes": {
            "POSITION": 2
          },
          "indices": 3,
          "material": 1
        },
        {
          "attributes": {
            "POSITION": 4
          },
          "indices": 5,
          "material": 2
        },
        {
          "attributes": {
            "POSITION": 6
          },
          "indices": 7,
          "material": 2
        },
        {
          "attributes": {
            "POSITION": 8
          },
          "indices": 9,
          "material": 2
        },
        {
          "attributes": {
            "POSITION": 10
          },
          "indices": 11,
          "material": 2
        },
        {
          "attributes": {
            "POSITION": 12
          },
          "indices": 13,
          "material": 2
        },
        {
          "attributes": {
            "POSITION": 14
          },
          "indices": 15,
          "material": 2
        },
        {
          "attributes": {
            "POSITION": 16
          },
          "indices": 17,
          "material": 0
        },
        {
          "attributes": {
            "POSITION": 18
          },
          "indices": 19,
          "material": 0
        },
        {
          "attributes": {
            "POSITION": 20
          },
          "indices": 21,
          "material": 0
        },
        {
          "attributes": {
            "POSITION": 22
          },
          "indices": 23,
          "material": 0
        },
        {
          "attributes": {
            "POSITION": 24
          },
          "indices": 25,
          "material": 2
        },
        {
          "attributes": {
            "POSITION": 26
          },
          "indices": 27,
          "material": 0
        },
        {
          "attributes": {
            "POSITION": 28
          },
          "indices": 29,
          "material": 0
        },
        {
          "attributes": {
            "POSITION": 30
          },
          "indices": 31,
          "material": 2
        },
        {
          "attributes": {
            "POSITION": 32
          },
          "indices": 33,
          "material": 2
        },
        {
          "attributes": {
            "POSITION": 34
          },
          "indices": 35,
          "material": 0
        },
        {
          "attributes": {
            "POSITION": 36
          },
          "indices": 37,
          "material": 2
        },
        {
          "attributes": {
            "POSITION": 38
          },
          "indices": 39,
          "material": 2
        },
        {
          "attributes": {
            "POSITION": 40
          },
          "indices": 41,
          "material": 2
        },
        {
          "attributes": {
            "POSITION": 42
          },
          "indices": 43,
          "material": 0
        },
        {
          "attributes": {
            "POSITION": 44
          },
          "indices": 45,
          "material": 2
        },
        {
          "attributes": {
            "POSITION": 46
          },
          "indices": 47,
          "material": 2
        },
        {
          "attributes": {
            "POSITION": 48
          },
          "indices": 49,
          "material": 0
        },
        {
          "attributes": {
            "POSITION": 50
          },
          "indices": 51,
          "material": 2
        },
        {
          "attributes": {
            "POSITION": 52
          },
          "indices": 53,
          "material": 2
        },
        {
          "attributes": {
            "POSITION": 54
          },
          "indices": 55,
          "material": 0
        },
        {
          "attributes": {
            "POSITION": 56
          },
          "indices": 57,
          "material": 2
        },
        {
          "attributes": {
            "POSITION": 58
          },
          "indices": 59,
          "material": 0
        },
        {
          "attributes": {
            "POSITION": 60
          },
          "indices": 61,
          "material": 2
        },
        {
          "attributes": {
            "POSITION": 62
          },
          "indices": 63,
          "material": 0
        },
        {
          "attributes": {
            "POSITION": 64
          },
          "indices": 65,
          "material": 2
        }
      ]
    }
  ],
  "nodes": [
    {
      "mesh": 0
    }
  ],
  "scene": 0,
  "scenes": [
    {
      "nodes": [
        0
      ]
    }
  ]
}