{"asset":{"version":"2.0","generator":"THREE.GLTFExporter"},"scenes":[{"nodes":[0],"name":"AuxScene"}],"scene":0,"nodes":[{"mesh":0}],"bufferViews":[{"buffer":0,"byteOffset":0,"byteLength":642240,"target":34962,"byteStride":12},{"buffer":0,"byteOffset":642240,"byteLength":642240,"target":34962,"byteStride":12},{"buffer":0,"byteOffset":1284480,"byteLength":576,"target":34963},{"buffer":0,"byteOffset":1285056,"byteLength":45576,"target":34963},{"buffer":0,"byteOffset":1330632,"byteLength":2112,"target":34963},{"buffer":0,"byteOffset":1332744,"byteLength":660,"target":34963},{"buffer":0,"byteOffset":1333404,"byteLength":7512,"target":34963},{"buffer":0,"byteOffset":1340916,"byteLength":4068,"target":34963},{"buffer":0,"byteOffset":1344984,"byteLength":660,"target":34963},{"buffer":0,"byteOffset":1345644,"byteLength":15804,"target":34963},{"buffer":0,"byteOffset":1361448,"byteLength":288,"target":34963},{"buffer":0,"byteOffset":1361736,"byteLength":15804,"target":34963},{"buffer":0,"byteOffset":1377540,"byteLength":6180,"target":34963},{"buffer":0,"byteOffset":1383720,"byteLength":7512,"target":34963},{"buffer":0,"byteOffset":1391232,"byteLength":288,"target":34963}],"buffers":[{"byteLength":1391520,"uri":"data:application/octet-stream;base64,"}],"accessors":[{"bufferView":0,"componentType":5126,"count":53520,"max":[5.279630184173584,1.1536500453948975,4.034629821777344],"min":[-5.269780158996582,-0.9683799743652344,-3.469820022583008],"type":"VEC3"},{"bufferView":1,"componentType":5126,"count":53520,"max":[1,1,1],"min":[-1,-1,-1],"type":"VEC3"},{"bufferView":2,"componentType":5123,"count":288,"max":[287],"min":[0],"type":"SCALAR"},{"bufferView":3,"componentType":5123,"count":22788,"max":[23075],"min":[288],"type":"SCALAR"},{"bufferView":4,"componentType":5123,"count":1056,"max":[24131],"min":[23076],"type":"SCALAR"},{"bufferView":5,"componentType":5123,"count":330,"max":[24461],"min":[24132],"type":"SCALAR"},{"bufferView":6,"componentType":5123,"count":3756,"max":[28217],"min":[24462],"type":"SCALAR"},{"bufferView":7,"componentType":5123,"count":2034,"max":[30251],"min":[28218],"type":"SCALAR"},{"bufferView":8,"componentType":5123,"count":330,"max":[30581],"min":[30252],"type":"SCALAR"},{"bufferView":9,"componentType":5123,"count":7902,"max":[38483],"min":[30582],"type":"SCALAR"},{"bufferView":10,"componentType":5123,"count":144,"max":[38627],"min":[38484],"type":"SCALAR"},{"bufferView":11,"componentType":5123,"count":7902,"max":[46529],"min":[38628],"type":"SCALAR"},{"bufferView":12,"componentType":5123,"count":3090,"max":[49619],"min":[46530],"type":"SCALAR"},{"bufferView":13,"componentType":5123,"count":3756,"max":[53375],"min":[49620],"type":"SCALAR"},{"bufferView":14,"componentType":5123,"count":144,"max":[53519],"min":[53376],"type":"SCALAR"}],"materials":[{"pbrMetallicRoughness":{"baseColorFactor":[0.0784313725490196,0.3568627450980392,0.8,1],"metallicFactor":0.5,"roughnessFactor":0.5},"doubleSided":true,"name":"Rudder"},{"pbrMetallicRoughness":{"baseColorFactor":[0.5529411764705883,0.596078431372549,0.6784313725490196,1],"metallicFactor":0.5,"roughnessFactor":0.5},"doubleSided":true,"name":"Foam"},{"pbrMetallicRoughness":{"baseColorFactor":[0,0,0,1],"metallicFactor":0.5,"roughnessFactor":0.5},"doubleSided":true,"name":"Motors"},{"pbrMetallicRoughness":{"baseColorFactor":[0,0.8,0,1],"metallicFactor":0.5,"roughnessFactor":0.5},"doubleSided":true,"name":"Aileron_R"},{"pbrMetallicRoughness":{"baseColorFactor":[0.4,0.4,0.4,1],"metallicFactor":0.5,"roughnessFactor":0.5},"doubleSided":true,"name":"Prop"},{"pbrMetallicRoughness":{"baseColorFactor":[0.8,0,0,1],"metallicFactor":0.5,"roughnessFactor":0.5},"doubleSided":true,"name":"Aieron_L"},{"pbrMetallicRoughness":{"baseColorFactor":[0.5568627450980392,0.5568627450980392,0.5568627450980392,1],"metallicFactor":0.5,"roughnessFactor":0.5},"doubleSided":true,"name":"Nascelles"},{"pbrMetallicRoughness":{"baseColorFactor":[0.8,0.2,0,1],"metallicFactor":0.5,"roughnessFactor":0.5},"doubleSided":true,"name":"Elevator"}],"meshes":[{"primitives":[{"mode":4,"attributes":{"POSITION":0,"NORMAL":1},"indices":2,"material":0},{"mode":4,"attributes":{"POSITION":0,"NORMAL":1},"indices":3,"material":1},{"mode":4,"attributes":{"POSITION":0,"NORMAL":1},"indices":4,"material":2},{"mode":4,"attributes":{"POSITION":0,"NORMAL":1},"indices":5,"material":3},{"mode":4,"attributes":{"POSITION":0,"NORMAL":1},"indices":6,"material":4},{"mode":4,"attributes":{"POSITION":0,"NORMAL":1},"indices":7,"material":2},{"mode":4,"attributes":{"POSITION":0,"NORMAL":1},"indices":8,"material":5},{"mode":4,"attributes":{"POSITION":0,"NORMAL":1},"indices":9,"material":6},{"mode":4,"attributes":{"POSITION":0,"NORMAL":1},"indices":10,"material":7},{"mode":4,"attributes":{"POSITION":0,"NORMAL":1},"indices":11,"material":6},{"mode":4,"attributes":{"POSITION":0,"NORMAL":1},"indices":12,"material":2},{"mode":4,"attributes":{"POSITION":0,"NORMAL":1},"indices":13,"material":4},{"mode":4,"attributes":{"POSITION":0,"NORMAL":1},"indices":14,"material":7}]}]}