{
    "asset" : {
        "generator" : "Khronos glTF Blender I/O v1.7.33",
        "version" : "2.0"
    },
    "scene" : 0,
    "scenes" : [
        {
            "name" : "Scene",
            "nodes" : [
                0
            ]
        }
    ],
    "nodes" : [
        {
            "mesh" : 0,
            "name" : "obj_0",
            "rotation" : [
                -1,
                0,
                0,
                5.205485535952903e-07
            ],
            "translation" : [
                0,
                2.0608042632375145e-06,
                0
            ]
        }
    ],
    "materials" : [
        {
            "doubleSided" : true,
            "name" : "color_6175897",
            "pbrMetallicRoughness" : {
                "baseColorFactor" : [
                    0.3686274588108063,
                    0.23529411852359772,
                    0.6000000238418579,
                    1
                ],
                "metallicFactor" : 0
            }
        },
        {
            "doubleSided" : true,
            "name" : "color_11709394",
            "pbrMetallicRoughness" : {
                "baseColorFactor" : [
                    0.6980392336845398,
                    0.6705882549285889,
                    0.8235294222831726,
                    1
                ],
                "metallicFactor" : 0
            }
        },
        {
            "doubleSided" : true,
            "name" : "color_15098113",
            "pbrMetallicRoughness" : {
                "baseColorFactor" : [
                    0.9019607901573181,
                    0.3803921639919281,
                    0.003921568859368563,
                    1
                ],
                "metallicFactor" : 0
            }
        },
        {
            "doubleSided" : true,
            "name" : "color_16627811",
            "pbrMetallicRoughness" : {
                "baseColorFactor" : [
                    0.9921568632125854,
                    0.7215686440467834,
                    0.38823530077934265,
                    1
                ],
                "metallicFactor" : 0
            }
        }
    ],
    "meshes" : [
        {
            "name" : "obj_0",
            "primitives" : [
                {
                    "attributes" : {
                        "POSITION" : 0,
                        "NORMAL" : 1
                    },
                    "indices" : 2,
                    "material" : 0
                },
                {
                    "attributes" : {
                        "POSITION" : 3,
                        "NORMAL" : 4
                    },
                    "indices" : 5,
                    "material" : 1
                },
                {
                    "attributes" : {
                        "POSITION" : 6,
                        "NORMAL" : 7
                    },
                    "indices" : 8,
                    "material" : 2
                },
                {
                    "attributes" : {
                        "POSITION" : 9,
                        "NORMAL" : 10
                    },
                    "indices" : 11,
                    "material" : 3
                }
            ]
        }
    ],
    "accessors" : [
        {
            "bufferView" : 0,
            "componentType" : 5126,
            "count" : 250,
            "max" : [
                25.42595863342285,
                3.2819435596466064,
                2.8653955459594727
            ],
            "min" : [
                2.4142580032348633,
                -5.718056678771973,
                -6.134604454040527
            ],
            "type" : "VEC3"
        },
        {
            "bufferView" : 1,
            "componentType" : 5126,
            "count" : 250,
            "type" : "VEC3"
        },
        {
            "bufferView" : 2,
            "componentType" : 5123,
            "count" : 1053,
            "type" : "SCALAR"
        },
        {
            "bufferView" : 3,
            "componentType" : 5126,
            "count" : 1404,
            "max" : [
                3.0021581649780273,
                2.613443613052368,
                3.0324954986572266
            ],
            "min" : [
                -6.574041843414307,
                -6.718056678771973,
                -6.634604454040527
            ],
            "type" : "VEC3"
        },
        {
            "bufferView" : 4,
            "componentType" : 5126,
            "count" : 1404,
            "type" : "VEC3"
        },
        {
            "bufferView" : 5,
            "componentType" : 5123,
            "count" : 6753,
            "type" : "SCALAR"
        },
        {
            "bufferView" : 6,
            "componentType" : 5126,
            "count" : 382,
            "max" : [
                2.9259581565856934,
                25.206941604614258,
                2.8653955459594727
            ],
            "min" : [
                -6.074041843414307,
                2.608043909072876,
                -6.134604454040527
            ],
            "type" : "VEC3"
        },
        {
            "bufferView" : 7,
            "componentType" : 5126,
            "count" : 382,
            "type" : "VEC3"
        },
        {
            "bufferView" : 8,
            "componentType" : 5123,
            "count" : 1473,
            "type" : "SCALAR"
        },
        {
            "bufferView" : 9,
            "componentType" : 5126,
            "count" : 260,
            "max" : [
                3.4259581565856934,
                3.2819435596466064,
                25.865394592285156
            ],
            "min" : [
                -5.574041843414307,
                -5.718056678771973,
                2.1814956665039062
            ],
            "type" : "VEC3"
        },
        {
            "bufferView" : 10,
            "componentType" : 5126,
            "count" : 260,
            "type" : "VEC3"
        },
        {
            "bufferView" : 11,
            "componentType" : 5123,
            "count" : 1089,
            "type" : "SCALAR"
        }
    ],
    "bufferViews" : [
        {
            "buffer" : 0,
            "byteLength" : 3000,
            "byteOffset" : 0
        },
        {
            "buffer" : 0,
            "byteLength" : 3000,
            "byteOffset" : 3000
        },
        {
            "buffer" : 0,
            "byteLength" : 2106,
            "byteOffset" : 6000
        },
        {
            "buffer" : 0,
            "byteLength" : 16848,
            "byteOffset" : 8108
        },
        {
            "buffer" : 0,
            "byteLength" : 16848,
            "byteOffset" : 24956
        },
        {
            "buffer" : 0,
            "byteLength" : 13506,
            "byteOffset" : 41804
        },
        {
            "buffer" : 0,
            "byteLength" : 4584,
            "byteOffset" : 55312
        },
        {
            "buffer" : 0,
            "byteLength" : 4584,
            "byteOffset" : 59896
        },
        {
            "buffer" : 0,
            "byteLength" : 2946,
            "byteOffset" : 64480
        },
        {
            "buffer" : 0,
            "byteLength" : 3120,
            "byteOffset" : 67428
        },
        {
            "buffer" : 0,
            "byteLength" : 3120,
            "byteOffset" : 70548
        },
        {
            "buffer" : 0,
            "byteLength" : 2178,
            "byteOffset" : 73668
        }
    ],
    "buffers" : [
        {
            "byteLength" : 75848,
            "uri" : "data:application/octet-stream;base64,"
        }
    ]
}
