{"asset":{"version":"2.0","generator":"THREE.GLTFExporter"},"scenes":[{"nodes":[0],"name":"AuxScene"}],"scene":0,"nodes":[{"mesh":0}],"bufferViews":[{"buffer":0,"byteOffset":0,"byteLength":528480,"target":34962,"byteStride":12},{"buffer":0,"byteOffset":528480,"byteLength":528480,"target":34962,"byteStride":12},{"buffer":0,"byteOffset":1056960,"byteLength":96,"target":34963},{"buffer":0,"byteOffset":1057056,"byteLength":96,"target":34963},{"buffer":0,"byteOffset":1057152,"byteLength":3336,"target":34963},{"buffer":0,"byteOffset":1060488,"byteLength":3948,"target":34963},{"buffer":0,"byteOffset":1064436,"byteLength":7512,"target":34963},{"buffer":0,"byteOffset":1071948,"byteLength":3984,"target":34963},{"buffer":0,"byteOffset":1075932,"byteLength":46260,"target":34963},{"buffer":0,"byteOffset":1122192,"byteLength":3948,"target":34963},{"buffer":0,"byteOffset":1126140,"byteLength":2112,"target":34963},{"buffer":0,"byteOffset":1128252,"byteLength":984,"target":34963},{"buffer":0,"byteOffset":1129236,"byteLength":3948,"target":34963},{"buffer":0,"byteOffset":1133184,"byteLength":3588,"target":34963},{"buffer":0,"byteOffset":1136772,"byteLength":984,"target":34963},{"buffer":0,"byteOffset":1137756,"byteLength":168,"target":34963},{"buffer":0,"byteOffset":1137924,"byteLength":432,"target":34963},{"buffer":0,"byteOffset":1138356,"byteLength":3948,"target":34963},{"buffer":0,"byteOffset":1142304,"byteLength":648,"target":34963},{"buffer":0,"byteOffset":1142952,"byteLength":2088,"target":34963}],"buffers":[{"byteLength":1145040,"uri":"data:application/octet-stream;base64,"}],"accessors":[{"bufferView":0,"componentType":5126,"count":44040,"max":[5.301469802856445,1.3351500034332275,5.219130039215088],"min":[-5.301469802856445,-0.8010749816894531,-5.130090236663818],"type":"VEC3"},{"bufferView":1,"componentType":5126,"count":44040,"max":[1,1,1],"min":[-1,-1,-1],"type":"VEC3"},{"bufferView":2,"componentType":5123,"count":48,"max":[47],"min":[0],"type":"SCALAR"},{"bufferView":3,"componentType":5123,"count":48,"max":[95],"min":[48],"type":"SCALAR"},{"bufferView":4,"componentType":5123,"count":1668,"max":[1763],"min":[96],"type":"SCALAR"},{"bufferView":5,"componentType":5123,"count":1974,"max":[3737],"min":[1764],"type":"SCALAR"},{"bufferView":6,"componentType":5123,"count":3756,"max":[7493],"min":[3738],"type":"SCALAR"},{"bufferView":7,"componentType":5123,"count":1992,"max":[9485],"min":[7494],"type":"SCALAR"},{"bufferView":8,"componentType":5123,"count":23130,"max":[32615],"min":[9486],"type":"SCALAR"},{"bufferView":9,"componentType":5123,"count":1974,"max":[34589],"min":[32616],"type":"SCALAR"},{"bufferView":10,"componentType":5123,"count":1056,"max":[35645],"min":[34590],"type":"SCALAR"},{"bufferView":11,"componentType":5123,"count":492,"max":[36137],"min":[35646],"type":"SCALAR"},{"bufferView":12,"componentType":5123,"count":1974,"max":[38111],"min":[36138],"type":"SCALAR"},{"bufferView":13,"componentType":5123,"count":1794,"max":[39905],"min":[38112],"type":"SCALAR"},{"bufferView":14,"componentType":5123,"count":492,"max":[40397],"min":[39906],"type":"SCALAR"},{"bufferView":15,"componentType":5123,"count":84,"max":[40481],"min":[40398],"type":"SCALAR"},{"bufferView":16,"componentType":5123,"count":216,"max":[40697],"min":[40482],"type":"SCALAR"},{"bufferView":17,"componentType":5123,"count":1974,"max":[42671],"min":[40698],"type":"SCALAR"},{"bufferView":18,"componentType":5123,"count":324,"max":[42995],"min":[42672],"type":"SCALAR"},{"bufferView":19,"componentType":5123,"count":1044,"max":[44039],"min":[42996],"type":"SCALAR"}],"materials":[{"pbrMetallicRoughness":{"baseColorFactor":[0.8,0,0,1],"metallicFactor":0.5,"roughnessFactor":0.5},"doubleSided":true,"name":"Aileron_L"},{"pbrMetallicRoughness":{"baseColorFactor":[0,0.8,0,1],"metallicFactor":0.5,"roughnessFactor":0.5},"doubleSided":true,"name":"Aileron_R"},{"pbrMetallicRoughness":{"baseColorFactor":[0.00784313725490196,0.00784313725490196,0.00784313725490196,1],"metallicFactor":0.5,"roughnessFactor":0.5},"doubleSided":true,"name":"Booms"},{"pbrMetallicRoughness":{"baseColorFactor":[0.6392156862745098,0.6392156862745098,0.6392156862745098,1],"metallicFactor":0.5,"roughnessFactor":0.5},"doubleSided":true,"name":"Aluminum_-_Satin"},{"pbrMetallicRoughness":{"baseColorFactor":[0.4,0.4,0.4,1],"metallicFactor":0.5,"roughnessFactor":0.5},"doubleSided":true,"name":"Prop"},{"pbrMetallicRoughness":{"baseColorFactor":[0.2549019607843137,0.2549019607843137,0.2549019607843137,1],"metallicFactor":0.5,"roughnessFactor":0.5},"doubleSided":true,"name":"Drak_Foam"},{"pbrMetallicRoughness":{"baseColorFactor":[0.6392156862745098,0.6392156862745098,0.6392156862745098,1],"metallicFactor":0.5,"roughnessFactor":0.5},"doubleSided":true,"name":"Motors"},{"pbrMetallicRoughness":{"baseColorFactor":[0.8,0,0,1],"metallicFactor":0.5,"roughnessFactor":0.5},"doubleSided":true,"name":"Aluminum_-_Anodized_Rough_(Red)"},{"pbrMetallicRoughness":{"baseColorFactor":[0.8,0.2,0,1],"metallicFactor":0.5,"roughnessFactor":0.5},"doubleSided":true,"name":"Elevator"}],"meshes":[{"primitives":[{"mode":4,"attributes":{"POSITION":0,"NORMAL":1},"indices":2,"material":0},{"mode":4,"attributes":{"POSITION":0,"NORMAL":1},"indices":3,"material":1},{"mode":4,"attributes":{"POSITION":0,"NORMAL":1},"indices":4,"material":2},{"mode":4,"attributes":{"POSITION":0,"NORMAL":1},"indices":5,"material":3},{"mode":4,"attributes":{"POSITION":0,"NORMAL":1},"indices":6,"material":4},{"mode":4,"attributes":{"POSITION":0,"NORMAL":1},"indices":7,"material":3},{"mode":4,"attributes":{"POSITION":0,"NORMAL":1},"indices":8,"material":5},{"mode":4,"attributes":{"POSITION":0,"NORMAL":1},"indices":9,"material":3},{"mode":4,"attributes":{"POSITION":0,"NORMAL":1},"indices":10,"material":6},{"mode":4,"attributes":{"POSITION":0,"NORMAL":1},"indices":11,"material":2},{"mode":4,"attributes":{"POSITION":0,"NORMAL":1},"indices":12,"material":3},{"mode":4,"attributes":{"POSITION":0,"NORMAL":1},"indices":13,"material":7},{"mode":4,"attributes":{"POSITION":0,"NORMAL":1},"indices":14,"material":2},{"mode":4,"attributes":{"POSITION":0,"NORMAL":1},"indices":15,"material":3},{"mode":4,"attributes":{"POSITION":0,"NORMAL":1},"indices":16,"material":2},{"mode":4,"attributes":{"POSITION":0,"NORMAL":1},"indices":17,"material":3},{"mode":4,"attributes":{"POSITION":0,"NORMAL":1},"indices":18,"material":8},{"mode":4,"attributes":{"POSITION":0,"NORMAL":1},"indices":19,"material":5}]}]}